G04*
G04 #@! TF.GenerationSoftware,Altium Limited,Altium Designer,24.9.1 (31)*
G04*
G04 Layer_Physical_Order=1*
G04 Layer_Color=255*
%FSLAX44Y44*%
%MOMM*%
G71*
G04*
G04 #@! TF.SameCoordinates,6097D45C-0DD2-4A5D-A4EA-BA684B689CB3*
G04*
G04*
G04 #@! TF.FilePolarity,Positive*
G04*
G01*
G75*
G04:AMPARAMS|DCode=13|XSize=1.1mm|YSize=0.6mm|CornerRadius=0.05mm|HoleSize=0mm|Usage=FLASHONLY|Rotation=270.000|XOffset=0mm|YOffset=0mm|HoleType=Round|Shape=RoundedRectangle|*
%AMROUNDEDRECTD13*
21,1,1.1000,0.5000,0,0,270.0*
21,1,1.0000,0.6000,0,0,270.0*
1,1,0.1000,-0.2500,-0.5000*
1,1,0.1000,-0.2500,0.5000*
1,1,0.1000,0.2500,0.5000*
1,1,0.1000,0.2500,-0.5000*
%
%ADD13ROUNDEDRECTD13*%
G04:AMPARAMS|DCode=14|XSize=0.975mm|YSize=1.7mm|CornerRadius=0.05mm|HoleSize=0mm|Usage=FLASHONLY|Rotation=270.000|XOffset=0mm|YOffset=0mm|HoleType=Round|Shape=RoundedRectangle|*
%AMROUNDEDRECTD14*
21,1,0.9750,1.6000,0,0,270.0*
21,1,0.8750,1.7000,0,0,270.0*
1,1,0.1000,-0.8000,-0.4375*
1,1,0.1000,-0.8000,0.4375*
1,1,0.1000,0.8000,0.4375*
1,1,0.1000,0.8000,-0.4375*
%
%ADD14ROUNDEDRECTD14*%
%ADD15C,0.2000*%
G04:AMPARAMS|DCode=16|XSize=0.65mm|YSize=0.6mm|CornerRadius=0.15mm|HoleSize=0mm|Usage=FLASHONLY|Rotation=90.000|XOffset=0mm|YOffset=0mm|HoleType=Round|Shape=RoundedRectangle|*
%AMROUNDEDRECTD16*
21,1,0.6500,0.3000,0,0,90.0*
21,1,0.3500,0.6000,0,0,90.0*
1,1,0.3000,0.1500,0.1750*
1,1,0.3000,0.1500,-0.1750*
1,1,0.3000,-0.1500,-0.1750*
1,1,0.3000,-0.1500,0.1750*
%
%ADD16ROUNDEDRECTD16*%
G04:AMPARAMS|DCode=17|XSize=0.65mm|YSize=0.6mm|CornerRadius=0.15mm|HoleSize=0mm|Usage=FLASHONLY|Rotation=180.000|XOffset=0mm|YOffset=0mm|HoleType=Round|Shape=RoundedRectangle|*
%AMROUNDEDRECTD17*
21,1,0.6500,0.3000,0,0,180.0*
21,1,0.3500,0.6000,0,0,180.0*
1,1,0.3000,-0.1750,0.1500*
1,1,0.3000,0.1750,0.1500*
1,1,0.3000,0.1750,-0.1500*
1,1,0.3000,-0.1750,-0.1500*
%
%ADD17ROUNDEDRECTD17*%
%ADD18R,1.4478X1.4478*%
%ADD19R,0.1778X0.6096*%
%ADD20R,0.6096X0.1778*%
%ADD21R,1.4478X1.4478*%
G04:AMPARAMS|DCode=22|XSize=1.1mm|YSize=1mm|CornerRadius=0.25mm|HoleSize=0mm|Usage=FLASHONLY|Rotation=180.000|XOffset=0mm|YOffset=0mm|HoleType=Round|Shape=RoundedRectangle|*
%AMROUNDEDRECTD22*
21,1,1.1000,0.5000,0,0,180.0*
21,1,0.6000,1.0000,0,0,180.0*
1,1,0.5000,-0.3000,0.2500*
1,1,0.5000,0.3000,0.2500*
1,1,0.5000,0.3000,-0.2500*
1,1,0.5000,-0.3000,-0.2500*
%
%ADD22ROUNDEDRECTD22*%
G04:AMPARAMS|DCode=23|XSize=0.95mm|YSize=0.85mm|CornerRadius=0.2125mm|HoleSize=0mm|Usage=FLASHONLY|Rotation=180.000|XOffset=0mm|YOffset=0mm|HoleType=Round|Shape=RoundedRectangle|*
%AMROUNDEDRECTD23*
21,1,0.9500,0.4250,0,0,180.0*
21,1,0.5250,0.8500,0,0,180.0*
1,1,0.4250,-0.2625,0.2125*
1,1,0.4250,0.2625,0.2125*
1,1,0.4250,0.2625,-0.2125*
1,1,0.4250,-0.2625,-0.2125*
%
%ADD23ROUNDEDRECTD23*%
G04:AMPARAMS|DCode=24|XSize=1.1mm|YSize=1mm|CornerRadius=0.25mm|HoleSize=0mm|Usage=FLASHONLY|Rotation=90.000|XOffset=0mm|YOffset=0mm|HoleType=Round|Shape=RoundedRectangle|*
%AMROUNDEDRECTD24*
21,1,1.1000,0.5000,0,0,90.0*
21,1,0.6000,1.0000,0,0,90.0*
1,1,0.5000,0.2500,0.3000*
1,1,0.5000,0.2500,-0.3000*
1,1,0.5000,-0.2500,-0.3000*
1,1,0.5000,-0.2500,0.3000*
%
%ADD24ROUNDEDRECTD24*%
%ADD25R,1.1000X0.6000*%
G04:AMPARAMS|DCode=26|XSize=1.5mm|YSize=0.4mm|CornerRadius=0.1mm|HoleSize=0mm|Usage=FLASHONLY|Rotation=0.000|XOffset=0mm|YOffset=0mm|HoleType=Round|Shape=RoundedRectangle|*
%AMROUNDEDRECTD26*
21,1,1.5000,0.2000,0,0,0.0*
21,1,1.3000,0.4000,0,0,0.0*
1,1,0.2000,0.6500,-0.1000*
1,1,0.2000,-0.6500,-0.1000*
1,1,0.2000,-0.6500,0.1000*
1,1,0.2000,0.6500,0.1000*
%
%ADD26ROUNDEDRECTD26*%
G04:AMPARAMS|DCode=27|XSize=0.95mm|YSize=0.85mm|CornerRadius=0.2125mm|HoleSize=0mm|Usage=FLASHONLY|Rotation=270.000|XOffset=0mm|YOffset=0mm|HoleType=Round|Shape=RoundedRectangle|*
%AMROUNDEDRECTD27*
21,1,0.9500,0.4250,0,0,270.0*
21,1,0.5250,0.8500,0,0,270.0*
1,1,0.4250,-0.2125,-0.2625*
1,1,0.4250,-0.2125,0.2625*
1,1,0.4250,0.2125,0.2625*
1,1,0.4250,0.2125,-0.2625*
%
%ADD27ROUNDEDRECTD27*%
G04:AMPARAMS|DCode=28|XSize=0.3mm|YSize=0.66mm|CornerRadius=0.075mm|HoleSize=0mm|Usage=FLASHONLY|Rotation=0.000|XOffset=0mm|YOffset=0mm|HoleType=Round|Shape=RoundedRectangle|*
%AMROUNDEDRECTD28*
21,1,0.3000,0.5100,0,0,0.0*
21,1,0.1500,0.6600,0,0,0.0*
1,1,0.1500,0.0750,-0.2550*
1,1,0.1500,-0.0750,-0.2550*
1,1,0.1500,-0.0750,0.2550*
1,1,0.1500,0.0750,0.2550*
%
%ADD28ROUNDEDRECTD28*%
%ADD29R,0.6000X1.1000*%
G04:AMPARAMS|DCode=30|XSize=1.5mm|YSize=0.45mm|CornerRadius=0.1125mm|HoleSize=0mm|Usage=FLASHONLY|Rotation=0.000|XOffset=0mm|YOffset=0mm|HoleType=Round|Shape=RoundedRectangle|*
%AMROUNDEDRECTD30*
21,1,1.5000,0.2250,0,0,0.0*
21,1,1.2750,0.4500,0,0,0.0*
1,1,0.2250,0.6375,-0.1125*
1,1,0.2250,-0.6375,-0.1125*
1,1,0.2250,-0.6375,0.1125*
1,1,0.2250,0.6375,0.1125*
%
%ADD30ROUNDEDRECTD30*%
G04:AMPARAMS|DCode=31|XSize=0.3mm|YSize=0.66mm|CornerRadius=0.075mm|HoleSize=0mm|Usage=FLASHONLY|Rotation=90.000|XOffset=0mm|YOffset=0mm|HoleType=Round|Shape=RoundedRectangle|*
%AMROUNDEDRECTD31*
21,1,0.3000,0.5100,0,0,90.0*
21,1,0.1500,0.6600,0,0,90.0*
1,1,0.1500,0.2550,0.0750*
1,1,0.1500,0.2550,-0.0750*
1,1,0.1500,-0.2550,-0.0750*
1,1,0.1500,-0.2550,0.0750*
%
%ADD31ROUNDEDRECTD31*%
%ADD32R,1.6000X0.8000*%
%ADD33R,3.0000X2.1000*%
%ADD34R,0.6500X0.8500*%
%ADD35C,0.8000*%
%ADD40C,0.5000*%
%ADD49C,0.6000*%
%ADD51C,0.4000*%
%ADD52C,0.3000*%
%ADD53C,0.3200*%
%ADD54C,0.2000*%
%ADD55C,0.1800*%
%ADD56C,0.2200*%
%ADD57C,0.5000*%
%ADD58C,4.0000*%
%ADD59C,0.4000*%
G36*
X190288Y462614D02*
X183083Y455408D01*
X182017Y454967D01*
X181033Y453983D01*
X180500Y452696D01*
Y451304D01*
X181033Y450017D01*
X182017Y449033D01*
X183304Y448500D01*
X184696D01*
X185983Y449033D01*
X186967Y450017D01*
X187408Y451083D01*
X196267Y459941D01*
X205455D01*
X205753Y458441D01*
X204816Y458053D01*
X201295Y455700D01*
X198300Y452705D01*
X195947Y449184D01*
X194326Y445271D01*
X193500Y441118D01*
Y436882D01*
X194326Y432729D01*
X195947Y428816D01*
X198300Y425295D01*
X201295Y422300D01*
X204816Y419947D01*
X208729Y418326D01*
X212882Y417500D01*
X217118D01*
X221271Y418326D01*
X225184Y419947D01*
X228705Y422300D01*
X231700Y425295D01*
X234053Y428816D01*
X235674Y432729D01*
X235740Y433063D01*
X237176Y433498D01*
X240837Y429837D01*
X241829Y429174D01*
X243000Y428941D01*
X243000Y428941D01*
X244106D01*
X245068Y427441D01*
X244881Y426500D01*
Y426000D01*
X250750D01*
Y425000D01*
X251750D01*
Y419381D01*
X252500D01*
X254076Y419694D01*
X255413Y420587D01*
X255559Y420807D01*
X257139Y421068D01*
X258191Y420247D01*
Y414799D01*
X251500D01*
X250525Y414605D01*
X249698Y414052D01*
X249145Y413225D01*
X248951Y412250D01*
Y410250D01*
X249107Y409466D01*
X248657Y408866D01*
X247988Y408306D01*
X247821Y408375D01*
X246429D01*
X245142Y407842D01*
X244158Y406858D01*
X243625Y405571D01*
Y404179D01*
X244158Y402892D01*
X244445Y402605D01*
X244986Y401625D01*
X244445Y400645D01*
X244158Y400358D01*
X243625Y399071D01*
Y397679D01*
X244158Y396392D01*
X245142Y395408D01*
X246429Y394875D01*
X247821D01*
X248219Y395040D01*
X248431Y394933D01*
X249083Y393831D01*
X249118Y393589D01*
X248951Y392750D01*
Y390750D01*
X249107Y389966D01*
X248657Y389366D01*
X247988Y388806D01*
X247821Y388875D01*
X246429D01*
X245142Y388342D01*
X244826Y388026D01*
X239375D01*
X238361Y387824D01*
X237500Y387249D01*
X237500Y387249D01*
X215875Y365624D01*
X214375Y366245D01*
Y366321D01*
X213842Y367608D01*
X212858Y368592D01*
X211571Y369125D01*
X210179D01*
X209781Y368960D01*
X209569Y369067D01*
X208918Y370169D01*
X208882Y370411D01*
X209049Y371250D01*
Y373250D01*
X208893Y374034D01*
X209343Y374634D01*
X210012Y375194D01*
X210179Y375125D01*
X211571D01*
X212858Y375658D01*
X213842Y376642D01*
X214375Y377929D01*
Y379321D01*
X213842Y380608D01*
X213680Y380770D01*
X213066Y381881D01*
X213680Y382730D01*
X213967Y383017D01*
X214500Y384304D01*
Y385696D01*
X213967Y386983D01*
X212983Y387967D01*
X211696Y388500D01*
X210304D01*
X209786Y388286D01*
X209664D01*
X208855Y389775D01*
X209049Y390750D01*
Y392750D01*
X208855Y393725D01*
X209048Y394695D01*
X209052Y394698D01*
X209835Y395869D01*
X210109Y397250D01*
X189891D01*
X189923Y397086D01*
X188790Y395901D01*
X187822Y395891D01*
X187171Y396326D01*
X186000Y396559D01*
X182500D01*
X181329Y396326D01*
X180337Y395663D01*
X179814Y394880D01*
X179000Y394765D01*
X178186Y394880D01*
X177663Y395663D01*
X176670Y396326D01*
X176069Y396446D01*
Y406500D01*
X175797Y407866D01*
X175023Y409023D01*
X168273Y415773D01*
X167116Y416547D01*
X165750Y416819D01*
X161893D01*
X161663Y417163D01*
X160671Y417826D01*
X159500Y418059D01*
X158488D01*
X157423Y419123D01*
X156266Y419897D01*
X154900Y420169D01*
X153000D01*
X152655Y420100D01*
X152304D01*
X151979Y419966D01*
X151634Y419897D01*
X151342Y419702D01*
X151017Y419567D01*
X150769Y419319D01*
X150477Y419123D01*
X150281Y418831D01*
X150033Y418583D01*
X148671Y417826D01*
X148254Y417909D01*
X147500Y418059D01*
X146184D01*
X145967Y418583D01*
X144983Y419567D01*
X143696Y420100D01*
X142304D01*
X141017Y419567D01*
X140033Y418583D01*
X139500Y417296D01*
Y415904D01*
X140033Y414617D01*
X141017Y413633D01*
X141441Y413457D01*
Y411500D01*
X141657Y410414D01*
X141593Y410321D01*
X140223Y409727D01*
X139983Y409967D01*
X138696Y410500D01*
X137304D01*
X136017Y409967D01*
X135033Y408983D01*
X135003Y408912D01*
X134643Y408840D01*
X133849Y408309D01*
X129981Y404442D01*
X128816Y405398D01*
X129261Y406064D01*
X129447Y407000D01*
Y411497D01*
X129967Y412017D01*
X130500Y413304D01*
Y414696D01*
X129967Y415983D01*
X129415Y416535D01*
X129008Y417240D01*
X129127Y418531D01*
X129326Y418829D01*
X129559Y420000D01*
Y423500D01*
X129326Y424671D01*
X128775Y425495D01*
X128666Y425682D01*
X128948Y427277D01*
X129413Y427587D01*
X130306Y428924D01*
X130619Y430500D01*
Y431250D01*
X125000D01*
X119381D01*
Y430500D01*
X119694Y428924D01*
X120587Y427587D01*
X121052Y427277D01*
X121334Y425682D01*
X121225Y425495D01*
X120674Y424671D01*
X120441Y423500D01*
Y420000D01*
X120674Y418829D01*
X121337Y417837D01*
X122330Y417174D01*
X122753Y417090D01*
Y416071D01*
X122836Y415651D01*
X121697Y414500D01*
X121696Y414500D01*
X120304D01*
X119684Y414243D01*
X118500Y415304D01*
Y416696D01*
X117967Y417983D01*
X116983Y418967D01*
X115696Y419500D01*
X114459D01*
X113912Y420000D01*
X113343Y420726D01*
X113500Y421105D01*
Y422500D01*
X113696D01*
X114983Y423033D01*
X115967Y424017D01*
X116500Y425304D01*
Y426696D01*
X115967Y427983D01*
X114983Y428967D01*
X113847Y429437D01*
X112500Y430105D01*
X112500Y430886D01*
Y431895D01*
X113847Y432562D01*
X114983Y433033D01*
X115967Y434017D01*
X116500Y435304D01*
Y436696D01*
X115967Y437983D01*
X114983Y438967D01*
X113696Y439500D01*
X112304D01*
X111017Y438967D01*
X110033Y437983D01*
X109563Y436847D01*
X108895Y435500D01*
X107105Y435500D01*
X106438Y436847D01*
X105967Y437983D01*
X104983Y438967D01*
X103696Y439500D01*
X102304D01*
X101017Y438967D01*
X100033Y437983D01*
X99563Y436847D01*
X98895Y435500D01*
X97105Y435500D01*
X96437Y436847D01*
X95967Y437983D01*
X94983Y438967D01*
X93920Y440003D01*
X94161Y441213D01*
Y452745D01*
X93920Y453954D01*
X93235Y454980D01*
X88580Y459635D01*
X87554Y460320D01*
X87479Y460335D01*
X87428Y460369D01*
X86550Y460544D01*
X86428D01*
X86345Y460561D01*
X85700D01*
X85616Y460544D01*
X81450D01*
X80572Y460369D01*
X79828Y459872D01*
X79331Y459128D01*
X79156Y458250D01*
Y456750D01*
X77935Y455466D01*
X77250Y455410D01*
X76341Y456319D01*
X75547Y456850D01*
X75105Y456938D01*
Y457364D01*
X74872Y458534D01*
X74209Y459527D01*
X73217Y460190D01*
X72046Y460423D01*
X68546D01*
X67375Y460190D01*
X66551Y459639D01*
X66364Y459530D01*
X64769Y459811D01*
X64459Y460276D01*
X63122Y461169D01*
X61546Y461483D01*
X60796D01*
Y455864D01*
X59796D01*
Y454864D01*
X53927D01*
Y454364D01*
X54240Y452787D01*
X55133Y451451D01*
Y451276D01*
X54240Y449940D01*
X53927Y448364D01*
Y447864D01*
X59796D01*
Y446864D01*
X60796D01*
Y441245D01*
X61546D01*
X63122Y441558D01*
X64459Y442451D01*
X64769Y442916D01*
X66364Y443198D01*
X66551Y443088D01*
X67375Y442538D01*
X68546Y442305D01*
X68739D01*
Y441316D01*
X68980Y440107D01*
X69500Y439328D01*
Y439304D01*
X70033Y438017D01*
X70992Y437059D01*
X70988Y436912D01*
X70656Y435559D01*
X68500D01*
X67330Y435326D01*
X66337Y434663D01*
X65814Y433880D01*
X65000Y433765D01*
X64186Y433880D01*
X63663Y434663D01*
X62670Y435326D01*
X61500Y435559D01*
X60238D01*
X57702Y438095D01*
X56544Y438869D01*
X55178Y439140D01*
X54332D01*
X54326Y439170D01*
X53663Y440163D01*
X52670Y440826D01*
X51500Y441059D01*
X48500D01*
X47330Y440826D01*
X46337Y440163D01*
X45674Y439170D01*
X45441Y438000D01*
Y434500D01*
X45674Y433330D01*
X46337Y432337D01*
X47120Y431814D01*
X47235Y431000D01*
X47120Y430186D01*
X46337Y429663D01*
X45674Y428671D01*
X45441Y427500D01*
Y424000D01*
X45674Y422830D01*
X46337Y421837D01*
X47330Y421174D01*
X48500Y420941D01*
X51032D01*
X51460Y419937D01*
X51490Y419439D01*
X51369Y419319D01*
X51077Y419123D01*
X50881Y418831D01*
X50633Y418583D01*
X50498Y418258D01*
X50303Y417966D01*
X50234Y417621D01*
X50100Y417296D01*
Y416945D01*
X50038Y416631D01*
X49337Y416163D01*
X48674Y415171D01*
X48441Y414000D01*
Y410500D01*
X48674Y409329D01*
X49225Y408505D01*
X49334Y408318D01*
X49052Y406723D01*
X48587Y406413D01*
X47694Y405076D01*
X47381Y403500D01*
Y402750D01*
X53000D01*
Y401750D01*
X54000D01*
Y395881D01*
X54500D01*
X56076Y396194D01*
X57413Y397087D01*
X57587D01*
X58924Y396194D01*
X60500Y395881D01*
X61000D01*
Y401750D01*
X63000D01*
Y395881D01*
X63500D01*
X65076Y396194D01*
X66413Y397087D01*
X66587D01*
X67924Y396194D01*
X69500Y395881D01*
X70000D01*
Y401750D01*
X72000D01*
Y395881D01*
X72500D01*
X72941Y395969D01*
X73287Y395657D01*
X73886Y394627D01*
X73500Y393696D01*
Y392304D01*
X74033Y391017D01*
X74124Y390926D01*
X74140Y390802D01*
X73685Y389244D01*
X73017Y388967D01*
X72033Y387983D01*
X71500Y386696D01*
Y385304D01*
X72033Y384017D01*
X73017Y383033D01*
X74304Y382500D01*
X75696D01*
X76983Y383033D01*
X77924Y383974D01*
X79349D01*
X80286Y384160D01*
X80874Y384553D01*
X88412D01*
Y384500D01*
X94000D01*
Y382548D01*
X93611D01*
Y382500D01*
X87732D01*
X86912Y381952D01*
X86796Y382000D01*
X85204D01*
X83734Y381391D01*
X82609Y380266D01*
X82000Y378796D01*
Y377961D01*
X81539Y377500D01*
X80304D01*
X79017Y376967D01*
X77967Y377983D01*
X76983Y378967D01*
X75696Y379500D01*
X74304D01*
X73017Y378967D01*
X72497Y378447D01*
X72210D01*
X71266Y379391D01*
X69796Y380000D01*
X68204D01*
X66734Y379391D01*
X65609Y378266D01*
X65000Y376796D01*
Y375204D01*
X65609Y373734D01*
X66734Y372609D01*
X68204Y372000D01*
X69796D01*
X71266Y372609D01*
X72210Y373553D01*
X72497D01*
X73017Y373033D01*
X74153Y372562D01*
Y372178D01*
X74339Y371241D01*
X74870Y370447D01*
X76248Y369069D01*
X75627Y367569D01*
X71637D01*
X70271Y367297D01*
X69113Y366523D01*
X66348Y363758D01*
X65575Y362601D01*
X65303Y361235D01*
Y359808D01*
X64337Y359163D01*
X63814Y358380D01*
X63000Y358265D01*
X62186Y358380D01*
X61663Y359163D01*
X60670Y359826D01*
X59500Y360059D01*
X57049D01*
X57000Y360069D01*
X55057D01*
X53694Y360904D01*
X53694Y361563D01*
Y379000D01*
X53422Y380366D01*
X52649Y381523D01*
X52271Y381776D01*
X40578Y393468D01*
Y397500D01*
X40268Y399061D01*
X39384Y400384D01*
X38069Y401263D01*
Y404309D01*
X38442Y404558D01*
X38884Y405220D01*
X39039Y406000D01*
Y406051D01*
X40539Y406817D01*
X41304Y406500D01*
X42696D01*
X43983Y407033D01*
X44967Y408017D01*
X45500Y409304D01*
Y410696D01*
X44967Y411983D01*
X43983Y412967D01*
X42696Y413500D01*
X41304D01*
X40539Y413183D01*
X39039Y413949D01*
Y416000D01*
X38884Y416780D01*
X38442Y417442D01*
X37780Y417884D01*
X37421Y417955D01*
X36100Y419000D01*
Y422375D01*
X26000D01*
Y415900D01*
X29961D01*
Y406000D01*
X30116Y405220D01*
X30558Y404558D01*
X30931Y404309D01*
Y401578D01*
X30500D01*
X28939Y401268D01*
X27616Y400384D01*
X26732Y399061D01*
X26422Y397500D01*
Y392500D01*
X26732Y390939D01*
X27616Y389616D01*
X28939Y388732D01*
X30500Y388422D01*
X35532D01*
X46557Y377396D01*
Y372059D01*
X45057Y371761D01*
X44053Y374184D01*
X41700Y377705D01*
X38705Y380700D01*
X35184Y383053D01*
X31271Y384674D01*
X27118Y385500D01*
X22882D01*
X18729Y384674D01*
X14816Y383053D01*
X11295Y380700D01*
X8300Y377705D01*
X5947Y374184D01*
X4326Y370271D01*
X3500Y366118D01*
Y361882D01*
X4326Y357729D01*
X5947Y353816D01*
X8300Y350295D01*
X11295Y347300D01*
X14816Y344947D01*
X18729Y343326D01*
X22882Y342500D01*
X27118D01*
X31271Y343326D01*
X35184Y344947D01*
X38705Y347300D01*
X41700Y350295D01*
X42540Y351551D01*
X44101Y351188D01*
X44222Y350269D01*
X38477Y344523D01*
X37703Y343366D01*
X37431Y342000D01*
Y337226D01*
X37337Y337163D01*
X36940Y336569D01*
X34107D01*
X33061Y337268D01*
X31500Y337578D01*
X25500D01*
X23939Y337268D01*
X22616Y336384D01*
X21732Y335061D01*
X21422Y333500D01*
Y328500D01*
X20535Y327667D01*
X19874Y328281D01*
X19639Y328777D01*
Y330000D01*
X11500D01*
X3361D01*
Y328500D01*
X3752Y326534D01*
X4866Y324866D01*
X6533Y323752D01*
X8500Y323361D01*
X10202D01*
X10776Y321976D01*
X5377Y316577D01*
X4603Y315419D01*
X4331Y314053D01*
Y290100D01*
X4603Y288734D01*
X5377Y287577D01*
X9953Y283000D01*
X9332Y281500D01*
X9304D01*
X8017Y280967D01*
X7033Y279983D01*
X6500Y278696D01*
Y277304D01*
X7011Y276071D01*
X7030Y276009D01*
X6491Y274438D01*
X5533Y274248D01*
X3866Y273134D01*
X2752Y271467D01*
X2361Y269500D01*
Y268000D01*
X10500D01*
Y266000D01*
X2361D01*
Y264500D01*
X2752Y262533D01*
X3866Y260866D01*
X5533Y259752D01*
X6803Y259500D01*
X6655Y258000D01*
X6000D01*
Y247139D01*
X5992Y247100D01*
Y244885D01*
X5500Y243696D01*
Y242304D01*
X6033Y241017D01*
X7017Y240033D01*
X8304Y239500D01*
X9696D01*
X10983Y240033D01*
X11967Y241017D01*
X12500Y242304D01*
Y243696D01*
X12703Y244000D01*
X14460D01*
Y242960D01*
X19954D01*
X20528Y241574D01*
X14727Y235773D01*
X13953Y234616D01*
X13681Y233250D01*
Y232000D01*
X6000D01*
Y218000D01*
X13681D01*
Y209274D01*
X13342Y208875D01*
X12676Y208855D01*
X11474Y209467D01*
X11467Y209483D01*
X10483Y210467D01*
X9196Y211000D01*
X7804D01*
X6517Y210467D01*
X5533Y209483D01*
X5150Y208559D01*
X5000D01*
X3830Y208326D01*
X2837Y207663D01*
X2174Y206670D01*
X1941Y205500D01*
Y202500D01*
X2174Y201329D01*
X2837Y200337D01*
X3620Y199814D01*
X3735Y199000D01*
X3620Y198186D01*
X2837Y197663D01*
X2174Y196670D01*
X1941Y195500D01*
Y192500D01*
X2174Y191329D01*
X2837Y190337D01*
X3589Y189834D01*
Y185340D01*
X2733Y184767D01*
X2152Y183899D01*
X1949Y182875D01*
Y180625D01*
X2152Y179601D01*
X2631Y178500D01*
X2152Y177399D01*
X1949Y176375D01*
Y174125D01*
X2152Y173101D01*
X2631Y172000D01*
X2152Y170899D01*
X1949Y169875D01*
Y167625D01*
X2152Y166601D01*
X2631Y165500D01*
X2152Y164399D01*
X1949Y163375D01*
Y161125D01*
X2152Y160101D01*
X2631Y159000D01*
X2152Y157899D01*
X1949Y156875D01*
Y154625D01*
X2152Y153601D01*
X2631Y152500D01*
X2152Y151399D01*
X1949Y150375D01*
Y148125D01*
X2152Y147101D01*
X2631Y146000D01*
X2152Y144899D01*
X1949Y143875D01*
Y141625D01*
X2152Y140601D01*
X2631Y139500D01*
X2152Y138399D01*
X1949Y137375D01*
Y135125D01*
X2152Y134101D01*
X2631Y133000D01*
X2152Y131899D01*
X1949Y130875D01*
Y128625D01*
X2152Y127601D01*
X2631Y126500D01*
X2152Y125399D01*
X1949Y124375D01*
Y122125D01*
X2152Y121101D01*
X2631Y120000D01*
X2152Y118899D01*
X1949Y117875D01*
Y115625D01*
X2152Y114601D01*
X2224Y114494D01*
X1461Y113655D01*
X0Y114105D01*
Y412090D01*
X1500Y412948D01*
X2108Y412696D01*
X3500D01*
X4786Y413229D01*
X5771Y414214D01*
X6304Y415500D01*
Y416892D01*
X5771Y418179D01*
X4786Y419163D01*
X3500Y419696D01*
X2108D01*
X1500Y419445D01*
X0Y420302D01*
Y437138D01*
X772Y437542D01*
X1500Y437728D01*
X2330Y437174D01*
X3500Y436941D01*
X6500D01*
X7671Y437174D01*
X8516Y437739D01*
X10961D01*
Y432000D01*
X11116Y431220D01*
X11558Y430558D01*
X12220Y430116D01*
X13000Y429961D01*
X13017D01*
X13317Y429687D01*
X14042Y428461D01*
X13901Y427750D01*
Y424375D01*
X25000D01*
X36819D01*
X37600Y424792D01*
X38304Y424500D01*
X39696D01*
X40983Y425033D01*
X41967Y426017D01*
X42500Y427304D01*
Y428696D01*
X41967Y429983D01*
X40983Y430967D01*
X39696Y431500D01*
X39450D01*
X39039Y432000D01*
Y442000D01*
X38884Y442780D01*
X38569Y443252D01*
Y447435D01*
X40061Y447732D01*
X41384Y448616D01*
X42268Y449939D01*
X42578Y451500D01*
Y456500D01*
X42268Y458061D01*
X41384Y459384D01*
X40061Y460268D01*
X39569Y460366D01*
Y462000D01*
X39500Y462345D01*
Y462696D01*
X40118Y463648D01*
X40476Y463947D01*
X40584Y464000D01*
X164044D01*
X164446Y462500D01*
X163984Y462233D01*
X162767Y461016D01*
X161906Y459524D01*
X161497Y458000D01*
X168000D01*
X174503D01*
X174094Y459524D01*
X173233Y461016D01*
X172016Y462233D01*
X171554Y462500D01*
X171956Y464000D01*
X189714D01*
X190288Y462614D01*
D02*
G37*
G36*
X81017Y433033D02*
X81653Y432770D01*
X82591Y431114D01*
X82500Y430895D01*
Y429105D01*
X83185Y427451D01*
X84265Y426371D01*
X84359Y424723D01*
X84185Y424549D01*
X83500Y422895D01*
Y421105D01*
X84185Y419451D01*
X85451Y418185D01*
X87105Y417500D01*
X87429D01*
X88050Y416000D01*
X88033Y415983D01*
X87500Y414696D01*
Y413304D01*
X88033Y412017D01*
X89017Y411033D01*
X90304Y410500D01*
X91635D01*
X92200Y409935D01*
X92571Y408588D01*
X92571Y408588D01*
X92571D01*
X92571Y408588D01*
Y404000D01*
X96000D01*
Y402000D01*
X92571D01*
Y399947D01*
X90747D01*
Y400700D01*
X90561Y401636D01*
X90030Y402430D01*
X82500Y409961D01*
Y410696D01*
X81967Y411983D01*
X80983Y412967D01*
X79696Y413500D01*
X78304D01*
X77072Y414613D01*
X77169Y415100D01*
Y416600D01*
X77100Y416945D01*
Y417296D01*
X76965Y417621D01*
X76897Y417966D01*
X76702Y418258D01*
X76567Y418583D01*
X76319Y418831D01*
X76123Y419123D01*
X75831Y419319D01*
X75583Y419567D01*
X75258Y419702D01*
X74966Y419897D01*
X74621Y419966D01*
X74296Y420100D01*
X73945D01*
X73600Y420169D01*
X73255Y420100D01*
X72904D01*
X72579Y419966D01*
X72234Y419897D01*
X71942Y419702D01*
X71617Y419567D01*
X71369Y419319D01*
X71077Y419123D01*
X70881Y418831D01*
X70633Y418583D01*
X70498Y418258D01*
X70303Y417966D01*
X70234Y417621D01*
X70100Y417296D01*
Y417059D01*
X69500D01*
X68600Y416880D01*
X67958Y417058D01*
X66934Y417697D01*
X66567Y418583D01*
X65583Y419567D01*
X64763Y419906D01*
X59729Y424941D01*
X60350Y426441D01*
X61500D01*
X62670Y426674D01*
X63663Y427337D01*
X64186Y428120D01*
X65000Y428235D01*
X65814Y428120D01*
X66337Y427337D01*
X67330Y426674D01*
X68500Y426441D01*
X72000D01*
X73170Y426674D01*
X74163Y427337D01*
X74826Y428330D01*
X75071Y429166D01*
X76086Y429368D01*
X76946Y429942D01*
X80274Y433271D01*
X80734Y433316D01*
X81017Y433033D01*
D02*
G37*
G36*
X168931Y405022D02*
Y393000D01*
X168941Y392951D01*
Y390500D01*
X169174Y389329D01*
X169837Y388337D01*
X170181Y388107D01*
Y378728D01*
X170020Y378629D01*
X168681Y378268D01*
X167983Y378967D01*
X166696Y379500D01*
X165304D01*
X163827Y380440D01*
X163721Y381174D01*
X165523Y382977D01*
X166297Y384134D01*
X166569Y385500D01*
Y386000D01*
X166500Y386345D01*
Y386696D01*
X166366Y387021D01*
X166297Y387366D01*
X166102Y387658D01*
X165967Y387983D01*
X165719Y388231D01*
X165523Y388523D01*
X165231Y388719D01*
X164983Y388967D01*
X164658Y389102D01*
X164366Y389297D01*
X164021Y389366D01*
X163696Y389500D01*
X163345D01*
X163000Y389569D01*
X162655Y389500D01*
X162304D01*
X161979Y389366D01*
X161634Y389297D01*
X161342Y389102D01*
X161017Y388967D01*
X160769Y388719D01*
X160477Y388523D01*
X160281Y388231D01*
X160033Y387983D01*
X159898Y387658D01*
X159703Y387366D01*
X159674Y387221D01*
X158012Y385559D01*
X156500D01*
X155330Y385326D01*
X154505Y384775D01*
X154318Y384666D01*
X152723Y384948D01*
X152413Y385413D01*
X151076Y386306D01*
X149500Y386619D01*
X148750D01*
Y381000D01*
X146750D01*
Y386619D01*
X146000D01*
X144424Y386306D01*
X143087Y385413D01*
X142671Y384789D01*
X140978Y384956D01*
X140967Y384983D01*
X139983Y385967D01*
X138696Y386500D01*
X137961D01*
X136880Y387580D01*
X136853Y387691D01*
X136968Y387968D01*
X138017Y389033D01*
X139304Y388500D01*
X140696D01*
X141983Y389033D01*
X142967Y390017D01*
X143500Y391304D01*
Y392696D01*
X142967Y393983D01*
X141983Y394967D01*
X140696Y395500D01*
X140202D01*
X139903Y397000D01*
X139983Y397033D01*
X140286Y397336D01*
X141285Y397913D01*
X142396Y397547D01*
X142924Y397194D01*
X144500Y396881D01*
X145000D01*
Y402750D01*
X147000D01*
Y396881D01*
X147500D01*
X149076Y397194D01*
X150413Y398087D01*
X151197Y399262D01*
X152000Y399348D01*
X152803Y399262D01*
X153587Y398087D01*
X154924Y397194D01*
X156500Y396881D01*
X157000D01*
Y402750D01*
X158000D01*
Y403750D01*
X163619D01*
Y404500D01*
X163305Y406076D01*
X162413Y407413D01*
X162538Y409019D01*
X162875Y409432D01*
X164466Y409487D01*
X168931Y405022D01*
D02*
G37*
G36*
X168780Y372115D02*
X168941Y371930D01*
Y370500D01*
X169174Y369329D01*
X169837Y368337D01*
X170830Y367674D01*
X172000Y367441D01*
X175500D01*
X176670Y367674D01*
X177663Y368337D01*
X178186Y369120D01*
X179000Y369235D01*
X179814Y369120D01*
X180337Y368337D01*
X181329Y367674D01*
X181558Y367629D01*
X182051Y366001D01*
X182033Y365983D01*
X181500Y364696D01*
Y363304D01*
X182033Y362017D01*
X183017Y361033D01*
X184304Y360500D01*
X185696D01*
X186983Y361033D01*
X187967Y362017D01*
X188500Y363304D01*
Y364696D01*
X187967Y365983D01*
X187633Y366316D01*
X187608Y366390D01*
X187831Y368116D01*
X188163Y368337D01*
X188582Y368964D01*
X190169D01*
X190580Y368443D01*
X191093Y367464D01*
X190951Y366750D01*
Y364750D01*
X191145Y363775D01*
X191698Y362948D01*
Y362052D01*
X191145Y361225D01*
X190951Y360250D01*
Y358250D01*
X191145Y357275D01*
X190952Y356305D01*
X190948Y356302D01*
X190165Y355131D01*
X189891Y353750D01*
X200000D01*
Y352750D01*
X201000D01*
Y348141D01*
X203432D01*
X204006Y346755D01*
X199602Y342351D01*
X155700D01*
X154685Y342149D01*
X153826Y341575D01*
X153825Y341574D01*
X151067Y338816D01*
X146726D01*
X146611Y339004D01*
X146258Y340192D01*
X146284Y340317D01*
X146523Y340477D01*
X150523Y344477D01*
X151297Y345634D01*
X151393Y346119D01*
X151671Y346174D01*
X152663Y346837D01*
X153551Y346141D01*
X153587Y346087D01*
X154924Y345194D01*
X156500Y344881D01*
X157000D01*
Y350750D01*
X158000D01*
Y351750D01*
X163619D01*
Y352500D01*
X163538Y352907D01*
X163696Y353100D01*
X164021Y353234D01*
X164366Y353303D01*
X164658Y353498D01*
X164983Y353633D01*
X165231Y353881D01*
X165523Y354077D01*
X165719Y354369D01*
X165967Y354617D01*
X166102Y354942D01*
X166297Y355234D01*
X166366Y355579D01*
X166500Y355904D01*
Y356255D01*
X166569Y356600D01*
X166500Y356945D01*
Y357296D01*
X166366Y357621D01*
X166297Y357966D01*
X166102Y358258D01*
X165967Y358583D01*
X165719Y358831D01*
X165523Y359123D01*
X165231Y359319D01*
X164983Y359567D01*
X164658Y359702D01*
X164366Y359897D01*
X164096Y359950D01*
X162559Y361488D01*
Y361590D01*
X163000Y363031D01*
X163066Y363045D01*
X163696Y363100D01*
X164021Y363234D01*
X164366Y363303D01*
X164658Y363498D01*
X164983Y363633D01*
X165231Y363881D01*
X165523Y364077D01*
X165719Y364369D01*
X165967Y364617D01*
X166102Y364942D01*
X166297Y365234D01*
X166366Y365579D01*
X166500Y365904D01*
Y366255D01*
X166569Y366600D01*
Y367500D01*
X166297Y368866D01*
X165523Y370023D01*
X164222Y371324D01*
X165072Y372596D01*
X165304Y372500D01*
X166696D01*
X167441Y372809D01*
X168780Y372115D01*
D02*
G37*
G36*
X185975Y330849D02*
X185126Y330000D01*
X184551Y329140D01*
X184349Y328125D01*
X184349Y328125D01*
Y324830D01*
X184329Y324826D01*
X183337Y324163D01*
X182674Y323171D01*
X182441Y322000D01*
Y318500D01*
X182674Y317330D01*
X183337Y316337D01*
X184120Y315814D01*
X184235Y315000D01*
X184120Y314186D01*
X183337Y313663D01*
X183107Y313319D01*
X167750D01*
X166384Y313047D01*
X165619Y312536D01*
X164119Y313110D01*
Y313500D01*
X163806Y315076D01*
X163665Y315286D01*
X162963Y316500D01*
X163665Y317714D01*
X163806Y317924D01*
X164119Y319500D01*
Y320000D01*
X158250D01*
Y321000D01*
X157250D01*
Y326619D01*
X156500D01*
X154924Y326306D01*
X153587Y325413D01*
X153277Y324948D01*
X151682Y324666D01*
X151495Y324775D01*
X150670Y325326D01*
X149500Y325559D01*
X147988D01*
X147100Y326447D01*
Y326696D01*
X146966Y327021D01*
X146907Y327315D01*
X146900Y327373D01*
X147272Y328322D01*
X147650Y328763D01*
X147723Y328815D01*
X152749D01*
X152749Y328815D01*
X153763Y329016D01*
X154623Y329591D01*
X157381Y332349D01*
X185353D01*
X185975Y330849D01*
D02*
G37*
G36*
X181446Y305640D02*
X181836Y304681D01*
X181409Y303651D01*
Y302258D01*
X181803Y301309D01*
X180523Y300523D01*
X177930Y303116D01*
X176772Y303890D01*
X175407Y304162D01*
X172093D01*
X170728Y303890D01*
X169570Y303116D01*
X160477Y294023D01*
X159703Y292866D01*
X159431Y291500D01*
Y277978D01*
X158012Y276559D01*
X156500D01*
X155330Y276326D01*
X154505Y275775D01*
X154318Y275666D01*
X152723Y275948D01*
X152413Y276413D01*
X151076Y277306D01*
X149500Y277619D01*
X148750D01*
Y272000D01*
X147750D01*
Y271000D01*
X141881D01*
Y270500D01*
X142194Y268924D01*
X143087Y267587D01*
X143128Y267560D01*
X143115Y265765D01*
X142587Y265413D01*
X142277Y264948D01*
X140682Y264666D01*
X140495Y264775D01*
X139670Y265326D01*
X138500Y265559D01*
X136569D01*
Y294522D01*
X143600Y301553D01*
X145677Y299477D01*
X146834Y298703D01*
X148200Y298431D01*
X160000D01*
X161366Y298703D01*
X162523Y299477D01*
X169228Y306181D01*
X181065D01*
X181446Y305640D01*
D02*
G37*
G36*
X237460Y339751D02*
Y334000D01*
X255000D01*
Y333000D01*
X256000D01*
Y319960D01*
X272540D01*
Y319960D01*
X274000Y319863D01*
Y120136D01*
X272540Y120040D01*
Y120040D01*
X256000D01*
Y107000D01*
X254000D01*
Y120040D01*
X237460D01*
Y107676D01*
X237196Y107500D01*
X235804D01*
X234517Y106967D01*
X233533Y105983D01*
X233000Y104696D01*
Y103304D01*
X233533Y102017D01*
X234517Y101033D01*
X235804Y100500D01*
X237196D01*
X237460Y100324D01*
Y93960D01*
X239000D01*
Y13345D01*
X237500Y13197D01*
X237248Y14467D01*
X236134Y16134D01*
X234466Y17248D01*
X232500Y17639D01*
X230500D01*
Y10000D01*
Y2361D01*
X232500D01*
X234466Y2752D01*
X236134Y3866D01*
X237248Y5533D01*
X237500Y6803D01*
X239000Y6655D01*
Y0D01*
X116060D01*
X115227Y1247D01*
X115500Y1906D01*
Y4094D01*
X114717Y5985D01*
X114734Y6286D01*
X115278Y7596D01*
X115670Y7674D01*
X116663Y8337D01*
X117186Y9120D01*
X118000Y9235D01*
X118814Y9120D01*
X119337Y8337D01*
X120330Y7674D01*
X121500Y7441D01*
X125000D01*
X126171Y7674D01*
X127163Y8337D01*
X127826Y9330D01*
X128059Y10500D01*
Y13500D01*
X127826Y14670D01*
X127163Y15663D01*
Y17337D01*
X127826Y18329D01*
X128059Y19500D01*
Y22500D01*
X127826Y23670D01*
X127163Y24663D01*
Y26337D01*
X127826Y27329D01*
X128059Y28500D01*
Y29458D01*
X129559Y29606D01*
X129694Y28924D01*
X130587Y27587D01*
X131052Y27277D01*
X131334Y25682D01*
X131225Y25495D01*
X130674Y24671D01*
X130441Y23500D01*
Y20799D01*
X130431Y20750D01*
Y18158D01*
X130303Y17966D01*
X130234Y17621D01*
X130100Y17296D01*
Y16945D01*
X130031Y16600D01*
X130100Y16255D01*
Y15904D01*
X130234Y15579D01*
X130303Y15234D01*
X130498Y14942D01*
X130633Y14617D01*
X130881Y14369D01*
X131077Y14077D01*
X131369Y13881D01*
X131617Y13633D01*
X131942Y13498D01*
X132234Y13303D01*
X132579Y13234D01*
X132904Y13100D01*
X133255D01*
X133600Y13031D01*
X133945Y13100D01*
X134296D01*
X134621Y13234D01*
X134966Y13303D01*
X135258Y13498D01*
X135583Y13633D01*
X135831Y13881D01*
X136123Y14077D01*
X136523Y14477D01*
X137297Y15634D01*
X137569Y17000D01*
Y17154D01*
X137670Y17174D01*
X138663Y17837D01*
X139326Y18829D01*
X139559Y20000D01*
Y21620D01*
X141059Y22075D01*
X141866Y20866D01*
X143533Y19752D01*
X145500Y19361D01*
X147000D01*
Y27500D01*
Y35639D01*
X145500D01*
X143533Y35248D01*
X142088Y34282D01*
X141090Y34474D01*
X140471Y34745D01*
X140306Y35576D01*
X140243Y35670D01*
X140413Y37587D01*
X140723Y38052D01*
X142318Y38334D01*
X142505Y38225D01*
X143329Y37674D01*
X144500Y37441D01*
X148000D01*
X149171Y37674D01*
X150163Y38337D01*
X150826Y39330D01*
X151059Y40500D01*
Y41512D01*
X151978Y42431D01*
X153600D01*
X153945Y42500D01*
X154296D01*
X154621Y42635D01*
X154966Y42703D01*
X155258Y42898D01*
X155583Y43033D01*
X155831Y43281D01*
X156123Y43477D01*
X156319Y43769D01*
X156567Y44017D01*
X156702Y44342D01*
X156897Y44634D01*
X156966Y44979D01*
X157100Y45304D01*
Y45655D01*
X157169Y46000D01*
Y50408D01*
X156897Y51773D01*
X156123Y52931D01*
X152006Y57049D01*
Y61002D01*
X138006D01*
Y59570D01*
X135372D01*
X135274Y60062D01*
X134390Y61386D01*
X133067Y62270D01*
X131506Y62580D01*
X126506D01*
X124945Y62270D01*
X123622Y61386D01*
X122738Y60062D01*
X122428Y58502D01*
Y52502D01*
X122738Y50941D01*
X123622Y49618D01*
X124945Y48734D01*
X126506Y48423D01*
X131397D01*
X131503Y48306D01*
X131702Y46823D01*
X131087Y46413D01*
X130194Y45076D01*
X129881Y43500D01*
Y43000D01*
X135750D01*
Y41000D01*
X129881D01*
Y40500D01*
X130194Y38924D01*
X130455Y38534D01*
X130587Y36913D01*
X129694Y35576D01*
X129381Y34000D01*
Y32542D01*
X127881Y32394D01*
X127826Y32671D01*
X127163Y33663D01*
X126608Y34034D01*
Y34115D01*
X127100Y35304D01*
Y36696D01*
X126608Y37885D01*
Y39003D01*
X126826Y39330D01*
X127059Y40500D01*
Y43500D01*
X126826Y44671D01*
X126163Y45663D01*
X125170Y46326D01*
X124000Y46559D01*
X120500D01*
X119330Y46326D01*
X118337Y45663D01*
X117814Y44880D01*
X117000Y44765D01*
X116186Y44880D01*
X115663Y45663D01*
X115536Y45748D01*
Y50429D01*
X115625D01*
X117039Y50710D01*
X118238Y51512D01*
X119040Y52711D01*
X119321Y54125D01*
Y58375D01*
X119040Y59789D01*
X118238Y60988D01*
X117039Y61790D01*
X115625Y62071D01*
X110375D01*
X108961Y61790D01*
X107761Y60988D01*
X107067Y59949D01*
X106439Y59715D01*
X105386Y59564D01*
X104983Y59967D01*
X103794Y60459D01*
X101618Y62635D01*
X100593Y63320D01*
X100558Y63327D01*
X99850Y64964D01*
X99855Y64996D01*
X100055Y66000D01*
X94200D01*
X88345D01*
X88551Y64966D01*
X89278Y63878D01*
X89531Y62128D01*
X89356Y61250D01*
Y59750D01*
X89531Y58872D01*
X90028Y58128D01*
X90772Y57631D01*
X91650Y57456D01*
X93260D01*
X94349Y57239D01*
X98074D01*
X99847Y55467D01*
X100033Y55017D01*
X101017Y54033D01*
X102304Y53500D01*
X103696D01*
X104983Y54033D01*
X105179Y54229D01*
X105680Y54194D01*
X106765Y53694D01*
X106960Y52711D01*
X107761Y51512D01*
X108961Y50710D01*
X109214Y50660D01*
Y46403D01*
X108829Y46326D01*
X107837Y45663D01*
X107174Y44671D01*
X106941Y43500D01*
Y40500D01*
X107174Y39330D01*
X107837Y38337D01*
X108829Y37674D01*
X110000Y37441D01*
X113500D01*
X114670Y37674D01*
X115663Y38337D01*
X116186Y39120D01*
X117000Y39235D01*
X117814Y39120D01*
X118337Y38337D01*
X119329Y37674D01*
X120100Y36696D01*
Y35304D01*
X120286Y34854D01*
Y34693D01*
X119161Y33822D01*
X117636Y34079D01*
X117413Y34413D01*
X116076Y35306D01*
X114500Y35619D01*
X113750D01*
Y30000D01*
X111750D01*
Y35619D01*
X111000D01*
X109424Y35306D01*
X108087Y34413D01*
X107194Y33076D01*
X106881Y31500D01*
Y30390D01*
X106231Y29978D01*
X105381Y29651D01*
X104296Y30100D01*
X102904D01*
X101617Y29567D01*
X100633Y28583D01*
X100163Y27447D01*
X99989Y27231D01*
X99559Y26979D01*
X98059Y27838D01*
Y29500D01*
X97826Y30671D01*
X97275Y31495D01*
X97166Y31682D01*
X97448Y33277D01*
X97913Y33587D01*
X98806Y34924D01*
X99119Y36500D01*
Y37250D01*
X93500D01*
Y39250D01*
X99119D01*
Y40000D01*
X98806Y41576D01*
X97913Y42913D01*
X97822Y42973D01*
X97163Y44337D01*
X97826Y45329D01*
X98059Y46500D01*
Y49500D01*
X97826Y50670D01*
X97163Y51663D01*
X96171Y52326D01*
X95000Y52559D01*
X92911D01*
X82835Y62635D01*
X81810Y63320D01*
X80888Y63503D01*
X80707Y63725D01*
X80439Y64276D01*
X80261Y65061D01*
X80469Y65372D01*
X80644Y66250D01*
Y67750D01*
X80469Y68628D01*
X79972Y69372D01*
Y71128D01*
X80469Y71872D01*
X80644Y72750D01*
Y74250D01*
X80640Y74270D01*
X82235Y75865D01*
X82920Y76890D01*
X83161Y78100D01*
Y81419D01*
X84661Y81717D01*
X85185Y80451D01*
X86451Y79185D01*
X88105Y78500D01*
X89389D01*
X89844Y77000D01*
X89278Y76622D01*
X88551Y75534D01*
X88345Y74500D01*
X94200D01*
X100055D01*
X99849Y75534D01*
X99122Y76622D01*
X98556Y77000D01*
X99011Y78500D01*
X99895D01*
X101549Y79185D01*
X102815Y80451D01*
X103188Y81352D01*
X104812D01*
X105185Y80451D01*
X106451Y79185D01*
X106929Y78987D01*
X107096Y77294D01*
X107012Y77238D01*
X105981Y75695D01*
X105619Y73875D01*
Y72750D01*
X113000D01*
Y71750D01*
X114000D01*
Y64869D01*
X115625D01*
X117445Y65231D01*
X118988Y66262D01*
X120019Y67805D01*
X120097Y68197D01*
X121627Y68197D01*
X121758Y67535D01*
X122872Y65868D01*
X124539Y64754D01*
X126506Y64363D01*
X128006D01*
Y72502D01*
Y80640D01*
X126506D01*
X124539Y80249D01*
X122872Y79135D01*
X121758Y77468D01*
X121470Y76019D01*
X120568Y75817D01*
X119909Y75860D01*
X118988Y77238D01*
X117445Y78269D01*
X115625Y78631D01*
X113117D01*
X112495Y80131D01*
X112815Y80451D01*
X113500Y82105D01*
Y83833D01*
X113983Y84033D01*
X114967Y85017D01*
X115500Y86304D01*
Y87696D01*
X114967Y88983D01*
X113983Y89967D01*
X113389Y91837D01*
X113500Y92105D01*
Y93833D01*
X113983Y94033D01*
X114967Y95017D01*
X115500Y96304D01*
Y97696D01*
X115481Y97741D01*
X116484Y99241D01*
X125712D01*
X133431Y91522D01*
Y84000D01*
X133500Y83655D01*
Y83304D01*
X133635Y82979D01*
X133703Y82634D01*
X133898Y82342D01*
X134033Y82017D01*
X134281Y81769D01*
X134477Y81477D01*
X134769Y81281D01*
X135017Y81033D01*
X135342Y80898D01*
X135634Y80703D01*
X135979Y80634D01*
X136304Y80500D01*
X136655D01*
X136708Y80490D01*
X137067Y80355D01*
X137957Y79331D01*
X138006Y79114D01*
Y76347D01*
X136506Y76199D01*
X136253Y77468D01*
X135140Y79135D01*
X133472Y80249D01*
X131506Y80640D01*
X130006D01*
Y72502D01*
Y64363D01*
X131506D01*
X133472Y64754D01*
X135140Y65868D01*
X136253Y67535D01*
X136645Y69502D01*
Y70667D01*
X138006Y71002D01*
X138145Y71002D01*
X152006D01*
Y80002D01*
X140073D01*
X139792Y80428D01*
X139552Y81366D01*
X139549Y81502D01*
X144478Y86431D01*
X147750D01*
X147799Y86441D01*
X150500D01*
X151671Y86674D01*
X152495Y87225D01*
X152682Y87334D01*
X154277Y87052D01*
X154587Y86587D01*
X155924Y85694D01*
X157500Y85381D01*
X158250D01*
Y91000D01*
X159250D01*
Y92000D01*
X165119D01*
Y92500D01*
X164806Y94076D01*
X163913Y95413D01*
X163635Y95598D01*
Y97402D01*
X163913Y97587D01*
X164806Y98924D01*
X165119Y100500D01*
Y101000D01*
X159250D01*
Y103000D01*
X165119D01*
Y103500D01*
X164806Y105076D01*
X163913Y106413D01*
Y106587D01*
X164806Y107924D01*
X165119Y109500D01*
Y110000D01*
X159250D01*
Y112000D01*
X165119D01*
Y112500D01*
X164806Y114076D01*
X163913Y115413D01*
X162576Y116306D01*
X162198Y116381D01*
X162346Y117881D01*
X162500D01*
X164076Y118194D01*
X165413Y119087D01*
X166306Y120424D01*
X166619Y122000D01*
Y122750D01*
X161000D01*
Y124750D01*
X166619D01*
Y125500D01*
X166306Y127076D01*
X165413Y128413D01*
X164948Y128723D01*
X164666Y130318D01*
X164775Y130505D01*
X165326Y131329D01*
X165559Y132500D01*
Y134030D01*
X165920Y134570D01*
X165967Y134617D01*
X165993Y134679D01*
X166297Y135134D01*
X166404Y135671D01*
X166500Y135904D01*
Y136155D01*
X166569Y136500D01*
Y136600D01*
X166500Y136945D01*
Y137296D01*
X166366Y137621D01*
X166297Y137966D01*
X166102Y138258D01*
X165967Y138583D01*
X165719Y138831D01*
X165523Y139123D01*
X163632Y141015D01*
X164196Y142572D01*
X164993Y142644D01*
X165416Y142201D01*
X165609Y141734D01*
X166734Y140609D01*
X168204Y140000D01*
X169796D01*
X171266Y140609D01*
X172391Y141734D01*
X173000Y143204D01*
Y144796D01*
X172391Y146266D01*
X171803Y146854D01*
X171967Y147017D01*
X172500Y148304D01*
Y149696D01*
X172138Y150571D01*
X172682Y151736D01*
X173000Y152071D01*
X176500D01*
Y155500D01*
X178500D01*
Y152071D01*
X180553D01*
Y147609D01*
X180039Y147095D01*
X179304D01*
X178017Y146562D01*
X177033Y145578D01*
X176500Y144291D01*
Y142899D01*
X177033Y141613D01*
X178017Y140628D01*
X179304Y140095D01*
X179456D01*
X180500Y138696D01*
Y137304D01*
X180297Y137000D01*
X180204D01*
X178734Y136391D01*
X177609Y135266D01*
X177000Y133796D01*
Y132204D01*
X177609Y130734D01*
X178734Y129609D01*
X180204Y129000D01*
X181796D01*
X183266Y129609D01*
X184391Y130734D01*
X185000Y132204D01*
Y133055D01*
X185169Y133354D01*
X185262Y133452D01*
X185339Y133490D01*
X187033Y133017D01*
X188017Y132033D01*
X189304Y131500D01*
X190696D01*
X191983Y132033D01*
X192500Y132550D01*
X194000Y131929D01*
Y131204D01*
X194609Y129734D01*
X195734Y128609D01*
X197204Y128000D01*
X198796D01*
X200266Y128609D01*
X201391Y129734D01*
X202000Y131204D01*
Y132796D01*
X201391Y134266D01*
X200266Y135391D01*
X199835Y135570D01*
Y136017D01*
X199648Y136953D01*
X199467Y137225D01*
X199500Y137304D01*
Y138696D01*
X198967Y139983D01*
X197983Y140967D01*
X196696Y141500D01*
X195961D01*
X195947Y141514D01*
Y147912D01*
X196000D01*
Y153500D01*
X197952D01*
Y153111D01*
X198000D01*
Y147912D01*
X199662D01*
X200898Y146763D01*
X200953Y146629D01*
Y141056D01*
X201139Y140119D01*
X201670Y139325D01*
X205295Y135700D01*
X205444Y134955D01*
X205544Y134804D01*
X205500Y134696D01*
Y133304D01*
X206033Y132017D01*
X207017Y131033D01*
X208304Y130500D01*
X209696D01*
X210983Y131033D01*
X211967Y132017D01*
X212500Y133304D01*
Y134696D01*
X211967Y135983D01*
X211950Y136000D01*
X212571Y137500D01*
X212696D01*
X213983Y138033D01*
X215460Y137389D01*
Y133500D01*
X226000D01*
X236540D01*
Y138431D01*
X236540Y139040D01*
X235500Y140109D01*
X235500Y140540D01*
Y147153D01*
X238770D01*
X239033Y146517D01*
X240017Y145533D01*
X241304Y145000D01*
X242696D01*
X243983Y145533D01*
X244967Y146517D01*
X245500Y147804D01*
Y149196D01*
X244967Y150483D01*
X244200Y151250D01*
X244967Y152017D01*
X245500Y153304D01*
Y154696D01*
X244967Y155983D01*
X243983Y156967D01*
X242696Y157500D01*
X241304D01*
X240017Y156967D01*
X239033Y155983D01*
X238770Y155347D01*
X235500D01*
Y163000D01*
X216500D01*
Y162571D01*
X215000Y161950D01*
X214983Y161967D01*
X213696Y162500D01*
X212961D01*
X212130Y163330D01*
X211460Y163778D01*
X211008Y164230D01*
X210214Y164761D01*
X209277Y164947D01*
X208088D01*
Y165000D01*
X202500D01*
Y167000D01*
X208088D01*
Y167053D01*
X208248D01*
X209184Y167239D01*
X209978Y167770D01*
X211341Y169132D01*
X211918D01*
X212017Y169033D01*
X213304Y168500D01*
X214696D01*
X215000Y168626D01*
X216500Y167624D01*
Y164500D01*
X235500D01*
Y172153D01*
X238770D01*
X239033Y171517D01*
X240017Y170533D01*
X241304Y170000D01*
X242696D01*
X243983Y170533D01*
X244967Y171517D01*
X245500Y172804D01*
Y174196D01*
X244967Y175483D01*
X244200Y176250D01*
X244967Y177017D01*
X245500Y178304D01*
Y179696D01*
X244967Y180983D01*
X243983Y181967D01*
X242696Y182500D01*
X241304D01*
X240017Y181967D01*
X239033Y180983D01*
X238770Y180347D01*
X235500D01*
Y188000D01*
X216500D01*
Y177000D01*
X229224D01*
X229648Y176250D01*
X229224Y175500D01*
X216500D01*
X216500Y175500D01*
Y175500D01*
X215000Y175374D01*
X214696Y175500D01*
X213304D01*
X212545Y175186D01*
X211695Y176457D01*
X213430Y178192D01*
X213961Y178986D01*
X214147Y179923D01*
Y195586D01*
X213961Y196523D01*
X213642Y197000D01*
X213658Y197451D01*
X213821Y198045D01*
X214171Y198697D01*
X214983Y199033D01*
X215000Y199050D01*
X216500Y198429D01*
Y189500D01*
X235500D01*
Y197153D01*
X238770D01*
X239033Y196517D01*
X240017Y195533D01*
X241304Y195000D01*
X242696D01*
X243983Y195533D01*
X244967Y196517D01*
X245500Y197804D01*
Y199196D01*
X244967Y200483D01*
X244200Y201250D01*
X244967Y202017D01*
X245500Y203304D01*
Y204696D01*
X244967Y205983D01*
X243983Y206967D01*
X242696Y207500D01*
X241304D01*
X240017Y206967D01*
X239033Y205983D01*
X238770Y205347D01*
X235500D01*
Y213000D01*
X216500D01*
Y205571D01*
X215000Y204950D01*
X214983Y204967D01*
X213696Y205500D01*
X212500Y206304D01*
Y207696D01*
X211967Y208983D01*
X210983Y209967D01*
X209696Y210500D01*
X208304D01*
X207017Y209967D01*
X206033Y208983D01*
X205500Y207696D01*
Y206304D01*
X205942Y205236D01*
X203775Y203069D01*
X203245Y202275D01*
X203058Y201339D01*
Y197114D01*
X203245Y196178D01*
X203775Y195384D01*
X204159Y195000D01*
X203537Y193500D01*
X203304D01*
X202017Y192967D01*
X201033Y191983D01*
X200500Y190696D01*
Y189961D01*
X197333Y186793D01*
X195947Y187367D01*
Y190264D01*
X196730Y191047D01*
X197261Y191841D01*
X197447Y192778D01*
Y206497D01*
X197967Y207017D01*
X198500Y208304D01*
Y209696D01*
X197967Y210983D01*
X196983Y211967D01*
X195696Y212500D01*
X194304D01*
X193017Y211967D01*
X192033Y210983D01*
X191812Y210449D01*
X190188D01*
X189967Y210983D01*
X188983Y211967D01*
X187696Y212500D01*
X186304D01*
X185017Y211967D01*
X184033Y210983D01*
X183500Y209696D01*
Y208304D01*
X184033Y207017D01*
X184553Y206497D01*
Y200418D01*
X183270Y199135D01*
X183119Y198910D01*
X181619Y199365D01*
Y200000D01*
X181306Y201576D01*
X180413Y202913D01*
X179076Y203806D01*
X177500Y204119D01*
X177000D01*
Y198250D01*
X176000D01*
Y197250D01*
X170381D01*
Y196500D01*
X170694Y194924D01*
X171587Y193587D01*
X171462Y191981D01*
X170922Y191319D01*
X166728D01*
X159523Y198523D01*
X158366Y199297D01*
X157464Y199476D01*
X157326Y200170D01*
X156663Y201163D01*
X155670Y201826D01*
X154500Y202059D01*
X151500D01*
X150330Y201826D01*
X149337Y201163D01*
X149260Y201048D01*
X147740D01*
X147663Y201163D01*
X146671Y201826D01*
X146008Y201958D01*
X145760Y202381D01*
X145563Y203292D01*
X145575Y203528D01*
X146478Y204431D01*
X146750D01*
X146799Y204441D01*
X149500D01*
X150671Y204674D01*
X151495Y205225D01*
X151682Y205334D01*
X153277Y205052D01*
X153587Y204587D01*
X154924Y203694D01*
X156500Y203381D01*
X157250D01*
Y209000D01*
X158250D01*
Y210000D01*
X164119D01*
Y210500D01*
X163806Y212076D01*
X162913Y213413D01*
Y213587D01*
X163806Y214924D01*
X164119Y216500D01*
Y217000D01*
X158250D01*
Y218000D01*
X157250D01*
Y223619D01*
X156500D01*
X154924Y223306D01*
X153587Y222413D01*
X153277Y221948D01*
X151682Y221666D01*
X151495Y221775D01*
X150671Y222326D01*
X149500Y222559D01*
X148825D01*
X148370Y224059D01*
X148413Y224087D01*
X149306Y225424D01*
X149619Y227000D01*
Y227750D01*
X144000D01*
Y229750D01*
X149619D01*
Y230500D01*
X149306Y232076D01*
X149267Y232135D01*
X149485Y233148D01*
X149931Y233799D01*
X150748Y233896D01*
X150769Y233881D01*
X151017Y233633D01*
X151342Y233498D01*
X151634Y233303D01*
X151979Y233235D01*
X152304Y233100D01*
X152655D01*
X153000Y233031D01*
X153345Y233100D01*
X153696D01*
X154021Y233235D01*
X154366Y233303D01*
X154658Y233498D01*
X154983Y233633D01*
X155231Y233881D01*
X155523Y234077D01*
X155719Y234369D01*
X155967Y234617D01*
X156102Y234942D01*
X156297Y235234D01*
X156365Y235579D01*
X156500Y235904D01*
Y236255D01*
X156569Y236600D01*
X156500Y236945D01*
Y237296D01*
X156365Y237621D01*
X156297Y237966D01*
X156102Y238258D01*
X155967Y238583D01*
X155719Y238831D01*
X155523Y239123D01*
X154123Y240523D01*
X152966Y241297D01*
X151600Y241569D01*
X148446D01*
X148326Y242171D01*
X147663Y243163D01*
X146671Y243826D01*
X145500Y244059D01*
X142500D01*
X141329Y243826D01*
X140337Y243163D01*
X139674Y242171D01*
X139441Y241000D01*
Y237500D01*
X139674Y236329D01*
X140225Y235505D01*
X140334Y235318D01*
X140052Y233723D01*
X139587Y233413D01*
X138694Y232076D01*
X138381Y230500D01*
X136881Y230394D01*
X136826Y230671D01*
X136163Y231663D01*
X136085Y231715D01*
Y233285D01*
X136163Y233337D01*
X136826Y234329D01*
X137059Y235500D01*
Y238500D01*
X136826Y239671D01*
X136163Y240663D01*
Y242337D01*
X136826Y243330D01*
X137059Y244500D01*
Y247500D01*
X136826Y248671D01*
X136163Y249663D01*
X136048Y249740D01*
Y251260D01*
X136163Y251337D01*
X136826Y252330D01*
X137059Y253500D01*
Y256441D01*
X138500D01*
X139670Y256674D01*
X140495Y257225D01*
X140682Y257334D01*
X142277Y257052D01*
X142587Y256587D01*
X143015Y256302D01*
X143880Y255585D01*
X143397Y254380D01*
X143194Y254076D01*
X142881Y252500D01*
Y252000D01*
X148750D01*
Y251000D01*
X149750D01*
Y245381D01*
X150500D01*
X152076Y245694D01*
X153413Y246587D01*
X153723Y247052D01*
X155318Y247334D01*
X155505Y247225D01*
X156329Y246674D01*
X157500Y246441D01*
X159012D01*
X159500Y245953D01*
Y245904D01*
X159635Y245579D01*
X159703Y245234D01*
X159898Y244942D01*
X160033Y244617D01*
X160281Y244369D01*
X160477Y244077D01*
X160769Y243881D01*
X161017Y243633D01*
X161342Y243498D01*
X161634Y243303D01*
X161979Y243235D01*
X162304Y243100D01*
X162655D01*
X163000Y243031D01*
X163345Y243100D01*
X163696D01*
X164021Y243235D01*
X164366Y243303D01*
X164658Y243498D01*
X164983Y243633D01*
X165231Y243881D01*
X165523Y244077D01*
X165719Y244369D01*
X165967Y244617D01*
X166102Y244942D01*
X166297Y245234D01*
X166366Y245579D01*
X166500Y245904D01*
Y246255D01*
X166569Y246600D01*
Y247500D01*
X166297Y248866D01*
X165523Y250023D01*
X164059Y251488D01*
Y252500D01*
X163826Y253671D01*
X163163Y254663D01*
X162822Y254891D01*
X162687Y256625D01*
X162694Y256643D01*
X162910Y256821D01*
X164587Y256587D01*
X165924Y255694D01*
X167500Y255381D01*
X168250D01*
Y261000D01*
X170250D01*
Y255381D01*
X171000D01*
X172576Y255694D01*
X173913Y256587D01*
X174806Y257924D01*
X174977Y258786D01*
X175014Y258821D01*
X176525Y259391D01*
X176572Y259387D01*
X177555Y258731D01*
X179375Y258369D01*
X181000D01*
Y265250D01*
Y272131D01*
X179982D01*
X179350Y273621D01*
X180658Y274929D01*
X184625D01*
X186039Y275210D01*
X187239Y276012D01*
X188040Y277211D01*
X188321Y278625D01*
Y282875D01*
X188040Y284289D01*
X187239Y285488D01*
X186039Y286290D01*
X184625Y286571D01*
X179375D01*
X177961Y286290D01*
X176761Y285488D01*
X175960Y284289D01*
X175679Y282875D01*
Y280340D01*
X174944Y279777D01*
X173817Y280366D01*
X173559Y280605D01*
Y284000D01*
X173326Y285170D01*
X172663Y286163D01*
X172569Y286226D01*
Y290500D01*
X172297Y291866D01*
X171523Y293023D01*
X170547Y294000D01*
X173571Y297025D01*
X173929D01*
X175477Y295477D01*
X175769Y295281D01*
X176017Y295033D01*
X176342Y294898D01*
X176634Y294703D01*
X176979Y294634D01*
X177304Y294500D01*
X177655D01*
X178000Y294431D01*
X178345Y294500D01*
X178696D01*
X179021Y294634D01*
X179366Y294703D01*
X179658Y294898D01*
X179983Y295033D01*
X180231Y295281D01*
X180523Y295477D01*
X180719Y295769D01*
X180967Y296017D01*
X181102Y296342D01*
X181297Y296634D01*
X181366Y296979D01*
X181500Y297304D01*
Y297655D01*
X181569Y298000D01*
X181500Y298345D01*
Y298696D01*
X181366Y299021D01*
X181297Y299366D01*
X181102Y299658D01*
X180967Y299983D01*
X182139Y300775D01*
X182927Y299987D01*
X183746Y299648D01*
X191589Y291805D01*
Y289165D01*
X190837Y288663D01*
X190174Y287670D01*
X189941Y286500D01*
Y283500D01*
X190174Y282330D01*
X190837Y281337D01*
X191589Y280835D01*
Y279165D01*
X190837Y278663D01*
X190174Y277670D01*
X189941Y276500D01*
Y273500D01*
X190174Y272330D01*
X190837Y271337D01*
X191450Y270927D01*
X191490Y269441D01*
X190489Y268628D01*
X189053Y269023D01*
X189019Y269195D01*
X187988Y270738D01*
X186445Y271769D01*
X184625Y272131D01*
X183000D01*
Y265250D01*
Y258369D01*
X184625D01*
X186445Y258731D01*
X187988Y259762D01*
X189018Y261302D01*
X190484Y261564D01*
X191589Y260643D01*
Y259165D01*
X190837Y258663D01*
X190174Y257670D01*
X189941Y256500D01*
Y253500D01*
X190174Y252330D01*
X190837Y251337D01*
X191589Y250835D01*
Y249165D01*
X190837Y248663D01*
X190174Y247670D01*
X189941Y246500D01*
Y243500D01*
X190174Y242330D01*
X190837Y241337D01*
X191829Y240674D01*
X193000Y240441D01*
X196500D01*
X197670Y240674D01*
X198663Y241337D01*
X199186Y242120D01*
X200000Y242235D01*
X200814Y242120D01*
X201337Y241337D01*
X202330Y240674D01*
X203500Y240441D01*
X207000D01*
X208171Y240674D01*
X209163Y241337D01*
X209826Y242330D01*
X210059Y243500D01*
Y244350D01*
X211288Y245242D01*
X212840Y243690D01*
X213865Y243005D01*
X215075Y242765D01*
X216500D01*
Y239500D01*
X235500D01*
Y250500D01*
X216500D01*
Y250500D01*
X215000Y250470D01*
X214306Y251164D01*
X213967Y251983D01*
X213053Y252897D01*
X213062Y252993D01*
X213108Y253260D01*
X213570Y254339D01*
X216500D01*
Y252000D01*
X235500D01*
Y263000D01*
X223021D01*
X222314Y264323D01*
X222432Y264500D01*
X235500D01*
Y275500D01*
X223021D01*
X222314Y276823D01*
X222432Y277000D01*
X234954D01*
X235500Y277000D01*
X237000Y277050D01*
X237017Y277033D01*
X238304Y276500D01*
X239696D01*
X240983Y277033D01*
X241967Y278017D01*
X242500Y279304D01*
Y280696D01*
X241967Y281983D01*
X240983Y282967D01*
X239696Y283500D01*
X238304D01*
X237017Y282967D01*
X237000Y282950D01*
X235500Y283571D01*
X235500Y287391D01*
X236540Y288460D01*
X236540Y289069D01*
Y294000D01*
X226000D01*
X215460D01*
Y288460D01*
X216500Y287391D01*
X216500Y286960D01*
Y281470D01*
X213191Y278161D01*
X211515D01*
X210696Y278500D01*
X209304D01*
X209199Y278609D01*
X209163Y278663D01*
X209118Y278693D01*
X208427Y279410D01*
X208546Y280925D01*
X209163Y281337D01*
X209826Y282330D01*
X210059Y283500D01*
Y286500D01*
X209826Y287670D01*
X209163Y288663D01*
X208171Y289326D01*
X207901Y289380D01*
Y301152D01*
X215114Y308365D01*
X216500Y307791D01*
X216500Y302609D01*
X215460Y301540D01*
X215460Y300931D01*
Y296000D01*
X226000D01*
X236540D01*
Y301540D01*
X236159Y301931D01*
X236793Y303431D01*
X248000D01*
X248345Y303500D01*
X248696D01*
X249021Y303634D01*
X249366Y303703D01*
X249658Y303898D01*
X249983Y304033D01*
X250231Y304281D01*
X250523Y304477D01*
X250719Y304769D01*
X250967Y305017D01*
X251102Y305342D01*
X251297Y305634D01*
X251366Y305979D01*
X251500Y306304D01*
Y306655D01*
X251569Y307000D01*
X251500Y307345D01*
Y307696D01*
X251366Y308021D01*
X251297Y308366D01*
X251102Y308658D01*
X250967Y308983D01*
X250719Y309231D01*
X250523Y309523D01*
X250231Y309719D01*
X249983Y309967D01*
X249658Y310102D01*
X249366Y310297D01*
X249021Y310366D01*
X248696Y310500D01*
X248345D01*
X248000Y310569D01*
X235500D01*
Y313000D01*
X217551D01*
Y321802D01*
X236074Y340325D01*
X237460Y339751D01*
D02*
G37*
G36*
X47307Y318882D02*
X47337Y318837D01*
X47391Y318801D01*
X47500Y318696D01*
Y317304D01*
X47983Y316139D01*
X47761Y315513D01*
X47290Y314639D01*
X44500D01*
X42533Y314248D01*
X40866Y313134D01*
X39752Y311467D01*
X39361Y309500D01*
Y307500D01*
X47000D01*
X54639D01*
Y309500D01*
X54248Y311467D01*
X53134Y313134D01*
X52821Y313342D01*
X52983Y315033D01*
X53967Y316017D01*
X54500Y317304D01*
Y318696D01*
X54609Y318801D01*
X54663Y318837D01*
X54693Y318882D01*
X55410Y319573D01*
X56925Y319454D01*
X57337Y318837D01*
X58330Y318174D01*
X59431Y317955D01*
Y316000D01*
X59500Y315655D01*
Y315304D01*
X59634Y314979D01*
X59703Y314634D01*
X59898Y314342D01*
X60033Y314017D01*
X60281Y313769D01*
X60477Y313477D01*
X60769Y313281D01*
X61017Y313033D01*
X61342Y312898D01*
X61634Y312703D01*
X61979Y312635D01*
X62304Y312500D01*
X62655D01*
X63000Y312431D01*
X63540Y311610D01*
X63674Y311000D01*
X62683Y310008D01*
X61617Y309567D01*
X60633Y308583D01*
X60199Y307535D01*
X58324Y305661D01*
X57661Y304668D01*
X57429Y303498D01*
X57330Y302826D01*
X56337Y302163D01*
X55674Y301171D01*
X55441Y300000D01*
Y296500D01*
X55674Y295329D01*
X56225Y294505D01*
X56334Y294318D01*
X56052Y292723D01*
X55587Y292413D01*
X55078Y291651D01*
X53578Y292106D01*
Y292500D01*
X53268Y294061D01*
X52384Y295384D01*
X51061Y296268D01*
X49500Y296578D01*
X44500D01*
X42939Y296268D01*
X41616Y295384D01*
X40732Y294061D01*
X40454Y292661D01*
X30084D01*
X28875Y292420D01*
X28713Y292312D01*
X27500Y293304D01*
Y294696D01*
X27130Y295589D01*
X28296Y296614D01*
X28924Y296194D01*
X30500Y295881D01*
X31000D01*
Y301750D01*
X32000D01*
Y302750D01*
X37619D01*
Y303500D01*
X37306Y305076D01*
X36413Y306413D01*
X35948Y306723D01*
X35666Y308318D01*
X35775Y308505D01*
X36326Y309329D01*
X36559Y310500D01*
Y314000D01*
X36394Y314829D01*
X36995Y315924D01*
X37356Y316329D01*
X37370D01*
X38657Y316862D01*
X39641Y317847D01*
X39680Y317941D01*
X42500D01*
X43671Y318174D01*
X44663Y318837D01*
X45075Y319454D01*
X46590Y319573D01*
X47307Y318882D01*
D02*
G37*
G36*
X143161Y318393D02*
X143174Y318330D01*
X143837Y317337D01*
Y315663D01*
X143174Y314671D01*
X142941Y313500D01*
Y312488D01*
X141077Y310623D01*
X140303Y309466D01*
X140031Y308100D01*
Y308078D01*
X130477Y298523D01*
X129703Y297366D01*
X129431Y296000D01*
Y266575D01*
X128046Y266001D01*
X126523Y267523D01*
X125366Y268297D01*
X124000Y268569D01*
X92000D01*
X90634Y268297D01*
X90119Y267953D01*
X88619Y268734D01*
Y269000D01*
X88306Y270576D01*
X87413Y271913D01*
X86076Y272806D01*
X84500Y273119D01*
X84000D01*
Y267250D01*
X82000D01*
Y273119D01*
X81500D01*
X79924Y272806D01*
X78587Y271913D01*
X78551Y271859D01*
X77663Y271163D01*
X76670Y271826D01*
X75500Y272059D01*
X72500D01*
X71329Y271826D01*
X70337Y271163D01*
X69835Y270411D01*
X67771D01*
X67046Y271911D01*
X67326Y272330D01*
X67559Y273500D01*
Y277000D01*
X67326Y278171D01*
X67182Y278386D01*
X68388Y279591D01*
X70239Y279483D01*
X70332Y279415D01*
X72540Y277206D01*
X73033Y276017D01*
X74017Y275033D01*
X75304Y274500D01*
X76696D01*
X77983Y275033D01*
X78967Y276017D01*
X79500Y277304D01*
Y278696D01*
X79210Y279396D01*
X79500Y280200D01*
X79876Y280791D01*
X80063Y280958D01*
X81034Y281151D01*
X81052Y281163D01*
X82250Y281809D01*
X83448Y281163D01*
X83466Y281151D01*
X84500Y280945D01*
Y286800D01*
X85500D01*
Y287800D01*
X89605D01*
Y289350D01*
X89731Y289481D01*
X90435Y289918D01*
X90666Y289750D01*
X97000D01*
X102619D01*
Y290500D01*
X102306Y292076D01*
X101413Y293413D01*
X100948Y293723D01*
X100666Y295318D01*
X100775Y295505D01*
X101326Y296329D01*
X101559Y297500D01*
Y301000D01*
X101326Y302171D01*
X100818Y302931D01*
X101080Y303823D01*
X101464Y304431D01*
X125600D01*
X126966Y304703D01*
X128123Y305477D01*
X141534Y318887D01*
X143161Y318393D01*
D02*
G37*
G36*
X54671Y284544D02*
X54694Y284424D01*
X55587Y283087D01*
X56924Y282194D01*
X58500Y281881D01*
X60130D01*
X61056Y280686D01*
X61101Y280381D01*
X60665Y279893D01*
X60329Y279826D01*
X59337Y279163D01*
X58674Y278171D01*
X58441Y277000D01*
Y273500D01*
X58674Y272330D01*
X59337Y271337D01*
X60120Y270814D01*
X60235Y270000D01*
X60120Y269186D01*
X59337Y268663D01*
X58674Y267670D01*
X58441Y266500D01*
Y263000D01*
X58674Y261829D01*
X59337Y260837D01*
X60329Y260174D01*
X61500Y259941D01*
X64500D01*
X65670Y260174D01*
X66663Y260837D01*
X67326Y261829D01*
X67559Y263000D01*
Y264089D01*
X69835D01*
X70337Y263337D01*
X71120Y262814D01*
X71235Y262000D01*
X71120Y261186D01*
X70337Y260663D01*
X69674Y259671D01*
X69441Y258500D01*
Y255000D01*
X69674Y253829D01*
X70337Y252837D01*
X71329Y252174D01*
X72500Y251941D01*
X75500D01*
X76670Y252174D01*
X77663Y252837D01*
X77740Y252952D01*
X79260D01*
X79337Y252837D01*
X80330Y252174D01*
X81500Y251941D01*
X84500D01*
X85670Y252174D01*
X86663Y252837D01*
X87326Y253829D01*
X87559Y255000D01*
Y255512D01*
X93478Y261431D01*
X121425D01*
X121674Y261059D01*
X120872Y259559D01*
X120000D01*
X118829Y259326D01*
X117837Y258663D01*
X117502Y258161D01*
X115789D01*
X114983Y258967D01*
X113696Y259500D01*
X112304D01*
X111017Y258967D01*
X110033Y257983D01*
X109500Y256696D01*
Y255304D01*
X110033Y254017D01*
X111017Y253033D01*
X112304Y252500D01*
X112378D01*
X113007Y252080D01*
X114216Y251839D01*
X117387D01*
X117771Y250451D01*
X116564Y249161D01*
X114515D01*
X113696Y249500D01*
X112304D01*
X111017Y248967D01*
X110033Y247983D01*
X109500Y246696D01*
Y245304D01*
X108521Y245119D01*
X108500D01*
X107886Y244997D01*
X107849Y245005D01*
X107438Y245203D01*
X106586Y245984D01*
X106540Y246142D01*
X106500Y246345D01*
Y246696D01*
X106365Y247021D01*
X106297Y247366D01*
X106102Y247658D01*
X105967Y247983D01*
X105719Y248231D01*
X105523Y248523D01*
X105231Y248719D01*
X104983Y248967D01*
X104658Y249102D01*
X104366Y249297D01*
X104021Y249366D01*
X103696Y249500D01*
X103345D01*
X103000Y249569D01*
X102655Y249500D01*
X102304D01*
X101979Y249366D01*
X101634Y249297D01*
X101342Y249102D01*
X101017Y248967D01*
X100769Y248719D01*
X100477Y248523D01*
X100477Y248523D01*
X98589Y246635D01*
X97839Y246791D01*
X97100Y247268D01*
Y247296D01*
X96966Y247621D01*
X96897Y247966D01*
X96702Y248258D01*
X96567Y248583D01*
X96319Y248831D01*
X96123Y249123D01*
X95831Y249319D01*
X95583Y249567D01*
X95258Y249702D01*
X94966Y249897D01*
X94621Y249965D01*
X94296Y250100D01*
X93945D01*
X93600Y250169D01*
X93255Y250100D01*
X92904D01*
X92579Y249965D01*
X92234Y249897D01*
X91942Y249702D01*
X91617Y249567D01*
X91369Y249319D01*
X91077Y249123D01*
X88477Y246523D01*
X87703Y245366D01*
X87607Y244881D01*
X87330Y244826D01*
X86337Y244163D01*
X85674Y243171D01*
X85441Y242000D01*
Y241001D01*
X85413Y240954D01*
X85089Y240627D01*
X84021Y239965D01*
X83696Y240100D01*
X83345D01*
X83000Y240169D01*
X79128D01*
X78559Y240738D01*
Y242000D01*
X78326Y243171D01*
X77663Y244163D01*
X76670Y244826D01*
X75500Y245059D01*
X72500D01*
X71329Y244826D01*
X70337Y244163D01*
X69674Y243171D01*
X69441Y242000D01*
Y238500D01*
X69674Y237330D01*
X70225Y236505D01*
X70334Y236318D01*
X70052Y234723D01*
X69587Y234413D01*
X69402Y234135D01*
X67598D01*
X67413Y234413D01*
X66948Y234723D01*
X66666Y236318D01*
X66775Y236505D01*
X67326Y237330D01*
X67559Y238500D01*
Y242000D01*
X67326Y243171D01*
X66663Y244163D01*
X66569Y244226D01*
Y246600D01*
X66500Y246945D01*
Y247296D01*
X66365Y247621D01*
X66297Y247966D01*
X66102Y248258D01*
X65967Y248583D01*
X65719Y248831D01*
X65523Y249123D01*
X65231Y249319D01*
X64983Y249567D01*
X64658Y249702D01*
X64366Y249897D01*
X64125Y249945D01*
X50161Y263909D01*
Y282553D01*
X51061Y282732D01*
X52384Y283616D01*
X53110Y284702D01*
X54079Y284711D01*
X54671Y284544D01*
D02*
G37*
G36*
X59431Y245699D02*
Y244226D01*
X59337Y244163D01*
X58674Y243171D01*
X58441Y242000D01*
Y238500D01*
X58674Y237330D01*
X59225Y236505D01*
X59334Y236318D01*
X59052Y234723D01*
X58587Y234413D01*
X57694Y233076D01*
X57381Y231500D01*
Y230750D01*
X63000D01*
Y228750D01*
X57381D01*
Y228000D01*
X57694Y226424D01*
X56880Y224942D01*
X56087Y224413D01*
X55194Y223076D01*
X54881Y221500D01*
Y221000D01*
X60750D01*
Y220000D01*
X61750D01*
Y214381D01*
X62500D01*
X64076Y214694D01*
X65413Y215587D01*
X65723Y216052D01*
X67318Y216334D01*
X67505Y216225D01*
X68330Y215674D01*
X69500Y215441D01*
Y215304D01*
X70033Y214017D01*
X71017Y213033D01*
X72304Y212500D01*
X73696D01*
X74025Y212636D01*
X75442Y212518D01*
X75960Y211938D01*
X76265Y211481D01*
X79541Y208206D01*
X80033Y207017D01*
X79824Y205970D01*
X79451Y205815D01*
X78185Y204549D01*
X77500Y202895D01*
Y202029D01*
X77000Y201619D01*
X76250D01*
Y196000D01*
X74250D01*
Y201619D01*
X73500D01*
X71924Y201306D01*
X70587Y200413D01*
X70277Y199948D01*
X68682Y199666D01*
X68495Y199775D01*
X67671Y200326D01*
X67169Y200426D01*
Y206000D01*
X67100Y206345D01*
Y206696D01*
X66965Y207021D01*
X66897Y207366D01*
X66702Y207658D01*
X66567Y207983D01*
X66319Y208231D01*
X66123Y208523D01*
X65831Y208719D01*
X65583Y208967D01*
X65258Y209102D01*
X64966Y209297D01*
X64621Y209366D01*
X64296Y209500D01*
X63945D01*
X63600Y209569D01*
X63255Y209500D01*
X62904D01*
X62579Y209366D01*
X62234Y209297D01*
X61942Y209102D01*
X61617Y208967D01*
X61369Y208719D01*
X61077Y208523D01*
X60881Y208231D01*
X60633Y207983D01*
X60498Y207658D01*
X60303Y207366D01*
X60234Y207021D01*
X60100Y206696D01*
Y206345D01*
X60031Y206000D01*
Y199569D01*
X54226D01*
X54163Y199663D01*
Y201337D01*
X54826Y202330D01*
X54910Y202754D01*
X55583Y203033D01*
X56567Y204017D01*
X57100Y205304D01*
Y206696D01*
X56567Y207983D01*
X55583Y208967D01*
X54296Y209500D01*
X52904D01*
X52706Y209418D01*
X52000Y209559D01*
X48500D01*
X47329Y209326D01*
X46505Y208775D01*
X46318Y208666D01*
X44723Y208948D01*
X44413Y209413D01*
X43076Y210306D01*
X41500Y210619D01*
X40750D01*
Y205000D01*
X38750D01*
Y210619D01*
X38000D01*
X36424Y210306D01*
X35087Y209413D01*
X34194Y208076D01*
X33965Y206923D01*
X32436D01*
X32306Y207576D01*
X31413Y208913D01*
X30076Y209806D01*
X28500Y210119D01*
X28000D01*
Y204250D01*
X26000D01*
Y210119D01*
X25500D01*
X23924Y209806D01*
X22587Y208913D01*
X22340Y208543D01*
X22303Y208515D01*
X20819Y208965D01*
Y231772D01*
X25055Y236009D01*
X26441Y235435D01*
Y232000D01*
X25000D01*
Y218000D01*
X34000D01*
Y221941D01*
X39433D01*
X39732Y220439D01*
X40616Y219116D01*
X40639Y218880D01*
X39789Y218029D01*
X39256Y216742D01*
Y215350D01*
X39789Y214064D01*
X40773Y213079D01*
X42060Y212546D01*
X43452D01*
X44738Y213079D01*
X45723Y214064D01*
X46256Y215350D01*
Y216742D01*
X47044Y217922D01*
X48500D01*
X50061Y218232D01*
X51384Y219116D01*
X52268Y220439D01*
X52578Y222000D01*
Y228000D01*
X52268Y229561D01*
X51384Y230884D01*
X50061Y231768D01*
X48500Y232078D01*
X43500D01*
X41939Y231768D01*
X40616Y230884D01*
X39732Y229561D01*
X39433Y228059D01*
X34000D01*
Y232000D01*
X32559D01*
Y236233D01*
X36861Y240536D01*
X38361Y239914D01*
Y239000D01*
X38752Y237034D01*
X39866Y235366D01*
X41533Y234252D01*
X43500Y233861D01*
X45000D01*
Y242000D01*
Y250139D01*
X43500D01*
X41533Y249748D01*
X39866Y248634D01*
X39452Y248013D01*
X38983Y247967D01*
X37696Y248500D01*
X36304D01*
X35500Y248167D01*
X34241Y248790D01*
X34000Y249046D01*
Y254557D01*
X35500Y254704D01*
X35674Y253829D01*
X36337Y252837D01*
X37329Y252174D01*
X38500Y251941D01*
X41500D01*
X42670Y252174D01*
X43663Y252837D01*
X44149Y253564D01*
X44304Y253500D01*
X45696D01*
X46983Y254033D01*
X47967Y255017D01*
X47974Y255035D01*
X49744Y255386D01*
X59431Y245699D01*
D02*
G37*
G36*
X138506Y226372D02*
X138694Y225424D01*
X139587Y224087D01*
X140924Y223194D01*
X142500Y222881D01*
X142984D01*
X143320Y222402D01*
X143649Y221381D01*
X143174Y220671D01*
X142941Y219500D01*
Y216500D01*
X143174Y215329D01*
X143837Y214337D01*
X143952Y214260D01*
Y212740D01*
X143837Y212663D01*
X143174Y211670D01*
X143018Y210885D01*
X142477Y210523D01*
X140477Y208523D01*
X140281Y208231D01*
X140033Y207983D01*
X139898Y207658D01*
X139703Y207366D01*
X139635Y207021D01*
X139500Y206696D01*
Y206345D01*
X139431Y206000D01*
X139500Y205655D01*
Y205304D01*
X139635Y204979D01*
X139703Y204634D01*
X139898Y204342D01*
X140033Y204017D01*
X140281Y203769D01*
X140477Y203477D01*
X140769Y203281D01*
X140867Y203183D01*
X140899Y203089D01*
X140924Y202131D01*
X140880Y201702D01*
X140788Y201464D01*
X140337Y201163D01*
X139674Y200170D01*
X139441Y199000D01*
Y196338D01*
X138412Y195816D01*
X137500Y196425D01*
Y196696D01*
X136967Y197983D01*
X135983Y198967D01*
X134696Y199500D01*
X133304D01*
X132017Y198967D01*
X131033Y197983D01*
X130500Y196696D01*
Y195961D01*
X129026Y194487D01*
X128040D01*
X127103Y194300D01*
X126309Y193770D01*
X124829Y192290D01*
X123350Y192932D01*
X123311Y193129D01*
X123710Y194093D01*
Y195486D01*
X123178Y196772D01*
X122193Y197757D01*
X120907Y198290D01*
X119514D01*
X118228Y197757D01*
X117243Y196772D01*
X116711Y195486D01*
Y194093D01*
X117243Y192807D01*
X118228Y191822D01*
X118379Y191760D01*
X118553Y191499D01*
Y187088D01*
X118500D01*
Y181500D01*
X116500D01*
Y187088D01*
X116447D01*
Y188000D01*
X116261Y188937D01*
X115730Y189730D01*
X111500Y193961D01*
Y194696D01*
X110967Y195983D01*
X110657Y196293D01*
X110815Y196451D01*
X111500Y198105D01*
Y199895D01*
X111475Y199956D01*
X112477Y201456D01*
X116350D01*
X117228Y201631D01*
X117972Y202128D01*
X118469Y202872D01*
X118609Y203574D01*
X119791Y204456D01*
X121234Y204068D01*
X121411Y203639D01*
X122396Y202654D01*
X123682Y202121D01*
X123746D01*
X124407Y201680D01*
X125617Y201439D01*
X131697D01*
X132200Y201339D01*
X132787Y201456D01*
X134750D01*
X135628Y201631D01*
X136372Y202128D01*
X136869Y202872D01*
X137044Y203750D01*
Y205250D01*
X136869Y206128D01*
X137122Y207878D01*
X137849Y208966D01*
X138055Y210000D01*
X132200D01*
Y212000D01*
X138055D01*
X137849Y213034D01*
X137837Y213052D01*
X137191Y214250D01*
X137837Y215448D01*
X137849Y215466D01*
X138055Y216500D01*
X132200D01*
Y217500D01*
X131200D01*
Y221604D01*
X129650D01*
X128366Y221349D01*
X128151Y221205D01*
X126651Y222007D01*
Y224161D01*
X128151Y224616D01*
X128337Y224337D01*
X129330Y223674D01*
X130500Y223441D01*
X134000D01*
X135170Y223674D01*
X136163Y224337D01*
X136826Y225329D01*
X137059Y226500D01*
X138506Y226372D01*
D02*
G37*
G36*
X162727Y185227D02*
X162984Y185055D01*
X163836Y184184D01*
X163616Y182977D01*
X163500Y182696D01*
Y181918D01*
X162307Y180929D01*
X162114Y180868D01*
X161796Y181000D01*
X160204D01*
X158734Y180391D01*
X157609Y179266D01*
X157000Y177796D01*
Y176204D01*
X157609Y174734D01*
X158734Y173609D01*
X160204Y173000D01*
X161039D01*
X161500Y172539D01*
Y171304D01*
X162033Y170017D01*
X163017Y169033D01*
X164304Y168500D01*
X165635D01*
X166365Y167770D01*
X167159Y167239D01*
X168095Y167053D01*
X171912D01*
Y167000D01*
X177500D01*
Y165000D01*
X171912D01*
Y164830D01*
X171564Y164761D01*
X170770Y164230D01*
X167039Y160500D01*
X166304D01*
X165017Y159967D01*
X164559Y159508D01*
X163059Y160130D01*
Y162500D01*
X162826Y163671D01*
X162163Y164663D01*
X161171Y165326D01*
X160000Y165559D01*
X159938D01*
X159523Y166180D01*
X157180Y168523D01*
X156023Y169297D01*
X154657Y169569D01*
X153600D01*
X153600Y169569D01*
X153255Y169500D01*
X152904D01*
X152579Y169366D01*
X152234Y169297D01*
X151942Y169102D01*
X151617Y168967D01*
X151369Y168719D01*
X151077Y168523D01*
X150881Y168231D01*
X150633Y167983D01*
X150498Y167658D01*
X150303Y167366D01*
X150234Y167021D01*
X150100Y166696D01*
X149907Y166538D01*
X149500Y166619D01*
X148750D01*
Y161000D01*
X146750D01*
Y166619D01*
X146000D01*
X144424Y166306D01*
X143817Y165900D01*
X143738Y165900D01*
X143119Y166235D01*
X142926Y167976D01*
X142967Y168017D01*
X143500Y169304D01*
Y170696D01*
X142967Y171983D01*
X142930Y172020D01*
X142013Y173000D01*
X142930Y173980D01*
X142967Y174017D01*
X143500Y175304D01*
Y176696D01*
X142967Y177983D01*
X141983Y178967D01*
X141658Y180725D01*
X141767Y180931D01*
X141874Y181005D01*
X142500Y180881D01*
X143000D01*
Y186750D01*
X145000D01*
Y180881D01*
X145500D01*
X147076Y181194D01*
X148413Y182087D01*
X148587D01*
X149924Y181194D01*
X151500Y180881D01*
X152000D01*
Y186750D01*
X154000D01*
Y180881D01*
X154500D01*
X156076Y181194D01*
X157413Y182087D01*
X158306Y183424D01*
X158619Y185000D01*
Y187213D01*
X160119Y187834D01*
X162727Y185227D01*
D02*
G37*
G36*
X34093Y202436D02*
X34194Y201924D01*
X35087Y200587D01*
Y200413D01*
X34194Y199076D01*
X33881Y197500D01*
Y197000D01*
X39750D01*
Y196000D01*
X40750D01*
Y190381D01*
X41500D01*
X43076Y190694D01*
X44413Y191587D01*
X44723Y192052D01*
X46318Y192334D01*
X46505Y192225D01*
X47329Y191674D01*
X48500Y191441D01*
X52000D01*
X53170Y191674D01*
X54163Y192337D01*
X54226Y192431D01*
X60774D01*
X60837Y192337D01*
X61830Y191674D01*
X63000Y191441D01*
X64512D01*
X65431Y190522D01*
Y185551D01*
X62625D01*
X61601Y185348D01*
X60732Y184767D01*
X60152Y183899D01*
X59949Y182875D01*
Y180625D01*
X60115Y179786D01*
X59989Y179368D01*
X59227Y178286D01*
X47754D01*
X46545Y178045D01*
X45519Y177360D01*
X44035Y175875D01*
X43172Y175154D01*
X42015Y175935D01*
X41983Y175967D01*
X40696Y176500D01*
X39304D01*
X38017Y175967D01*
X37033Y174983D01*
X36541Y173794D01*
X32765Y170019D01*
X32080Y168993D01*
X31839Y167784D01*
Y162000D01*
X32080Y160790D01*
X32765Y159765D01*
X35765Y156765D01*
X36790Y156080D01*
X38000Y155839D01*
X44783D01*
X45993Y156080D01*
X47018Y156765D01*
X47303Y157050D01*
X48428Y156430D01*
X48625Y156250D01*
Y154929D01*
X49158Y153642D01*
X49445Y153355D01*
X49986Y152375D01*
X49445Y151395D01*
X49158Y151108D01*
X48625Y149821D01*
Y148429D01*
X49158Y147142D01*
X49195Y147105D01*
X49994Y145999D01*
X49195Y145145D01*
X49033Y144983D01*
X48500Y143696D01*
Y142304D01*
X49033Y141017D01*
X49623Y140427D01*
X49873Y139500D01*
X49623Y138573D01*
X49033Y137983D01*
X48500Y136696D01*
Y135304D01*
X49033Y134017D01*
X50017Y133033D01*
X51304Y132500D01*
X52696D01*
X53817Y132964D01*
X59060D01*
X59375Y132657D01*
X60066Y131464D01*
X59949Y130875D01*
Y128625D01*
X60152Y127601D01*
X60631Y126500D01*
X60152Y125399D01*
X59949Y124375D01*
Y122125D01*
X60091Y121411D01*
X59522Y120357D01*
X59143Y119911D01*
X46867D01*
X45657Y119670D01*
X44632Y118985D01*
X41036Y115389D01*
X40886Y115327D01*
X39386Y116296D01*
Y118916D01*
X43163Y122694D01*
X43983Y123033D01*
X44967Y124017D01*
X45500Y125304D01*
Y126696D01*
X44967Y127983D01*
X43983Y128967D01*
X42696Y129500D01*
X41304D01*
X40017Y128967D01*
X39033Y127983D01*
X38694Y127163D01*
X33990Y122460D01*
X33305Y121435D01*
X33065Y120225D01*
Y108774D01*
X33305Y107565D01*
X33990Y106540D01*
X35865Y104665D01*
X36890Y103980D01*
X38100Y103739D01*
X47900D01*
X49110Y103980D01*
X50135Y104665D01*
X52559Y107089D01*
X60947D01*
X61601Y106652D01*
X62625Y106449D01*
X68765D01*
Y105075D01*
X68839Y104700D01*
Y99498D01*
X68337Y99163D01*
X68098Y98806D01*
X67489Y98717D01*
X66380Y98770D01*
X65583Y99567D01*
X64855Y99868D01*
X64170Y100326D01*
X63000Y100559D01*
X59500D01*
X58329Y100326D01*
X57505Y99775D01*
X57318Y99666D01*
X55723Y99948D01*
X55413Y100413D01*
X54076Y101306D01*
X52500Y101619D01*
X51750D01*
Y96000D01*
X50750D01*
Y95000D01*
X44881D01*
Y94500D01*
X45194Y92924D01*
X46087Y91587D01*
X47424Y90694D01*
X47744Y90631D01*
X48014Y90275D01*
X48616Y88928D01*
X48431Y88000D01*
Y86846D01*
X48330Y86826D01*
X47337Y86163D01*
X46674Y85170D01*
X46441Y84000D01*
Y83338D01*
X44941Y83040D01*
X44053Y85184D01*
X41700Y88705D01*
X38705Y91700D01*
X35184Y94053D01*
X31271Y95674D01*
X27118Y96500D01*
X22882D01*
X18729Y95674D01*
X14816Y94053D01*
X11295Y91700D01*
X8300Y88705D01*
X5947Y85184D01*
X4326Y81271D01*
X3500Y77118D01*
Y72882D01*
X4326Y68729D01*
X5947Y64816D01*
X8300Y61295D01*
X11295Y58300D01*
X14816Y55947D01*
X18729Y54326D01*
X22882Y53500D01*
X27118D01*
X31271Y54326D01*
X35184Y55947D01*
X38705Y58300D01*
X41700Y61295D01*
X43710Y64303D01*
X45123Y63717D01*
X44881Y62500D01*
Y62000D01*
X50750D01*
Y61000D01*
X51750D01*
Y55381D01*
X52500D01*
X54076Y55694D01*
X55413Y56587D01*
X55476Y56682D01*
X57116Y56950D01*
X58089Y56182D01*
Y52121D01*
X56589Y51167D01*
X55848Y51513D01*
X55683Y51913D01*
X54698Y52897D01*
X53412Y53430D01*
X52019D01*
X50733Y52897D01*
X49748Y51913D01*
X49215Y50626D01*
Y49234D01*
X49748Y47948D01*
X50733Y46963D01*
X51182Y46777D01*
X52589Y45370D01*
Y41986D01*
X51089Y41688D01*
X50967Y41983D01*
X49983Y42967D01*
X48696Y43500D01*
X47304D01*
X46787Y43286D01*
X46249D01*
X45663Y44163D01*
X44671Y44826D01*
X43500Y45059D01*
X40500D01*
X39330Y44826D01*
X38337Y44163D01*
X37674Y43171D01*
X37441Y42000D01*
Y38500D01*
X37674Y37329D01*
X38337Y36337D01*
X38511Y36221D01*
X38368Y34550D01*
X37667Y34272D01*
X37280Y34624D01*
X34000Y37904D01*
Y44500D01*
X24500D01*
Y33000D01*
X29964D01*
X31538Y31426D01*
X30964Y30040D01*
X30250D01*
Y24250D01*
X35040D01*
Y26159D01*
X36239Y27088D01*
X37039Y26944D01*
X37751Y26715D01*
X38337Y25837D01*
X39330Y25174D01*
X40500Y24941D01*
X43500D01*
X44671Y25174D01*
X45663Y25837D01*
X46326Y26830D01*
X46559Y28000D01*
Y31500D01*
X46326Y32671D01*
X45663Y33663D01*
X44880Y34186D01*
X44765Y35000D01*
X44880Y35814D01*
X45663Y36337D01*
X46082Y36964D01*
X46183D01*
X47304Y36500D01*
X48696D01*
X49441Y36809D01*
X50780Y36115D01*
X50941Y35930D01*
Y34500D01*
X51174Y33330D01*
X51837Y32337D01*
X52829Y31674D01*
X54000Y31441D01*
X57500D01*
X58671Y31674D01*
X59663Y32337D01*
X60186Y33120D01*
X61000Y33235D01*
X61814Y33120D01*
X62337Y32337D01*
X63158Y31788D01*
X63036Y30712D01*
X62907Y30290D01*
X62489Y30100D01*
X62304D01*
X61979Y29966D01*
X61634Y29897D01*
X61342Y29702D01*
X61017Y29567D01*
X60769Y29319D01*
X60477Y29123D01*
X60281Y28831D01*
X60033Y28583D01*
X59898Y28258D01*
X59703Y27966D01*
X59634Y27621D01*
X59500Y27296D01*
Y26945D01*
X59431Y26600D01*
Y25978D01*
X57512Y24059D01*
X56500D01*
X55329Y23826D01*
X54337Y23163D01*
X53674Y22171D01*
X53441Y21000D01*
Y17500D01*
X53674Y16329D01*
X54225Y15505D01*
X54334Y15318D01*
X54052Y13723D01*
X53587Y13413D01*
X52694Y12076D01*
X52381Y10500D01*
Y9750D01*
X58000D01*
X63619D01*
Y10500D01*
X63306Y12076D01*
X62413Y13413D01*
X61948Y13723D01*
X61666Y15318D01*
X61775Y15505D01*
X62326Y16329D01*
X62559Y17500D01*
Y19012D01*
X65523Y21977D01*
X66297Y23134D01*
X66569Y24500D01*
Y24840D01*
X67062Y25225D01*
X68069Y25564D01*
X68786Y25085D01*
X69995Y24844D01*
X71171D01*
X71174Y24829D01*
X71837Y23837D01*
X72804Y23191D01*
X72831Y23171D01*
X73487Y21514D01*
X73194Y21076D01*
X72881Y19500D01*
Y19000D01*
X78750D01*
Y17000D01*
X72881D01*
Y16500D01*
X73194Y14924D01*
X73335Y14714D01*
X74037Y13500D01*
X73335Y12286D01*
X73194Y12076D01*
X72881Y10500D01*
Y10000D01*
X78750D01*
Y9000D01*
X79750D01*
Y3381D01*
X80500D01*
X82076Y3694D01*
X83413Y4587D01*
X83723Y5052D01*
X85318Y5334D01*
X85505Y5225D01*
X86329Y4674D01*
X87500Y4441D01*
X91000D01*
X92171Y4674D01*
X93077Y5280D01*
X93550Y5135D01*
X94500Y4638D01*
Y2906D01*
X95082Y1500D01*
X94262Y0D01*
X48227D01*
X47531Y1500D01*
X48094Y2476D01*
X48503Y4000D01*
X42000D01*
X35497D01*
X35906Y2476D01*
X36469Y1500D01*
X35773Y0D01*
X0D01*
Y106750D01*
X1500Y107205D01*
X1983Y106483D01*
X3195Y105673D01*
X4625Y105388D01*
X10000D01*
Y110250D01*
X12000D01*
Y105388D01*
X17375D01*
X18805Y105673D01*
X20017Y106483D01*
X20827Y107695D01*
X20974Y108434D01*
X22555Y108976D01*
X23694Y107837D01*
X24033Y107017D01*
X25017Y106033D01*
X26304Y105500D01*
X27696D01*
X28983Y106033D01*
X29967Y107017D01*
X30500Y108304D01*
Y109696D01*
X29967Y110983D01*
X28983Y111967D01*
X28163Y112306D01*
X22135Y118335D01*
X21451Y118792D01*
X21313Y119110D01*
X21187Y120016D01*
X21226Y120526D01*
X21842Y121142D01*
X22375Y122429D01*
Y123821D01*
X21842Y125108D01*
X21735Y125214D01*
X22357Y126714D01*
X25360D01*
X26179Y126375D01*
X27571D01*
X28858Y126908D01*
X29842Y127892D01*
X30375Y129179D01*
Y130571D01*
X29842Y131858D01*
X28858Y132842D01*
X27571Y133375D01*
X26179D01*
X25360Y133036D01*
X22857D01*
X22533Y133389D01*
X22005Y134536D01*
X22375Y135429D01*
Y136821D01*
X21842Y138108D01*
X21735Y138214D01*
X22357Y139714D01*
X23786D01*
X24304Y139500D01*
X25696D01*
X26983Y140033D01*
X27967Y141017D01*
X28500Y142304D01*
Y143696D01*
X27967Y144983D01*
X26983Y145967D01*
X25696Y146500D01*
X24304D01*
X23183Y146036D01*
X22857D01*
X22533Y146389D01*
X22005Y147536D01*
X22375Y148429D01*
Y149821D01*
X22155Y150352D01*
X23303Y151500D01*
X23304Y151500D01*
X24696D01*
X25983Y152033D01*
X26967Y153017D01*
X27500Y154304D01*
Y155696D01*
X26967Y156983D01*
X25983Y157967D01*
X24696Y158500D01*
X24560D01*
X24118Y158795D01*
X22908Y159036D01*
X22857D01*
X22533Y159389D01*
X22005Y160536D01*
X22375Y161429D01*
Y162821D01*
X21842Y164108D01*
X21377Y164573D01*
X21087Y165648D01*
X21429Y166479D01*
X21967Y167017D01*
X22500Y168304D01*
Y169696D01*
X22299Y170181D01*
X23082Y171602D01*
X23211Y171698D01*
X24491Y171953D01*
X25649Y172727D01*
X27523Y174601D01*
X28297Y175759D01*
X28569Y177125D01*
Y183000D01*
X28297Y184366D01*
X27523Y185523D01*
X25605Y187441D01*
X26227Y188941D01*
X28500D01*
X29671Y189174D01*
X30663Y189837D01*
X31326Y190830D01*
X31559Y192000D01*
Y195500D01*
X31326Y196670D01*
X30775Y197495D01*
X30666Y197682D01*
X30948Y199277D01*
X31413Y199587D01*
X32306Y200924D01*
X32619Y202500D01*
X34093Y202436D01*
D02*
G37*
G36*
X80087Y139587D02*
X80633Y138583D01*
X80498Y138258D01*
X80303Y137966D01*
X80234Y137621D01*
X80100Y137296D01*
Y136945D01*
X80031Y136600D01*
X80100Y136255D01*
Y135904D01*
X80234Y135579D01*
X80303Y135234D01*
X80498Y134942D01*
X80633Y134617D01*
X80881Y134369D01*
X81077Y134077D01*
X82798Y132356D01*
X82674Y132171D01*
X82441Y131000D01*
Y127500D01*
X82674Y126329D01*
X83225Y125505D01*
X83334Y125318D01*
X83052Y123723D01*
X82587Y123413D01*
X81694Y122076D01*
X81381Y120500D01*
Y119750D01*
X87000D01*
Y118750D01*
X88000D01*
Y112881D01*
X88500D01*
X88782Y112937D01*
X89941Y111985D01*
Y106101D01*
X89941Y106101D01*
X90174Y104931D01*
X90837Y103938D01*
X93175Y101600D01*
X92554Y100100D01*
X92304D01*
X91017Y99567D01*
X90033Y98583D01*
X89584Y97500D01*
X88105D01*
X86451Y96815D01*
X85185Y95549D01*
X84661Y94283D01*
X83161Y94581D01*
Y104485D01*
X83500Y105304D01*
Y106696D01*
X82967Y107983D01*
X81983Y108967D01*
X80696Y109500D01*
X79304D01*
X78051Y110605D01*
Y111375D01*
X77848Y112399D01*
X77369Y113500D01*
X77848Y114601D01*
X78051Y115625D01*
Y117875D01*
X77848Y118899D01*
X77267Y119768D01*
Y120232D01*
X77848Y121101D01*
X78051Y122125D01*
Y124375D01*
X77848Y125399D01*
X77369Y126500D01*
X77848Y127601D01*
X78051Y128625D01*
Y130875D01*
X77848Y131899D01*
X77267Y132767D01*
Y133232D01*
X77848Y134101D01*
X78051Y135125D01*
Y137375D01*
X77848Y138399D01*
X77513Y139169D01*
X77885Y140099D01*
X78033Y140329D01*
X79576Y140352D01*
X80087Y139587D01*
D02*
G37*
%LPC*%
G36*
X104950Y461604D02*
X103400D01*
Y458500D01*
X108255D01*
X108049Y459534D01*
X107322Y460622D01*
X106234Y461349D01*
X104950Y461604D01*
D02*
G37*
G36*
X101400D02*
X99850D01*
X98566Y461349D01*
X97478Y460622D01*
X96751Y459534D01*
X96545Y458500D01*
X101400D01*
Y461604D01*
D02*
G37*
G36*
X58796Y461483D02*
X58046D01*
X56470Y461169D01*
X55133Y460276D01*
X54240Y458940D01*
X53927Y457364D01*
Y456864D01*
X58796D01*
Y461483D01*
D02*
G37*
G36*
X174503Y456000D02*
X169000D01*
Y450497D01*
X170524Y450906D01*
X172016Y451767D01*
X173233Y452984D01*
X174094Y454476D01*
X174503Y456000D01*
D02*
G37*
G36*
X167000D02*
X161497D01*
X161906Y454476D01*
X162767Y452984D01*
X163984Y451767D01*
X165476Y450906D01*
X167000Y450497D01*
Y456000D01*
D02*
G37*
G36*
X108255Y456500D02*
X102400D01*
X96545D01*
X96751Y455466D01*
X96763Y455448D01*
X97409Y454250D01*
X96763Y453052D01*
X96751Y453034D01*
X96545Y452000D01*
X102400D01*
Y450000D01*
X96545D01*
X96751Y448966D01*
X97478Y447878D01*
X97731Y446128D01*
X97556Y445250D01*
Y443750D01*
X97731Y442872D01*
X98228Y442128D01*
X98972Y441631D01*
X99850Y441456D01*
X104016D01*
X104100Y441439D01*
X111125D01*
X112335Y441680D01*
X113361Y442365D01*
X115235Y444240D01*
X115920Y445265D01*
X116161Y446474D01*
Y450485D01*
X116500Y451304D01*
Y452696D01*
X115967Y453983D01*
X114983Y454967D01*
X113696Y455500D01*
X112304D01*
X111017Y454967D01*
X110033Y453983D01*
X109598Y452934D01*
X108723Y452800D01*
X108078Y452886D01*
X108049Y453034D01*
X108037Y453052D01*
X107391Y454250D01*
X108037Y455448D01*
X108049Y455466D01*
X108255Y456500D01*
D02*
G37*
G36*
X58796Y445864D02*
X53927D01*
Y445364D01*
X54240Y443787D01*
X55133Y442451D01*
X56470Y441558D01*
X58046Y441245D01*
X58796D01*
Y445864D01*
D02*
G37*
G36*
X149696Y440500D02*
X148304D01*
X147017Y439967D01*
X146033Y438983D01*
X145500Y437696D01*
Y436304D01*
X146033Y435017D01*
X147017Y434033D01*
X148304Y433500D01*
X149696D01*
X150983Y434033D01*
X151967Y435017D01*
X152500Y436304D01*
Y437696D01*
X151967Y438983D01*
X150983Y439967D01*
X149696Y440500D01*
D02*
G37*
G36*
X126500Y438119D02*
X126000D01*
Y433250D01*
X130619D01*
Y434000D01*
X130306Y435576D01*
X129413Y436913D01*
X128076Y437806D01*
X126500Y438119D01*
D02*
G37*
G36*
X124000D02*
X123500D01*
X121924Y437806D01*
X120587Y436913D01*
X119694Y435576D01*
X119381Y434000D01*
Y433250D01*
X124000D01*
Y438119D01*
D02*
G37*
G36*
X249750Y424000D02*
X244881D01*
Y423500D01*
X245194Y421924D01*
X246087Y420587D01*
X247424Y419694D01*
X249000Y419381D01*
X249750D01*
Y424000D01*
D02*
G37*
G36*
X206500Y415859D02*
X201000D01*
Y412250D01*
X210109D01*
X209835Y413631D01*
X209052Y414802D01*
X207881Y415585D01*
X206500Y415859D01*
D02*
G37*
G36*
X199000D02*
X193500D01*
X192119Y415585D01*
X190948Y414802D01*
X190165Y413631D01*
X189891Y412250D01*
X199000D01*
Y415859D01*
D02*
G37*
G36*
X210109Y410250D02*
X189891D01*
X190165Y408869D01*
X190746Y408000D01*
X190165Y407131D01*
X189891Y405750D01*
X210109D01*
X209835Y407131D01*
X209254Y408000D01*
X209835Y408869D01*
X210109Y410250D01*
D02*
G37*
G36*
Y403750D02*
X189891D01*
X190165Y402369D01*
X190746Y401500D01*
X190165Y400631D01*
X189891Y399250D01*
X210109D01*
X209835Y400631D01*
X209254Y401500D01*
X209835Y402369D01*
X210109Y403750D01*
D02*
G37*
G36*
X24000Y422375D02*
X13901D01*
Y419000D01*
X12579Y417955D01*
X12220Y417884D01*
X11558Y417442D01*
X11116Y416780D01*
X10961Y416000D01*
Y406000D01*
X11116Y405220D01*
X11558Y404558D01*
X12220Y404116D01*
X13000Y403961D01*
X12872Y402514D01*
X11533Y402248D01*
X9866Y401134D01*
X8752Y399467D01*
X8361Y397500D01*
Y396000D01*
X16500D01*
X24639D01*
Y397500D01*
X24248Y399467D01*
X23134Y401134D01*
X21467Y402248D01*
X19500Y402639D01*
X19042D01*
X18780Y404116D01*
X19442Y404558D01*
X19884Y405220D01*
X20039Y406000D01*
Y415900D01*
X24000D01*
Y422375D01*
D02*
G37*
G36*
X52000Y400750D02*
X47381D01*
Y400000D01*
X47694Y398424D01*
X48587Y397087D01*
X49924Y396194D01*
X51500Y395881D01*
X52000D01*
Y400750D01*
D02*
G37*
G36*
X24639Y394000D02*
X17500D01*
Y387361D01*
X19500D01*
X21467Y387752D01*
X23134Y388866D01*
X24248Y390533D01*
X24639Y392500D01*
Y394000D01*
D02*
G37*
G36*
X15500D02*
X8361D01*
Y392500D01*
X8752Y390533D01*
X9866Y388866D01*
X11533Y387752D01*
X13500Y387361D01*
X15500D01*
Y394000D01*
D02*
G37*
G36*
X14500Y338639D02*
X12500D01*
Y332000D01*
X19639D01*
Y333500D01*
X19248Y335466D01*
X18134Y337134D01*
X16466Y338248D01*
X14500Y338639D01*
D02*
G37*
G36*
X10500D02*
X8500D01*
X6533Y338248D01*
X4866Y337134D01*
X3752Y335466D01*
X3361Y333500D01*
Y332000D01*
X10500D01*
Y338639D01*
D02*
G37*
G36*
X163619Y401750D02*
X159000D01*
Y396881D01*
X159500D01*
X161076Y397194D01*
X162413Y398087D01*
X163305Y399424D01*
X163619Y401000D01*
Y401750D01*
D02*
G37*
G36*
X199000Y351750D02*
X189891D01*
X190165Y350369D01*
X190948Y349198D01*
X192119Y348415D01*
X193500Y348141D01*
X199000D01*
Y351750D01*
D02*
G37*
G36*
X163619Y349750D02*
X159000D01*
Y344881D01*
X159500D01*
X161076Y345194D01*
X162413Y346087D01*
X163306Y347424D01*
X163619Y349000D01*
Y349750D01*
D02*
G37*
G36*
X160000Y326619D02*
X159250D01*
Y322000D01*
X164119D01*
Y322500D01*
X163806Y324076D01*
X162913Y325413D01*
X161576Y326306D01*
X160000Y326619D01*
D02*
G37*
G36*
X146750Y277619D02*
X146000D01*
X144424Y277306D01*
X143087Y276413D01*
X142194Y275076D01*
X141881Y273500D01*
Y273000D01*
X146750D01*
Y277619D01*
D02*
G37*
G36*
X254000Y332000D02*
X237460D01*
Y319960D01*
X254000D01*
Y332000D01*
D02*
G37*
G36*
X147750Y250000D02*
X142881D01*
Y249500D01*
X143194Y247924D01*
X144087Y246587D01*
X145424Y245694D01*
X147000Y245381D01*
X147750D01*
Y250000D01*
D02*
G37*
G36*
X205696Y231500D02*
X204304D01*
X203017Y230967D01*
X202033Y229983D01*
X201500Y228696D01*
Y228377D01*
X200000Y227374D01*
X199696Y227500D01*
X198304D01*
X197017Y226967D01*
X196033Y225983D01*
X195500Y224696D01*
Y223304D01*
X196033Y222017D01*
X197017Y221033D01*
X198304Y220500D01*
X199696D01*
X200983Y221033D01*
X201967Y222017D01*
X202500Y223304D01*
Y223624D01*
X204000Y224626D01*
X204304Y224500D01*
X205696D01*
X206983Y225033D01*
X207967Y226017D01*
X208500Y227304D01*
Y228696D01*
X207967Y229983D01*
X206983Y230967D01*
X205696Y231500D01*
D02*
G37*
G36*
X235500Y238000D02*
X216500D01*
Y227000D01*
X233708Y227000D01*
X234555Y226164D01*
X234328Y225500D01*
X216500D01*
Y214500D01*
X235500D01*
Y223798D01*
X237000Y224097D01*
X237033Y224017D01*
X238017Y223033D01*
X239304Y222500D01*
X240696D01*
X241983Y223033D01*
X242967Y224017D01*
X243500Y225304D01*
Y226696D01*
X242967Y227983D01*
X241983Y228967D01*
X240696Y229500D01*
X239304D01*
X238017Y228967D01*
X237749Y228699D01*
X236502Y228002D01*
X235620Y228178D01*
X235620Y228178D01*
X235509Y228200D01*
X235507Y228225D01*
X235500Y228334D01*
X235500Y228451D01*
Y238000D01*
D02*
G37*
G36*
X160000Y223619D02*
X159250D01*
Y219000D01*
X164119D01*
Y219500D01*
X163806Y221076D01*
X162913Y222413D01*
X161576Y223306D01*
X160000Y223619D01*
D02*
G37*
G36*
X180696Y220500D02*
X179304D01*
X178017Y219967D01*
X177033Y218983D01*
X176500Y217696D01*
Y216304D01*
X177033Y215017D01*
X178017Y214033D01*
X179304Y213500D01*
X180696D01*
X181983Y214033D01*
X182967Y215017D01*
X183500Y216304D01*
Y217696D01*
X182967Y218983D01*
X181983Y219967D01*
X180696Y220500D01*
D02*
G37*
G36*
X164119Y208000D02*
X159250D01*
Y203381D01*
X160000D01*
X161576Y203694D01*
X162913Y204587D01*
X163806Y205924D01*
X164119Y207500D01*
Y208000D01*
D02*
G37*
G36*
X175000Y204119D02*
X174500D01*
X172924Y203806D01*
X171587Y202913D01*
X170694Y201576D01*
X170381Y200000D01*
Y199250D01*
X175000D01*
Y204119D01*
D02*
G37*
G36*
X236540Y131500D02*
X227000D01*
Y125960D01*
X236540D01*
Y131500D01*
D02*
G37*
G36*
X225000D02*
X215460D01*
Y125960D01*
X225000D01*
Y131500D01*
D02*
G37*
G36*
X194875Y116381D02*
X193750D01*
Y110000D01*
X199631D01*
Y111625D01*
X199269Y113445D01*
X198238Y114988D01*
X196695Y116019D01*
X194875Y116381D01*
D02*
G37*
G36*
X191750D02*
X190625D01*
X188805Y116019D01*
X187262Y114988D01*
X186231Y113445D01*
X185869Y111625D01*
Y110000D01*
X191750D01*
Y116381D01*
D02*
G37*
G36*
X199631Y108000D02*
X193750D01*
Y101619D01*
X194875D01*
X196695Y101981D01*
X198238Y103012D01*
X199269Y104555D01*
X199631Y106375D01*
Y108000D01*
D02*
G37*
G36*
X229696Y101500D02*
X228304D01*
X227017Y100967D01*
X226033Y99983D01*
X225500Y98696D01*
Y97304D01*
X226033Y96017D01*
X227017Y95033D01*
X228304Y94500D01*
X229696D01*
X230983Y95033D01*
X231967Y96017D01*
X232500Y97304D01*
Y98696D01*
X231967Y99983D01*
X230983Y100967D01*
X229696Y101500D01*
D02*
G37*
G36*
X165119Y90000D02*
X160250D01*
Y85381D01*
X161000D01*
X162576Y85694D01*
X163913Y86587D01*
X164806Y87924D01*
X165119Y89500D01*
Y90000D01*
D02*
G37*
G36*
X219000Y88503D02*
Y83000D01*
X224503D01*
X224094Y84524D01*
X223233Y86016D01*
X222016Y87233D01*
X220524Y88094D01*
X219000Y88503D01*
D02*
G37*
G36*
X217000D02*
X215476Y88094D01*
X213984Y87233D01*
X212767Y86016D01*
X211906Y84524D01*
X211497Y83000D01*
X217000D01*
Y88503D01*
D02*
G37*
G36*
X179375Y115321D02*
X175125D01*
X173711Y115040D01*
X172512Y114239D01*
X171710Y113039D01*
X171429Y111625D01*
Y106375D01*
X171710Y104961D01*
X172512Y103762D01*
X173339Y103209D01*
Y101427D01*
X172829Y101326D01*
X171837Y100663D01*
X171174Y99670D01*
X170941Y98500D01*
Y95500D01*
X171174Y94330D01*
X171837Y93337D01*
X172620Y92814D01*
X172735Y92000D01*
X172620Y91186D01*
X171837Y90663D01*
X171174Y89670D01*
X170941Y88500D01*
Y86911D01*
X168771Y84741D01*
X168086Y83715D01*
X167845Y82506D01*
Y80002D01*
X164006D01*
X164006Y80002D01*
X162702Y80403D01*
X162672Y80403D01*
X161310D01*
X160023Y79871D01*
X159039Y78886D01*
X158506Y77600D01*
Y76207D01*
X159039Y74921D01*
X160023Y73936D01*
X161310Y73404D01*
X161753D01*
X163022Y72036D01*
X162966Y71542D01*
X162966D01*
Y67002D01*
X171006D01*
Y65002D01*
X162966D01*
Y60462D01*
X164006D01*
Y54725D01*
X163000Y53569D01*
X162655Y53500D01*
X162304D01*
X161979Y53366D01*
X161634Y53297D01*
X161342Y53102D01*
X161017Y52967D01*
X160769Y52719D01*
X160477Y52523D01*
X160281Y52231D01*
X160033Y51982D01*
X159898Y51658D01*
X159703Y51366D01*
X159635Y51021D01*
X159500Y50696D01*
Y50345D01*
X159431Y50000D01*
X159500Y49655D01*
Y49304D01*
X159635Y48979D01*
X159703Y48634D01*
X159898Y48342D01*
X160033Y48017D01*
X160281Y47769D01*
X160477Y47477D01*
X163931Y44022D01*
Y43000D01*
X163941Y42951D01*
Y40886D01*
X163863Y40441D01*
X162611Y39500D01*
X162304D01*
X161017Y38967D01*
X160033Y37983D01*
X159500Y36696D01*
Y35304D01*
X160033Y34017D01*
X160548Y33502D01*
X159927Y32002D01*
X157005D01*
Y31320D01*
X155505Y31172D01*
X155248Y32466D01*
X154134Y34134D01*
X152466Y35248D01*
X150500Y35639D01*
X149000D01*
Y27500D01*
Y19361D01*
X150500D01*
X152466Y19752D01*
X154134Y20866D01*
X155248Y22534D01*
X155505Y23828D01*
X157005Y23680D01*
Y23002D01*
X171005D01*
Y32002D01*
X166073D01*
X165452Y33502D01*
X165967Y34017D01*
X166500Y35304D01*
Y36011D01*
X166799Y36865D01*
X167815Y37441D01*
X170500D01*
X171670Y37674D01*
X172495Y38225D01*
X172682Y38334D01*
X174277Y38052D01*
X174587Y37587D01*
X175924Y36694D01*
X177500Y36381D01*
X178250D01*
Y42000D01*
X179250D01*
Y43000D01*
X185119D01*
Y43500D01*
X184806Y45076D01*
X184711Y45218D01*
X185876Y46174D01*
X186017Y46033D01*
X187304Y45500D01*
X188696D01*
X189983Y46033D01*
X190967Y47017D01*
X191500Y48304D01*
Y49696D01*
X191211Y50393D01*
X192108Y51505D01*
X193500Y51083D01*
Y47882D01*
X194326Y43729D01*
X195947Y39816D01*
X198300Y36295D01*
X201295Y33300D01*
X202997Y32162D01*
X202542Y30662D01*
X197005D01*
Y32002D01*
X183005D01*
Y23542D01*
X181965D01*
Y19002D01*
X190005D01*
Y17002D01*
X181965D01*
Y12462D01*
X183005D01*
Y4002D01*
X197005D01*
Y4933D01*
X206404D01*
X206616Y4616D01*
X207939Y3732D01*
X209500Y3422D01*
X215500D01*
X217061Y3732D01*
X218384Y4616D01*
X219268Y5939D01*
X219578Y7500D01*
Y12500D01*
X219268Y14061D01*
X219260Y14073D01*
Y14213D01*
X219523Y14477D01*
X219719Y14769D01*
X219967Y15017D01*
X220102Y15342D01*
X220297Y15634D01*
X220366Y15979D01*
X220500Y16304D01*
Y16655D01*
X220569Y17000D01*
Y17441D01*
X222000D01*
X222176Y17476D01*
X222766Y16329D01*
X222828Y16077D01*
X221752Y14467D01*
X221361Y12500D01*
Y11000D01*
X228500D01*
Y17639D01*
X226500D01*
X225236Y17387D01*
X224445Y18759D01*
X224826Y19330D01*
X225059Y20500D01*
Y23500D01*
X224826Y24671D01*
X224163Y25663D01*
X223171Y26326D01*
X222000Y26559D01*
X218500D01*
X217330Y26326D01*
X216337Y25663D01*
X215814Y24880D01*
X215000Y24765D01*
X214186Y24880D01*
X213663Y25663D01*
X212670Y26326D01*
X211500Y26559D01*
X209411D01*
X207941Y28029D01*
X208729Y29326D01*
X212882Y28500D01*
X217118D01*
X221271Y29326D01*
X225184Y30947D01*
X228705Y33300D01*
X231700Y36295D01*
X234053Y39816D01*
X235674Y43729D01*
X236500Y47882D01*
Y52118D01*
X235674Y56271D01*
X234053Y60184D01*
X231700Y63705D01*
X228705Y66700D01*
X225184Y69053D01*
X221271Y70674D01*
X217118Y71500D01*
X212882D01*
X208729Y70674D01*
X204816Y69053D01*
X201295Y66700D01*
X199466Y64871D01*
X198083Y65610D01*
X198161Y66000D01*
Y78500D01*
X197920Y79710D01*
X197235Y80735D01*
X191059Y86911D01*
Y88500D01*
X190826Y89670D01*
X190163Y90663D01*
X189411Y91166D01*
Y92835D01*
X190163Y93337D01*
X190826Y94330D01*
X191059Y95500D01*
Y98500D01*
X190826Y99670D01*
X190489Y100175D01*
X191227Y101619D01*
X191750D01*
Y108000D01*
X185869D01*
Y106375D01*
X186231Y104555D01*
X187230Y103059D01*
X187175Y102773D01*
X186736Y101559D01*
X184500D01*
X183330Y101326D01*
X182337Y100663D01*
X181814Y99880D01*
X181000Y99765D01*
X180186Y99880D01*
X179663Y100663D01*
X179661Y100664D01*
Y102736D01*
X180789Y102960D01*
X181989Y103762D01*
X182790Y104961D01*
X183071Y106375D01*
Y111625D01*
X182790Y113039D01*
X181989Y114239D01*
X180789Y115040D01*
X179375Y115321D01*
D02*
G37*
G36*
X224503Y81000D02*
X219000D01*
Y75497D01*
X220524Y75906D01*
X222016Y76767D01*
X223233Y77984D01*
X224094Y79476D01*
X224503Y81000D01*
D02*
G37*
G36*
X217000D02*
X211497D01*
X211906Y79476D01*
X212767Y77984D01*
X213984Y76767D01*
X215476Y75906D01*
X217000Y75497D01*
Y81000D01*
D02*
G37*
G36*
X100055Y72500D02*
X94200D01*
X88345D01*
X88551Y71466D01*
X88563Y71448D01*
X89209Y70250D01*
X88563Y69052D01*
X88551Y69034D01*
X88345Y68000D01*
X94200D01*
X100055D01*
X99849Y69034D01*
X99837Y69052D01*
X99191Y70250D01*
X99837Y71448D01*
X99849Y71466D01*
X100055Y72500D01*
D02*
G37*
G36*
X112000Y70750D02*
X105619D01*
Y69625D01*
X105981Y67805D01*
X107012Y66262D01*
X108555Y65231D01*
X110375Y64869D01*
X112000D01*
Y70750D01*
D02*
G37*
G36*
X185119Y41000D02*
X180250D01*
Y36381D01*
X181000D01*
X182576Y36694D01*
X183913Y37587D01*
X184806Y38924D01*
X185119Y40500D01*
Y41000D01*
D02*
G37*
G36*
X150500Y17578D02*
X145500D01*
X143939Y17268D01*
X142616Y16384D01*
X141732Y15061D01*
X141422Y13500D01*
Y7500D01*
X141732Y5939D01*
X142616Y4616D01*
X143939Y3732D01*
X145500Y3422D01*
X150500D01*
X152061Y3732D01*
X153384Y4616D01*
X154263Y5932D01*
X157005D01*
Y4002D01*
X171005D01*
Y13002D01*
X163346D01*
X163006Y13069D01*
X154578D01*
Y13500D01*
X154268Y15061D01*
X153384Y16384D01*
X152061Y17268D01*
X150500Y17578D01*
D02*
G37*
G36*
X228500Y9000D02*
X221361D01*
Y7500D01*
X221752Y5533D01*
X222866Y3866D01*
X224534Y2752D01*
X226500Y2361D01*
X228500D01*
Y9000D01*
D02*
G37*
G36*
X54639Y305500D02*
X48000D01*
Y298361D01*
X49500D01*
X51466Y298752D01*
X53134Y299866D01*
X54248Y301534D01*
X54639Y303500D01*
Y305500D01*
D02*
G37*
G36*
X46000D02*
X39361D01*
Y303500D01*
X39752Y301534D01*
X40866Y299866D01*
X42533Y298752D01*
X44500Y298361D01*
X46000D01*
Y305500D01*
D02*
G37*
G36*
X37619Y300750D02*
X33000D01*
Y295881D01*
X33500D01*
X35076Y296194D01*
X36413Y297087D01*
X37306Y298424D01*
X37619Y300000D01*
Y300750D01*
D02*
G37*
G36*
X102619Y287750D02*
X98000D01*
Y282881D01*
X98500D01*
X100076Y283194D01*
X101413Y284087D01*
X102306Y285424D01*
X102619Y287000D01*
Y287750D01*
D02*
G37*
G36*
X96000D02*
X91381D01*
Y287000D01*
X91694Y285424D01*
X92587Y284087D01*
X93924Y283194D01*
X95500Y282881D01*
X96000D01*
Y287750D01*
D02*
G37*
G36*
X89605Y285800D02*
X86500D01*
Y280945D01*
X87534Y281151D01*
X88622Y281878D01*
X89349Y282966D01*
X89605Y284250D01*
Y285800D01*
D02*
G37*
G36*
X48500Y250139D02*
X47000D01*
Y243000D01*
X53639D01*
Y245000D01*
X53248Y246966D01*
X52134Y248634D01*
X50466Y249748D01*
X48500Y250139D01*
D02*
G37*
G36*
X53639Y241000D02*
X47000D01*
Y233861D01*
X48500D01*
X50466Y234252D01*
X52134Y235366D01*
X53248Y237034D01*
X53639Y239000D01*
Y241000D01*
D02*
G37*
G36*
X59750Y219000D02*
X54881D01*
Y218500D01*
X55194Y216924D01*
X56087Y215587D01*
X57424Y214694D01*
X59000Y214381D01*
X59750D01*
Y219000D01*
D02*
G37*
G36*
X134750Y221604D02*
X133200D01*
Y218500D01*
X138055D01*
X137849Y219534D01*
X137122Y220622D01*
X136034Y221349D01*
X134750Y221604D01*
D02*
G37*
G36*
X38750Y195000D02*
X33881D01*
Y194500D01*
X34194Y192924D01*
X35087Y191587D01*
X36424Y190694D01*
X38000Y190381D01*
X38750D01*
Y195000D01*
D02*
G37*
G36*
X54896Y130500D02*
X53504D01*
X52217Y129967D01*
X51233Y128983D01*
X50700Y127696D01*
Y126304D01*
X51233Y125017D01*
X52217Y124033D01*
X53504Y123500D01*
X54896D01*
X56183Y124033D01*
X57167Y125017D01*
X57700Y126304D01*
Y127696D01*
X57167Y128983D01*
X56183Y129967D01*
X54896Y130500D01*
D02*
G37*
G36*
X49750Y101619D02*
X49000D01*
X47424Y101306D01*
X46087Y100413D01*
X45194Y99076D01*
X44881Y97500D01*
Y97000D01*
X49750D01*
Y101619D01*
D02*
G37*
G36*
X49750Y60000D02*
X44881D01*
Y59500D01*
X45194Y57924D01*
X46087Y56587D01*
X47424Y55694D01*
X49000Y55381D01*
X49750D01*
Y60000D01*
D02*
G37*
G36*
X28250Y30040D02*
X23460D01*
Y24250D01*
X28250D01*
Y30040D01*
D02*
G37*
G36*
X43000Y11503D02*
Y6000D01*
X48503D01*
X48094Y7524D01*
X47233Y9016D01*
X46016Y10233D01*
X44524Y11094D01*
X43000Y11503D01*
D02*
G37*
G36*
X41000Y11503D02*
X39476Y11094D01*
X37984Y10233D01*
X36767Y9016D01*
X35906Y7524D01*
X35497Y6000D01*
X41000D01*
Y11503D01*
D02*
G37*
G36*
X31869Y9000D02*
X27000D01*
Y4381D01*
X27750D01*
X29326Y4694D01*
X30663Y5587D01*
X31556Y6924D01*
X31869Y8500D01*
Y9000D01*
D02*
G37*
G36*
X17500Y44500D02*
X8000D01*
Y33000D01*
X8672D01*
Y29000D01*
X8000D01*
Y17500D01*
X8672D01*
Y12500D01*
X8672Y12500D01*
X8982Y10939D01*
X9866Y9616D01*
X10691Y8791D01*
Y8500D01*
X10924Y7329D01*
X11587Y6337D01*
X12579Y5674D01*
X13750Y5441D01*
X17250D01*
X18420Y5674D01*
X19245Y6225D01*
X19432Y6334D01*
X21027Y6052D01*
X21337Y5587D01*
X22674Y4694D01*
X24250Y4381D01*
X25000D01*
Y10000D01*
X26000D01*
Y11000D01*
X31869D01*
Y11500D01*
X31556Y13076D01*
X30663Y14413D01*
X29843Y14960D01*
X30299Y16460D01*
X35040D01*
Y22250D01*
X23460D01*
Y16991D01*
X23460Y16460D01*
X22674Y15306D01*
X21337Y14413D01*
X21027Y13948D01*
X19432Y13666D01*
X19245Y13775D01*
X18420Y14326D01*
X17250Y14559D01*
X16828D01*
Y17500D01*
X17500D01*
Y29000D01*
X16828D01*
Y33000D01*
X17500D01*
Y44500D01*
D02*
G37*
G36*
X77750Y8000D02*
X72881D01*
Y7500D01*
X73194Y5924D01*
X74087Y4587D01*
X75424Y3694D01*
X77000Y3381D01*
X77750D01*
Y8000D01*
D02*
G37*
G36*
X63619Y7750D02*
X59000D01*
Y2881D01*
X59500D01*
X61076Y3194D01*
X62413Y4087D01*
X63306Y5424D01*
X63619Y7000D01*
Y7750D01*
D02*
G37*
G36*
X57000D02*
X52381D01*
Y7000D01*
X52694Y5424D01*
X53587Y4087D01*
X54924Y3194D01*
X56500Y2881D01*
X57000D01*
Y7750D01*
D02*
G37*
G36*
X86000Y117750D02*
X81381D01*
Y117000D01*
X81694Y115424D01*
X82587Y114087D01*
X83924Y113194D01*
X85500Y112881D01*
X86000D01*
Y117750D01*
D02*
G37*
%LPD*%
D13*
X34500Y437000D02*
D03*
X25000D02*
D03*
X15500D02*
D03*
Y411000D02*
D03*
X34500D02*
D03*
D14*
X25000Y423375D02*
D03*
D15*
X13000Y310000D02*
D03*
X17000D02*
D03*
X21000D02*
D03*
Y306000D02*
D03*
X17000D02*
D03*
X13000D02*
D03*
D16*
X32000Y312250D02*
D03*
Y301750D02*
D03*
X87000Y118750D02*
D03*
Y129250D02*
D03*
X83000Y256750D02*
D03*
Y267250D02*
D03*
X72000Y95250D02*
D03*
Y84750D02*
D03*
X74000Y267250D02*
D03*
Y256750D02*
D03*
X50000Y436250D02*
D03*
Y425750D02*
D03*
X63000Y264750D02*
D03*
Y275250D02*
D03*
X135000Y32250D02*
D03*
Y21750D02*
D03*
X99000Y229750D02*
D03*
Y240250D02*
D03*
X143000Y123750D02*
D03*
Y134250D02*
D03*
X152000Y123750D02*
D03*
Y134250D02*
D03*
X149000Y361250D02*
D03*
Y350750D02*
D03*
X90000Y240250D02*
D03*
Y229750D02*
D03*
X104000Y119250D02*
D03*
Y108750D02*
D03*
X74000Y229750D02*
D03*
Y240250D02*
D03*
X84500Y38250D02*
D03*
Y27750D02*
D03*
X93500D02*
D03*
Y38250D02*
D03*
X58000Y19250D02*
D03*
Y8750D02*
D03*
X61000Y82250D02*
D03*
Y71750D02*
D03*
X51000D02*
D03*
Y82250D02*
D03*
X144000Y228750D02*
D03*
Y239250D02*
D03*
X78000Y344750D02*
D03*
Y355250D02*
D03*
X61000Y322750D02*
D03*
Y333250D02*
D03*
X53000Y401750D02*
D03*
Y412250D02*
D03*
X71000Y401750D02*
D03*
Y412250D02*
D03*
X63000Y240250D02*
D03*
Y229750D02*
D03*
X71000Y333250D02*
D03*
Y322750D02*
D03*
X146000Y413250D02*
D03*
Y402750D02*
D03*
X140000Y361250D02*
D03*
Y350750D02*
D03*
X88000Y344750D02*
D03*
Y355250D02*
D03*
X58000D02*
D03*
Y344750D02*
D03*
X169000Y271750D02*
D03*
Y282250D02*
D03*
X41000Y322750D02*
D03*
Y333250D02*
D03*
X40000Y256750D02*
D03*
Y267250D02*
D03*
X5000Y441750D02*
D03*
Y452250D02*
D03*
X68000Y344750D02*
D03*
Y355250D02*
D03*
X110000Y239250D02*
D03*
Y228750D02*
D03*
X27000Y204250D02*
D03*
Y193750D02*
D03*
X97000Y288750D02*
D03*
Y299250D02*
D03*
X125000Y432250D02*
D03*
Y421750D02*
D03*
X51000Y333250D02*
D03*
Y322750D02*
D03*
X62000Y412250D02*
D03*
Y401750D02*
D03*
X144000Y197250D02*
D03*
Y186750D02*
D03*
X158000Y413250D02*
D03*
Y402750D02*
D03*
X197000Y309750D02*
D03*
Y320250D02*
D03*
X187000Y309750D02*
D03*
Y320250D02*
D03*
X131000Y361250D02*
D03*
Y350750D02*
D03*
X158000D02*
D03*
Y361250D02*
D03*
X75500Y38250D02*
D03*
Y27750D02*
D03*
X161000Y123750D02*
D03*
Y134250D02*
D03*
X153000Y186750D02*
D03*
Y197250D02*
D03*
X176000Y198250D02*
D03*
Y187750D02*
D03*
X42000Y40250D02*
D03*
Y29750D02*
D03*
X60000Y287750D02*
D03*
Y298250D02*
D03*
D17*
X61250Y96000D02*
D03*
X50750D02*
D03*
X121750Y255000D02*
D03*
X132250D02*
D03*
X121750Y246000D02*
D03*
X132250D02*
D03*
X55750Y36000D02*
D03*
X66250D02*
D03*
X73250Y48000D02*
D03*
X62750D02*
D03*
X132250Y237000D02*
D03*
X121750D02*
D03*
X59750Y431000D02*
D03*
X70250D02*
D03*
X132250Y228000D02*
D03*
X121750D02*
D03*
X82750Y48000D02*
D03*
X93250D02*
D03*
X112750Y21000D02*
D03*
X123250D02*
D03*
X112750Y30000D02*
D03*
X123250D02*
D03*
X112750Y12000D02*
D03*
X123250D02*
D03*
X75250Y196000D02*
D03*
X64750D02*
D03*
X147750Y161000D02*
D03*
X158250D02*
D03*
X147750Y152000D02*
D03*
X158250D02*
D03*
X84750Y144000D02*
D03*
X95250D02*
D03*
Y153000D02*
D03*
X84750D02*
D03*
X159250Y111000D02*
D03*
X148750D02*
D03*
X158250Y381000D02*
D03*
X147750D02*
D03*
X158250Y209000D02*
D03*
X147750D02*
D03*
X50250Y205000D02*
D03*
X39750D02*
D03*
X158750Y261000D02*
D03*
X169250D02*
D03*
X158250Y272000D02*
D03*
X147750D02*
D03*
X158250Y321000D02*
D03*
X147750D02*
D03*
Y372000D02*
D03*
X158250D02*
D03*
X168750Y42000D02*
D03*
X179250D02*
D03*
X159250Y91000D02*
D03*
X148750D02*
D03*
X158250Y218000D02*
D03*
X147750D02*
D03*
X111750Y42000D02*
D03*
X122250D02*
D03*
X159250Y102000D02*
D03*
X148750D02*
D03*
X209750Y22000D02*
D03*
X220250D02*
D03*
X175750Y87000D02*
D03*
X186250D02*
D03*
X61250Y61000D02*
D03*
X50750D02*
D03*
X175750Y97000D02*
D03*
X186250D02*
D03*
X129250Y109000D02*
D03*
X118750D02*
D03*
Y134000D02*
D03*
X129250D02*
D03*
X118750Y118000D02*
D03*
X129250D02*
D03*
X26000Y10000D02*
D03*
X15500D02*
D03*
X17250Y204000D02*
D03*
X6750D02*
D03*
X17250Y194000D02*
D03*
X6750D02*
D03*
X194750Y265000D02*
D03*
X205250D02*
D03*
X194750Y275000D02*
D03*
X205250D02*
D03*
X136750Y261000D02*
D03*
X147250D02*
D03*
X78750Y18000D02*
D03*
X89250D02*
D03*
X39750Y196000D02*
D03*
X50250D02*
D03*
X60750Y220000D02*
D03*
X71250D02*
D03*
X148750Y251000D02*
D03*
X159250D02*
D03*
X59796Y446864D02*
D03*
X70296D02*
D03*
X173750Y392000D02*
D03*
X184250D02*
D03*
X173750Y372000D02*
D03*
X184250D02*
D03*
X121075Y351265D02*
D03*
X110575D02*
D03*
X121075Y342266D02*
D03*
X110575D02*
D03*
X147750Y312000D02*
D03*
X158250D02*
D03*
X146250Y42000D02*
D03*
X135750D02*
D03*
X78750Y9000D02*
D03*
X89250D02*
D03*
X59796Y455864D02*
D03*
X70296D02*
D03*
X250750Y425000D02*
D03*
X261250D02*
D03*
X194750Y285000D02*
D03*
X205250D02*
D03*
X194750Y245000D02*
D03*
X205250D02*
D03*
X194750Y255000D02*
D03*
X205250D02*
D03*
D18*
X117500Y169000D02*
D03*
X106500Y390500D02*
D03*
D19*
X107000Y181500D02*
D03*
X110500D02*
D03*
X114000D02*
D03*
X117500D02*
D03*
X121000D02*
D03*
X124500D02*
D03*
X128000D02*
D03*
Y156500D02*
D03*
X124500D02*
D03*
X121000D02*
D03*
X117500D02*
D03*
X114000D02*
D03*
X110500D02*
D03*
X107000D02*
D03*
X183000Y153500D02*
D03*
X186500D02*
D03*
X190000D02*
D03*
X193500D02*
D03*
X197000D02*
D03*
Y178500D02*
D03*
X193500D02*
D03*
X190000D02*
D03*
X186500D02*
D03*
X183000D02*
D03*
X96000Y403000D02*
D03*
X99500D02*
D03*
X103000D02*
D03*
X106500D02*
D03*
X110000D02*
D03*
X113500D02*
D03*
X117000D02*
D03*
Y378000D02*
D03*
X113500D02*
D03*
X110000D02*
D03*
X106500D02*
D03*
X103000D02*
D03*
X99500D02*
D03*
X96000D02*
D03*
D20*
X130000Y176000D02*
D03*
Y172500D02*
D03*
Y169000D02*
D03*
Y165500D02*
D03*
Y162000D02*
D03*
X105000D02*
D03*
Y165500D02*
D03*
Y169000D02*
D03*
Y172500D02*
D03*
Y176000D02*
D03*
X202500Y155500D02*
D03*
Y159000D02*
D03*
Y162500D02*
D03*
Y166000D02*
D03*
Y169500D02*
D03*
Y173000D02*
D03*
Y176500D02*
D03*
X177500D02*
D03*
Y173000D02*
D03*
Y169500D02*
D03*
Y166000D02*
D03*
Y162500D02*
D03*
Y159000D02*
D03*
Y155500D02*
D03*
X119000Y397500D02*
D03*
Y394000D02*
D03*
Y390500D02*
D03*
Y387000D02*
D03*
Y383500D02*
D03*
X94000D02*
D03*
Y387000D02*
D03*
Y390500D02*
D03*
Y394000D02*
D03*
Y397500D02*
D03*
D21*
X190000Y166000D02*
D03*
D22*
X11500Y331000D02*
D03*
X28500D02*
D03*
X27500Y267000D02*
D03*
X10500D02*
D03*
X229500Y10000D02*
D03*
X212500D02*
D03*
X16500Y395000D02*
D03*
X33500D02*
D03*
X18500Y454000D02*
D03*
X35500D02*
D03*
D23*
X182000Y280750D02*
D03*
Y265250D02*
D03*
X113000Y71750D02*
D03*
Y56250D02*
D03*
D24*
X148000Y27500D02*
D03*
Y10500D02*
D03*
X46000Y242000D02*
D03*
Y225000D02*
D03*
X129006Y72502D02*
D03*
Y55502D02*
D03*
X186000Y73500D02*
D03*
Y56500D02*
D03*
X47000Y306500D02*
D03*
Y289500D02*
D03*
D25*
X190005Y8502D02*
D03*
Y18002D02*
D03*
Y27502D02*
D03*
X164005D02*
D03*
Y8502D02*
D03*
X145006Y56502D02*
D03*
Y75502D02*
D03*
X171006D02*
D03*
Y66002D02*
D03*
Y56502D02*
D03*
D26*
X258000Y411250D02*
D03*
Y404750D02*
D03*
Y398250D02*
D03*
Y391750D02*
D03*
Y385250D02*
D03*
Y378750D02*
D03*
Y372250D02*
D03*
Y365750D02*
D03*
Y359250D02*
D03*
Y352750D02*
D03*
X200000Y352750D02*
D03*
Y359250D02*
D03*
Y365750D02*
D03*
Y372250D02*
D03*
Y378750D02*
D03*
Y385250D02*
D03*
Y391750D02*
D03*
Y398250D02*
D03*
Y404750D02*
D03*
Y411250D02*
D03*
D27*
X192750Y109000D02*
D03*
X177250D02*
D03*
D28*
X72500Y305200D02*
D03*
X79000D02*
D03*
X85500D02*
D03*
X72500Y286800D02*
D03*
X79000D02*
D03*
X85500D02*
D03*
D29*
X29500Y225000D02*
D03*
X10500D02*
D03*
Y251000D02*
D03*
X20000D02*
D03*
X29500D02*
D03*
D30*
X11000Y175250D02*
D03*
Y168750D02*
D03*
Y162250D02*
D03*
Y155750D02*
D03*
Y149250D02*
D03*
Y142750D02*
D03*
Y136250D02*
D03*
Y129750D02*
D03*
Y123250D02*
D03*
Y116750D02*
D03*
Y110250D02*
D03*
X69000D02*
D03*
Y116750D02*
D03*
Y123250D02*
D03*
Y129750D02*
D03*
Y136250D02*
D03*
Y142750D02*
D03*
Y149250D02*
D03*
Y155750D02*
D03*
Y162250D02*
D03*
Y168750D02*
D03*
Y175250D02*
D03*
Y181750D02*
D03*
X11000D02*
D03*
D31*
X94200Y73500D02*
D03*
Y67000D02*
D03*
Y60500D02*
D03*
X75800Y73500D02*
D03*
Y67000D02*
D03*
Y60500D02*
D03*
X113800Y204500D02*
D03*
Y211000D02*
D03*
Y217500D02*
D03*
X132200Y204500D02*
D03*
Y211000D02*
D03*
Y217500D02*
D03*
X102400Y457500D02*
D03*
Y451000D02*
D03*
Y444500D02*
D03*
X84000Y457500D02*
D03*
Y451000D02*
D03*
Y444500D02*
D03*
D32*
X226000Y132500D02*
D03*
Y145000D02*
D03*
Y157500D02*
D03*
Y170000D02*
D03*
Y182500D02*
D03*
Y195000D02*
D03*
Y207500D02*
D03*
Y220000D02*
D03*
Y232500D02*
D03*
Y245000D02*
D03*
Y257500D02*
D03*
Y270000D02*
D03*
Y282500D02*
D03*
Y295000D02*
D03*
Y307500D02*
D03*
D33*
X255000Y333000D02*
D03*
Y107000D02*
D03*
D34*
X29250Y23250D02*
D03*
X12750D02*
D03*
Y38750D02*
D03*
X29250D02*
D03*
D35*
X110000Y3000D02*
D03*
X100000Y4000D02*
D03*
X42000Y5000D02*
D03*
X168000Y457000D02*
D03*
X218000Y82000D02*
D03*
D40*
X198000Y132000D02*
D03*
X181000Y133000D02*
D03*
X169000Y144000D02*
D03*
X161000Y177000D02*
D03*
X130000Y143000D02*
D03*
X141000Y147000D02*
D03*
X69000Y376000D02*
D03*
X86000Y378000D02*
D03*
X98000Y362000D02*
D03*
X112000D02*
D03*
X120000Y366000D02*
D03*
X129000Y378000D02*
D03*
D49*
X109000Y83000D02*
D03*
X89000D02*
D03*
Y93000D02*
D03*
X107000Y199000D02*
D03*
X99000Y201000D02*
D03*
Y212000D02*
D03*
X82000Y202000D02*
D03*
X90000D02*
D03*
Y212000D02*
D03*
X108000Y431000D02*
D03*
X109000Y422000D02*
D03*
X107000Y320000D02*
D03*
X98000Y331000D02*
D03*
X89000Y320000D02*
D03*
X98000Y321000D02*
D03*
X120000Y316000D02*
D03*
Y325000D02*
D03*
X87000Y430000D02*
D03*
X88000Y422000D02*
D03*
X98000Y431000D02*
D03*
X99000Y422000D02*
D03*
Y83000D02*
D03*
Y93000D02*
D03*
X109000D02*
D03*
D51*
X48000Y358778D02*
X50125Y360904D01*
X48000Y349000D02*
Y358778D01*
X41000Y342000D02*
X48000Y349000D01*
X128897Y108647D02*
X129250Y109000D01*
X127700Y102300D02*
X128897Y103497D01*
X127250Y102750D02*
X127700Y102300D01*
X137000Y93000D01*
X129250Y109000D02*
Y118000D01*
X128897Y103497D02*
Y108647D01*
X137000Y84000D02*
Y93000D01*
Y84000D02*
X143000Y90000D01*
X147750D01*
X132250Y246000D02*
Y255250D01*
X133000Y256000D02*
X133000Y256000D01*
X132250Y256000D02*
X133000D01*
X132250D02*
Y256750D01*
Y255250D02*
X133000Y256000D01*
X124000Y265000D02*
X132250Y256750D01*
X133000Y256000D02*
Y261000D01*
X7900Y290100D02*
Y314053D01*
X16347Y322500D01*
X7900Y290100D02*
X18000Y280000D01*
Y276500D02*
Y280000D01*
X28271Y331000D02*
X28500D01*
X25309Y328038D02*
X28271Y331000D01*
X16347Y322500D02*
X22793D01*
X25309Y325016D02*
Y328038D01*
X22793Y322500D02*
X25309Y325016D01*
X31000Y312250D02*
Y328500D01*
X28500Y331000D02*
X31000Y328500D01*
X18000Y276500D02*
X24156Y270344D01*
X55178Y435572D02*
X58500Y432250D01*
X50000Y436000D02*
X50428Y435572D01*
X55178D01*
X58500Y432000D02*
X59500Y431000D01*
X58500Y432000D02*
Y432250D01*
X59500Y431000D02*
X59750D01*
X50000Y436000D02*
Y436250D01*
X83000Y256000D02*
X92000Y265000D01*
X82250Y256750D02*
X83000Y256000D01*
X74000Y256750D02*
X82250D01*
X52000Y88000D02*
X53000Y89000D01*
X51000Y82250D02*
Y82500D01*
X52000Y83500D02*
Y88000D01*
X51000Y82500D02*
X52000Y83500D01*
X50750Y97750D02*
X51000Y98000D01*
X50750Y96000D02*
Y97750D01*
X88010Y312000D02*
X92010Y308000D01*
X87000Y312000D02*
X88010D01*
X92010Y308000D02*
X125600D01*
X99000Y240250D02*
X100000Y241250D01*
Y243000D02*
X103000Y246000D01*
Y246000D01*
X100000Y241250D02*
Y243000D01*
X92000Y265000D02*
X124000D01*
X87000Y129250D02*
Y133200D01*
X83600Y136600D02*
X87000Y133200D01*
X58000Y19250D02*
Y19500D01*
X63000Y24500D02*
Y26600D01*
X58000Y19500D02*
X63000Y24500D01*
X64750Y196000D02*
X65000D01*
X63600Y197000D02*
Y206000D01*
Y197000D02*
X64600Y196000D01*
X50250D02*
X64600D01*
X69000Y181750D02*
Y192000D01*
X64600Y196000D02*
X64750D01*
X64750Y196000D01*
X65000D02*
X69000Y192000D01*
X97000Y127000D02*
X98100Y125900D01*
Y124322D02*
Y125900D01*
Y124322D02*
X101922Y120500D01*
X161000Y134000D02*
Y134500D01*
X163000Y136500D01*
Y136600D01*
X161000Y112750D02*
Y124000D01*
X159500Y111000D02*
X160500Y112000D01*
Y112250D01*
X159250Y111000D02*
X159500D01*
X160500Y112250D02*
X161000Y112750D01*
X158600Y141000D02*
X163000Y136600D01*
X137400Y141000D02*
X158600D01*
X133000Y136600D02*
X137400Y141000D01*
X143000Y123750D02*
X152000D01*
X30500Y333000D02*
X40500D01*
X28500Y331000D02*
X30500Y333000D01*
X169000Y271750D02*
Y272000D01*
X170000Y273000D01*
X173682D01*
X181432Y280750D01*
X182000D01*
X163000Y265000D02*
Y266000D01*
X159000Y261000D02*
X163000Y265000D01*
X158750Y261000D02*
X159000D01*
X169000Y282250D02*
Y290500D01*
X165500Y294000D02*
X169000Y290500D01*
X243000Y307000D02*
X248000D01*
X226500D02*
X243000D01*
X19510Y251490D02*
Y258490D01*
X11000Y267000D02*
X19510Y258490D01*
X3000Y267000D02*
X11000D01*
X19510Y251490D02*
X20000Y251000D01*
X171006Y66002D02*
X171751Y66747D01*
X182809Y70309D02*
X183038D01*
X171751Y66747D02*
X179247D01*
X182809Y70309D01*
X183038D02*
X186000Y73271D01*
Y73500D01*
X161000Y66000D02*
X172000D01*
X133600Y16600D02*
X134000Y17000D01*
Y20750D01*
X135000Y21750D01*
X154657Y166000D02*
X157000Y163657D01*
X153600Y166000D02*
X154657D01*
X153600Y166000D02*
X153600Y166000D01*
X157000Y162000D02*
Y163657D01*
Y162000D02*
X158000Y161000D01*
X158250D01*
X163000Y146600D02*
Y147500D01*
X158500Y152000D02*
X163000Y147500D01*
X158250Y152000D02*
X158500D01*
X165500Y294000D02*
X172093Y300593D01*
X163000Y291500D02*
X165500Y294000D01*
X148000Y347000D02*
Y349750D01*
X144000Y343000D02*
X148000Y347000D01*
Y349750D02*
X149000Y350750D01*
X143600Y196600D02*
X144250Y197250D01*
X152350D02*
X153000Y196600D01*
X144250Y197250D02*
X152350D01*
X153000Y197000D02*
Y197250D01*
X68000Y355250D02*
X68872Y356122D01*
Y361235D01*
X71637Y364000D01*
X83000D01*
X11000Y175250D02*
X23126D01*
X17250Y194000D02*
X18505Y192745D01*
Y189495D02*
Y192745D01*
Y189495D02*
X25000Y183000D01*
Y177125D02*
Y183000D01*
X23126Y175250D02*
X25000Y177125D01*
X132100Y136600D02*
X133000D01*
X129500Y134000D02*
X132100Y136600D01*
X129250Y134000D02*
X129500D01*
X91000Y244000D02*
X93600Y246600D01*
X91000Y241250D02*
Y244000D01*
X90000Y240250D02*
X91000Y241250D01*
X39375Y204625D02*
X39750Y204250D01*
Y196000D02*
Y204250D01*
X27375Y204625D02*
X39375D01*
X27000Y204250D02*
X27375Y204625D01*
X39375D02*
X39750Y205000D01*
X29500Y251000D02*
Y265000D01*
X27500Y267000D02*
X28500Y266000D01*
X29500Y265000D01*
X28500Y244500D02*
Y250000D01*
X29500Y251000D01*
X17250Y233250D02*
X28500Y244500D01*
X17250Y204000D02*
Y233250D01*
Y199000D02*
Y204000D01*
X24156Y270331D02*
Y270344D01*
Y270331D02*
X27487Y267000D01*
X27500D01*
X17250Y194000D02*
Y199000D01*
X172093Y300593D02*
X175407D01*
X178000Y298000D01*
X167750Y309750D02*
X187000D01*
X160000Y302000D02*
X167750Y309750D01*
X148200Y302000D02*
X160000D01*
X163000Y276000D02*
Y291500D01*
X147750Y210000D02*
X148750Y209000D01*
X61000Y321500D02*
X61250D01*
X60375Y322125D02*
X61000Y321500D01*
X63000Y319000D02*
Y319750D01*
Y316000D02*
Y319000D01*
X40000Y389000D02*
X50000Y379000D01*
X34000Y395000D02*
X40000Y389000D01*
X33500Y395000D02*
X34500Y396000D01*
Y411000D01*
X33500Y395000D02*
X34000D01*
X50125Y360904D02*
Y379000D01*
X41000Y333250D02*
Y342000D01*
X50000Y379000D02*
X50125D01*
X28500Y266000D02*
X29750Y267250D01*
X40000D01*
X18900Y193750D02*
X27000D01*
X18505Y193355D02*
X18900Y193750D01*
X18505Y192745D02*
Y193355D01*
X89250Y17000D02*
X90250D01*
X71000Y412500D02*
X73600Y415100D01*
X71000Y412250D02*
Y412500D01*
X73600Y415100D02*
Y416600D01*
X53600Y412850D02*
Y416600D01*
X53000Y412250D02*
X53600Y412850D01*
X154000Y196000D02*
X157000D01*
X153000Y197000D02*
X154000Y196000D01*
X165250Y187750D02*
X176000D01*
X157000Y196000D02*
X165250Y187750D01*
X147750Y210000D02*
Y218000D01*
X145000Y208000D02*
X146750D01*
X147750Y209000D01*
X143000Y206000D02*
X145000Y208000D01*
X147750Y90000D02*
X148750Y91000D01*
X101922Y120500D02*
X103000D01*
X104000Y119500D01*
Y119250D02*
Y119500D01*
X60375Y322125D02*
X61000Y322750D01*
X60375Y322125D02*
Y322125D01*
X61250Y321500D02*
X63000Y319750D01*
X53600Y356600D02*
X53700Y356500D01*
X57000D01*
X58000Y355500D01*
Y355250D02*
Y355500D01*
X78000Y340000D02*
Y344750D01*
X93000Y356600D02*
X93600D01*
X92900Y356500D02*
X93000Y356600D01*
X89000Y356500D02*
X92900D01*
X88000Y355500D02*
X89000Y356500D01*
X88000Y355250D02*
Y355500D01*
X133000Y261000D02*
Y296000D01*
X125600Y308000D02*
X143600Y326000D01*
X83000Y316000D02*
X87000Y312000D01*
X129506Y56002D02*
X144506D01*
X129006Y55502D02*
X129506Y56002D01*
X144506D02*
X145006Y56502D01*
X153600Y46000D02*
Y50408D01*
X145006Y56502D02*
X147506D01*
X153600Y50408D01*
X158000Y413250D02*
X165750D01*
X172500Y393000D02*
Y406500D01*
X165750Y413250D02*
X172500Y406500D01*
X158000Y413250D02*
Y413500D01*
X143600Y306600D02*
X148200Y302000D01*
X133000Y296000D02*
X143600Y306600D01*
X167500Y43000D02*
X168500Y42000D01*
X167500Y43000D02*
Y45500D01*
X163000Y50000D02*
X167500Y45500D01*
X168500Y42000D02*
X168750D01*
X35000Y453500D02*
X35500Y454000D01*
X34500Y437000D02*
X35000Y437500D01*
Y453500D01*
X36000Y454500D02*
Y462000D01*
X212729Y10000D02*
X215691Y12962D01*
X212500Y10000D02*
X212729D01*
X215691Y12962D02*
Y15691D01*
X217000Y17000D02*
Y19000D01*
X220000Y22000D01*
X215691Y15691D02*
X217000Y17000D01*
X211002Y8502D02*
X212500Y10000D01*
X190005Y8502D02*
X211002D01*
X220000Y22000D02*
X220250D01*
X226000Y307500D02*
X226500Y307000D01*
X131000Y361500D02*
X132000Y362500D01*
Y364657D02*
X134343Y367000D01*
X135000D01*
X132000Y362500D02*
Y364657D01*
X130947Y361197D02*
X131000Y361250D01*
X121075Y351265D02*
X121098Y351289D01*
X121075Y342266D02*
Y351265D01*
X121098Y351289D02*
Y357098D01*
X125197Y361197D02*
X130947D01*
X121098Y357098D02*
X125197Y361197D01*
X140450Y345343D02*
Y350300D01*
X140000Y350750D02*
X140450Y350300D01*
Y345343D02*
X142793Y343000D01*
X96500Y139909D02*
X98204Y138204D01*
X96500Y139909D02*
Y143000D01*
X95250Y144000D02*
X95500D01*
X96500Y143000D01*
X95250Y144000D02*
Y153000D01*
X148750Y102000D02*
Y111000D01*
X143000Y96000D02*
Y96500D01*
X148500Y102000D02*
X148750D01*
X143000Y96500D02*
X148500Y102000D01*
X143600Y324900D02*
X147500Y321000D01*
X147750D01*
X143600Y324900D02*
Y326000D01*
X158250Y372000D02*
X158500D01*
X163000Y367500D01*
Y366600D02*
Y367500D01*
Y385500D02*
Y386000D01*
X158250Y381000D02*
X158500D01*
X163000Y385500D01*
X154900Y416600D02*
X158000Y413500D01*
X153000Y416600D02*
X154900D01*
X173500Y392000D02*
X173750D01*
X172500Y393000D02*
X173500Y392000D01*
X173750Y372000D02*
Y392000D01*
X158000Y361000D02*
X162400Y356600D01*
X158000Y361000D02*
Y361250D01*
X162400Y356600D02*
X163000D01*
X162500Y276000D02*
X163000D01*
X158250Y272000D02*
X158500D01*
X162500Y276000D01*
X145000Y238000D02*
X151600D01*
X153000Y236600D01*
X144000Y239000D02*
Y239250D01*
Y239000D02*
X145000Y238000D01*
X75000Y239000D02*
X75250D01*
X74000Y240000D02*
Y240250D01*
Y240000D02*
X75000Y239000D01*
X75250D02*
X77650Y236600D01*
X83000D01*
X63000Y240250D02*
Y246600D01*
X187000Y309750D02*
X197000D01*
X143600Y306600D02*
Y308100D01*
X147500Y312000D02*
X147750D01*
X143600Y308100D02*
X147500Y312000D01*
X159500Y251000D02*
X163000Y247500D01*
X159250Y251000D02*
X159500D01*
X163000Y246600D02*
Y247500D01*
X89250Y9000D02*
Y17000D01*
Y18000D02*
X90250Y17000D01*
X93200D01*
X93600Y16600D01*
X146500Y42000D02*
X150500Y46000D01*
X153600D01*
X146250Y42000D02*
X146500D01*
X156003Y9501D02*
X163006D01*
X148999D02*
X156003D01*
X163006D02*
X164005Y8502D01*
X148000Y10500D02*
X148999Y9501D01*
D52*
X9500Y462500D02*
X35229D01*
X6000Y459000D02*
X9500Y462500D01*
X6000Y453250D02*
Y459000D01*
X35729Y462000D02*
X36000D01*
X35229Y462500D02*
X35729Y462000D01*
X96801Y102300D02*
X127700D01*
X93000Y106101D02*
X96801Y102300D01*
X50875Y71625D02*
X51000Y71750D01*
X50750Y61000D02*
X50875Y61125D01*
Y71625D01*
X94500Y39250D02*
X99119D01*
X93500Y38250D02*
X94500Y39250D01*
X84500Y38250D02*
X93500D01*
X75500D02*
X84500D01*
X77243Y311500D02*
X79000Y309743D01*
X68500Y311500D02*
X77243D01*
X79000Y297000D02*
Y309743D01*
X81500Y294500D02*
X92500D01*
X79000Y297000D02*
X81500Y294500D01*
X92500D02*
X97000Y299000D01*
Y299250D01*
X63600Y306600D02*
X68500Y311500D01*
X120000Y235500D02*
X122000Y237500D01*
Y238000D01*
X110000Y229000D02*
X116500Y235500D01*
X120000D01*
X123250Y238500D02*
X124243D01*
X126000Y240257D01*
X129000Y243000D02*
X132000Y246000D01*
X126000Y240257D02*
Y240364D01*
X128636Y243000D01*
X129000D01*
X132000Y246000D02*
X132250D01*
X121750Y237000D02*
X123250Y238500D01*
X87000Y129000D02*
Y129250D01*
Y129000D02*
X93000Y123000D01*
Y106101D02*
Y123000D01*
X195000Y463000D02*
X223527D01*
X184000Y452000D02*
X195000Y463000D01*
X243000Y432000D02*
X259000D01*
X260757Y430243D01*
Y425493D02*
X261250Y425000D01*
X260757Y425493D02*
Y430243D01*
X238000Y437000D02*
X243000Y432000D01*
X223527Y463000D02*
X224527Y462000D01*
X224527D02*
X238000Y448527D01*
Y437000D02*
Y448527D01*
X224527Y462000D02*
X224527D01*
X258000Y411250D02*
X260750D01*
X261250Y411750D02*
Y425000D01*
X260750Y411250D02*
X261250Y411750D01*
X29500Y225000D02*
Y237500D01*
X37000Y245000D01*
X29500Y225000D02*
X46000D01*
X29500Y225000D02*
X29500Y225000D01*
X63000Y319000D02*
X66007Y322007D01*
X83000Y316000D02*
Y328000D01*
X94000Y339000D01*
X71243Y322507D02*
X76493D01*
X71000Y322750D02*
X71243Y322507D01*
X76493D02*
X83000Y316000D01*
X70257Y322007D02*
X71000Y322750D01*
X66007Y322007D02*
X70257D01*
X60487Y303498D02*
X63600Y306610D01*
X60487Y298737D02*
Y303498D01*
X60000Y298250D02*
X60487Y298737D01*
X93600Y356329D02*
Y356600D01*
Y356329D02*
X94000Y355929D01*
Y339000D02*
Y355929D01*
X5000Y452250D02*
X6000Y453250D01*
D53*
X25000Y423375D02*
X25475Y422900D01*
X38304D01*
X23000Y413000D02*
X25000Y415000D01*
Y423375D01*
X12375D02*
X25000D01*
X12000Y423000D02*
X12375Y423375D01*
X73125Y48125D02*
X73250Y48000D01*
X73000Y55000D02*
X73125Y54875D01*
Y48125D02*
Y54875D01*
X110000Y3000D02*
Y4028D01*
X111100Y5128D01*
Y10600D01*
X112500Y12000D01*
X112750D01*
X99000Y229855D02*
Y230000D01*
X110000Y239000D02*
Y239250D01*
X99000Y230000D02*
X106600Y237600D01*
X108600D01*
X110000Y239000D01*
X32000Y301875D02*
X36875D01*
X23000Y287000D02*
X27584D01*
X14000Y296000D02*
X23000Y287000D01*
X32000Y301750D02*
Y301875D01*
X36875D02*
X37000Y302000D01*
X27584Y287000D02*
X30084Y289500D01*
X47000D01*
X50000Y425500D02*
X51400Y424100D01*
X50000Y425500D02*
Y425750D01*
X51400Y424100D02*
X56100D01*
X63600Y416600D01*
X73000Y440000D02*
Y440216D01*
X71900Y441316D02*
X73000Y440216D01*
X71900Y441316D02*
Y445464D01*
X70296Y446864D02*
X70500D01*
X71900Y445464D01*
X63000Y264750D02*
Y265000D01*
X65424Y266400D02*
X66274Y267250D01*
X63000Y265000D02*
X64400Y266400D01*
X65424D01*
X66274Y267250D02*
X74000D01*
X63000Y264750D02*
Y265000D01*
X55587Y283087D02*
X60000Y287500D01*
Y287750D01*
X72500Y281716D02*
Y286800D01*
Y281716D02*
X76000Y278216D01*
X36226Y108774D02*
X38100Y106900D01*
X36226Y120225D02*
X42000Y126000D01*
X36226Y108774D02*
Y120225D01*
X61250Y44750D02*
Y61000D01*
X80600Y60400D02*
X93000Y48000D01*
X93250D01*
X75900Y60400D02*
X80600D01*
X75800Y60500D02*
X75900Y60400D01*
X72000Y84500D02*
Y84750D01*
X70600Y83100D02*
X72000Y84500D01*
X70042Y83100D02*
X70600D01*
X68000Y81784D02*
X68726D01*
X70042Y83100D01*
X68000Y65505D02*
Y81784D01*
X64000Y85784D02*
X68000Y81784D01*
X52125Y136125D02*
X68875D01*
X52000Y136000D02*
X52125Y136125D01*
X68875D02*
X69000Y136250D01*
X52125Y142875D02*
X68875D01*
X52000Y143000D02*
X52125Y142875D01*
X68875D02*
X69000Y142750D01*
X68938Y149187D02*
X69000Y149250D01*
X52188Y149187D02*
X68938D01*
X52125Y149125D02*
X52188Y149187D01*
Y155688D02*
X68938D01*
X69000Y155750D01*
X52125Y155625D02*
X52188Y155688D01*
X72000Y95250D02*
Y105000D01*
X71276Y110250D02*
X71926Y109600D01*
Y105075D02*
X72000Y105000D01*
X51250Y110250D02*
X71276D01*
X71926Y105075D02*
Y109600D01*
X52716Y49714D02*
Y49930D01*
Y49714D02*
X55750Y46679D01*
Y36000D02*
Y46679D01*
X42117Y112000D02*
X46867Y116750D01*
X69000D01*
X42000Y112000D02*
X42117D01*
X38100Y106900D02*
X47900D01*
X51250Y110250D01*
X64000Y85784D02*
Y86000D01*
X63847Y85847D02*
X64000Y86000D01*
X63847Y85347D02*
Y85847D01*
X61000Y82500D02*
X63847Y85347D01*
X85000Y300217D02*
X85400Y300616D01*
Y305100D01*
X85500Y305200D01*
X85000Y300000D02*
Y300217D01*
X76000Y278000D02*
Y278216D01*
X113000Y246000D02*
X121750D01*
X113000Y256000D02*
X113216D01*
X114216Y255000D01*
X121750D01*
X62847Y440153D02*
X63000Y440000D01*
X61446Y445214D02*
X62847Y443813D01*
Y440153D02*
Y443813D01*
X87900Y438066D02*
Y438112D01*
X83000Y436000D02*
X83153Y436153D01*
X85987D01*
X87900Y438112D02*
X91000Y441213D01*
X85987Y436153D02*
X87900Y438066D01*
X47000Y262600D02*
X63000Y246600D01*
X47000Y262600D02*
Y289500D01*
X61250Y44750D02*
X67000Y39000D01*
Y31000D02*
Y39000D01*
X75245Y28005D02*
X75500Y27750D01*
X69995Y28005D02*
X75245D01*
X67000Y31000D02*
X69995Y28005D01*
X64895Y62400D02*
X68000Y65505D01*
X62650Y62400D02*
X64895D01*
X61250Y61000D02*
X62650Y62400D01*
X75500Y26600D02*
X83000D01*
X123447Y30197D02*
Y35847D01*
X111350Y22400D02*
X112750Y21000D01*
X108017Y22400D02*
X111350D01*
Y13400D02*
X112750Y12000D01*
X107016Y13400D02*
X111350D01*
X123250Y12000D02*
Y21000D01*
Y30000D01*
X123447Y30197D01*
X103816Y16600D02*
X107016Y13400D01*
X103600Y16600D02*
X103816D01*
Y26600D02*
X108017Y22400D01*
X103600Y26600D02*
X103816D01*
X123447Y35847D02*
X123600Y36000D01*
X112375Y42625D02*
Y55625D01*
X113000Y56250D01*
X111750Y42000D02*
X112375Y42625D01*
X143000Y134250D02*
X152000D01*
X123447Y36153D02*
Y40803D01*
X122250Y42000D02*
X123447Y40803D01*
Y36153D02*
X123600Y36000D01*
X103600Y26384D02*
Y26600D01*
X186250Y96250D02*
X187000Y97000D01*
X186250Y87000D02*
Y96250D01*
X176500Y108500D02*
X178000Y110000D01*
X176500Y97750D02*
Y108500D01*
X175750Y97000D02*
X176500Y97750D01*
X84750Y144000D02*
Y159250D01*
X19900Y116100D02*
X27000Y109000D01*
X7400Y181750D02*
X11000D01*
X6750Y182400D02*
Y194000D01*
Y182400D02*
X7400Y181750D01*
X11125Y142875D02*
X24875D01*
X25000Y143000D01*
X54533Y168750D02*
X69000D01*
X38000Y159000D02*
X44783D01*
X54533Y168750D01*
X11125Y129875D02*
X26875D01*
X47754Y175125D02*
X68875D01*
X41000Y165000D02*
Y165217D01*
X45492Y172862D02*
X47754Y175125D01*
X45492Y169708D02*
Y172862D01*
X41000Y165217D02*
X45492Y169708D01*
X69125Y162125D02*
X81875D01*
X82000Y162000D01*
X11125Y155875D02*
X22908D01*
X11000Y142750D02*
X11125Y142875D01*
X11000Y116750D02*
X11650Y116100D01*
X19900D01*
X68875Y175125D02*
X69000Y175250D01*
Y162250D02*
X69125Y162125D01*
X11000Y136250D02*
X11063Y136187D01*
X18813D01*
X18875Y136125D01*
X11000Y123250D02*
X11063Y123188D01*
X18813D01*
X18875Y123125D01*
X11000Y162250D02*
X11063Y162188D01*
X18813D01*
X18875Y162125D01*
X11000Y149250D02*
X11063Y149187D01*
X18813D01*
X18875Y149125D01*
X11000Y129750D02*
X11125Y129875D01*
X11000Y168750D02*
X11125Y168875D01*
X18875D01*
X19000Y169000D01*
X11000Y155750D02*
X11125Y155875D01*
X23784Y155000D02*
X24000D01*
X22908Y155875D02*
X23784Y155000D01*
X40000Y172784D02*
Y173000D01*
X35000Y167784D02*
X40000Y172784D01*
X35000Y162000D02*
Y167784D01*
Y162000D02*
X38000Y159000D01*
X83916Y145595D02*
X84750D01*
X187847Y49153D02*
Y54653D01*
X186000Y56500D02*
X187847Y54653D01*
Y49153D02*
X188000Y49000D01*
X145255Y227495D02*
X148505D01*
X144000Y228750D02*
X145255Y227495D01*
X148505D02*
X158000Y218000D01*
X158250Y209000D02*
X172000D01*
X176000Y205000D01*
Y198250D02*
Y205000D01*
X158000Y218000D02*
X158250Y217750D01*
Y209000D02*
Y217750D01*
X158000Y218000D02*
X158250D01*
X132200Y211000D02*
Y217500D01*
X142600Y227350D02*
X144000Y228750D01*
X132200Y217500D02*
X133800D01*
X142600Y226300D01*
Y227350D01*
X99000Y229750D02*
Y229855D01*
X100400Y231255D01*
X90000Y229750D02*
X99000D01*
X74500D02*
X90000D01*
X74000Y229250D02*
X74500Y229750D01*
X63500Y229250D02*
X74000D01*
X60750Y220000D02*
Y227250D01*
X63000Y229500D01*
Y229750D01*
X63500Y229250D01*
X51000Y71750D02*
X61000D01*
X159250Y102000D02*
Y111000D01*
Y91000D02*
Y102000D01*
X82000Y162000D02*
X84750Y159250D01*
X18513Y454000D02*
X25000Y447513D01*
Y437000D02*
Y447513D01*
X18500Y454000D02*
X18513D01*
X10500Y248447D02*
Y251000D01*
X9153Y247100D02*
X10500Y248447D01*
X9153Y243153D02*
Y247100D01*
X9000Y243000D02*
X9153Y243153D01*
X184909Y302955D02*
X194750Y293114D01*
Y285000D02*
Y293114D01*
X186500Y87000D02*
X195000Y78500D01*
X186250Y87000D02*
X186500D01*
X186000Y56500D02*
Y57000D01*
X195000Y66000D01*
Y78500D01*
X171007Y56501D02*
X185999D01*
X186000Y56500D01*
X171006Y56502D02*
X171007Y56501D01*
X194750Y275000D02*
Y285000D01*
Y265000D02*
Y275000D01*
Y255000D02*
Y265000D01*
Y245000D02*
Y255000D01*
X102400Y451000D02*
Y457500D01*
X60046Y446864D02*
X61446Y445464D01*
Y445214D02*
Y445464D01*
X59796Y446864D02*
X60046D01*
X59796D02*
Y455864D01*
X210937Y257847D02*
X212853D01*
X210784Y258000D02*
X210937Y257847D01*
X211000Y250000D02*
X211892Y249108D01*
X215075Y245926D01*
X206650Y246400D02*
X207400D01*
X211000Y250000D01*
X215075Y245926D02*
X225075D01*
X211000Y250000D02*
X211000D01*
X225075Y245926D02*
X226000Y245000D01*
X205250D02*
X206650Y246400D01*
X212853Y257847D02*
X213200Y257500D01*
X226000D01*
X206650Y256400D02*
X209184D01*
X210784Y258000D01*
X205250Y255000D02*
X206650Y256400D01*
X51000Y318000D02*
Y322750D01*
X133000Y261000D02*
X136750D01*
X69495Y67000D02*
X75800D01*
X68000Y65505D02*
X69495Y67000D01*
X75800Y73900D02*
X80000Y78100D01*
X75800Y73500D02*
Y73900D01*
X80000Y78100D02*
Y106000D01*
X94249Y60500D02*
X94349Y60400D01*
X94200Y60500D02*
X94249D01*
X94349Y60400D02*
X99383D01*
X102783Y57000D02*
X103000D01*
X99383Y60400D02*
X102783Y57000D01*
X143000Y416500D02*
Y416600D01*
X146000Y413250D02*
Y413500D01*
X143000Y416500D02*
X146000Y413500D01*
X105900Y221100D02*
X109500Y217500D01*
X81488Y221100D02*
X105900D01*
X109500Y217500D02*
X113800D01*
X6750Y204000D02*
X6947D01*
X8347Y205400D02*
Y207347D01*
X6947Y204000D02*
X8347Y205400D01*
Y207347D02*
X8500Y207500D01*
X210000Y275000D02*
X214500D01*
X222000Y282500D01*
X78500Y213717D02*
Y218112D01*
Y213717D02*
X83000Y209216D01*
X29250Y37750D02*
Y38750D01*
Y37750D02*
X30900Y36100D01*
X31334D01*
X36962Y30472D01*
X41278D01*
X42000Y29750D01*
X83000Y209000D02*
Y209216D01*
X51097Y205847D02*
X53447D01*
X50250Y205000D02*
X51097Y205847D01*
X53447D02*
X53600Y206000D01*
X176000Y181000D02*
Y187750D01*
X14100Y440900D02*
X15500Y439500D01*
X5850Y440900D02*
X14100D01*
X5000Y441750D02*
X5850Y440900D01*
X15500Y437000D02*
Y439500D01*
X104100Y444600D02*
X111125D01*
X113000Y446474D01*
Y452000D01*
X44875Y256875D02*
X45000Y257000D01*
X40000Y256750D02*
X40125Y256875D01*
X44875D01*
X132100Y204600D02*
X132200Y204500D01*
X124595Y205621D02*
X125617Y204600D01*
X124379Y205621D02*
X124595D01*
X125617Y204600D02*
X132100D01*
X72847Y216153D02*
Y218600D01*
Y216153D02*
X73000Y216000D01*
X71250Y220000D02*
X71447D01*
X72847Y218600D01*
X78500Y218112D02*
X81488Y221100D01*
X47875Y40125D02*
X48000Y40000D01*
X42000Y40250D02*
X42125Y40125D01*
X47875D01*
X210000Y265000D02*
X217000D01*
X205250D02*
X210000D01*
X205250Y275000D02*
X210000D01*
X247125Y359375D02*
X247250Y359250D01*
X258000D01*
X247125Y365875D02*
X247250Y365750D01*
X258000D01*
X247125Y398375D02*
X247250Y398250D01*
X258000D01*
X247125Y404875D02*
X247250Y404750D01*
X258000D01*
X210750Y359250D02*
X210875Y359125D01*
X200000Y359250D02*
X210750D01*
Y365750D02*
X210875Y365625D01*
X200000Y365750D02*
X210750D01*
Y378750D02*
X210875Y378625D01*
X200000Y378750D02*
X210750D01*
X184375Y391875D02*
X199875D01*
X184250Y392000D02*
X184375Y391875D01*
X200125Y385125D02*
X210875D01*
X211000Y385000D01*
X184375Y372125D02*
X199875D01*
X184250Y372000D02*
X184375Y372125D01*
X199875Y391875D02*
X200000Y391750D01*
Y385250D02*
X200125Y385125D01*
X199875Y372125D02*
X200000Y372250D01*
X63400Y416184D02*
X63600Y416384D01*
Y416600D01*
X62000Y412250D02*
X63400Y413650D01*
Y416184D01*
X91000Y441213D02*
Y452745D01*
X85700Y457400D02*
X86345D01*
X91000Y452745D01*
X209500Y22000D02*
X209750D01*
X190005Y27502D02*
X203998D01*
X209500Y22000D01*
X171006Y82506D02*
X175500Y87000D01*
X175750D01*
X171006Y75502D02*
Y82506D01*
X217000Y265000D02*
X222000Y270000D01*
X226000D01*
X222000Y282500D02*
X226000D01*
D54*
X26684Y303691D02*
X30059D01*
X23309D02*
X26684D01*
X17000Y310000D02*
X17500Y310500D01*
Y315875D01*
X108500Y240750D02*
X110000Y239250D01*
X108500Y240750D02*
Y248500D01*
X108000Y249000D02*
X108500Y248500D01*
X21000Y306000D02*
X23309Y303691D01*
X30059D02*
X32000Y301750D01*
X17000Y300000D02*
Y302000D01*
X13000Y296000D02*
X17000Y300000D01*
Y302000D02*
Y306000D01*
X13000Y296000D02*
Y306000D01*
X37057Y320212D02*
X38442D01*
X40979Y322750D01*
X41000D01*
X36674Y319830D02*
X37057Y320212D01*
X13000Y310000D02*
Y318000D01*
X31385Y311635D02*
X32000Y312250D01*
X24000Y311635D02*
X31385D01*
X22365Y310000D02*
X24000Y311635D01*
X21000Y310000D02*
X22365D01*
X103600Y136600D02*
X108500Y131700D01*
Y128607D02*
Y131700D01*
Y128607D02*
X113000Y124107D01*
Y123750D02*
Y124107D01*
Y123750D02*
X118750Y118000D01*
X115056Y127000D02*
X129157D01*
X112000Y130056D02*
X115056Y127000D01*
X112000Y130056D02*
Y137000D01*
X107900Y141100D02*
X112000Y137000D01*
X110672Y109000D02*
X118750D01*
X109500Y110172D02*
X110672Y109000D01*
X109500Y110172D02*
Y120321D01*
X148375Y361875D02*
Y371375D01*
X140000Y361500D02*
X145809Y367309D01*
X147750Y372000D02*
X148375Y371375D01*
X140000Y361250D02*
X149000D01*
X138309Y359559D02*
X140000Y361250D01*
X148375Y361875D02*
X149000Y361250D01*
X145809Y370059D02*
X147750Y372000D01*
X140000Y361250D02*
Y361500D01*
X145809Y367309D02*
Y370059D01*
X143000Y376500D02*
X147500Y372000D01*
Y381000D02*
X147750D01*
X143000Y376500D02*
X147500Y381000D01*
X143000Y376500D02*
X143000D01*
X147500Y372000D02*
X147750D01*
X131000Y350750D02*
X138309Y358059D01*
Y359559D01*
X88000Y344500D02*
Y344750D01*
X80000Y333000D02*
X83346Y336346D01*
Y339846D02*
X88000Y344500D01*
X83346Y336346D02*
Y339846D01*
X71000Y333250D02*
X71125Y333125D01*
X79875D01*
X80000Y333000D01*
X68000Y336825D02*
Y344750D01*
Y336825D02*
X71000Y333825D01*
Y333250D02*
Y333825D01*
X59000Y335250D02*
X61000Y333250D01*
X59000Y335250D02*
Y336000D01*
X58000Y337595D02*
Y344500D01*
Y337595D02*
X58719Y336876D01*
Y336281D02*
Y336876D01*
X129157Y127000D02*
X135000Y121157D01*
X109500Y120321D02*
Y122657D01*
X107157Y125000D02*
X109500Y122657D01*
X105741Y125000D02*
X107157D01*
X104141Y126600D02*
X105741Y125000D01*
X103600Y126600D02*
X104141D01*
X135000Y114000D02*
Y121157D01*
Y114000D02*
X138000Y111000D01*
X101736Y141100D02*
X107900D01*
X138000Y111000D02*
X148750D01*
X98745Y138204D02*
X99746Y139204D01*
X99840D02*
X101736Y141100D01*
X99746Y139204D02*
X99840D01*
X98204Y138204D02*
X98745D01*
X147750Y372000D02*
Y381000D01*
X58000Y344500D02*
Y344750D01*
X51000Y333250D02*
X52730Y334980D01*
Y339230D01*
X58000Y344500D01*
X78000Y355000D02*
X88000Y345000D01*
Y344750D02*
Y345000D01*
X78000Y355000D02*
Y355250D01*
X61000Y333250D02*
X71000D01*
X51000D02*
X61000D01*
D55*
X26421Y301421D02*
Y303429D01*
X26684Y303691D01*
X26000Y301000D02*
X26421Y301421D01*
X79390Y282610D02*
X83000Y279000D01*
X79000Y286800D02*
X79390Y286410D01*
Y282610D02*
Y286410D01*
X197000Y183000D02*
X204000Y190000D01*
X197000Y178500D02*
Y183000D01*
X134000Y157000D02*
Y157595D01*
X132148Y159447D02*
Y161989D01*
Y159447D02*
X134000Y157595D01*
X130000Y162000D02*
X132137D01*
X132148Y161989D01*
X134684Y376316D02*
X139000Y372000D01*
X134684Y376316D02*
Y379528D01*
X130712Y383500D02*
X134684Y379528D01*
X119000Y383500D02*
X130712D01*
X71571Y454589D02*
X74611D01*
X78200Y451000D01*
X70296Y455864D02*
X71571Y454589D01*
X85270Y117020D02*
X87000Y118750D01*
X85270Y111020D02*
Y117020D01*
X85020Y110770D02*
X85270Y111020D01*
X84439Y110770D02*
X85020D01*
X84398Y110730D02*
X84439Y110770D01*
X81364Y110730D02*
X84398D01*
X80594Y111500D02*
X81364Y110730D01*
X79998Y111500D02*
X80594D01*
X159270Y125480D02*
X161000Y123750D01*
X159270Y125480D02*
Y126730D01*
X152000Y134000D02*
X159270Y126730D01*
X152000Y134000D02*
Y134250D01*
X138843Y151157D02*
X139421Y150579D01*
Y149445D02*
Y150579D01*
Y149445D02*
X141000Y147866D01*
Y147000D02*
Y147866D01*
X135375Y32625D02*
Y41625D01*
X135000Y32250D02*
X142884D01*
X135000D02*
X135375Y32625D01*
X147134Y28000D02*
X148000D01*
X142884Y32250D02*
X147134Y28000D01*
X135375Y41625D02*
X135750Y42000D01*
X136000D02*
X141000Y37000D01*
X142000D01*
X130000Y143500D02*
X133000Y146500D01*
Y147000D01*
X130000Y143000D02*
Y143500D01*
X165000Y172000D02*
Y172500D01*
X161000Y176500D02*
Y177000D01*
Y176500D02*
X165000Y172500D01*
X169000Y144000D02*
Y149000D01*
X181000Y133866D02*
X183579Y136445D01*
X181000Y133000D02*
Y133866D01*
X183579Y136445D02*
Y137579D01*
X184000Y138000D01*
X197388Y132612D02*
Y136017D01*
Y132612D02*
X198000Y132000D01*
X196000Y137405D02*
X197388Y136017D01*
X196000Y137405D02*
Y138000D01*
X143246Y156579D02*
X143596Y156229D01*
X140000Y157000D02*
X140421Y156579D01*
X143246D01*
X147750Y152075D02*
Y161000D01*
X143596Y156229D02*
Y157421D01*
X147750Y152000D02*
Y152075D01*
X143596Y156229D02*
X147750Y152075D01*
X140421Y157421D02*
X143596D01*
X147175Y161000D02*
X147750D01*
X143596Y157421D02*
X147175Y161000D01*
X140000Y157000D02*
X140421Y157421D01*
X93600Y215800D02*
Y216000D01*
X90000Y212000D02*
Y212200D01*
X93600Y215800D01*
X136278Y172500D02*
X139777Y176000D01*
X130000Y172500D02*
X136278D01*
X139777Y176000D02*
X140000D01*
X117500Y169000D02*
Y181500D01*
X110500Y162000D02*
X117500Y169000D01*
X107579Y194421D02*
Y198421D01*
Y194421D02*
X108000Y194000D01*
X107000Y199000D02*
X107579Y198421D01*
X99000Y201200D02*
X103300Y205500D01*
Y205700D01*
X99000Y201000D02*
Y201200D01*
X90000Y202000D02*
Y202200D01*
X93600Y205800D01*
Y206000D01*
X82579Y196421D02*
Y201421D01*
Y196421D02*
X83000Y196000D01*
X82000Y202000D02*
X82579Y201421D01*
X99300Y212000D02*
X103300Y216000D01*
X103600D01*
X99000Y212000D02*
X99300D01*
X109000Y422000D02*
X113000Y426000D01*
X108000Y431000D02*
X113000Y436000D01*
X99000Y422000D02*
X103000Y426000D01*
X98000Y431000D02*
X103000Y436000D01*
X87000Y430000D02*
X93000Y436000D01*
X88500Y422000D02*
X92500Y426000D01*
X93000D01*
X88000Y422000D02*
X88500D01*
X129000Y373000D02*
Y378000D01*
X120000Y366000D02*
X120612Y366612D01*
X123017D01*
X124405Y368000D01*
X125000D01*
X112000Y362000D02*
Y367000D01*
X98612Y362612D02*
Y365017D01*
X100000Y366405D01*
X98000Y362000D02*
X98612Y362612D01*
X100000Y366405D02*
Y367000D01*
X81500Y374000D02*
X81595D01*
X81500D02*
X85500Y378000D01*
X81000Y374000D02*
X81500D01*
X85500Y378000D02*
X86000D01*
X69000Y376000D02*
X75000D01*
X120000Y316000D02*
X120000Y316000D01*
X113000Y316000D02*
X120000D01*
X113421Y325579D02*
X119421D01*
X120000Y325000D01*
X113000Y326000D02*
X113421Y325579D01*
X103000Y316000D02*
X107000Y320000D01*
X98000Y331000D02*
Y331000D01*
Y331000D02*
X103000Y326000D01*
X93000D02*
X93000D01*
X98000Y321000D01*
X89000Y320000D02*
Y320000D01*
Y320000D02*
X93000Y316000D01*
X112000Y96500D02*
Y97000D01*
X109000Y93000D02*
Y93500D01*
X112000Y96500D01*
X109000Y83500D02*
X112000Y86500D01*
Y87000D01*
X109000Y83000D02*
Y83500D01*
X102800Y86600D02*
X103000D01*
X99000Y83000D02*
X99200D01*
X102800Y86600D01*
X99000Y93000D02*
X99200D01*
X102800Y96600D01*
X103000D01*
X92800Y86600D02*
X93000D01*
X89000Y83000D02*
X89200D01*
X92800Y86600D01*
Y96600D02*
X93000D01*
X89000Y93000D02*
X89200D01*
X92800Y96600D01*
X103000Y387000D02*
X106500Y390500D01*
X99500Y383500D02*
X103000Y387000D01*
X90000Y185000D02*
X93863D01*
X102852Y176011D01*
X87000Y188000D02*
X90000Y185000D01*
X98000Y109000D02*
X98125Y108875D01*
X103875D02*
X104000Y108750D01*
X98125Y108875D02*
X103875D01*
X118000Y146405D02*
X118750Y145655D01*
X118000Y146405D02*
Y147000D01*
X118750Y134000D02*
Y145655D01*
X147250Y261000D02*
X147500Y261250D01*
Y271750D01*
X147750Y272000D01*
X148000Y251750D02*
Y260250D01*
X147250Y261000D02*
X148000Y260250D01*
Y251750D02*
X148750Y251000D01*
X158250Y312000D02*
X158825D01*
X162825Y316000D01*
X166000D01*
X158250Y312000D02*
Y321000D01*
X202500Y166000D02*
X212000D01*
X190000D02*
X202500D01*
X190000D02*
X197000Y159000D01*
Y153500D02*
Y159000D01*
X177500Y166000D02*
X190000D01*
X106500Y390500D02*
Y403000D01*
Y378000D02*
Y390500D01*
X94000Y383500D02*
X99500D01*
X117500Y156500D02*
Y169000D01*
X105000Y162000D02*
X110500D01*
X78200Y451000D02*
X84000D01*
X84622Y369600D02*
X87832Y366390D01*
X75000Y375446D02*
Y376000D01*
X87832Y366390D02*
X92057D01*
X90690Y369690D02*
X96000Y375000D01*
X79177Y369600D02*
X84622D01*
X82695Y372900D02*
X85989D01*
X96000Y375000D02*
Y378000D01*
X81595Y374000D02*
X82695Y372900D01*
X76600Y372178D02*
Y373846D01*
X89199Y369690D02*
X90690D01*
X85989Y372900D02*
X89199Y369690D01*
X75000Y375446D02*
X76600Y373846D01*
Y372178D02*
X79177Y369600D01*
X92057Y366390D02*
X99300Y373633D01*
Y375663D01*
X127000Y414000D02*
Y414271D01*
Y407000D02*
Y414000D01*
X134400Y390500D02*
X135479Y391579D01*
X119000Y390500D02*
X134400D01*
X135479Y391579D02*
X139579D01*
X140000Y392000D01*
X125200Y416071D02*
Y421550D01*
Y416071D02*
X127000Y414271D01*
X123000Y403000D02*
X127000Y407000D01*
X102000Y146000D02*
X107052Y151052D01*
X108883D01*
X110489Y152658D01*
Y156489D01*
X102000Y153000D02*
X104454Y155454D01*
X106989D02*
X107000Y155465D01*
Y156500D01*
X104454Y155454D02*
X106989D01*
X110489Y156489D02*
X110500Y156500D01*
X129000Y394000D02*
X134977Y399977D01*
X119000Y394000D02*
X129000D01*
X134977Y399977D02*
X137977D01*
X138000Y400000D01*
X183000Y146595D02*
Y153500D01*
X180000Y143595D02*
X183000Y146595D01*
X199648Y151352D02*
X200000Y151000D01*
X197011Y151352D02*
X199648D01*
X197000Y151363D02*
X197011Y151352D01*
X207704Y135891D02*
Y136751D01*
X209000Y134000D02*
Y134595D01*
X206342Y158989D02*
X210798Y154533D01*
X204648Y158989D02*
X206342D01*
X211579Y141421D02*
X212000Y141000D01*
X208899Y141421D02*
X211579D01*
X206700Y143620D02*
Y145345D01*
X207704Y135891D02*
X209000Y134595D01*
X206700Y143620D02*
X208899Y141421D01*
X203400Y146712D02*
X207498Y150810D01*
X203400Y141056D02*
Y146712D01*
X210798Y149443D02*
Y154533D01*
X203400Y141056D02*
X207704Y136751D01*
X197000Y151363D02*
Y153500D01*
X135579Y406579D02*
X137579D01*
X126500Y397500D02*
X135579Y406579D01*
X137579D02*
X138000Y407000D01*
X190000Y135000D02*
Y153500D01*
X99300Y375663D02*
X99489Y375852D01*
X103000Y372252D02*
Y378000D01*
X100421Y369673D02*
X103000Y372252D01*
X100421Y367421D02*
Y369673D01*
X100000Y367000D02*
X100421Y367421D01*
X93000Y175000D02*
X93595D01*
X96095Y172500D02*
X105000D01*
X93595Y175000D02*
X96095Y172500D01*
X82000Y168000D02*
X82595D01*
X85095Y165500D01*
X105000Y162000D02*
X105000Y162000D01*
X85095Y165500D02*
X105000D01*
X82000Y162000D02*
X105000D01*
X125000Y421750D02*
X125200Y421550D01*
X120211Y194790D02*
X120421Y194579D01*
X114000Y194778D02*
X117500Y191277D01*
X120421Y193023D02*
X121000Y192444D01*
X114000Y194778D02*
Y195000D01*
X120421Y193023D02*
Y194579D01*
X121000Y181500D02*
Y192444D01*
X117500Y181500D02*
Y191277D01*
X130040Y192040D02*
X134000Y196000D01*
X128040Y192040D02*
X130040D01*
X124500Y188500D02*
X128040Y192040D01*
X124500Y154363D02*
Y156500D01*
X124700Y152469D02*
Y154163D01*
Y152469D02*
X126117Y151052D01*
X126171D01*
X128000Y153889D02*
Y156500D01*
X135066Y151157D02*
X138843D01*
X132405Y147000D02*
X133000D01*
X126171Y151052D02*
X128923Y148300D01*
X128000Y153889D02*
X130289Y151600D01*
X128923Y148300D02*
X131105D01*
X130289Y151600D02*
X134622D01*
X124500Y154363D02*
X124700Y154163D01*
X134622Y151600D02*
X135066Y151157D01*
X131105Y148300D02*
X132405Y147000D01*
X94562Y411034D02*
X97214D01*
X91595Y414000D02*
X94562Y411034D01*
X91000Y414000D02*
X91595D01*
X97214Y411034D02*
X99500Y408748D01*
X78595Y381000D02*
X81095Y383500D01*
X78000Y381000D02*
X78595D01*
X79928Y387000D02*
X94000D01*
X75000Y386000D02*
X75421Y386421D01*
X81095Y383500D02*
X94000D01*
X75421Y386421D02*
X79349D01*
X79928Y387000D01*
X241405Y148500D02*
X242000D01*
X233100Y148546D02*
X234154Y149600D01*
X240305D01*
X241405Y148500D01*
X233100Y153954D02*
X234154Y152900D01*
X240305D02*
X241405Y154000D01*
X234154Y152900D02*
X240305D01*
X241405Y154000D02*
X242000D01*
X230000Y145000D02*
X233100Y148100D01*
Y148546D01*
X230000Y157500D02*
X233100Y154400D01*
X226000Y157500D02*
X230000D01*
X233100Y153954D02*
Y154400D01*
X226000Y145000D02*
X230000D01*
X240305Y174600D02*
X241405Y173500D01*
X233100Y173546D02*
X234154Y174600D01*
X233100Y173100D02*
Y173546D01*
X241405Y173500D02*
X242000D01*
X240305Y177900D02*
X241405Y179000D01*
X242000D01*
X230000Y170000D02*
X233100Y173100D01*
Y178954D02*
Y179400D01*
X234154Y177900D02*
X240305D01*
X230000Y182500D02*
X233100Y179400D01*
X226000Y182500D02*
X230000D01*
X234154Y174600D02*
X240305D01*
X226000Y170000D02*
X230000D01*
X233100Y178954D02*
X234154Y177900D01*
X240305Y199600D02*
X241405Y198500D01*
X234154Y199600D02*
X240305D01*
X233100Y198546D02*
X234154Y199600D01*
X233100Y198100D02*
Y198546D01*
Y203954D02*
X234154Y202900D01*
X240305D01*
X230000Y195000D02*
X233100Y198100D01*
X226000Y207500D02*
X230000D01*
X233100Y204400D01*
X241405Y198500D02*
X242000D01*
X233100Y203954D02*
Y204400D01*
X226000Y195000D02*
X230000D01*
X241405Y204000D02*
X242000D01*
X240305Y202900D02*
X241405Y204000D01*
X111579Y367421D02*
Y370673D01*
Y367421D02*
X112000Y367000D01*
X110000Y372252D02*
Y378000D01*
Y372252D02*
X111579Y370673D01*
X113500Y375863D02*
X113700Y375663D01*
X122767Y372400D02*
X124579Y370587D01*
X117000Y375863D02*
X117011Y375852D01*
X115269Y372400D02*
X122767D01*
X113700Y373969D02*
Y375663D01*
X123981Y375852D02*
X126412Y373421D01*
X128579D01*
X124579Y368421D02*
Y370587D01*
X117011Y375852D02*
X123981D01*
X113700Y373969D02*
X115269Y372400D01*
X138000Y181841D02*
Y191000D01*
X132159Y176000D02*
X138000Y181841D01*
X130000Y176000D02*
X132159D01*
X128011Y181511D02*
Y184011D01*
X131000Y187000D02*
Y187000D01*
X128011Y184011D02*
X131000Y187000D01*
X128000Y181500D02*
X128011Y181511D01*
X124500Y181500D02*
Y188500D01*
X114000Y181500D02*
Y188000D01*
X108000Y194000D02*
X114000Y188000D01*
X193500Y191278D02*
X195000Y192778D01*
Y209000D01*
X169421Y149421D02*
Y153198D01*
X171400Y155177D01*
X169000Y149000D02*
X169421Y149421D01*
X171400Y155177D02*
Y156731D01*
X166000Y164000D02*
X166595D01*
X168595Y166000D01*
X177500D01*
X165000Y172000D02*
X165595D01*
X168095Y169500D01*
X177500D01*
X167358Y177642D02*
X172000Y173000D01*
X167358Y177642D02*
Y181642D01*
X172000Y173000D02*
X177500D01*
X167000Y182000D02*
X167358Y181642D01*
X176000Y176511D02*
X176011Y176500D01*
X176000Y176511D02*
Y181000D01*
X176011Y176500D02*
X177500D01*
X93000Y190000D02*
X100000D01*
X101600Y188400D01*
X107431D02*
X110489Y185342D01*
X101600Y188400D02*
X107431D01*
X113500Y403000D02*
Y406831D01*
X117248Y410579D01*
X184000Y138000D02*
Y138595D01*
X186500Y141095D02*
Y153500D01*
X184000Y138595D02*
X186500Y141095D01*
X209277Y162500D02*
X210177Y161600D01*
X210400D01*
X202500Y162500D02*
X209277D01*
X210400Y161600D02*
X213000Y159000D01*
X202500Y169500D02*
X208248D01*
X210327Y171579D02*
X213579D01*
X214000Y172000D01*
X208248Y169500D02*
X210327Y171579D01*
X206331Y173000D02*
X208600Y175269D01*
X202500Y173000D02*
X206331D01*
X205300Y177163D02*
Y178189D01*
X205505Y197114D02*
Y201339D01*
X205300Y178189D02*
X208400Y181289D01*
X205505Y201339D02*
X208579Y204412D01*
X208600Y175269D02*
Y176822D01*
X208805Y198481D02*
Y199972D01*
X208600Y176822D02*
X211700Y179923D01*
X204637Y176500D02*
X205300Y177163D01*
X208805Y199972D02*
X210413Y201579D01*
X212579D02*
X213000Y202000D01*
X208579Y204412D02*
Y206579D01*
X209000Y207000D01*
X205505Y197114D02*
X208400Y194219D01*
Y181289D02*
Y194219D01*
X211700Y179923D02*
Y195586D01*
X208805Y198481D02*
X211700Y195586D01*
X210413Y201579D02*
X212579D01*
X202500Y155500D02*
X205164D01*
X207498Y153167D01*
Y150810D02*
Y153167D01*
X206700Y145345D02*
X210798Y149443D01*
X193500Y140500D02*
Y153500D01*
Y140500D02*
X196000Y138000D01*
X185000Y188405D02*
Y197405D01*
X187000Y199405D01*
Y209000D01*
X193500Y178500D02*
Y191278D01*
X83000Y188000D02*
X87000D01*
X110489Y181511D02*
X110500Y181500D01*
X110489Y181511D02*
Y185342D01*
X106989Y183648D02*
X107000Y183637D01*
X103352Y183648D02*
X106989D01*
X103000Y184000D02*
X103352Y183648D01*
X81000Y400000D02*
X87000Y394000D01*
X77600Y400000D02*
X81000D01*
X87000Y394000D02*
X94000D01*
X88300Y398554D02*
Y400700D01*
Y398554D02*
X89354Y397500D01*
X79000Y410000D02*
X88300Y400700D01*
X89354Y397500D02*
X94000D01*
X106000Y414405D02*
X106500Y413905D01*
Y403000D02*
Y413905D01*
X106000Y414405D02*
Y415000D01*
X114595Y416000D02*
X115000D01*
X110000Y411405D02*
X114595Y416000D01*
X117248Y410579D02*
X120579D01*
X121000Y411000D01*
X113500Y375863D02*
Y378000D01*
X117000Y375863D02*
Y378000D01*
X124579Y368421D02*
X125000Y368000D01*
X128579Y373421D02*
X129000Y373000D01*
X134000Y387000D02*
X138000Y383000D01*
X119000Y387000D02*
X134000D01*
X117000Y403000D02*
X123000D01*
X119000Y397500D02*
X126500D01*
X176000Y150000D02*
Y150571D01*
X177500Y152071D02*
Y155500D01*
X176000Y150571D02*
X177500Y152071D01*
X202500Y176500D02*
X204637D01*
X173658Y158989D02*
X177489D01*
X171400Y156731D02*
X173658Y158989D01*
X177489D02*
X177500Y159000D01*
X167000Y157000D02*
X172500Y162500D01*
X177500D01*
X182989Y178511D02*
X183000Y178500D01*
X182989Y178511D02*
Y182416D01*
X182057Y183347D02*
X182989Y182416D01*
X182057Y183347D02*
Y183943D01*
X186500Y178500D02*
Y186905D01*
X185000Y188405D02*
X186500Y186905D01*
X190000Y178500D02*
Y194000D01*
X139351Y170000D02*
X140000D01*
X130000Y169000D02*
X138351D01*
X139351Y170000D01*
X136905Y165500D02*
X139405Y163000D01*
X130000Y165500D02*
X136905D01*
X139405Y163000D02*
X140000D01*
X124000Y147000D02*
Y147595D01*
X121000Y150595D02*
Y156500D01*
Y150595D02*
X124000Y147595D01*
X118000Y147000D02*
Y147595D01*
X117500Y148095D02*
Y156500D01*
Y148095D02*
X118000Y147595D01*
X111000D02*
X114000Y150595D01*
Y156500D01*
X111000Y147000D02*
Y147595D01*
X90000Y169000D02*
X105000D01*
X83000Y176000D02*
X90000Y169000D01*
X107000Y181500D02*
Y183637D01*
X117500Y181500D02*
X117500Y181500D01*
X106000Y368000D02*
Y368595D01*
X106500Y369095D02*
Y378000D01*
X106000Y368595D02*
X106500Y369095D01*
X79500Y390500D02*
X94000D01*
X77000Y393000D02*
X79500Y390500D01*
X110000Y403000D02*
Y411405D01*
X100000Y414405D02*
X103000Y411405D01*
Y405148D02*
Y411405D01*
X100000Y414405D02*
Y415000D01*
X99500Y403000D02*
Y408748D01*
D56*
X78400Y435146D02*
Y437905D01*
X70250Y431000D02*
X71067Y431817D01*
X75071D01*
X78400Y435146D01*
Y437905D02*
X81800Y441305D01*
Y444100D01*
X82200Y444500D02*
X84000D01*
X81800Y444100D02*
X82200Y444500D01*
X68300Y296300D02*
X72500Y300500D01*
X68300Y283253D02*
Y296300D01*
X72500Y300500D02*
Y305200D01*
X63000Y275250D02*
X64468Y276718D01*
Y279421D01*
X68300Y283253D01*
X123653Y225158D02*
Y226131D01*
X124000Y212900D02*
Y224811D01*
X116000Y204900D02*
X124000Y212900D01*
X123653Y225158D02*
X124000Y224811D01*
X121784Y228000D02*
X123653Y226131D01*
X116500Y222000D02*
X117711D01*
X119700Y220011D01*
X121750Y228000D02*
X121784D01*
X115600Y211000D02*
X119700Y215100D01*
Y220011D01*
X110000Y228750D02*
Y229000D01*
X132250Y232625D02*
Y237000D01*
Y228250D02*
Y232625D01*
X116000Y204900D02*
Y205100D01*
X73250Y48000D02*
X82000D01*
X132000Y228000D02*
X132250Y228250D01*
X110000Y228500D02*
X116500Y222000D01*
X100000Y4000D02*
Y10000D01*
X99000Y11000D02*
X100000Y10000D01*
X99000Y11000D02*
Y21783D01*
X103600Y26384D01*
X105534Y331466D02*
X152749D01*
X155700Y339700D02*
X200700D01*
X116675Y336166D02*
X152166D01*
X155700Y339700D01*
X156283Y335000D02*
X203250D01*
X152749Y331466D02*
X156283Y335000D01*
X112225Y340616D02*
Y340866D01*
X110825Y342266D02*
X112225Y340866D01*
X200700Y339700D02*
X215975Y354975D01*
X98500Y338500D02*
X105534Y331466D01*
X203250Y335000D02*
X247125Y378875D01*
X110575Y342266D02*
X110825D01*
X112225Y340616D02*
X116675Y336166D01*
X98500Y338500D02*
Y351500D01*
X103600Y356600D01*
X113800Y211000D02*
X115600D01*
X246995Y372250D02*
X258000D01*
X242525Y367780D02*
X246995Y372250D01*
X242525Y366525D02*
Y367780D01*
X215975Y354975D02*
Y361975D01*
X206000Y330000D02*
X242525Y366525D01*
X188874Y330000D02*
X206000D01*
X209300Y325300D02*
X237000Y353000D01*
X201800Y325300D02*
X209300D01*
X237000Y353000D02*
X257750D01*
X238600Y346600D02*
X265148D01*
X214900Y311900D02*
Y322900D01*
X238600Y346600D01*
X265148D02*
X268600Y350052D01*
X205250Y302250D02*
X214900Y311900D01*
X205250Y285000D02*
Y302250D01*
X187000Y328125D02*
X188874Y330000D01*
X187000Y320250D02*
Y328125D01*
X215975Y361975D02*
X239375Y385375D01*
X247125D01*
X197000Y320500D02*
X201800Y325300D01*
X197000Y320250D02*
Y320500D01*
X257750Y353000D02*
X258000Y352750D01*
X103600Y346600D02*
X103600D01*
X106535Y343666D02*
X109175D01*
X103600Y346600D02*
X106535Y343666D01*
X109175D02*
X110575Y342266D01*
X247125Y378875D02*
X247250Y378750D01*
X258000D01*
X247125Y385375D02*
X247250Y385250D01*
X258000D01*
X265198Y391350D02*
X268600Y387948D01*
Y350052D02*
Y387948D01*
X258400Y391350D02*
X265198D01*
X258000Y391750D02*
X258400Y391350D01*
X108934Y351265D02*
X110575D01*
X103600Y356600D02*
X108934Y351265D01*
X94672Y406656D02*
X96000Y405327D01*
Y403000D02*
Y405327D01*
X92344Y406656D02*
X94672D01*
X92000Y407000D02*
X92344Y406656D01*
D57*
X179000Y16000D02*
X180502Y17502D01*
X189505D02*
X190005Y18002D01*
X180502Y17502D02*
X189505D01*
X25000Y428000D02*
Y437000D01*
X25000Y437000D01*
X12750Y12500D02*
Y15000D01*
Y23250D01*
Y38750D01*
X15250Y10000D02*
X15500D01*
X12750Y12500D02*
X15250Y10000D01*
D58*
X215000Y439000D02*
D03*
X25000Y75000D02*
D03*
X215000Y50000D02*
D03*
X25000Y364000D02*
D03*
D59*
X18500Y454000D02*
D03*
X25000Y423375D02*
D03*
X2804Y416196D02*
D03*
X39000Y428000D02*
D03*
X42000Y410000D02*
D03*
X133000Y256000D02*
D03*
X26000Y301000D02*
D03*
X73000Y55000D02*
D03*
X36674Y319830D02*
D03*
X17500Y315875D02*
D03*
X50000Y436250D02*
D03*
X73000Y440000D02*
D03*
X63000Y264750D02*
D03*
X132250Y232625D02*
D03*
X42000Y126000D02*
D03*
X134000Y157000D02*
D03*
X52716Y49930D02*
D03*
X42000Y112000D02*
D03*
X53000Y89000D02*
D03*
X63600Y96600D02*
D03*
X64000Y86000D02*
D03*
X204000Y190000D02*
D03*
X113000Y256000D02*
D03*
Y246000D02*
D03*
X63000Y440000D02*
D03*
X83000Y436000D02*
D03*
X79998Y111500D02*
D03*
X83600Y136600D02*
D03*
X83000Y256000D02*
D03*
X63000Y26600D02*
D03*
X63600Y206000D02*
D03*
X49000Y31000D02*
D03*
Y20000D02*
D03*
X12000Y343000D02*
D03*
X4000Y385000D02*
D03*
Y407000D02*
D03*
X23000D02*
D03*
Y413000D02*
D03*
X4000Y426000D02*
D03*
X195000Y453000D02*
D03*
X198000Y421000D02*
D03*
X194000Y37000D02*
D03*
X179000Y25000D02*
D03*
Y16000D02*
D03*
X172000D02*
D03*
X226000Y75000D02*
D03*
X233000Y68000D02*
D03*
X3000Y92000D02*
D03*
Y100000D02*
D03*
X11000D02*
D03*
X3000Y4000D02*
D03*
Y16000D02*
D03*
Y32000D02*
D03*
X20681Y32660D02*
D03*
X21000Y49000D02*
D03*
X3000D02*
D03*
X188000D02*
D03*
X243000Y307000D02*
D03*
X133600Y16600D02*
D03*
X140000Y176000D02*
D03*
X93600Y216000D02*
D03*
X116000Y170000D02*
D03*
X122150Y171150D02*
D03*
X103000Y387000D02*
D03*
Y394000D02*
D03*
X78000Y328000D02*
D03*
X165000Y321000D02*
D03*
Y330000D02*
D03*
X104000Y258000D02*
D03*
X133000Y326000D02*
D03*
X76000Y188000D02*
D03*
X140000Y157000D02*
D03*
X122000Y84000D02*
D03*
X230000Y24000D02*
D03*
X207000Y75000D02*
D03*
X233000D02*
D03*
X241000Y235000D02*
D03*
Y257000D02*
D03*
Y270000D02*
D03*
X140000Y170000D02*
D03*
Y163000D02*
D03*
X143000Y376500D02*
D03*
X187000Y444000D02*
D03*
X166000Y350000D02*
D03*
X59000Y336000D02*
D03*
X80000Y333000D02*
D03*
X37000Y302000D02*
D03*
X54000Y277000D02*
D03*
X93300Y271300D02*
D03*
X58300Y211300D02*
D03*
X168000Y208000D02*
D03*
X98000Y109000D02*
D03*
X83916Y145595D02*
D03*
X58000Y131000D02*
D03*
X141000Y247000D02*
D03*
X139000Y270000D02*
D03*
X154000Y244000D02*
D03*
X177000Y319000D02*
D03*
X158000Y330000D02*
D03*
X129000Y84000D02*
D03*
X112000Y394000D02*
D03*
X111000Y387000D02*
D03*
X4000Y396000D02*
D03*
Y343000D02*
D03*
X237000Y422000D02*
D03*
X220000Y382000D02*
D03*
X240000Y142000D02*
D03*
X242000Y189000D02*
D03*
X241000Y163000D02*
D03*
X49000Y9000D02*
D03*
X40000Y20000D02*
D03*
X35000Y10000D02*
D03*
X68000Y9000D02*
D03*
X179000Y7000D02*
D03*
X134000Y6000D02*
D03*
X184000Y452000D02*
D03*
X10000Y278000D02*
D03*
X37000Y245000D02*
D03*
X24000Y294000D02*
D03*
X12750Y15000D02*
D03*
X17250Y199000D02*
D03*
X165500Y294000D02*
D03*
X178000Y298000D02*
D03*
X124379Y205621D02*
D03*
X149000Y437000D02*
D03*
X184909Y302955D02*
D03*
X185000Y364000D02*
D03*
X186100Y380000D02*
D03*
X40000Y389000D02*
D03*
X210784Y258000D02*
D03*
X211000Y250000D02*
D03*
X199000Y224000D02*
D03*
X205000Y228000D02*
D03*
X137000Y84000D02*
D03*
X103600Y126600D02*
D03*
Y136600D02*
D03*
X78200Y451000D02*
D03*
X54200Y127000D02*
D03*
X163000Y50000D02*
D03*
X166000Y376000D02*
D03*
X239000Y280000D02*
D03*
X240000Y226000D02*
D03*
X180000Y217000D02*
D03*
X162006Y76904D02*
D03*
X42756Y216046D02*
D03*
X41000Y165000D02*
D03*
X40000Y173000D02*
D03*
X26875Y129875D02*
D03*
X8500Y207500D02*
D03*
X9000Y243000D02*
D03*
X229000Y98000D02*
D03*
X236500Y104000D02*
D03*
X25000Y143000D02*
D03*
X24000Y155000D02*
D03*
X36000Y462000D02*
D03*
X217000Y17000D02*
D03*
X248000Y307000D02*
D03*
X144000Y343000D02*
D03*
X140000Y392000D02*
D03*
X103000Y316000D02*
D03*
X127000Y414000D02*
D03*
X103000Y436000D02*
D03*
X138000Y400000D02*
D03*
X112000Y97000D02*
D03*
Y87000D02*
D03*
X180000Y143595D02*
D03*
X200000Y151000D02*
D03*
X212000Y141000D02*
D03*
X209000Y134000D02*
D03*
X83000Y209000D02*
D03*
X97000Y127000D02*
D03*
X98204Y138204D02*
D03*
X138000Y407000D02*
D03*
X190000Y135000D02*
D03*
X83000Y364000D02*
D03*
X75000Y376000D02*
D03*
X81000Y374000D02*
D03*
X93000Y175000D02*
D03*
X80000Y106000D02*
D03*
X82000Y162000D02*
D03*
X78000Y340000D02*
D03*
X163000Y36000D02*
D03*
X153600Y46000D02*
D03*
X156003Y9501D02*
D03*
X123600Y36000D02*
D03*
X19000Y169000D02*
D03*
X113000Y452000D02*
D03*
X120211Y194790D02*
D03*
X134000Y196000D02*
D03*
X82000Y168000D02*
D03*
X138000Y191000D02*
D03*
X52000Y143000D02*
D03*
X27000Y109000D02*
D03*
X45000Y257000D02*
D03*
X135000Y367000D02*
D03*
X91000Y414000D02*
D03*
X78000Y381000D02*
D03*
X103000Y57000D02*
D03*
X76000Y278000D02*
D03*
X85000Y300000D02*
D03*
X51000Y318000D02*
D03*
X48000Y40000D02*
D03*
X210000Y265000D02*
D03*
Y275000D02*
D03*
X18875Y162125D02*
D03*
X52125Y155625D02*
D03*
Y149125D02*
D03*
X52000Y136000D02*
D03*
X18875Y123125D02*
D03*
Y136125D02*
D03*
Y149125D02*
D03*
X247125Y359375D02*
D03*
Y365875D02*
D03*
Y378875D02*
D03*
Y385375D02*
D03*
Y398375D02*
D03*
Y404875D02*
D03*
X210875Y359125D02*
D03*
Y365625D02*
D03*
Y378625D02*
D03*
X211000Y385000D02*
D03*
X242000Y154000D02*
D03*
Y148500D02*
D03*
Y179000D02*
D03*
Y173500D02*
D03*
Y204000D02*
D03*
Y198500D02*
D03*
X100000Y367000D02*
D03*
X112000D02*
D03*
X131000Y187000D02*
D03*
X108000Y194000D02*
D03*
X83000Y196000D02*
D03*
X195000Y209000D02*
D03*
X169000Y149000D02*
D03*
X166000Y164000D02*
D03*
X165000Y172000D02*
D03*
X167000Y182000D02*
D03*
X176000Y181000D02*
D03*
X93000Y190000D02*
D03*
X139000Y151000D02*
D03*
X133000Y147000D02*
D03*
X102000Y153000D02*
D03*
Y146000D02*
D03*
X103300Y205700D02*
D03*
X103600Y216000D02*
D03*
X93600Y206000D02*
D03*
X83600Y216000D02*
D03*
X93000Y96600D02*
D03*
Y86600D02*
D03*
X103000Y96600D02*
D03*
Y86600D02*
D03*
X113000Y426000D02*
D03*
X103000D02*
D03*
X113000Y436000D02*
D03*
X93000Y426000D02*
D03*
Y436000D02*
D03*
X153600Y166000D02*
D03*
X184000Y138000D02*
D03*
X213000Y159000D02*
D03*
X214000Y172000D02*
D03*
X209000Y207000D02*
D03*
X213000Y202000D02*
D03*
X187000Y209000D02*
D03*
X114000Y195000D02*
D03*
X83000Y176000D02*
D03*
X103000Y184000D02*
D03*
X83000Y188000D02*
D03*
X79000Y410000D02*
D03*
X92000Y407000D02*
D03*
X115000Y416000D02*
D03*
X121000Y411000D02*
D03*
X75000Y386000D02*
D03*
X129000Y373000D02*
D03*
X125000Y368000D02*
D03*
X139000Y372000D02*
D03*
X138000Y383000D02*
D03*
X153000Y416600D02*
D03*
X143000D02*
D03*
X113000Y326000D02*
D03*
Y316000D02*
D03*
X103000Y326000D02*
D03*
X93000Y316000D02*
D03*
Y326000D02*
D03*
X93600Y16600D02*
D03*
Y26600D02*
D03*
X83000D02*
D03*
X103600Y16600D02*
D03*
Y26600D02*
D03*
X143000Y96000D02*
D03*
X163000Y146600D02*
D03*
Y136600D02*
D03*
X143000Y126600D02*
D03*
X133000Y136600D02*
D03*
X163000Y246600D02*
D03*
X143600Y196600D02*
D03*
X143000Y206000D02*
D03*
X73000Y216000D02*
D03*
X53600Y206000D02*
D03*
X163000Y276000D02*
D03*
Y266000D02*
D03*
X83000Y236600D02*
D03*
X63000Y246600D02*
D03*
X93600D02*
D03*
X103000Y246000D02*
D03*
X153000Y236600D02*
D03*
X143600Y326000D02*
D03*
Y306600D02*
D03*
X83000Y316000D02*
D03*
X63600Y306600D02*
D03*
X63000Y316000D02*
D03*
X163000Y386000D02*
D03*
Y366600D02*
D03*
Y356600D02*
D03*
X103600Y346600D02*
D03*
Y356600D02*
D03*
X93600D02*
D03*
X53600D02*
D03*
Y416600D02*
D03*
X63600D02*
D03*
X73600Y416600D02*
D03*
X212000Y166000D02*
D03*
X196000Y138000D02*
D03*
X176000Y150000D02*
D03*
X167000Y157000D02*
D03*
X182057Y183943D02*
D03*
X190000Y194000D02*
D03*
X124000Y147000D02*
D03*
X118000D02*
D03*
X111000D02*
D03*
X106000Y368000D02*
D03*
X77000Y393000D02*
D03*
X77600Y400000D02*
D03*
X106000Y415000D02*
D03*
X100000D02*
D03*
M02*
