G04*
G04 #@! TF.GenerationSoftware,Altium Limited,Altium Designer,24.9.1 (31)*
G04*
G04 Layer_Physical_Order=3*
G04 Layer_Color=6736896*
%FSLAX44Y44*%
%MOMM*%
G71*
G04*
G04 #@! TF.SameCoordinates,A13243B6-5239-4C78-9C44-5FE43137C330*
G04*
G04*
G04 #@! TF.FilePolarity,Positive*
G04*
G01*
G75*
%ADD50C,0.4000*%
%ADD51C,0.3000*%
%ADD53C,0.1800*%
%ADD54C,0.3200*%
%ADD55C,0.2200*%
%ADD57C,4.0000*%
%ADD58C,0.4000*%
%ADD59C,0.1600*%
D50*
X73000Y55000D02*
Y96000D01*
X48000Y121000D02*
X73000Y96000D01*
X41000Y138311D02*
X48000Y131311D01*
Y121000D02*
Y131311D01*
X41000Y138311D02*
Y149000D01*
X47625Y155625D01*
X51908D01*
D51*
X183809Y452191D02*
X184000Y452000D01*
X183809Y452191D02*
Y457191D01*
X179000Y462000D02*
X183809Y457191D01*
X95500Y462000D02*
X179000D01*
X49000Y459000D02*
X92500D01*
X95500Y462000D01*
X15000Y425000D02*
X49000Y459000D01*
D53*
X162000Y372000D02*
X166000Y376000D01*
X139000Y372000D02*
X162000D01*
D54*
X198000Y372962D02*
X208762Y383725D01*
X198000Y353000D02*
Y372962D01*
X208762Y383725D02*
X209508D01*
X173000Y350000D02*
Y392000D01*
X185875Y404875D01*
X173000Y350000D02*
X215100Y307900D01*
X179900Y352100D02*
X221000Y311000D01*
X179900Y352100D02*
Y383900D01*
X194375Y398375D01*
X190100Y350900D02*
X229000Y312000D01*
X190100Y350900D02*
Y375585D01*
X205515Y391000D01*
X198000Y353000D02*
X237900Y313100D01*
Y304888D02*
Y313100D01*
X229000Y298000D02*
X234000Y293000D01*
X229000Y298000D02*
Y312000D01*
X234000Y280000D02*
Y293000D01*
X237900Y304888D02*
X248000Y294788D01*
X221000Y256000D02*
Y311000D01*
X215100Y262533D02*
Y307900D01*
X248000Y139353D02*
Y294788D01*
X204000Y358213D02*
X255000Y307213D01*
Y137000D02*
Y307213D01*
X176000Y58000D02*
X255000Y137000D01*
X86000Y40000D02*
X103000Y57000D01*
X48000Y40000D02*
X86000D01*
X103000Y26000D02*
X154700D01*
X176000Y30000D02*
Y58000D01*
X184000Y413000D02*
X253125D01*
X255000Y411125D01*
Y394000D02*
Y411125D01*
X175000Y422000D02*
X184000Y413000D01*
X113000Y452000D02*
X117000Y456000D01*
X162000D01*
X175000Y443000D01*
Y422000D02*
Y443000D01*
X210784Y258000D02*
Y258216D01*
X215100Y262533D01*
X215153Y250153D02*
X221000Y256000D01*
X211000Y250000D02*
X211153Y250153D01*
X215153D01*
X234000Y226000D02*
Y280000D01*
X239000D01*
X234000Y135000D02*
Y226000D01*
X240000D01*
X252000Y391000D02*
X255000Y394000D01*
X205515Y391000D02*
X252000D01*
X103000Y57000D02*
X156000D01*
X234000Y135000D01*
X169000Y60353D02*
X248000Y139353D01*
X169000Y34787D02*
Y60353D01*
X204000Y358213D02*
Y371750D01*
X194375Y398375D02*
X247125D01*
X204000Y371750D02*
X210875Y378625D01*
X209508Y383725D02*
X210784Y385000D01*
X185875Y404875D02*
X247125D01*
X169000Y23000D02*
X176000Y30000D01*
X165112Y30900D02*
X169000Y34787D01*
X162289Y23000D02*
X169000D01*
X150789Y11500D02*
X162289Y23000D01*
X159600Y30900D02*
X165112D01*
X154700Y26000D02*
X159600Y30900D01*
X108700Y11500D02*
X150789D01*
X103600Y16600D02*
X108700Y11500D01*
X210784Y385000D02*
X211000D01*
X103000Y26000D02*
X103600Y26600D01*
D55*
X38350Y315000D02*
X44000Y320650D01*
X33000Y315000D02*
X38350D01*
X3900Y285900D02*
X33000Y315000D01*
X44000Y320650D02*
Y329000D01*
X59000Y344000D01*
X29000Y410000D02*
Y428000D01*
Y410000D02*
X49000Y390000D01*
X29000Y428000D02*
X45600Y444600D01*
X49000Y344000D02*
Y390000D01*
X42000Y406000D02*
X59000Y389000D01*
Y344000D02*
Y389000D01*
X42000Y406000D02*
Y417000D01*
X29200Y324200D02*
X49000Y344000D01*
X3900Y176887D02*
Y285900D01*
X200Y290695D02*
X29200Y319695D01*
Y324200D01*
X200Y154800D02*
Y290695D01*
X36000Y425000D02*
X43503D01*
X48000Y411000D02*
Y420504D01*
X43503Y425000D02*
X48000Y420504D01*
X68400Y444600D02*
X73000Y440000D01*
X45600Y444600D02*
X68400D01*
X49760Y264750D02*
X63000D01*
X34757Y267000D02*
X47510D01*
X49760Y264750D01*
X29400Y261644D02*
X34757Y267000D01*
X79000Y50000D02*
X103000Y74000D01*
X66000Y50000D02*
X79000D01*
X59000Y57000D02*
X66000Y50000D01*
X82000Y45000D02*
X104000Y67000D01*
X53000Y50000D02*
X58000Y45000D01*
X82000D01*
X59000Y57000D02*
Y78495D01*
X57600Y79895D02*
Y103895D01*
X37495Y124000D02*
X57600Y103895D01*
X35400Y132600D02*
Y179656D01*
Y132600D02*
X42000Y126000D01*
X24505Y124000D02*
X37495D01*
X53000Y50000D02*
Y79000D01*
X41944Y106056D02*
Y111944D01*
X46700Y85300D02*
Y101300D01*
X41944Y106056D02*
X46700Y101300D01*
X41944Y111944D02*
X42000Y112000D01*
X57600Y79895D02*
X59000Y78495D01*
X46700Y85300D02*
X53000Y79000D01*
X104000Y67000D02*
X158608D01*
X225100Y133492D02*
Y168900D01*
X204000Y190000D02*
X225100Y168900D01*
X158608Y67000D02*
X225100Y133492D01*
X20000Y274000D02*
X50000Y304000D01*
Y316784D01*
X20000Y204000D02*
Y274000D01*
X25700Y189356D02*
Y268700D01*
X58400Y301400D02*
Y328167D01*
X25700Y268700D02*
X58400Y301400D01*
X29400Y193880D02*
Y261644D01*
X24000Y155000D02*
Y171000D01*
X9000Y186000D02*
Y201495D01*
Y186000D02*
X24000Y171000D01*
X29400Y193880D02*
X57225Y166054D01*
X22000Y180000D02*
X29700Y172300D01*
X20000Y204000D02*
X22000Y202000D01*
Y180000D02*
Y202000D01*
X25700Y189356D02*
X35400Y179656D01*
X57225Y144874D02*
Y166054D01*
X220875Y359125D02*
X262000Y318000D01*
Y137000D02*
Y318000D01*
X229000Y104000D02*
X262000Y137000D01*
X236500Y104000D02*
X268000Y135500D01*
X224775Y364225D02*
X268000Y321000D01*
Y135500D02*
Y321000D01*
X58400Y328167D02*
X65600Y335367D01*
Y393400D01*
X29700Y133187D02*
Y172300D01*
X26875Y130362D02*
X29700Y133187D01*
X9000Y201495D02*
X14600Y207095D01*
Y284600D01*
X200Y154800D02*
X18875Y136125D01*
X3900Y176887D02*
X18663Y162125D01*
X14600Y284600D02*
X24000Y294000D01*
X48000Y411000D02*
X65600Y393400D01*
X210875Y359125D02*
X220875D01*
X212491Y364225D02*
X224775D01*
X158615Y74000D02*
X161519Y76904D01*
X162006D01*
X22039Y126466D02*
Y132784D01*
Y126466D02*
X24505Y124000D01*
X26875Y129875D02*
Y130362D01*
X229000Y98000D02*
Y104000D01*
X210875Y365625D02*
X211091D01*
X212491Y364225D01*
X103000Y74000D02*
X158615D01*
X22039Y132784D02*
X25000Y135745D01*
Y143000D01*
X50000Y316784D02*
X51000Y317784D01*
Y318000D01*
X18663Y162125D02*
X18875D01*
X52217Y143000D02*
X55350D01*
X57225Y144874D01*
D57*
X215000Y439000D02*
D03*
X25000Y75000D02*
D03*
X215000Y50000D02*
D03*
X25000Y364000D02*
D03*
D58*
X133000Y256000D02*
D03*
X26000Y301000D02*
D03*
X73000Y55000D02*
D03*
X36674Y319830D02*
D03*
X17500Y315875D02*
D03*
X50000Y436250D02*
D03*
X73000Y440000D02*
D03*
X63000Y264750D02*
D03*
X132250Y232625D02*
D03*
X42000Y126000D02*
D03*
X134000Y157000D02*
D03*
X52716Y49930D02*
D03*
X42000Y112000D02*
D03*
X53000Y89000D02*
D03*
X63600Y96600D02*
D03*
X64000Y86000D02*
D03*
X204000Y190000D02*
D03*
X113000Y256000D02*
D03*
Y246000D02*
D03*
X63000Y440000D02*
D03*
X83000Y436000D02*
D03*
X79998Y111500D02*
D03*
X83600Y136600D02*
D03*
X83000Y256000D02*
D03*
X63000Y26600D02*
D03*
X63600Y206000D02*
D03*
X49000Y31000D02*
D03*
Y20000D02*
D03*
X12000Y343000D02*
D03*
X4000Y385000D02*
D03*
Y407000D02*
D03*
X23000D02*
D03*
Y416000D02*
D03*
X4000Y426000D02*
D03*
X195000Y453000D02*
D03*
X198000Y421000D02*
D03*
X194000Y37000D02*
D03*
X179000Y25000D02*
D03*
Y16000D02*
D03*
X172000D02*
D03*
X226000Y75000D02*
D03*
X233000Y68000D02*
D03*
X3000Y92000D02*
D03*
Y100000D02*
D03*
X11000D02*
D03*
X3000Y4000D02*
D03*
Y16000D02*
D03*
Y32000D02*
D03*
X20681Y32660D02*
D03*
X21000Y49000D02*
D03*
X3000D02*
D03*
X188000D02*
D03*
X243000Y307000D02*
D03*
X133600Y16600D02*
D03*
X140000Y176000D02*
D03*
X93600Y216000D02*
D03*
X116000Y170000D02*
D03*
X122150Y171150D02*
D03*
X103000Y387000D02*
D03*
Y394000D02*
D03*
X78000Y328000D02*
D03*
X165000Y321000D02*
D03*
Y330000D02*
D03*
X104000Y258000D02*
D03*
X133000Y326000D02*
D03*
X76000Y188000D02*
D03*
X140000Y157000D02*
D03*
X122000Y84000D02*
D03*
X230000Y24000D02*
D03*
X207000Y75000D02*
D03*
X233000D02*
D03*
X241000Y235000D02*
D03*
Y257000D02*
D03*
Y270000D02*
D03*
X140000Y170000D02*
D03*
Y163000D02*
D03*
X143000Y376500D02*
D03*
X187000Y444000D02*
D03*
X166000Y350000D02*
D03*
X59000Y336000D02*
D03*
X80000Y333000D02*
D03*
X37000Y302000D02*
D03*
X54000Y277000D02*
D03*
X93300Y271300D02*
D03*
X58300Y211300D02*
D03*
X168000Y208000D02*
D03*
X98000Y109000D02*
D03*
X83916Y145595D02*
D03*
X58000Y131000D02*
D03*
X141000Y247000D02*
D03*
X139000Y270000D02*
D03*
X154000Y244000D02*
D03*
X177000Y319000D02*
D03*
X158000Y330000D02*
D03*
X129000Y84000D02*
D03*
X112000Y394000D02*
D03*
X111000Y387000D02*
D03*
X4000Y396000D02*
D03*
Y343000D02*
D03*
X237000Y422000D02*
D03*
X220000Y382000D02*
D03*
X240000Y142000D02*
D03*
X242000Y189000D02*
D03*
X241000Y163000D02*
D03*
X49000Y9000D02*
D03*
X40000Y20000D02*
D03*
X35000Y10000D02*
D03*
X68000Y9000D02*
D03*
X179000Y7000D02*
D03*
X134000Y6000D02*
D03*
X184000Y452000D02*
D03*
X15000Y425000D02*
D03*
X10000Y278000D02*
D03*
X37000Y245000D02*
D03*
X24000Y294000D02*
D03*
X12750Y15000D02*
D03*
X17250Y199000D02*
D03*
X165500Y294000D02*
D03*
X178000Y298000D02*
D03*
X124379Y205621D02*
D03*
X149000Y437000D02*
D03*
X184909Y302955D02*
D03*
X185000Y364000D02*
D03*
X186100Y380000D02*
D03*
X40000Y389000D02*
D03*
X210784Y258000D02*
D03*
X211000Y250000D02*
D03*
X199000Y224000D02*
D03*
X205000Y228000D02*
D03*
X137000Y84000D02*
D03*
X103600Y126600D02*
D03*
Y136600D02*
D03*
X78200Y451000D02*
D03*
X54200Y127000D02*
D03*
X163000Y50000D02*
D03*
X166000Y376000D02*
D03*
X36000Y425000D02*
D03*
X42000Y417000D02*
D03*
X239000Y280000D02*
D03*
X240000Y226000D02*
D03*
X180000Y217000D02*
D03*
X162006Y76904D02*
D03*
X42756Y216046D02*
D03*
X41000Y165000D02*
D03*
X40000Y173000D02*
D03*
X26875Y129875D02*
D03*
X8500Y207500D02*
D03*
X9000Y243000D02*
D03*
X229000Y98000D02*
D03*
X236500Y104000D02*
D03*
X25000Y143000D02*
D03*
X24000Y155000D02*
D03*
X36000Y462000D02*
D03*
X217000Y17000D02*
D03*
X248000Y307000D02*
D03*
X144000Y343000D02*
D03*
X140000Y392000D02*
D03*
X103000Y316000D02*
D03*
X127000Y414000D02*
D03*
X103000Y436000D02*
D03*
X138000Y400000D02*
D03*
X112000Y97000D02*
D03*
Y87000D02*
D03*
X180000Y143595D02*
D03*
X200000Y151000D02*
D03*
X212000Y141000D02*
D03*
X209000Y134000D02*
D03*
X83000Y209000D02*
D03*
X97000Y127000D02*
D03*
X98204Y138204D02*
D03*
X138000Y407000D02*
D03*
X190000Y135000D02*
D03*
X83000Y364000D02*
D03*
X75000Y376000D02*
D03*
X81000Y374000D02*
D03*
X93000Y175000D02*
D03*
X80000Y106000D02*
D03*
X82000Y162000D02*
D03*
X78000Y340000D02*
D03*
X163000Y36000D02*
D03*
X153600Y46000D02*
D03*
X156003Y9501D02*
D03*
X123600Y36000D02*
D03*
X19000Y169000D02*
D03*
X113000Y452000D02*
D03*
X120211Y194790D02*
D03*
X134000Y196000D02*
D03*
X82000Y168000D02*
D03*
X138000Y191000D02*
D03*
X52000Y143000D02*
D03*
X27000Y109000D02*
D03*
X45000Y257000D02*
D03*
X135000Y367000D02*
D03*
X91000Y414000D02*
D03*
X78000Y381000D02*
D03*
X103000Y57000D02*
D03*
X76000Y278000D02*
D03*
X85000Y300000D02*
D03*
X51000Y318000D02*
D03*
X48000Y40000D02*
D03*
X210000Y265000D02*
D03*
Y275000D02*
D03*
X18875Y162125D02*
D03*
X52125Y155625D02*
D03*
Y149125D02*
D03*
X52000Y136000D02*
D03*
X18875Y123125D02*
D03*
Y136125D02*
D03*
Y149125D02*
D03*
X247125Y359375D02*
D03*
Y365875D02*
D03*
Y378875D02*
D03*
Y385375D02*
D03*
Y398375D02*
D03*
Y404875D02*
D03*
X210875Y359125D02*
D03*
Y365625D02*
D03*
Y378625D02*
D03*
X211000Y385000D02*
D03*
X242000Y154000D02*
D03*
Y148500D02*
D03*
Y179000D02*
D03*
Y173500D02*
D03*
Y204000D02*
D03*
Y198500D02*
D03*
X100000Y367000D02*
D03*
X112000D02*
D03*
X131000Y187000D02*
D03*
X108000Y194000D02*
D03*
X83000Y196000D02*
D03*
X195000Y209000D02*
D03*
X169000Y149000D02*
D03*
X166000Y164000D02*
D03*
X165000Y172000D02*
D03*
X167000Y182000D02*
D03*
X176000Y181000D02*
D03*
X93000Y190000D02*
D03*
X139000Y151000D02*
D03*
X133000Y147000D02*
D03*
X102000Y153000D02*
D03*
Y146000D02*
D03*
X103300Y205700D02*
D03*
X103600Y216000D02*
D03*
X93600Y206000D02*
D03*
X83600Y216000D02*
D03*
X93000Y96600D02*
D03*
Y86600D02*
D03*
X103000Y96600D02*
D03*
Y86600D02*
D03*
X113000Y426000D02*
D03*
X103000D02*
D03*
X113000Y436000D02*
D03*
X93000Y426000D02*
D03*
Y436000D02*
D03*
X153600Y166000D02*
D03*
X184000Y138000D02*
D03*
X213000Y159000D02*
D03*
X214000Y172000D02*
D03*
X209000Y207000D02*
D03*
X213000Y202000D02*
D03*
X187000Y209000D02*
D03*
X114000Y195000D02*
D03*
X83000Y176000D02*
D03*
X103000Y184000D02*
D03*
X83000Y188000D02*
D03*
X79000Y410000D02*
D03*
X92000Y407000D02*
D03*
X115000Y416000D02*
D03*
X121000Y411000D02*
D03*
X75000Y386000D02*
D03*
X129000Y373000D02*
D03*
X125000Y368000D02*
D03*
X139000Y372000D02*
D03*
X138000Y383000D02*
D03*
X153000Y416600D02*
D03*
X143000D02*
D03*
X113000Y326000D02*
D03*
Y316000D02*
D03*
X103000Y326000D02*
D03*
X93000Y316000D02*
D03*
Y326000D02*
D03*
X93600Y16600D02*
D03*
Y26600D02*
D03*
X83000D02*
D03*
X103600Y16600D02*
D03*
Y26600D02*
D03*
X143000Y96000D02*
D03*
X163000Y146600D02*
D03*
Y136600D02*
D03*
X143000Y126600D02*
D03*
X133000Y136600D02*
D03*
X163000Y246600D02*
D03*
X143600Y196600D02*
D03*
X143000Y206000D02*
D03*
X73000Y216000D02*
D03*
X53600Y206000D02*
D03*
X163000Y276000D02*
D03*
Y266000D02*
D03*
X83000Y236600D02*
D03*
X63000Y246600D02*
D03*
X93600D02*
D03*
X103000Y246000D02*
D03*
X153000Y236600D02*
D03*
X143600Y326000D02*
D03*
Y306600D02*
D03*
X83000Y316000D02*
D03*
X63600Y306600D02*
D03*
X63000Y316000D02*
D03*
X163000Y386000D02*
D03*
Y366600D02*
D03*
Y356600D02*
D03*
X103600Y346600D02*
D03*
Y356600D02*
D03*
X93600D02*
D03*
X53600D02*
D03*
Y416600D02*
D03*
X63600D02*
D03*
X73600Y416600D02*
D03*
X212000Y166000D02*
D03*
X196000Y138000D02*
D03*
X176000Y150000D02*
D03*
X167000Y157000D02*
D03*
X182057Y183943D02*
D03*
X190000Y194000D02*
D03*
X124000Y147000D02*
D03*
X118000D02*
D03*
X111000D02*
D03*
X106000Y368000D02*
D03*
X77000Y393000D02*
D03*
X77600Y400000D02*
D03*
X106000Y415000D02*
D03*
X100000D02*
D03*
D59*
X54628Y196372D02*
G03*
X58588Y196372I1980J1980D01*
G01*
X63396Y197220D02*
G03*
X59436Y197220I-1980J-1980D01*
G01*
X63396Y193260D02*
G03*
X63396Y197220I-1980J1980D01*
G01*
X62548Y192412D02*
G03*
X62548Y188452I1980J-1980D01*
G01*
X123400Y267675D02*
G03*
X120600Y270475I-2800J0D01*
G01*
X103641Y283275D02*
G03*
X103641Y270475I0J-6400D01*
G01*
X149670Y283275D02*
G03*
X149670Y288875I0J2800D01*
G01*
X103641Y301675D02*
G03*
X103641Y288875I0J-6400D01*
G01*
X132900Y301675D02*
G03*
X132900Y307275I0J2800D01*
G01*
X123400Y313675D02*
G03*
X129800Y307275I6400J0D01*
G01*
X127000Y267675D02*
G03*
X120600Y274075I-6400J0D01*
G01*
X103641Y279675D02*
G03*
X103641Y274075I0J-2800D01*
G01*
X149670Y279675D02*
G03*
X149670Y292475I0J6400D01*
G01*
X103641Y298075D02*
G03*
X103641Y292475I0J-2800D01*
G01*
X132900Y298075D02*
G03*
X132900Y310875I0J6400D01*
G01*
X127000Y313675D02*
G03*
X129800Y310875I2800J0D01*
G01*
X189200Y220600D02*
G03*
X186400Y223400I-2800J0D01*
G01*
X184662Y236200D02*
G03*
X184662Y223400I0J-6400D01*
G01*
X199300Y236200D02*
G03*
X199300Y241800I0J2800D01*
G01*
X174600Y254600D02*
G03*
X174600Y241800I0J-6400D01*
G01*
X199300Y254600D02*
G03*
X199300Y260200I0J2800D01*
G01*
X174600Y273000D02*
G03*
X174600Y260200I0J-6400D01*
G01*
X199300Y273000D02*
G03*
X199300Y278600I0J2800D01*
G01*
X174600Y291400D02*
G03*
X174600Y278600I0J-6400D01*
G01*
X204800Y291400D02*
G03*
X204800Y297000I0J2800D01*
G01*
X189200Y303400D02*
G03*
X195600Y297000I6400J0D01*
G01*
X192800Y220600D02*
G03*
X186400Y227000I-6400J0D01*
G01*
X184662Y232600D02*
G03*
X184662Y227000I0J-2800D01*
G01*
X199300Y232600D02*
G03*
X199300Y245400I0J6400D01*
G01*
X174600Y251000D02*
G03*
X174600Y245400I0J-2800D01*
G01*
X199300Y251000D02*
G03*
X199300Y263800I0J6400D01*
G01*
X174600Y269400D02*
G03*
X174600Y263800I0J-2800D01*
G01*
X199300Y269400D02*
G03*
X199300Y282200I0J6400D01*
G01*
X174600Y287800D02*
G03*
X174600Y282200I0J-2800D01*
G01*
X204800Y287800D02*
G03*
X204800Y300600I0J6400D01*
G01*
X192800Y303400D02*
G03*
X195600Y300600I2800J0D01*
G01*
X88237Y435989D02*
X92989D01*
X84781Y431700D02*
X87300Y434219D01*
Y435051D02*
X88237Y435989D01*
X87300Y434219D02*
Y435051D01*
X78937Y431700D02*
X84781D01*
X92989Y435989D02*
X93000Y436000D01*
X81779Y115800D02*
X84298Y113281D01*
X80109Y115800D02*
X81779D01*
X67509Y128400D02*
X80109Y115800D01*
X83271Y119400D02*
X87898Y114772D01*
X81600Y119400D02*
X83271D01*
X69000Y132000D02*
X81600Y119400D01*
X139063Y435000D02*
X140000Y435937D01*
Y442000D01*
X133937Y435000D02*
X139063D01*
X133000Y435937D02*
X133937Y435000D01*
X133000Y435937D02*
Y442000D01*
X97873Y421127D02*
X124846D01*
X125783Y418864D02*
Y420190D01*
X122700Y415781D02*
X125783Y418864D01*
X124846Y421127D02*
X125783Y420190D01*
X105063Y172000D02*
X106000Y171063D01*
Y166937D02*
Y171063D01*
X99000Y166637D02*
Y171063D01*
X99937Y172000D01*
X105063D01*
X95700Y165700D02*
X98063D01*
X99000Y166637D01*
X67073Y183927D02*
X77700Y173300D01*
Y158219D02*
Y173300D01*
X107237Y165700D02*
X122781D01*
X106000Y166937D02*
X107237Y165700D01*
X49000Y202000D02*
X51375Y199625D01*
X85700Y155700D02*
X95700Y165700D01*
X122781D02*
X128405Y171324D01*
X135243D02*
X139919Y176000D01*
X128405Y171324D02*
X135243D01*
X50656Y219319D02*
X60737Y229400D01*
X49000Y211118D02*
X50656Y212774D01*
Y219319D01*
X60737Y229400D02*
X79028D01*
X49000Y202000D02*
Y211118D01*
X88572Y231000D02*
X93000D01*
X94337Y225937D02*
Y229663D01*
X93000Y231000D02*
X94337Y229663D01*
X90000Y225000D02*
X93400D01*
X94337Y225937D01*
X79728Y228700D02*
X86272D01*
X88572Y231000D01*
X79028Y229400D02*
X79728Y228700D01*
X88163Y221837D02*
Y223163D01*
X90000Y225000D01*
X88163Y221837D02*
X90000Y220000D01*
X92204D01*
X93141Y219063D01*
Y216459D02*
Y219063D01*
Y216459D02*
X93600Y216000D01*
X85700Y155700D02*
Y155700D01*
X80219Y155700D02*
X85700D01*
X78200Y157719D02*
Y157719D01*
Y157719D02*
X80219Y155700D01*
X77700Y158219D02*
X78200Y157719D01*
X51375Y199625D02*
X54628Y196372D01*
X54628Y196372D02*
X54628Y196372D01*
X58588D02*
X59436Y197220D01*
X59436D02*
X59436D01*
X63396Y197220D02*
X63396Y197220D01*
X63396Y197220D02*
X63396Y197220D01*
X63396D02*
X63396Y197220D01*
X62548Y192412D02*
X63396Y193260D01*
X62548Y188452D02*
X62548Y188452D01*
X67073Y183927D01*
X135276Y167724D02*
X140000Y163000D01*
X129896Y167724D02*
X135276D01*
X124272Y162100D02*
X129896Y167724D01*
X97191Y162100D02*
X124272D01*
X89300Y154209D02*
X97191Y162100D01*
X45400Y200509D02*
X65789Y180120D01*
X74100Y171809D01*
X84298Y111611D02*
X90100Y105809D01*
X87898Y113102D02*
X93700Y107300D01*
X84298Y111611D02*
Y113281D01*
X87898Y113102D02*
Y114772D01*
X148800Y154628D02*
Y173800D01*
X141006Y152016D02*
X141690Y152700D01*
X141781D01*
X140781Y146700D02*
X143181Y149100D01*
X143272D01*
X141781Y152700D02*
X145200Y156119D01*
X143272Y149100D02*
X148800Y154628D01*
X145200Y156119D02*
Y175291D01*
X78000Y424000D02*
X82541Y419459D01*
X78000Y424000D02*
Y430763D01*
X78937Y431700D01*
X122700Y413137D02*
Y415781D01*
X121000Y411437D02*
X122700Y413137D01*
X82541Y419459D02*
X92541D01*
X189200Y306000D02*
Y314800D01*
X157000Y341000D02*
X163000D01*
X189200Y314800D01*
X156000Y342000D02*
X157000Y341000D01*
X153100Y350900D02*
X156000Y348000D01*
Y342000D02*
Y348000D01*
X137100Y350900D02*
X137100Y350900D01*
X153100D01*
X127100Y357580D02*
X133780Y350900D01*
X137100D01*
X127100Y357580D02*
Y365863D01*
X154591Y354500D02*
X156700Y352391D01*
X135271Y354500D02*
X154591D01*
X130700Y359071D02*
Y367354D01*
Y359071D02*
X135271Y354500D01*
X129000Y373000D02*
X129454Y372546D01*
Y368600D02*
Y372546D01*
X125000Y367963D02*
X127100Y365863D01*
X125000Y367963D02*
Y368000D01*
X129454Y368600D02*
X130700Y367354D01*
X74637Y359000D02*
X87063D01*
X74937Y350000D02*
X87063D01*
X88000Y350937D02*
Y358063D01*
X87063Y350000D02*
X88000Y350937D01*
X87063Y359000D02*
X88000Y358063D01*
X34856Y196053D02*
Y232947D01*
X38456Y197544D02*
Y231456D01*
X34856Y196053D02*
X65400Y165509D01*
X38456Y197544D02*
X69000Y167000D01*
X38456Y231456D02*
X59386Y252386D01*
X60081Y215600D02*
X67900Y207781D01*
X56863Y216537D02*
Y217863D01*
Y216537D02*
X57800Y215600D01*
X56863Y217863D02*
X60000Y221000D01*
X57800Y215600D02*
X60081D01*
X164400Y203600D02*
X191572D01*
X162909Y200000D02*
X173384D01*
X156000Y206909D02*
X162909Y200000D01*
X191572Y203600D02*
X197900Y197272D01*
X190081Y200000D02*
X194300Y195781D01*
X173384Y200000D02*
X190081D01*
X159600Y208400D02*
X164400Y203600D01*
X159600Y208400D02*
Y212463D01*
X156000Y206909D02*
Y213954D01*
X92700Y125219D02*
Y140306D01*
X95472Y122700D02*
X104272Y113900D01*
X89100Y123728D02*
X93728Y119100D01*
X93981D02*
X102781Y110300D01*
X92700Y125219D02*
X95219Y122700D01*
X89100Y123728D02*
Y141797D01*
X95219Y122700D02*
X95472D01*
X93728Y119100D02*
X93981D01*
X94728Y101100D02*
X101272D01*
X93700Y107219D02*
Y107300D01*
X99981Y104900D02*
X181809D01*
X99781Y104700D02*
X99981Y104900D01*
X90100Y105728D02*
Y105809D01*
X93700Y107219D02*
X96219Y104700D01*
X101272Y101100D02*
X101472Y101300D01*
X102781Y110300D02*
X179300D01*
X101472Y101300D02*
X183300D01*
X104272Y113900D02*
X177809D01*
X96219Y104700D02*
X99781D01*
X179300Y110300D02*
X194000Y125000D01*
X90100Y105728D02*
X94728Y101100D01*
X83100Y399100D02*
X123272D01*
X121781Y402700D02*
X131300Y412219D01*
X79000Y406723D02*
X83023Y402700D01*
X121781D01*
X123272Y399100D02*
X134900Y410728D01*
X77000Y393000D02*
X83100Y399100D01*
X79000Y406723D02*
Y410000D01*
X37509Y235600D02*
X55786Y253877D01*
X34856Y232947D02*
X37509Y235600D01*
X37509D01*
X55786Y253877D02*
X57895Y255986D01*
X62386Y252386D02*
X92900Y282900D01*
X59386Y252386D02*
Y252386D01*
X60895Y255986D02*
X89300Y284391D01*
X59386Y252386D02*
X62386D01*
X55786Y253877D02*
Y253877D01*
X92900Y282900D02*
Y303272D01*
X89300Y284391D02*
Y301781D01*
X57895Y255986D02*
X60895D01*
X159046Y217000D02*
X167909D01*
X160537Y213400D02*
X169400D01*
X174846Y218846D01*
X170000Y228000D02*
X174846Y223154D01*
X171246Y220337D02*
Y221663D01*
X167909Y217000D02*
X171246Y220337D01*
X168509Y224400D02*
X171246Y221663D01*
X174846Y218846D02*
Y223154D01*
X163117Y193208D02*
X183899D01*
X164608Y189608D02*
Y189608D01*
X182408D01*
X148800Y173800D02*
X164608Y189608D01*
X161008Y191099D02*
Y191099D01*
X163117Y193208D01*
X147309Y177400D02*
X161008Y191099D01*
X187216Y191217D02*
X190000Y194000D01*
X182516Y184402D02*
Y186516D01*
X183899Y193208D02*
X185891Y191217D01*
X182057Y183943D02*
X182516Y184402D01*
X182408Y189608D02*
X183346Y188671D01*
X145200Y175291D02*
X147309Y177400D01*
X183346Y187346D02*
Y188671D01*
X182516Y186516D02*
X183346Y187346D01*
X148800Y173800D02*
X148800D01*
X147309Y177400D02*
X147309D01*
X185891Y191217D02*
X187216D01*
X190000Y194000D02*
X190000D01*
X47056Y214265D02*
Y220810D01*
X45400Y200509D02*
Y212610D01*
X59246Y233000D02*
X80519D01*
X47056Y220810D02*
X59246Y233000D01*
X45400Y212610D02*
X47056Y214265D01*
X140840Y209921D02*
X141219Y210300D01*
X121726Y209050D02*
X122598Y209921D01*
X111000Y204937D02*
X111937Y204000D01*
X117063D02*
X118000Y204937D01*
X122598Y209921D02*
X140840D01*
X111000Y204937D02*
Y208000D01*
X106800Y209050D02*
X109950D01*
X139728Y213900D02*
X146272D01*
X118000Y208000D02*
X119050Y209050D01*
X139349Y213521D02*
X139728Y213900D01*
X146272D02*
X151600Y208572D01*
X106800Y212650D02*
X120235D01*
X111937Y204000D02*
X117063D01*
X109950Y209050D02*
X111000Y208000D01*
X141219Y210300D02*
X144781D01*
X120235Y212650D02*
X121106Y213521D01*
X119050Y209050D02*
X121726D01*
X144781Y210300D02*
X148000Y207081D01*
X121106Y213521D02*
X139349D01*
X118000Y204937D02*
Y208000D01*
X75000Y369600D02*
Y376000D01*
X73263Y367863D02*
X75000Y369600D01*
X73700Y359937D02*
Y363209D01*
Y318300D02*
Y348763D01*
X74937Y350000D01*
X70100Y364700D02*
X72209Y366809D01*
X74755Y364263D02*
X78600Y368109D01*
Y370951D01*
X74754Y364263D02*
X74755D01*
X72209Y366809D02*
X73263Y367863D01*
X70100Y316809D02*
Y364700D01*
X72209Y366809D02*
X72209D01*
X73700Y363209D02*
X73700D01*
X74754Y364263D01*
X73700Y359937D02*
X74637Y359000D01*
X73263Y367863D02*
X73263D01*
X78600Y370951D02*
X81000Y373351D01*
X73700Y318300D02*
X73700D01*
X81982Y310018D01*
X70100Y316809D02*
X72209Y314700D01*
X72209D02*
X78382Y308527D01*
X72209Y314700D02*
X72209D01*
X121000Y411000D02*
Y411437D01*
X80491Y306418D02*
X84663D01*
X78382Y308527D02*
Y308527D01*
X81982Y310018D02*
Y310018D01*
X78382Y308527D02*
X80491Y306418D01*
X81982Y310018D02*
X86154D01*
X134900Y410728D02*
Y423191D01*
X123800Y429200D02*
X131300Y421700D01*
Y412219D02*
Y421700D01*
X125291Y432800D02*
X134900Y423191D01*
X69000Y132000D02*
Y167000D01*
X65400Y130509D02*
Y165509D01*
X67509Y128400D02*
X67509D01*
X69000Y132000D02*
X69000D01*
X181809Y104900D02*
X201100Y124191D01*
X183300Y101300D02*
X202591Y120591D01*
X65400Y130509D02*
X67509Y128400D01*
X177809Y113900D02*
X190400Y126491D01*
X189463Y130700D02*
X190400Y129763D01*
Y126491D02*
Y129763D01*
X188219Y130700D02*
X189463D01*
X184459Y134460D02*
Y137541D01*
Y134460D02*
X188219Y130700D01*
X184000Y138000D02*
X184459Y137541D01*
X194000Y131297D02*
X196000Y133297D01*
X194000Y125000D02*
Y131297D01*
X196000Y133297D02*
Y138000D01*
X116163Y358000D02*
X117100Y358937D01*
X111000Y358000D02*
X116163D01*
X117100Y358937D02*
Y370809D01*
X109000Y356000D02*
X111000Y358000D01*
X116000Y351000D02*
X117100Y349900D01*
Y332809D02*
Y349900D01*
X111000Y351000D02*
X116000D01*
X109000Y353000D02*
X111000Y351000D01*
X109000Y353000D02*
Y356000D01*
X194300Y171300D02*
Y195781D01*
X170659Y168600D02*
X191600D01*
X171237Y165000D02*
X193091D01*
X191600Y168600D02*
X194300Y171300D01*
X197900Y169809D02*
Y197272D01*
X193091Y165000D02*
X197900Y169809D01*
X169722Y169537D02*
Y178629D01*
Y169537D02*
X170659Y168600D01*
X170300Y164063D02*
X171237Y165000D01*
X170300Y160300D02*
Y164063D01*
X118454Y331454D02*
Y331454D01*
X113365Y374544D02*
X117100Y370809D01*
Y332809D02*
X118454Y331454D01*
Y331454D02*
X119454Y330454D01*
X114856Y378144D02*
X120700Y372300D01*
Y334300D02*
X127000Y328000D01*
X120700Y334300D02*
Y372300D01*
X108737Y374544D02*
X113365D01*
X107246Y378144D02*
X114856D01*
X107800Y373606D02*
X108737Y374544D01*
X107800Y372281D02*
Y373606D01*
Y372281D02*
X110300Y369781D01*
Y369350D02*
Y369781D01*
X112000Y367000D02*
Y367649D01*
X110300Y369350D02*
X112000Y367649D01*
X101700Y369781D02*
X104200Y372281D01*
Y375098D01*
X107246Y378144D01*
X132000Y443000D02*
X133000Y442000D01*
X141000Y443000D02*
X153000D01*
X140000Y442000D02*
X141000Y443000D01*
X128000D02*
X132000D01*
X138081Y400000D02*
X145481Y392600D01*
X148509D01*
X159837Y403928D01*
X150000Y389000D02*
X163437Y402437D01*
X138000Y383000D02*
X144000Y389000D01*
X150000D01*
X159837Y403928D02*
Y436163D01*
X138000Y400000D02*
X138081D01*
X101837Y443000D02*
X120063D01*
X121000Y442063D01*
Y436937D02*
X121937Y436000D01*
X126063D01*
X121000Y436937D02*
Y442063D01*
X127000Y436937D02*
Y442000D01*
X126063Y436000D02*
X127000Y436937D01*
Y442000D02*
X128000Y443000D01*
X100900Y442063D02*
X101837Y443000D01*
X100900Y438137D02*
Y442063D01*
X153000Y443000D02*
X159837Y436163D01*
X103000Y436000D02*
Y436037D01*
X100900Y438137D02*
X103000Y436037D01*
X190691Y318400D02*
X190691D01*
X156700Y352391D02*
Y352391D01*
Y352391D02*
X190691Y318400D01*
X190691D02*
X192800Y316291D01*
Y306000D02*
Y316291D01*
X97300Y443554D02*
X100346Y446600D01*
X154491D01*
X97300Y435549D02*
Y443554D01*
X154491Y446600D02*
X163437Y437654D01*
X121909Y240000D02*
Y240000D01*
Y240000D02*
X123400Y241491D01*
Y267675D01*
X103641Y270475D02*
X120600D01*
X103641Y283275D02*
X149670D01*
X103641Y288875D02*
X149670D01*
X103641Y301675D02*
X132900D01*
X129800Y307275D02*
X132900D01*
X123400Y313675D02*
Y316275D01*
X127000Y240000D02*
Y267675D01*
X103641Y274075D02*
X120600D01*
X103641Y279675D02*
X149670D01*
X103641Y292475D02*
X149670D01*
X103641Y298075D02*
X132900D01*
X129800Y310875D02*
X132900D01*
X127000Y313675D02*
Y316275D01*
X123400D02*
Y326509D01*
X127000Y316275D02*
Y328000D01*
X120909Y239000D02*
X121909Y240000D01*
X127000Y240000D02*
Y240000D01*
X109509Y239000D02*
X120909D01*
X122400Y235400D02*
X127000Y240000D01*
X111000Y235400D02*
X122400D01*
X109937Y228000D02*
X170000D01*
X108446Y224400D02*
X168509D01*
X151600Y190509D02*
Y208572D01*
X148000Y192000D02*
Y207081D01*
X159600Y212463D02*
X160537Y213400D01*
X156000Y213954D02*
X159046Y217000D01*
X141391Y180300D02*
X151600Y190509D01*
X109000Y228937D02*
Y233400D01*
Y228937D02*
X109937Y228000D01*
X105400Y227446D02*
Y234891D01*
Y227446D02*
X108446Y224400D01*
X105400Y234891D02*
X109509Y239000D01*
X109000Y233400D02*
X111000Y235400D01*
X189200Y212000D02*
Y220600D01*
X184662Y223400D02*
X186400D01*
X184662Y236200D02*
X199300D01*
X174600Y241800D02*
X199300D01*
X174600Y254600D02*
X199300D01*
X174600Y260200D02*
X199300D01*
X174600Y273000D02*
X199300D01*
X174600Y278600D02*
X199300D01*
X174600Y291400D02*
X204800D01*
X195600Y297000D02*
X204800D01*
X189200Y303400D02*
Y306000D01*
X192800Y212000D02*
Y220600D01*
X184662Y227000D02*
X186400D01*
X184662Y232600D02*
X199300D01*
X174600Y245400D02*
X199300D01*
X174600Y251000D02*
X199300D01*
X174600Y263800D02*
X199300D01*
X174600Y269400D02*
X199300D01*
X174600Y282200D02*
X199300D01*
X174600Y287800D02*
X204800D01*
X195600Y300600D02*
X204800D01*
X192800Y303400D02*
Y306000D01*
X189200Y211200D02*
Y212000D01*
X192800Y211200D02*
Y212000D01*
X119454Y330454D02*
X123400Y326509D01*
X119454Y330454D02*
X119454D01*
X86154Y310018D02*
X92900Y303272D01*
X84663Y306418D02*
X89300Y301781D01*
X187765Y144054D02*
X188509Y144798D01*
X180459Y144054D02*
X187765D01*
X190000Y135000D02*
Y140261D01*
X180000Y143595D02*
X180459Y144054D01*
X190937Y141198D02*
X193117D01*
X191626Y144798D02*
X192865Y146037D01*
X190000Y140261D02*
X190937Y141198D01*
X193117D02*
X194356Y142437D01*
X188509Y144798D02*
X191626D01*
X192865Y146037D02*
X199135D01*
X194356Y142437D02*
X197644D01*
X199135Y146037D02*
X204700Y140472D01*
X197644Y142437D02*
X201100Y138981D01*
X204700Y122700D02*
Y140472D01*
X201100Y124191D02*
Y138981D01*
X202591Y120591D02*
X204700Y122700D01*
X202591Y120591D02*
X202591D01*
X201100Y124191D02*
X201100D01*
X96034Y415966D02*
X98385D01*
X92541Y419459D02*
X96034Y415966D01*
X93000Y426000D02*
X97873Y421127D01*
X99351Y415000D02*
X100000D01*
X98385Y415966D02*
X99351Y415000D01*
X84781Y232300D02*
X87081Y234600D01*
X94491D01*
X97937Y231154D01*
Y214187D02*
Y231154D01*
X81219Y232300D02*
X84781D01*
X80519Y233000D02*
X81219Y232300D01*
X103450Y205700D02*
X106800Y209050D01*
X103300Y205700D02*
X103450D01*
X103700Y192219D02*
X108919Y187000D01*
X98238Y197900D02*
X100397Y200059D01*
X118502Y187000D02*
X124737Y193235D01*
X94003Y194300D02*
X101700D01*
X107989Y194011D02*
X108000Y194000D01*
X131235Y193235D02*
X134000Y196000D01*
X108919Y187000D02*
X118502D01*
X107989Y194011D02*
Y197011D01*
X100397Y200059D02*
X104941D01*
X107989Y197011D01*
X101700Y194300D02*
X103700Y192300D01*
X124737Y193235D02*
X131235D01*
X103700Y192219D02*
Y192300D01*
X95495Y197900D02*
X98238D01*
X66960Y198040D02*
X71000Y194000D01*
X80863D01*
X82863Y196000D02*
X83000D01*
X80863Y194000D02*
X82863Y196000D01*
X90849Y202546D02*
X90849D01*
X66960Y199063D02*
X67898Y200000D01*
X67900Y204537D02*
Y207781D01*
X67898Y200000D02*
X88303D01*
X66960Y198040D02*
Y199063D01*
X89795Y203600D02*
X90849Y202546D01*
X68837Y203600D02*
X89795D01*
X88303Y200000D02*
X94003Y194300D01*
X67900Y204537D02*
X68837Y203600D01*
X90849Y202546D02*
X95495Y197900D01*
X60000Y221000D02*
X82000D01*
X83600Y219400D01*
Y216000D02*
Y219400D01*
X74100Y156728D02*
Y171809D01*
X89100Y141797D02*
X97195Y149892D01*
X92700Y140306D02*
X98686Y146292D01*
X101708D01*
X102000Y146000D01*
X101994Y153000D02*
X102000D01*
X97195Y149892D02*
X98886D01*
X101994Y153000D01*
X112600Y123237D02*
Y127177D01*
X113537Y122300D02*
X173209D01*
X113537Y128114D02*
X125357D01*
X109000Y128668D02*
X112046Y131714D01*
X112600Y127177D02*
X113537Y128114D01*
X112046Y131714D02*
X123866D01*
X125100Y132948D01*
X109000Y121746D02*
Y128668D01*
Y121746D02*
X112046Y118700D01*
X112600Y123237D02*
X113537Y122300D01*
X174700Y118700D02*
X179306Y123306D01*
X112046Y118700D02*
X174700D01*
X125357Y128114D02*
X128700Y131457D01*
X143000Y136537D02*
Y139444D01*
X139400Y140935D02*
X144465Y146000D01*
X143000Y136537D02*
X143937Y135600D01*
X139400Y135046D02*
X142446Y132000D01*
X143000Y139444D02*
X145956Y142400D01*
X142446Y132000D02*
X145546D01*
X139400Y135046D02*
Y140935D01*
X143937Y135600D02*
X147037D01*
X144465Y146000D02*
X153841D01*
X173209Y122300D02*
X175706Y124797D01*
X128700Y131457D02*
Y136391D01*
X145546Y132000D02*
X149046Y128500D01*
X112449Y139437D02*
X125654D01*
X173328Y128500D02*
X175706Y126122D01*
X149046Y128500D02*
X173328D01*
X125654Y139437D02*
X128700Y136391D01*
X175706Y124797D02*
Y126122D01*
X133300Y146700D02*
X140781D01*
X145956Y142400D02*
X155332D01*
X158378Y145446D02*
Y153000D01*
X154778Y146937D02*
Y155869D01*
X155332Y142400D02*
X158378Y145446D01*
X153841Y146000D02*
X154778Y146937D01*
X160986Y155608D02*
X162311D01*
X165300Y152700D02*
X169000Y149000D01*
X162311Y155608D02*
X165219Y152700D01*
X165300D01*
X158378Y153000D02*
X160986Y155608D01*
X154778Y155869D02*
X161700Y162791D01*
X125100Y132948D02*
Y134900D01*
X124163Y135837D02*
X125100Y134900D01*
X110958Y135837D02*
X124163D01*
X107912Y138883D02*
Y143191D01*
X109849Y145128D01*
X111512Y140374D02*
Y141700D01*
Y140374D02*
X112449Y139437D01*
X107912Y138883D02*
X110958Y135837D01*
X111512Y141700D02*
X112904Y143092D01*
X109849Y145128D02*
Y145200D01*
X111000Y146351D01*
X112904Y143092D02*
X115827D01*
X116219Y142700D01*
X111000Y146351D02*
Y147000D01*
X116219Y142700D02*
X119781D01*
X147037Y135600D02*
X150537Y132100D01*
X174819D01*
X140666Y152016D02*
X141006D01*
X139000Y151000D02*
X139649D01*
X140666Y152016D01*
X133000Y147000D02*
X133300Y146700D01*
X179306Y123306D02*
Y127613D01*
X174819Y132100D02*
X179306Y127613D01*
X131382Y179700D02*
X135582Y183900D01*
X93881Y180200D02*
X97981Y176100D01*
X132873D02*
X137073Y180300D01*
X95372Y183800D02*
X99472Y179700D01*
X131382D01*
X97981Y176100D02*
X132873D01*
X137073Y180300D02*
X141391D01*
X135582Y183900D02*
X139900D01*
X148000Y192000D01*
X161700Y168700D02*
X165000Y172000D01*
X161700Y162791D02*
Y168700D01*
X89300Y154209D02*
Y154209D01*
X87191Y152100D02*
X89300Y154209D01*
X119781Y142700D02*
X124000Y146919D01*
Y147000D01*
X163437Y402437D02*
Y437654D01*
X116200Y429200D02*
X123800D01*
X116200Y432800D02*
X125291D01*
X81000Y373351D02*
Y374000D01*
X83000Y184737D02*
Y188000D01*
X83937Y183800D02*
X95372D01*
X83937Y180200D02*
X93881D01*
X83000Y179263D02*
X83937Y180200D01*
X83000Y176000D02*
Y179263D01*
Y184737D02*
X83937Y183800D01*
X78728Y152100D02*
X87191D01*
X93600Y206000D02*
Y206649D01*
X96240Y212490D02*
X97937Y214187D01*
X96240Y209290D02*
Y212490D01*
X93600Y206649D02*
X96240Y209290D01*
X103600Y215850D02*
X106800Y212650D01*
X103600Y215850D02*
Y216000D01*
X74100Y156728D02*
X74600Y156228D01*
Y156228D02*
Y156228D01*
Y156228D02*
X78728Y152100D01*
X192800Y211200D02*
X195000Y209000D01*
X187000D02*
X189200Y211200D01*
X100000Y367649D02*
X101700Y369349D01*
Y369781D01*
X100000Y367000D02*
Y367649D01*
X167000Y181351D02*
Y182000D01*
Y157000D02*
X170300Y160300D01*
X167000Y181351D02*
X169722Y178629D01*
X113000Y436000D02*
X116200Y432800D01*
X113000Y426000D02*
X116200Y429200D01*
X97300Y435549D02*
X102541Y430309D01*
Y426459D02*
Y430309D01*
Y426459D02*
X103000Y426000D01*
M02*
