G04*
G04 #@! TF.GenerationSoftware,Altium Limited,Altium Designer,24.9.1 (31)*
G04*
G04 Layer_Physical_Order=4*
G04 Layer_Color=15254943*
%FSLAX44Y44*%
%MOMM*%
G71*
G04*
G04 #@! TF.SameCoordinates,6097D45C-0DD2-4A5D-A4EA-BA684B689CB3*
G04*
G04*
G04 #@! TF.FilePolarity,Positive*
G04*
G01*
G75*
%ADD51C,0.4000*%
%ADD52C,0.3000*%
%ADD53C,0.3200*%
%ADD57C,0.5000*%
%ADD58C,4.0000*%
%ADD59C,0.4000*%
%ADD60C,0.1600*%
D51*
X66866Y53088D02*
X70954Y49000D01*
X114000D01*
X54200Y127000D02*
X58500Y122700D01*
X31174Y322108D02*
X31500Y322434D01*
X31174Y317551D02*
X31500Y317225D01*
Y322434D02*
Y325278D01*
Y311000D02*
Y317225D01*
X31174Y317551D02*
Y322108D01*
X64722Y430500D02*
X77500D01*
X54540Y440682D02*
X64722Y430500D01*
X54540Y440682D02*
Y446358D01*
X59182Y451000D01*
X78200D01*
X85000D01*
X77500Y430500D02*
X85000Y423000D01*
X63600Y278400D02*
X83000Y259000D01*
Y256000D02*
Y259000D01*
X63600Y278400D02*
Y306600D01*
X66866Y53088D02*
Y54912D01*
X62000Y59778D02*
X66866Y54912D01*
X62000Y84000D02*
X64000Y86000D01*
X62000Y59778D02*
Y84000D01*
X122278Y200500D02*
X126412Y196366D01*
X78222Y206000D02*
X80722Y203500D01*
X143600Y196600D02*
Y196600D01*
X80722Y203500D02*
X87500D01*
X126412Y196366D02*
X131546Y201500D01*
X138700D01*
X87500Y203500D02*
X93222Y197778D01*
X126412Y190588D02*
Y196366D01*
X138700Y201500D02*
X143600Y196600D01*
X93222Y197778D02*
X104000D01*
X130000Y187000D02*
X131000D01*
X126412Y190588D02*
X130000Y187000D01*
X104000Y197778D02*
X106722Y200500D01*
X122278D01*
X63600Y206000D02*
X78222D01*
X31500Y147500D02*
Y251000D01*
Y147500D02*
X52000Y127000D01*
X54200D01*
X58215Y44784D02*
X60000Y43000D01*
X58215Y44784D02*
Y52208D01*
X56000Y54424D02*
X58215Y52208D01*
X56000Y54424D02*
Y86000D01*
X53000Y89000D02*
X56000Y86000D01*
X53000Y94500D02*
X58500Y100000D01*
X53000Y89000D02*
Y94500D01*
X58500Y100000D02*
Y122700D01*
X60000Y29600D02*
Y43000D01*
X63000Y26600D02*
X70600Y19000D01*
X60000Y29600D02*
X63000Y26600D01*
X70600Y19000D02*
X86000D01*
X53600Y206000D02*
X63500Y196100D01*
X188000Y49000D02*
Y65778D01*
Y20343D02*
Y49000D01*
Y20343D02*
X191343Y17000D01*
X188000Y65778D02*
X231000Y108778D01*
X93600Y256600D02*
X113000Y276000D01*
X163000D01*
X93600Y246600D02*
Y256600D01*
X199000Y332500D02*
Y356600D01*
Y388000D01*
X163000Y356600D02*
X199000D01*
X51778Y311000D02*
X56778Y316000D01*
X31500Y251000D02*
Y311000D01*
X51778D01*
X63500Y128722D02*
Y196100D01*
X55722Y125500D02*
X60278D01*
X63500Y128722D01*
X173000Y430314D02*
X188657Y414657D01*
X252000Y415000D02*
X263000Y404000D01*
X188657Y414657D02*
X189000Y415000D01*
X252000D01*
X53600Y346600D02*
Y356600D01*
X35500Y328500D02*
X53600Y346600D01*
X31500Y325278D02*
X34722Y328500D01*
X35500D01*
X53600Y356600D02*
Y416600D01*
X31500Y251000D02*
X58600D01*
X63000Y246600D01*
X150657Y430000D02*
X153000Y427657D01*
Y416600D02*
Y427657D01*
X129343Y430000D02*
X150657D01*
X153000Y416600D02*
X170400D01*
X199000Y388000D01*
X173000Y430314D02*
Y456657D01*
X117425Y462000D02*
X167657D01*
X36000D02*
X108575D01*
X117225Y462200D02*
X117425Y462000D01*
X108775Y462200D02*
X117225D01*
X108575Y462000D02*
X108775Y462200D01*
X85000Y451000D02*
X91000Y445000D01*
X53600Y416600D02*
Y419600D01*
X168000Y391000D02*
Y400000D01*
X150628Y408972D02*
X159028D01*
X168000Y400000D01*
X163000Y386000D02*
X168000Y391000D01*
X143000Y416600D02*
X150628Y408972D01*
X159500Y182278D02*
X162000Y184778D01*
X156000Y166000D02*
X159500Y169500D01*
X152000Y206000D02*
X162000Y196000D01*
X159500Y169500D02*
Y182278D01*
X162000Y184778D02*
Y196000D01*
X143000Y206000D02*
X152000D01*
X153600Y166000D02*
X156000D01*
X176000Y181000D02*
Y194000D01*
X234500Y205500D02*
X250000Y221000D01*
X234500Y195000D02*
Y205500D01*
X250000Y221000D02*
Y244000D01*
X201400Y246600D02*
X204000Y244000D01*
X250000D01*
Y281500D01*
X163000Y246600D02*
X201400D01*
X84750Y404750D02*
X85000Y405000D01*
Y423000D01*
X143000Y96000D02*
X145000Y94000D01*
X134000Y55389D02*
X145000Y66389D01*
Y94000D01*
X114000Y49000D02*
X137000Y72000D01*
Y84000D01*
X134000Y43000D02*
Y55389D01*
Y43000D02*
X137000Y40000D01*
X73600Y416600D02*
Y419657D01*
X71157Y422100D02*
X73600Y419657D01*
X56100Y422100D02*
X71157D01*
X91000Y445000D02*
X123000D01*
X127000Y441000D01*
Y427657D02*
Y441000D01*
X183000Y201000D02*
X206222D01*
X176000Y194000D02*
X183000Y201000D01*
X175400Y136600D02*
X184500Y127500D01*
X163000Y136600D02*
X175400D01*
X184500Y127500D02*
X234500D01*
X169800Y130200D02*
X182000Y118000D01*
Y86000D02*
Y118000D01*
X156800Y130200D02*
X169800D01*
X172000Y76000D02*
X182000Y86000D01*
X172000Y72000D02*
Y76000D01*
X143000Y126600D02*
X146600Y130200D01*
X156800D01*
X156000Y131000D02*
X156800Y130200D01*
X156000Y131000D02*
Y141457D01*
X161143Y146600D01*
X163000D01*
X153600Y53600D02*
X172000Y72000D01*
X153600Y46000D02*
Y53600D01*
X163000Y47622D02*
Y50000D01*
X155378Y40000D02*
X163000Y47622D01*
X137000Y40000D02*
X155378D01*
X60000Y43000D02*
X134000D01*
X123600Y36000D02*
X127600Y32000D01*
X91000Y36000D02*
X123600D01*
X159000Y32000D02*
X163000Y36000D01*
X127600Y32000D02*
X159000D01*
X163000Y16498D02*
Y36000D01*
X127000Y427657D02*
X129343Y430000D01*
X127000Y414000D02*
Y427657D01*
X53600Y419600D02*
X56100Y422100D01*
X56778Y316000D02*
X63000D01*
Y246600D02*
X93600D01*
X133000Y256000D02*
X153600D01*
X163000Y246600D01*
X86000Y19000D02*
X93600Y26600D01*
X83000Y28000D02*
X91000Y36000D01*
X199000Y332500D02*
X250000Y281500D01*
X234500Y127500D02*
Y195000D01*
X212222D02*
X234500D01*
X206222Y201000D02*
X212222Y195000D01*
X179000Y72000D02*
X234500Y127500D01*
X231000Y114278D02*
X260000Y143278D01*
X231000Y108778D02*
Y114278D01*
X163000Y36000D02*
X179000Y52000D01*
Y72000D01*
X156003Y9501D02*
X163000Y16498D01*
X260000Y143278D02*
Y295000D01*
X167657Y462000D02*
X173000Y456657D01*
X248000Y307000D02*
Y331000D01*
X263000Y346000D01*
X248000Y307000D02*
X260000Y295000D01*
X191343Y17000D02*
X217000D01*
X263000Y346000D02*
Y404000D01*
X83000Y26600D02*
Y28000D01*
D52*
X3074Y416196D02*
X6766Y412505D01*
X13243D01*
X2804Y416196D02*
X3074D01*
X15000Y401961D02*
X17494Y399467D01*
X13243Y412505D02*
X15000Y410747D01*
Y401961D02*
Y410747D01*
X17494Y399467D02*
X43534D01*
X48000Y395000D01*
Y354071D02*
Y395000D01*
X10000Y316071D02*
X48000Y354071D01*
X10000Y278000D02*
Y316071D01*
X84500Y405000D02*
X84750Y404750D01*
X67000Y405000D02*
X84500D01*
X86500Y372500D02*
Y403000D01*
X84750Y404750D02*
X86500Y403000D01*
X63600Y408400D02*
X67000Y405000D01*
X63600Y408400D02*
Y416600D01*
X83000Y364000D02*
Y368929D01*
X86000Y372000D02*
X86500Y372500D01*
X86000Y371929D02*
Y372000D01*
X83000Y368929D02*
X86000Y371929D01*
X127000Y386000D02*
X134000Y379000D01*
Y369929D02*
Y379000D01*
X127000Y386000D02*
Y414000D01*
X134000Y369929D02*
X134809Y369120D01*
Y367191D02*
Y369120D01*
Y367191D02*
X135000Y367000D01*
D53*
X42756Y216046D02*
X49710Y223000D01*
X118000D01*
X122000Y219000D01*
X46100Y154438D02*
Y198900D01*
X37656Y207344D02*
X46100Y198900D01*
Y154438D02*
X50012Y150525D01*
X50508D01*
X51908Y149125D01*
X52125D01*
X37656Y207344D02*
Y224656D01*
X43000Y230000D01*
X86204D02*
X88829Y232625D01*
X132250D01*
X43000Y230000D02*
X86204D01*
X136222Y242425D02*
X136309D01*
X137350Y234650D02*
X148000Y224000D01*
X134362Y237725D02*
X137350Y234737D01*
Y234650D02*
Y234737D01*
X134275Y237725D02*
X134362D01*
X126000Y246000D02*
X134275Y237725D01*
X122647Y256000D02*
X136222Y242425D01*
X142050Y236597D02*
X147147Y231500D01*
X136309Y242425D02*
X142050Y236684D01*
Y236597D02*
Y236684D01*
X122000Y219000D02*
X177784D01*
X113000Y246000D02*
X126000D01*
X148000Y224000D02*
X199000D01*
X147147Y231500D02*
X201500D01*
X113000Y256000D02*
X122647D01*
X179783Y217000D02*
X180000D01*
X177784Y219000D02*
X179783Y217000D01*
X205000Y228000D02*
Y228000D01*
X201500Y231500D02*
X205000Y228000D01*
X173400Y213100D02*
X174600Y211900D01*
X182688D02*
X186788Y216000D01*
X165888Y213100D02*
X173400D01*
X164788Y212000D02*
X165888Y213100D01*
X174600Y211900D02*
X182688D01*
X130757Y212000D02*
X164788D01*
X149000Y437000D02*
Y439000D01*
X150900Y440900D01*
Y448226D01*
X122113Y450100D02*
X149025D01*
X150900Y448226D01*
X115112Y457100D02*
X122113Y450100D01*
X110688Y456900D02*
X110887Y457100D01*
X115112D01*
X56970Y456000D02*
X57870Y456900D01*
X49000Y456000D02*
X56970D01*
X57870Y456900D02*
X110688D01*
X42000Y434817D02*
Y449000D01*
X49000Y456000D01*
X42000Y434817D02*
X53447Y423369D01*
Y416753D02*
X53600Y416600D01*
X53447Y416753D02*
Y423369D01*
X186100Y379784D02*
Y380000D01*
X185000Y364216D02*
Y378684D01*
X186100Y379784D01*
X186788Y216000D02*
X211000D01*
X124379Y205621D02*
X130757Y212000D01*
X221000Y226000D02*
X240000D01*
X211000Y216000D02*
X221000Y226000D01*
X76000Y278000D02*
X101000D01*
X109000Y286000D02*
X203000D01*
X101000Y278000D02*
X109000Y286000D01*
X203000D02*
X208900Y280100D01*
X238900D02*
X239000Y280000D01*
X208900Y280100D02*
X238900D01*
D57*
X37000Y101000D02*
X45000Y93000D01*
Y88515D02*
X49000Y84515D01*
X45000Y88515D02*
Y93000D01*
X49000Y57000D02*
Y84515D01*
X38000Y46000D02*
X49000Y57000D01*
X243000Y307000D02*
X248000D01*
X19750Y22000D02*
X19750D01*
X38000Y40250D02*
Y46000D01*
X19750Y22000D02*
X38000Y40250D01*
X12750Y15000D02*
X19750Y22000D01*
X10000Y111000D02*
X20000Y101000D01*
X37000D01*
X10000Y111000D02*
Y168485D01*
X17250Y175735D01*
Y199000D01*
D58*
X215000Y439000D02*
D03*
X25000Y75000D02*
D03*
X215000Y50000D02*
D03*
X25000Y364000D02*
D03*
D59*
X18500Y454000D02*
D03*
X25000Y423375D02*
D03*
X2804Y416196D02*
D03*
X39000Y428000D02*
D03*
X42000Y410000D02*
D03*
X133000Y256000D02*
D03*
X26000Y301000D02*
D03*
X73000Y55000D02*
D03*
X36674Y319830D02*
D03*
X17500Y315875D02*
D03*
X50000Y436250D02*
D03*
X73000Y440000D02*
D03*
X63000Y264750D02*
D03*
X132250Y232625D02*
D03*
X42000Y126000D02*
D03*
X134000Y157000D02*
D03*
X52716Y49930D02*
D03*
X42000Y112000D02*
D03*
X53000Y89000D02*
D03*
X63600Y96600D02*
D03*
X64000Y86000D02*
D03*
X204000Y190000D02*
D03*
X113000Y256000D02*
D03*
Y246000D02*
D03*
X63000Y440000D02*
D03*
X83000Y436000D02*
D03*
X79998Y111500D02*
D03*
X83600Y136600D02*
D03*
X83000Y256000D02*
D03*
X63000Y26600D02*
D03*
X63600Y206000D02*
D03*
X49000Y31000D02*
D03*
Y20000D02*
D03*
X12000Y343000D02*
D03*
X4000Y385000D02*
D03*
Y407000D02*
D03*
X23000D02*
D03*
Y413000D02*
D03*
X4000Y426000D02*
D03*
X195000Y453000D02*
D03*
X198000Y421000D02*
D03*
X194000Y37000D02*
D03*
X179000Y25000D02*
D03*
Y16000D02*
D03*
X172000D02*
D03*
X226000Y75000D02*
D03*
X233000Y68000D02*
D03*
X3000Y92000D02*
D03*
Y100000D02*
D03*
X11000D02*
D03*
X3000Y4000D02*
D03*
Y16000D02*
D03*
Y32000D02*
D03*
X20681Y32660D02*
D03*
X21000Y49000D02*
D03*
X3000D02*
D03*
X188000D02*
D03*
X243000Y307000D02*
D03*
X133600Y16600D02*
D03*
X140000Y176000D02*
D03*
X93600Y216000D02*
D03*
X116000Y170000D02*
D03*
X122150Y171150D02*
D03*
X103000Y387000D02*
D03*
Y394000D02*
D03*
X78000Y328000D02*
D03*
X165000Y321000D02*
D03*
Y330000D02*
D03*
X104000Y258000D02*
D03*
X133000Y326000D02*
D03*
X76000Y188000D02*
D03*
X140000Y157000D02*
D03*
X122000Y84000D02*
D03*
X230000Y24000D02*
D03*
X207000Y75000D02*
D03*
X233000D02*
D03*
X241000Y235000D02*
D03*
Y257000D02*
D03*
Y270000D02*
D03*
X140000Y170000D02*
D03*
Y163000D02*
D03*
X143000Y376500D02*
D03*
X187000Y444000D02*
D03*
X166000Y350000D02*
D03*
X59000Y336000D02*
D03*
X80000Y333000D02*
D03*
X37000Y302000D02*
D03*
X54000Y277000D02*
D03*
X93300Y271300D02*
D03*
X58300Y211300D02*
D03*
X168000Y208000D02*
D03*
X98000Y109000D02*
D03*
X83916Y145595D02*
D03*
X58000Y131000D02*
D03*
X141000Y247000D02*
D03*
X139000Y270000D02*
D03*
X154000Y244000D02*
D03*
X177000Y319000D02*
D03*
X158000Y330000D02*
D03*
X129000Y84000D02*
D03*
X112000Y394000D02*
D03*
X111000Y387000D02*
D03*
X4000Y396000D02*
D03*
Y343000D02*
D03*
X237000Y422000D02*
D03*
X220000Y382000D02*
D03*
X240000Y142000D02*
D03*
X242000Y189000D02*
D03*
X241000Y163000D02*
D03*
X49000Y9000D02*
D03*
X40000Y20000D02*
D03*
X35000Y10000D02*
D03*
X68000Y9000D02*
D03*
X179000Y7000D02*
D03*
X134000Y6000D02*
D03*
X184000Y452000D02*
D03*
X10000Y278000D02*
D03*
X37000Y245000D02*
D03*
X24000Y294000D02*
D03*
X12750Y15000D02*
D03*
X17250Y199000D02*
D03*
X165500Y294000D02*
D03*
X178000Y298000D02*
D03*
X124379Y205621D02*
D03*
X149000Y437000D02*
D03*
X184909Y302955D02*
D03*
X185000Y364000D02*
D03*
X186100Y380000D02*
D03*
X40000Y389000D02*
D03*
X210784Y258000D02*
D03*
X211000Y250000D02*
D03*
X199000Y224000D02*
D03*
X205000Y228000D02*
D03*
X137000Y84000D02*
D03*
X103600Y126600D02*
D03*
Y136600D02*
D03*
X78200Y451000D02*
D03*
X54200Y127000D02*
D03*
X163000Y50000D02*
D03*
X166000Y376000D02*
D03*
X239000Y280000D02*
D03*
X240000Y226000D02*
D03*
X180000Y217000D02*
D03*
X162006Y76904D02*
D03*
X42756Y216046D02*
D03*
X41000Y165000D02*
D03*
X40000Y173000D02*
D03*
X26875Y129875D02*
D03*
X8500Y207500D02*
D03*
X9000Y243000D02*
D03*
X229000Y98000D02*
D03*
X236500Y104000D02*
D03*
X25000Y143000D02*
D03*
X24000Y155000D02*
D03*
X36000Y462000D02*
D03*
X217000Y17000D02*
D03*
X248000Y307000D02*
D03*
X144000Y343000D02*
D03*
X140000Y392000D02*
D03*
X103000Y316000D02*
D03*
X127000Y414000D02*
D03*
X103000Y436000D02*
D03*
X138000Y400000D02*
D03*
X112000Y97000D02*
D03*
Y87000D02*
D03*
X180000Y143595D02*
D03*
X200000Y151000D02*
D03*
X212000Y141000D02*
D03*
X209000Y134000D02*
D03*
X83000Y209000D02*
D03*
X97000Y127000D02*
D03*
X98204Y138204D02*
D03*
X138000Y407000D02*
D03*
X190000Y135000D02*
D03*
X83000Y364000D02*
D03*
X75000Y376000D02*
D03*
X81000Y374000D02*
D03*
X93000Y175000D02*
D03*
X80000Y106000D02*
D03*
X82000Y162000D02*
D03*
X78000Y340000D02*
D03*
X163000Y36000D02*
D03*
X153600Y46000D02*
D03*
X156003Y9501D02*
D03*
X123600Y36000D02*
D03*
X19000Y169000D02*
D03*
X113000Y452000D02*
D03*
X120211Y194790D02*
D03*
X134000Y196000D02*
D03*
X82000Y168000D02*
D03*
X138000Y191000D02*
D03*
X52000Y143000D02*
D03*
X27000Y109000D02*
D03*
X45000Y257000D02*
D03*
X135000Y367000D02*
D03*
X91000Y414000D02*
D03*
X78000Y381000D02*
D03*
X103000Y57000D02*
D03*
X76000Y278000D02*
D03*
X85000Y300000D02*
D03*
X51000Y318000D02*
D03*
X48000Y40000D02*
D03*
X210000Y265000D02*
D03*
Y275000D02*
D03*
X18875Y162125D02*
D03*
X52125Y155625D02*
D03*
Y149125D02*
D03*
X52000Y136000D02*
D03*
X18875Y123125D02*
D03*
Y136125D02*
D03*
Y149125D02*
D03*
X247125Y359375D02*
D03*
Y365875D02*
D03*
Y378875D02*
D03*
Y385375D02*
D03*
Y398375D02*
D03*
Y404875D02*
D03*
X210875Y359125D02*
D03*
Y365625D02*
D03*
Y378625D02*
D03*
X211000Y385000D02*
D03*
X242000Y154000D02*
D03*
Y148500D02*
D03*
Y179000D02*
D03*
Y173500D02*
D03*
Y204000D02*
D03*
Y198500D02*
D03*
X100000Y367000D02*
D03*
X112000D02*
D03*
X131000Y187000D02*
D03*
X108000Y194000D02*
D03*
X83000Y196000D02*
D03*
X195000Y209000D02*
D03*
X169000Y149000D02*
D03*
X166000Y164000D02*
D03*
X165000Y172000D02*
D03*
X167000Y182000D02*
D03*
X176000Y181000D02*
D03*
X93000Y190000D02*
D03*
X139000Y151000D02*
D03*
X133000Y147000D02*
D03*
X102000Y153000D02*
D03*
Y146000D02*
D03*
X103300Y205700D02*
D03*
X103600Y216000D02*
D03*
X93600Y206000D02*
D03*
X83600Y216000D02*
D03*
X93000Y96600D02*
D03*
Y86600D02*
D03*
X103000Y96600D02*
D03*
Y86600D02*
D03*
X113000Y426000D02*
D03*
X103000D02*
D03*
X113000Y436000D02*
D03*
X93000Y426000D02*
D03*
Y436000D02*
D03*
X153600Y166000D02*
D03*
X184000Y138000D02*
D03*
X213000Y159000D02*
D03*
X214000Y172000D02*
D03*
X209000Y207000D02*
D03*
X213000Y202000D02*
D03*
X187000Y209000D02*
D03*
X114000Y195000D02*
D03*
X83000Y176000D02*
D03*
X103000Y184000D02*
D03*
X83000Y188000D02*
D03*
X79000Y410000D02*
D03*
X92000Y407000D02*
D03*
X115000Y416000D02*
D03*
X121000Y411000D02*
D03*
X75000Y386000D02*
D03*
X129000Y373000D02*
D03*
X125000Y368000D02*
D03*
X139000Y372000D02*
D03*
X138000Y383000D02*
D03*
X153000Y416600D02*
D03*
X143000D02*
D03*
X113000Y326000D02*
D03*
Y316000D02*
D03*
X103000Y326000D02*
D03*
X93000Y316000D02*
D03*
Y326000D02*
D03*
X93600Y16600D02*
D03*
Y26600D02*
D03*
X83000D02*
D03*
X103600Y16600D02*
D03*
Y26600D02*
D03*
X143000Y96000D02*
D03*
X163000Y146600D02*
D03*
Y136600D02*
D03*
X143000Y126600D02*
D03*
X133000Y136600D02*
D03*
X163000Y246600D02*
D03*
X143600Y196600D02*
D03*
X143000Y206000D02*
D03*
X73000Y216000D02*
D03*
X53600Y206000D02*
D03*
X163000Y276000D02*
D03*
Y266000D02*
D03*
X83000Y236600D02*
D03*
X63000Y246600D02*
D03*
X93600D02*
D03*
X103000Y246000D02*
D03*
X153000Y236600D02*
D03*
X143600Y326000D02*
D03*
Y306600D02*
D03*
X83000Y316000D02*
D03*
X63600Y306600D02*
D03*
X63000Y316000D02*
D03*
X163000Y386000D02*
D03*
Y366600D02*
D03*
Y356600D02*
D03*
X103600Y346600D02*
D03*
Y356600D02*
D03*
X93600D02*
D03*
X53600D02*
D03*
Y416600D02*
D03*
X63600D02*
D03*
X73600Y416600D02*
D03*
X212000Y166000D02*
D03*
X196000Y138000D02*
D03*
X176000Y150000D02*
D03*
X167000Y157000D02*
D03*
X182057Y183943D02*
D03*
X190000Y194000D02*
D03*
X124000Y147000D02*
D03*
X118000D02*
D03*
X111000D02*
D03*
X106000Y368000D02*
D03*
X77000Y393000D02*
D03*
X77600Y400000D02*
D03*
X106000Y415000D02*
D03*
X100000D02*
D03*
D60*
X88394Y348600D02*
G03*
X91194Y345800I2800J0D01*
G01*
X94357Y340200D02*
G03*
X94357Y345800I0J2800D01*
G01*
X91194Y340200D02*
G03*
X88394Y337400I0J-2800D01*
G01*
X92000Y149081D02*
X111426Y168507D01*
Y173426D01*
X88400Y108319D02*
Y150572D01*
X92000Y122937D02*
Y149081D01*
X88400Y150572D02*
X107825Y169998D01*
X118063Y181000D02*
X119000Y180063D01*
Y175937D02*
Y180063D01*
X107825Y169998D02*
Y178763D01*
X101219Y179700D02*
X106888D01*
X107825Y178763D01*
X111000Y182000D02*
Y185579D01*
X118063Y175000D02*
X119000Y175937D01*
X111426Y173426D02*
X113000Y175000D01*
X118063D01*
X112000Y181000D02*
X118063D01*
X111000Y185579D02*
X120211Y194790D01*
X111000Y182000D02*
X112000Y181000D01*
X88394Y348600D02*
Y354000D01*
X91194Y345800D02*
X94357D01*
X91194Y340200D02*
X94357D01*
X88394Y331000D02*
Y337400D01*
Y354000D02*
Y358222D01*
Y322303D02*
Y331000D01*
X93000Y325465D02*
X97763Y320703D01*
X99490Y410700D02*
X100427Y409763D01*
Y408437D02*
Y409763D01*
X84794Y320812D02*
Y359713D01*
X90900Y318137D02*
X93000Y316037D01*
X87300Y315619D02*
X91219Y311700D01*
X92100Y367019D02*
Y400110D01*
X94300Y410700D02*
X99490D01*
X90900Y318137D02*
Y319797D01*
X91000Y414000D02*
X94300Y410700D01*
X92100Y400110D02*
X100427Y408437D01*
X95700Y398619D02*
X104027Y406946D01*
X91219Y311700D02*
X94781D01*
X84794Y359713D02*
X92100Y367019D01*
X93000Y325465D02*
Y326000D01*
X87300Y315619D02*
Y318306D01*
X94781Y311700D02*
X97763Y314682D01*
X104027Y408576D02*
X106152Y410700D01*
X97763Y314682D02*
Y320703D01*
X93000Y316000D02*
Y316037D01*
X84794Y320812D02*
X87300Y318306D01*
X104027Y406946D02*
Y408576D01*
X88394Y358222D02*
X95700Y365528D01*
X88394Y322303D02*
X90900Y319797D01*
X106152Y410700D02*
X109700D01*
X95700Y365528D02*
Y398619D01*
X109700Y410700D02*
X115000Y416000D01*
X92000Y122937D02*
X92937Y122000D01*
X99500Y114937D02*
Y121063D01*
X92937Y122000D02*
X98563D01*
X99500Y121063D01*
X92000Y106828D02*
Y112363D01*
X92937Y113300D01*
X97863D01*
X99500Y114937D01*
X103000Y96637D02*
Y102828D01*
X105118Y104946D01*
X98700Y91435D02*
X103000Y87135D01*
Y86600D02*
Y87135D01*
X98700Y91435D02*
Y103619D01*
X103627Y108546D01*
X148546D01*
X105118Y104946D02*
X147054D01*
X84000Y98828D02*
X92000Y106828D01*
X71500Y307237D02*
Y330500D01*
X64400Y332509D02*
Y396954D01*
X67900Y305746D02*
Y329009D01*
X66509Y330400D02*
X66509D01*
X64400Y332509D02*
X66509Y330400D01*
X66509D02*
X67900Y329009D01*
X68000Y334000D02*
Y395463D01*
X68000Y334000D02*
X71500Y330500D01*
X68000Y334000D02*
X68000D01*
X156600Y90400D02*
X160000Y87000D01*
X158509Y83400D02*
X165400D01*
X156600Y90400D02*
Y100491D01*
X153000Y88909D02*
X158509Y83400D01*
X153000Y88909D02*
Y99000D01*
X111446Y362700D02*
X151563D01*
X112937Y359100D02*
X153054D01*
X170600Y88600D02*
Y111400D01*
X160400Y121600D02*
X170600Y111400D01*
X158909Y118000D02*
X167000Y109909D01*
Y90091D02*
Y109909D01*
X109400Y121046D02*
Y128954D01*
X113937Y121600D02*
X160400D01*
X113000Y122537D02*
X113937Y121600D01*
X109400Y121046D02*
X112446Y118000D01*
X158909D01*
X70946Y302700D02*
X81619D01*
X67900Y305746D02*
X70946Y302700D01*
X72437Y306300D02*
X80128D01*
X71500Y307237D02*
X72437Y306300D01*
X163909Y87000D02*
X167000Y90091D01*
X160000Y87000D02*
X163909D01*
X165400Y83400D02*
X170600Y88600D01*
X147054Y104946D02*
X153000Y99000D01*
X148546Y108546D02*
X153546Y103546D01*
X153546D02*
X156600Y100491D01*
X153546Y103546D02*
X153546D01*
X98163Y78163D02*
X101000Y81000D01*
X111522D02*
X112459Y81937D01*
Y86541D01*
X101000Y81000D02*
X111522D01*
X101000Y74000D02*
X110063D01*
X98163Y76837D02*
X101000Y74000D01*
X98163Y76837D02*
Y78163D01*
X116840Y71840D02*
Y92160D01*
X106300Y61300D02*
X116840Y71840D01*
X112000Y87000D02*
X112459Y86541D01*
X111000Y71091D02*
Y73063D01*
X112000Y97000D02*
X116840Y92160D01*
X79191Y64900D02*
X104809D01*
X77700Y61300D02*
X106300D01*
X110063Y74000D02*
X111000Y73063D01*
X104809Y64900D02*
X111000Y71091D01*
X73254Y400000D02*
X74137Y399117D01*
X64400Y396954D02*
X67446Y400000D01*
X74137Y399117D02*
X75463D01*
X75887Y399541D02*
X77141D01*
X67446Y400000D02*
X73254D01*
X75463Y399117D02*
X75887Y399541D01*
X77141D02*
X77600Y400000D01*
X68000Y395463D02*
X68937Y396400D01*
X71763D01*
X72700Y395463D01*
Y388949D02*
X75000Y386649D01*
X72700Y388949D02*
Y395463D01*
X112937Y351363D02*
X155954D01*
Y334788D02*
X159000Y337834D01*
X154463Y338388D02*
X155400Y339325D01*
X101297Y338388D02*
X154463D01*
X155400Y339325D02*
Y346825D01*
X102788Y334788D02*
X155954D01*
X154463Y347763D02*
X155400Y346825D01*
X155954Y351363D02*
X159000Y348317D01*
X111446Y347763D02*
X154463D01*
X159000Y337834D02*
Y348317D01*
X108400Y350809D02*
Y359654D01*
X112000Y352300D02*
X112937Y351363D01*
X108400Y350809D02*
X111446Y347763D01*
X112000Y352300D02*
Y358163D01*
X112937Y359100D01*
X108400Y359654D02*
X111446Y362700D01*
X157000Y363046D02*
Y391338D01*
X153400Y364537D02*
Y389846D01*
X151563Y362700D02*
X153400Y364537D01*
X153054Y359100D02*
X157000Y363046D01*
X100900Y332900D02*
X102788Y334788D01*
X97300Y334391D02*
X101297Y338388D01*
X97300Y325549D02*
Y334391D01*
X144334Y404003D02*
X157000Y391338D01*
X144327Y398920D02*
X153400Y389846D01*
X95063Y301109D02*
X104018D01*
X93572Y297509D02*
X105509D01*
X88272Y307900D02*
X95063Y301109D01*
X104018D02*
X107300Y304391D01*
X86781Y304300D02*
X93572Y297509D01*
X105509D02*
X108791Y300791D01*
X107300Y304391D02*
Y320300D01*
X108791Y300791D02*
X108791D01*
X107300Y304391D02*
X107300D01*
X108791Y300791D02*
X110900Y302900D01*
Y313863D01*
X83219Y304300D02*
X86781D01*
X81728Y307900D02*
X88272D01*
X81619Y302700D02*
X83219Y304300D01*
X80128Y306300D02*
X81728Y307900D01*
X100900Y328137D02*
Y332900D01*
X143001Y398920D02*
X144327D01*
X140459Y396378D02*
X143001Y398920D01*
X140000Y392000D02*
X140459Y392459D01*
Y396378D01*
X102541Y316459D02*
X103000Y316000D01*
X102541Y316459D02*
Y320309D01*
X97300Y325549D02*
X102541Y320309D01*
X110900Y313863D02*
X113000Y315963D01*
Y316000D01*
X107300Y320300D02*
X113000Y326000D01*
X86421Y160069D02*
Y166081D01*
X84762Y167740D02*
X86421Y166081D01*
X86000Y171593D02*
X90021Y167572D01*
X82000Y168000D02*
X82260Y167740D01*
X84762D01*
X86000Y171593D02*
Y172919D01*
X84598Y153154D02*
X90021Y158578D01*
Y167572D01*
X86000Y172919D02*
X87300Y174219D01*
X87203Y177878D02*
X87300Y177781D01*
Y174219D02*
Y177781D01*
X87203Y179203D02*
X89000Y181000D01*
X87203Y177878D02*
Y179203D01*
X91000Y181000D02*
X93000Y179000D01*
X89000Y181000D02*
X91000D01*
X93000Y175000D02*
Y179000D01*
X68400Y84000D02*
Y95432D01*
X70940Y97972D01*
Y101972D01*
X68400Y104512D02*
X70940Y101972D01*
X68400Y104512D02*
Y110003D01*
X70940Y112543D01*
Y116543D01*
X68400Y119083D02*
X70940Y116543D01*
X68400Y119083D02*
Y124574D01*
X70940Y127114D01*
Y131114D01*
X68400Y133654D02*
X70940Y131114D01*
X68400Y133654D02*
Y137000D01*
X72000Y84000D02*
Y93941D01*
X74540Y96481D01*
Y103463D01*
X72000Y106003D02*
X74540Y103463D01*
X72000Y106003D02*
Y108512D01*
X74540Y111052D01*
Y118034D01*
X72000Y120574D02*
X74540Y118034D01*
X72000Y120574D02*
Y123083D01*
X74540Y125623D01*
Y132606D01*
X72000Y135146D02*
X74540Y132606D01*
X72000Y135146D02*
Y137000D01*
X68400Y70600D02*
Y84000D01*
Y137000D02*
Y142047D01*
X72000Y72091D02*
Y84000D01*
Y137000D02*
Y140556D01*
X68400Y70600D02*
X77700Y61300D01*
X72000Y72091D02*
X79191Y64900D01*
X80998Y154646D02*
X86421Y160069D01*
X84598Y153154D02*
Y153154D01*
X80998Y154646D02*
Y154646D01*
X72000Y140556D02*
X84598Y153154D01*
X152600Y171081D02*
Y184106D01*
X149554Y187152D02*
X152600Y184106D01*
X148063Y183552D02*
X149000Y182614D01*
X144300Y174219D02*
Y182614D01*
X141848Y187152D02*
X149554D01*
X145237Y183552D02*
X148063D01*
X149000Y172572D02*
Y182614D01*
X144300D02*
X145237Y183552D01*
X138000Y191000D02*
X141848Y187152D01*
X149300Y167781D02*
X152600Y171081D01*
X145700Y169272D02*
X149000Y172572D01*
X145700Y146791D02*
Y169272D01*
X149300Y145300D02*
Y167781D01*
X109400Y128954D02*
X112446Y132000D01*
X113000Y122537D02*
Y127463D01*
X113937Y128400D01*
X135972D01*
X112446Y132000D02*
X134481D01*
X80400Y89600D02*
Y100319D01*
Y89600D02*
X85853Y84147D01*
X89191Y85900D02*
X90863D01*
X84000Y91091D02*
Y98828D01*
X93459Y92291D02*
X97349Y88401D01*
Y83937D02*
Y88401D01*
X87700Y82300D02*
X95712D01*
X97349Y83937D01*
X92541Y86141D02*
X93000Y86600D01*
X85853Y84147D02*
X85853D01*
X84000Y91091D02*
X87344Y87747D01*
X85853Y84147D02*
X87700Y82300D01*
X91103Y86141D02*
X92541D01*
X90863Y85900D02*
X91103Y86141D01*
X87344Y87747D02*
X89191Y85900D01*
X87344Y87747D02*
X87344D01*
X134481Y132000D02*
X140872Y138391D01*
X135972Y128400D02*
X144472Y136900D01*
X80400Y100319D02*
X88400Y108319D01*
X138000Y407000D02*
X138229D01*
X141226Y404003D01*
X144334D01*
X75000Y386000D02*
Y386649D01*
X93000Y96600D02*
X93459Y96141D01*
Y92291D02*
Y96141D01*
X68400Y142047D02*
X80998Y154646D01*
X144472Y140472D02*
X149300Y145300D01*
X140872Y141963D02*
X145700Y146791D01*
X140000Y170000D02*
X140081D01*
X144300Y174219D01*
X140872Y138391D02*
Y141963D01*
X144472Y136900D02*
Y140472D01*
X100900Y328137D02*
X103000Y326037D01*
Y326000D02*
Y326037D01*
X97339Y183580D02*
Y185661D01*
Y183580D02*
X101219Y179700D01*
X93000Y190000D02*
X97339Y185661D01*
M02*
