G04*
G04 #@! TF.GenerationSoftware,Altium Limited,Altium Designer,24.9.1 (31)*
G04*
G04 Layer_Physical_Order=6*
G04 Layer_Color=16711680*
%FSLAX44Y44*%
%MOMM*%
G71*
G04*
G04 #@! TF.SameCoordinates,FD4918BF-9287-427B-8844-C27258197B88*
G04*
G04*
G04 #@! TF.FilePolarity,Positive*
G04*
G01*
G75*
%ADD51C,0.4000*%
%ADD52C,0.3000*%
%ADD53C,0.3200*%
%ADD54C,0.2000*%
%ADD55C,0.1800*%
%ADD56C,0.2200*%
%ADD57C,0.5000*%
%ADD58C,4.0000*%
%ADD59C,0.4000*%
%ADD61C,0.4500*%
%ADD62C,3.0000*%
G36*
X240000Y443000D02*
X274000D01*
Y374663D01*
X272614Y374089D01*
X272180Y374523D01*
X271022Y375297D01*
X269657Y375569D01*
X250890D01*
X250461Y376280D01*
X250165Y377069D01*
X250625Y378179D01*
Y379571D01*
X250092Y380858D01*
X249805Y381145D01*
X249264Y382125D01*
X249805Y383105D01*
X250092Y383392D01*
X250625Y384679D01*
Y386071D01*
X250092Y387358D01*
X249108Y388342D01*
X247821Y388875D01*
X246429D01*
X245142Y388342D01*
X244158Y387358D01*
X243625Y386071D01*
Y384679D01*
X244158Y383392D01*
X244445Y383105D01*
X244986Y382125D01*
X244445Y381145D01*
X244158Y380858D01*
X243625Y379571D01*
Y378179D01*
X244085Y377069D01*
X243789Y376280D01*
X243360Y375569D01*
X214890D01*
X214576Y375890D01*
X214019Y377069D01*
X214375Y377929D01*
Y379321D01*
X213842Y380608D01*
X213680Y380770D01*
X213066Y381881D01*
X213680Y382730D01*
X213967Y383017D01*
X214500Y384304D01*
Y385696D01*
X213967Y386983D01*
X212983Y387967D01*
X211696Y388500D01*
X210304D01*
X209017Y387967D01*
X208033Y386983D01*
X207500Y385696D01*
Y384304D01*
X208033Y383017D01*
X208195Y382855D01*
X208809Y381744D01*
X208195Y380895D01*
X207908Y380608D01*
X207375Y379321D01*
Y377929D01*
X207731Y377069D01*
X207174Y375890D01*
X206860Y375569D01*
X188467D01*
X188125Y376872D01*
X188118Y377069D01*
X189067Y378017D01*
X189406Y378837D01*
X193235Y382665D01*
X193920Y383690D01*
X194161Y384900D01*
Y429000D01*
X194081Y429401D01*
X195523Y429839D01*
X195947Y428816D01*
X198300Y425295D01*
X201295Y422300D01*
X204816Y419947D01*
X208729Y418326D01*
X212882Y417500D01*
X217118D01*
X221271Y418326D01*
X225184Y419947D01*
X228705Y422300D01*
X231700Y425295D01*
X234053Y428816D01*
X235674Y432729D01*
X236500Y436882D01*
Y441118D01*
X235674Y445271D01*
X234053Y449184D01*
X231700Y452705D01*
X228705Y455700D01*
X225184Y458053D01*
X221271Y459674D01*
X217118Y460500D01*
X212882D01*
X208729Y459674D01*
X204816Y458053D01*
X201295Y455700D01*
X198300Y452705D01*
X195947Y449184D01*
X194326Y445271D01*
X193500Y441118D01*
Y436882D01*
X194326Y432729D01*
X194792Y431605D01*
X193462Y430895D01*
X193235Y431235D01*
X161856Y462614D01*
X162430Y464000D01*
X240000D01*
Y443000D01*
D02*
G37*
G36*
X32500Y462696D02*
Y461304D01*
X33033Y460017D01*
X34017Y459033D01*
X34735Y458736D01*
X35235Y457114D01*
X29565Y451445D01*
X28880Y450419D01*
X28639Y449210D01*
Y427988D01*
X28880Y426778D01*
X29565Y425753D01*
X30839Y424478D01*
Y402000D01*
X31080Y400790D01*
X31765Y399765D01*
X34839Y396691D01*
Y391217D01*
X35080Y390007D01*
X35765Y388982D01*
X36541Y388206D01*
X37033Y387017D01*
X38017Y386033D01*
X39304Y385500D01*
X40696D01*
X41983Y386033D01*
X42967Y387017D01*
X43339Y387916D01*
X44839Y387617D01*
Y324309D01*
X41560Y321030D01*
X39811Y321402D01*
X39641Y321812D01*
X38657Y322797D01*
X37370Y323330D01*
X35978D01*
X34692Y322797D01*
X33707Y321812D01*
X33174Y320526D01*
Y319934D01*
X31664Y318424D01*
X19901D01*
X19483Y318842D01*
X18196Y319375D01*
X16804D01*
X15517Y318842D01*
X14533Y317858D01*
X14000Y316571D01*
Y315179D01*
X14533Y313892D01*
X15517Y312908D01*
X16804Y312375D01*
X18196D01*
X19483Y312908D01*
X19901Y313326D01*
X31735D01*
X32356Y311826D01*
X30691Y310161D01*
X23000D01*
X21790Y309920D01*
X20765Y309235D01*
X1500Y289970D01*
X0Y290591D01*
Y412090D01*
X1500Y412948D01*
X2108Y412696D01*
X3500D01*
X4786Y413229D01*
X5771Y414214D01*
X6304Y415500D01*
Y416892D01*
X5771Y418179D01*
X4786Y419163D01*
X3500Y419696D01*
X2108D01*
X1500Y419445D01*
X0Y420302D01*
Y464000D01*
X31416D01*
X32500Y462696D01*
D02*
G37*
G36*
X173349Y435902D02*
Y387098D01*
X165751Y379500D01*
X165304D01*
X164017Y378967D01*
X163033Y377983D01*
X162500Y376696D01*
Y375304D01*
X163033Y374017D01*
X163932Y373119D01*
X164016Y372952D01*
X163991Y371420D01*
X163507Y371140D01*
X161660Y372986D01*
X161479Y373424D01*
X160424Y374479D01*
X159046Y375050D01*
X157554D01*
X156176Y374479D01*
X155121Y373424D01*
X154550Y372046D01*
X153090Y372142D01*
Y372253D01*
X152361Y374013D01*
X151013Y375361D01*
X150706Y375488D01*
Y377112D01*
X151013Y377239D01*
X152361Y378587D01*
X153090Y380347D01*
Y380458D01*
X154550Y380554D01*
X155121Y379176D01*
X156176Y378121D01*
X157554Y377550D01*
X159046D01*
X160424Y378121D01*
X161479Y379176D01*
X161660Y379614D01*
X165523Y383477D01*
X165719Y383769D01*
X165967Y384017D01*
X166102Y384342D01*
X166297Y384634D01*
X166366Y384979D01*
X166500Y385304D01*
Y385655D01*
X166569Y386000D01*
X166500Y386345D01*
Y386696D01*
X166366Y387021D01*
X166297Y387366D01*
X166102Y387658D01*
X165967Y387983D01*
X165719Y388231D01*
X165523Y388523D01*
X165231Y388719D01*
X164983Y388967D01*
X164658Y389102D01*
X164366Y389297D01*
X164021Y389366D01*
X163696Y389500D01*
X163345D01*
X163245Y389520D01*
X162582Y390093D01*
X162079Y390725D01*
X162050Y390886D01*
Y392046D01*
X161479Y393424D01*
X160424Y394479D01*
X159046Y395050D01*
X157554D01*
X156176Y394479D01*
X155121Y393424D01*
X154550Y392046D01*
Y390554D01*
X155121Y389176D01*
X156176Y388121D01*
X157432Y387600D01*
X157719Y387000D01*
X158003Y386050D01*
X156614Y384660D01*
X156176Y384479D01*
X155121Y383424D01*
X154550Y382046D01*
X153090Y382142D01*
Y382253D01*
X152361Y384013D01*
X151013Y385361D01*
X149253Y386090D01*
X149142D01*
X149046Y387550D01*
X150424Y388121D01*
X151479Y389176D01*
X152050Y390554D01*
Y392046D01*
X151479Y393424D01*
X150424Y394479D01*
X149046Y395050D01*
X147554D01*
X146176Y394479D01*
X145121Y393424D01*
X144910Y392914D01*
X144699Y392882D01*
X143348Y393063D01*
X142967Y393983D01*
X141983Y394967D01*
X140696Y395500D01*
X140202D01*
X139903Y397000D01*
X139983Y397033D01*
X140967Y398017D01*
X141500Y399304D01*
Y400696D01*
X140967Y401983D01*
X140377Y402573D01*
X140127Y403500D01*
X140377Y404427D01*
X140967Y405017D01*
X141500Y406304D01*
Y407696D01*
X140967Y408983D01*
X139983Y409967D01*
X138696Y410500D01*
X137304D01*
X136017Y409967D01*
X135033Y408983D01*
X134500Y407696D01*
Y406304D01*
X135033Y405017D01*
X135623Y404427D01*
X135873Y403500D01*
X135623Y402573D01*
X135033Y401983D01*
X134500Y400696D01*
X133090Y400913D01*
Y400347D01*
X133090Y400347D01*
X134500Y400130D01*
Y399304D01*
X135033Y398017D01*
X136017Y397033D01*
X137304Y396500D01*
X137798D01*
X138097Y395000D01*
X138017Y394967D01*
X137033Y393983D01*
X136500Y392696D01*
Y391304D01*
X137033Y390017D01*
X138017Y389033D01*
X139304Y388500D01*
X140696D01*
X141983Y389033D01*
X142967Y390017D01*
X143120Y390386D01*
X143520Y390433D01*
X144682Y390237D01*
X145121Y389176D01*
X146176Y388121D01*
X147554Y387550D01*
X147458Y386090D01*
X147347D01*
X145587Y385361D01*
X144239Y384013D01*
X143530Y382300D01*
X148300D01*
Y380300D01*
X143530D01*
X144239Y378587D01*
X145587Y377239D01*
X145894Y377112D01*
Y375488D01*
X145587Y375361D01*
X144239Y374013D01*
X143886Y373160D01*
X142285Y373215D01*
X141967Y373983D01*
X140983Y374967D01*
X139696Y375500D01*
X138304D01*
X137017Y374967D01*
X136033Y373983D01*
X135500Y372696D01*
Y371998D01*
X135198Y371136D01*
X134181Y370569D01*
X134135D01*
X133315Y370405D01*
X132224Y371561D01*
X132208Y371598D01*
X132500Y372304D01*
Y373696D01*
X131967Y374983D01*
X131240Y375710D01*
X131103Y376638D01*
X131253Y377479D01*
X132361Y378587D01*
X133070Y380300D01*
X128300D01*
Y382300D01*
X133070D01*
X132361Y384013D01*
X131013Y385361D01*
X130706Y385488D01*
Y387112D01*
X131013Y387239D01*
X132361Y388587D01*
X133070Y390300D01*
X128300D01*
Y392300D01*
X133070D01*
X132361Y394013D01*
X131013Y395361D01*
X130706Y395488D01*
Y397112D01*
X131013Y397239D01*
X132361Y398587D01*
X133070Y400300D01*
X128300D01*
Y401300D01*
X127300D01*
Y406070D01*
X125587Y405361D01*
X124239Y404013D01*
X124112Y403706D01*
X122488D01*
X122361Y404013D01*
X121013Y405361D01*
X119300Y406071D01*
Y401300D01*
X117300D01*
Y406070D01*
X115587Y405361D01*
X114239Y404013D01*
X114112Y403706D01*
X112488D01*
X112361Y404013D01*
X111013Y405361D01*
X109300Y406070D01*
Y401300D01*
X107300D01*
Y406070D01*
X105587Y405361D01*
X104239Y404013D01*
X104112Y403706D01*
X102488D01*
X102361Y404013D01*
X101013Y405361D01*
X99300Y406070D01*
Y401300D01*
X97300D01*
Y406071D01*
X95587Y405361D01*
X94239Y404013D01*
X94112Y403706D01*
X92488D01*
X92361Y404013D01*
X91013Y405361D01*
X89300Y406070D01*
Y401300D01*
X88300D01*
Y400300D01*
X83530D01*
X84239Y398587D01*
X85587Y397239D01*
X85894Y397112D01*
Y395488D01*
X85587Y395361D01*
X84239Y394013D01*
X83530Y392300D01*
X88300D01*
Y390300D01*
X83530D01*
X84239Y388587D01*
X85587Y387239D01*
X85894Y387112D01*
Y385488D01*
X85587Y385361D01*
X84239Y384013D01*
X83530Y382300D01*
X88300D01*
Y381300D01*
X89300D01*
Y376530D01*
X91013Y377239D01*
X92361Y378587D01*
X92488Y378894D01*
X94112D01*
X94239Y378587D01*
X95587Y377239D01*
X97300Y376530D01*
Y381300D01*
X99300D01*
Y376530D01*
X101013Y377239D01*
X102361Y378587D01*
X102488Y378894D01*
X104112D01*
X104239Y378587D01*
X105587Y377239D01*
X107300Y376530D01*
Y381300D01*
X109300D01*
Y376530D01*
X111013Y377239D01*
X112361Y378587D01*
X112488Y378894D01*
X114112D01*
X114239Y378587D01*
X115587Y377239D01*
X117300Y376530D01*
Y381300D01*
X119300D01*
Y376530D01*
X121013Y377239D01*
X122361Y378587D01*
X122488Y378894D01*
X124112D01*
X124239Y378587D01*
X125587Y377239D01*
X126027Y377057D01*
X126350Y375300D01*
X126033Y374983D01*
X125500Y373696D01*
Y372304D01*
X124304Y371500D01*
X123017Y370967D01*
X122033Y369983D01*
X121500Y368696D01*
Y367304D01*
X121822Y366526D01*
X121772Y366454D01*
X120612Y365527D01*
X119300Y366070D01*
Y361300D01*
X117300D01*
Y366070D01*
X116886Y365899D01*
X116734Y365943D01*
X115500Y366948D01*
Y367696D01*
X114967Y368983D01*
X113983Y369967D01*
X112696Y370500D01*
X111304D01*
X110017Y369967D01*
X109033Y368983D01*
X108500Y367696D01*
Y366304D01*
X108503Y366297D01*
X107669Y365050D01*
X107554D01*
X106176Y364479D01*
X105121Y363424D01*
X104939Y362986D01*
X103550Y361597D01*
X102600Y361881D01*
X102000Y362168D01*
X101912Y362380D01*
X101980Y363978D01*
X102487Y364537D01*
X102967Y365017D01*
X103500Y366304D01*
Y367696D01*
X102967Y368983D01*
X101983Y369967D01*
X100696Y370500D01*
X99304D01*
X98017Y369967D01*
X97033Y368983D01*
X96500Y367696D01*
Y366304D01*
X97033Y365017D01*
X96993Y364818D01*
X96176Y364479D01*
X95121Y363424D01*
X94939Y362986D01*
X93550Y361597D01*
X92600Y361881D01*
X92000Y362168D01*
X91479Y363424D01*
X90424Y364479D01*
X89755Y364756D01*
X87988Y366523D01*
X86830Y367297D01*
X85465Y367569D01*
X81135D01*
X79770Y367297D01*
X78612Y366523D01*
X76845Y364756D01*
X76176Y364479D01*
X75121Y363424D01*
X74550Y362046D01*
Y360554D01*
X75121Y359176D01*
X76176Y358121D01*
X77554Y357550D01*
X79046D01*
X80424Y358121D01*
X81479Y359176D01*
X81565Y359383D01*
X82613Y360431D01*
X83987D01*
X85035Y359383D01*
X85121Y359176D01*
X86176Y358121D01*
X87554Y357550D01*
X88714D01*
X88875Y357521D01*
X89138Y357311D01*
X89350Y356326D01*
X88439Y355050D01*
X87554D01*
X86176Y354479D01*
X85121Y353424D01*
X84550Y352046D01*
Y350554D01*
X85121Y349176D01*
X86176Y348121D01*
X87432Y347600D01*
X87719Y347000D01*
X88003Y346050D01*
X85522Y343569D01*
X81869D01*
Y350116D01*
X82050Y350554D01*
Y352046D01*
X81479Y353424D01*
X80424Y354479D01*
X79046Y355050D01*
X77554D01*
X76176Y354479D01*
X75121Y353424D01*
X74550Y352046D01*
Y350554D01*
X74731Y350116D01*
Y341408D01*
X74703Y341366D01*
X74634Y341021D01*
X74500Y340696D01*
Y340345D01*
X74431Y340000D01*
X74500Y339655D01*
Y339304D01*
X74634Y338979D01*
X74703Y338634D01*
X74898Y338342D01*
X75033Y338017D01*
X75281Y337769D01*
X75477Y337477D01*
X75769Y337281D01*
X76017Y337033D01*
X76342Y336898D01*
X76634Y336703D01*
X76979Y336634D01*
X77304Y336500D01*
X77655D01*
X78000Y336431D01*
X141000D01*
X142366Y336703D01*
X143523Y337477D01*
X144000Y337953D01*
X144477Y337477D01*
X145634Y336703D01*
X147000Y336431D01*
X167431D01*
Y298325D01*
X166196Y297500D01*
X164804D01*
X163517Y296967D01*
X162533Y295983D01*
X162096Y294928D01*
X161192Y294538D01*
X160500Y294403D01*
X160424Y294479D01*
X159046Y295050D01*
X158299D01*
X157185Y296164D01*
X157268Y296476D01*
X157920Y297550D01*
X159046D01*
X160424Y298121D01*
X161479Y299176D01*
X162050Y300554D01*
Y302046D01*
X161479Y303424D01*
X160424Y304479D01*
X159046Y305050D01*
X159142Y306510D01*
X159253D01*
X161013Y307239D01*
X162361Y308587D01*
X163070Y310300D01*
X158300D01*
Y311300D01*
X157300D01*
Y316070D01*
X155587Y315361D01*
X154239Y314013D01*
X153510Y312253D01*
Y312142D01*
X152050Y312046D01*
X151479Y313424D01*
X150424Y314479D01*
X149168Y315000D01*
X148881Y315600D01*
X148597Y316550D01*
X149986Y317939D01*
X150424Y318121D01*
X151479Y319176D01*
X152050Y320554D01*
Y322046D01*
X151479Y323424D01*
X150424Y324479D01*
X149986Y324660D01*
X146123Y328523D01*
X145831Y328719D01*
X145583Y328967D01*
X145258Y329102D01*
X144966Y329297D01*
X144621Y329366D01*
X144296Y329500D01*
X143945D01*
X143600Y329569D01*
X143255Y329500D01*
X142904D01*
X142579Y329366D01*
X142234Y329297D01*
X141942Y329102D01*
X141617Y328967D01*
X141369Y328719D01*
X141077Y328523D01*
X140881Y328231D01*
X140633Y327983D01*
X140498Y327658D01*
X140303Y327366D01*
X140234Y327021D01*
X140100Y326696D01*
Y326345D01*
X140080Y326245D01*
X139507Y325582D01*
X138875Y325079D01*
X138714Y325050D01*
X137554D01*
X136176Y324479D01*
X135121Y323424D01*
X134550Y322046D01*
Y320554D01*
X135121Y319176D01*
X136176Y318121D01*
X137432Y317600D01*
X137719Y317000D01*
X138003Y316050D01*
X136614Y314660D01*
X136176Y314479D01*
X135121Y313424D01*
X134550Y312046D01*
Y310554D01*
X135121Y309176D01*
X136176Y308121D01*
X137554Y307550D01*
X138714D01*
X138875Y307521D01*
X139507Y307018D01*
X140080Y306355D01*
X140100Y306255D01*
Y305904D01*
X140234Y305579D01*
X140303Y305234D01*
X140498Y304942D01*
X140633Y304617D01*
X140881Y304369D01*
X141077Y304077D01*
X141369Y303881D01*
X141617Y303633D01*
X141942Y303498D01*
X142234Y303303D01*
X142315Y303287D01*
X143455Y302300D01*
X148300D01*
Y300300D01*
X143530D01*
X143634Y300048D01*
X142801Y298801D01*
X140009D01*
X140009Y298801D01*
X138995Y298599D01*
X138134Y298025D01*
X133831Y293721D01*
X132831Y293920D01*
X132181Y294193D01*
X131013Y295361D01*
X129300Y296070D01*
Y291300D01*
X127300D01*
Y296070D01*
X125587Y295361D01*
X124239Y294013D01*
X124112Y293706D01*
X122488D01*
X122361Y294013D01*
X121013Y295361D01*
X119300Y296070D01*
Y291300D01*
X117300D01*
Y296070D01*
X115587Y295361D01*
X114239Y294013D01*
X114112Y293706D01*
X112488D01*
X112361Y294013D01*
X111013Y295361D01*
X109300Y296070D01*
Y291300D01*
X107300D01*
Y296070D01*
X105587Y295361D01*
X104239Y294013D01*
X104112Y293706D01*
X102488D01*
X102361Y294013D01*
X101013Y295361D01*
X99300Y296070D01*
Y291300D01*
X97300D01*
Y296070D01*
X95587Y295361D01*
X94239Y294013D01*
X94112Y293706D01*
X92488D01*
X92361Y294013D01*
X91013Y295361D01*
X89253Y296090D01*
X88161D01*
X87540Y297590D01*
X87967Y298017D01*
X88500Y299304D01*
Y300696D01*
X87967Y301983D01*
X86983Y302967D01*
X85696Y303500D01*
X84304D01*
X83375Y303115D01*
X80119Y306371D01*
X80424Y308121D01*
X81479Y309176D01*
X81660Y309614D01*
X83050Y311003D01*
X84000Y310719D01*
X84600Y310432D01*
X85121Y309176D01*
X86176Y308121D01*
X87554Y307550D01*
X89046D01*
X90424Y308121D01*
X91479Y309176D01*
X92050Y310554D01*
Y310672D01*
X93423Y311897D01*
X94169Y311796D01*
X94550Y311230D01*
Y310554D01*
X95121Y309176D01*
X96176Y308121D01*
X97554Y307550D01*
X99046D01*
X100424Y308121D01*
X101479Y309176D01*
X102050Y310554D01*
Y310672D01*
X103423Y311897D01*
X104169Y311796D01*
X104550Y311230D01*
Y310554D01*
X105121Y309176D01*
X106176Y308121D01*
X107554Y307550D01*
X109046D01*
X110424Y308121D01*
X111479Y309176D01*
X112050Y310554D01*
Y310672D01*
X113423Y311897D01*
X114169Y311796D01*
X114550Y311230D01*
Y310554D01*
X115121Y309176D01*
X116176Y308121D01*
X117554Y307550D01*
X119046D01*
X120424Y308121D01*
X121479Y309176D01*
X122050Y310554D01*
Y312046D01*
X121479Y313424D01*
X120424Y314479D01*
X119046Y315050D01*
X118199D01*
X117526Y315777D01*
X117182Y316474D01*
X117434Y317324D01*
X117770Y317550D01*
X119046D01*
X120424Y318121D01*
X121479Y319176D01*
X122050Y320554D01*
Y322046D01*
X121479Y323424D01*
X120424Y324479D01*
X119046Y325050D01*
X117886D01*
X117490Y325122D01*
X116500Y326237D01*
Y326696D01*
X115967Y327983D01*
X114983Y328967D01*
X113696Y329500D01*
X112304D01*
X111017Y328967D01*
X110033Y327983D01*
X109500Y326696D01*
Y326581D01*
X108246Y325367D01*
X107237Y325407D01*
X106500Y326237D01*
Y326696D01*
X105967Y327983D01*
X104983Y328967D01*
X103696Y329500D01*
X102304D01*
X101017Y328967D01*
X100033Y327983D01*
X99500Y326696D01*
Y326581D01*
X98246Y325367D01*
X97237Y325407D01*
X96500Y326237D01*
Y326696D01*
X95967Y327983D01*
X94983Y328967D01*
X93696Y329500D01*
X92304D01*
X91017Y328967D01*
X90033Y327983D01*
X89500Y326696D01*
Y325961D01*
X88589Y325050D01*
X87554D01*
X86176Y324479D01*
X85121Y323424D01*
X84550Y322046D01*
Y321161D01*
X83273Y320250D01*
X82289Y320462D01*
X82079Y320725D01*
X82050Y320886D01*
Y322046D01*
X81479Y323424D01*
X80424Y324479D01*
X79046Y325050D01*
X77554D01*
X76176Y324479D01*
X75121Y323424D01*
X74550Y322046D01*
Y321299D01*
X73436Y320185D01*
X73124Y320268D01*
X72050Y320920D01*
Y322046D01*
X71479Y323424D01*
X71366Y323537D01*
Y324776D01*
X71125Y325985D01*
X70440Y327010D01*
X68566Y328885D01*
X67540Y329570D01*
X66331Y329811D01*
X54574D01*
X53365Y329570D01*
X52661Y329100D01*
X51161Y329615D01*
Y352198D01*
X51188Y352244D01*
X51512Y352572D01*
X52360Y353099D01*
X53438Y352300D01*
X58300D01*
Y351300D01*
X59300D01*
Y346530D01*
X61013Y347239D01*
X62361Y348587D01*
X62796Y349636D01*
X64476Y350078D01*
X64939Y349614D01*
X65121Y349176D01*
X66176Y348121D01*
X67554Y347550D01*
X69046D01*
X70424Y348121D01*
X71479Y349176D01*
X72050Y350554D01*
Y352046D01*
X71479Y353424D01*
X70424Y354479D01*
X69986Y354660D01*
X68597Y356050D01*
X68881Y357000D01*
X69168Y357600D01*
X70424Y358121D01*
X71479Y359176D01*
X72050Y360554D01*
Y362046D01*
X71479Y363424D01*
X70424Y364479D01*
X69046Y365050D01*
X67554D01*
X66176Y364479D01*
X65121Y363424D01*
X64601Y362168D01*
X64000Y361881D01*
X63050Y361597D01*
X61660Y362986D01*
X61479Y363424D01*
X60424Y364479D01*
X59046Y365050D01*
X57554D01*
X56176Y364479D01*
X55121Y363424D01*
X54939Y362986D01*
X52547Y360593D01*
X51161Y361167D01*
Y409051D01*
X51420Y409440D01*
X51661Y410649D01*
Y412004D01*
X51677Y412041D01*
X51953Y412406D01*
X52904Y413100D01*
X53255D01*
X53355Y413080D01*
X54018Y412506D01*
X54521Y411875D01*
X54550Y411714D01*
Y410554D01*
X55121Y409176D01*
X56176Y408121D01*
X57554Y407550D01*
X59046D01*
X60424Y408121D01*
X61479Y409176D01*
X62050Y410554D01*
Y411439D01*
X63327Y412350D01*
X64311Y412138D01*
X64521Y411875D01*
X64550Y411714D01*
Y410554D01*
X65121Y409176D01*
X66176Y408121D01*
X67554Y407550D01*
X69046D01*
X70424Y408121D01*
X71479Y409176D01*
X72050Y410554D01*
Y411810D01*
X72066Y411855D01*
X72410Y412366D01*
X73237Y413100D01*
X73255D01*
X73600Y413032D01*
X73945Y413100D01*
X74296D01*
X74621Y413234D01*
X74966Y413303D01*
X75258Y413498D01*
X75417Y413488D01*
X76213Y412163D01*
X76033Y411983D01*
X75500Y410696D01*
Y409304D01*
X76033Y408017D01*
X77017Y407033D01*
X78304Y406500D01*
X79696D01*
X80983Y407033D01*
X81967Y408017D01*
X82500Y409304D01*
Y410696D01*
X81967Y411983D01*
X80983Y412967D01*
X79696Y413500D01*
X78304D01*
X77047Y412979D01*
X76993Y412999D01*
X76205Y414048D01*
X76634Y414587D01*
X76158Y414111D01*
X76158Y414111D01*
X76691Y414644D01*
X79509Y417462D01*
X79861Y417532D01*
X81184Y418416D01*
X82068Y419739D01*
X82378Y421300D01*
X82068Y422861D01*
X81184Y424184D01*
X79861Y425068D01*
X78300Y425378D01*
X76739Y425068D01*
X75416Y424184D01*
X74532Y422861D01*
X74485Y422623D01*
X73385Y421825D01*
X71948Y422291D01*
X71479Y423424D01*
X70424Y424479D01*
X69046Y425050D01*
X67554D01*
X66176Y424479D01*
X65121Y423424D01*
X64939Y422986D01*
X63550Y421597D01*
X62600Y421881D01*
X62000Y422168D01*
X61479Y423424D01*
X60424Y424479D01*
X59046Y425050D01*
X59142Y426510D01*
X59253D01*
X61013Y427239D01*
X62361Y428587D01*
X63090Y430347D01*
Y430458D01*
X64550Y430554D01*
X65121Y429176D01*
X66176Y428121D01*
X67554Y427550D01*
X69046D01*
X70424Y428121D01*
X71479Y429176D01*
X71756Y429845D01*
X73050Y431139D01*
X74550Y430554D01*
X75121Y429176D01*
X76176Y428121D01*
X77554Y427550D01*
X79046D01*
X80424Y428121D01*
X81479Y429176D01*
X81660Y429614D01*
X83050Y431003D01*
X84000Y430719D01*
X84600Y430432D01*
X85121Y429176D01*
X86176Y428121D01*
X87554Y427550D01*
X88230D01*
X88797Y427169D01*
X88897Y426423D01*
X87673Y425050D01*
X87554D01*
X86176Y424479D01*
X85121Y423424D01*
X84550Y422046D01*
Y420554D01*
X85121Y419176D01*
X86176Y418121D01*
X87554Y417550D01*
X88100Y416050D01*
X88033Y415983D01*
X87500Y414696D01*
Y413304D01*
X88033Y412017D01*
X89017Y411033D01*
X90304Y410500D01*
X91696D01*
X92983Y411033D01*
X93967Y412017D01*
X94500Y413304D01*
Y414696D01*
X93967Y415983D01*
X92983Y416967D01*
X91858Y417433D01*
X91524Y418159D01*
X91303Y419000D01*
X91479Y419176D01*
X92050Y420554D01*
Y420672D01*
X93423Y421897D01*
X94169Y421796D01*
X94550Y421230D01*
Y420554D01*
X95121Y419176D01*
X96176Y418121D01*
X97033Y416983D01*
X96779Y416371D01*
X96500Y415696D01*
Y414304D01*
X97033Y413017D01*
X98017Y412033D01*
X99304Y411500D01*
X100696D01*
X101983Y412033D01*
X102967Y413017D01*
X103500Y414304D01*
Y415696D01*
X102967Y416983D01*
X102187Y417763D01*
X101934Y418269D01*
X101699Y419708D01*
X102050Y420554D01*
Y420672D01*
X103423Y421897D01*
X104169Y421796D01*
X104550Y421230D01*
Y420554D01*
X105121Y419176D01*
X106176Y418121D01*
X107554Y417550D01*
X109046D01*
X110424Y418121D01*
X110497Y418193D01*
X111768Y417344D01*
X111500Y416696D01*
Y415304D01*
X112033Y414017D01*
X113017Y413033D01*
X114304Y412500D01*
X115696D01*
X116316Y412757D01*
X117500Y411696D01*
Y410304D01*
X118033Y409017D01*
X119017Y408033D01*
X120304Y407500D01*
X121696D01*
X122983Y408033D01*
X123967Y409017D01*
X124303Y409829D01*
X124597Y410325D01*
X126000Y410626D01*
X126304Y410500D01*
X127696D01*
X128983Y411033D01*
X129967Y412017D01*
X130500Y413304D01*
Y414696D01*
X129967Y415983D01*
X129737Y416213D01*
X130089Y417982D01*
X130424Y418121D01*
X131479Y419176D01*
X132050Y420554D01*
Y422046D01*
X131479Y423424D01*
X130424Y424479D01*
X129046Y425050D01*
X127554D01*
X126176Y424479D01*
X125121Y423424D01*
X124550Y422046D01*
Y420554D01*
X125121Y419176D01*
X125504Y418792D01*
X125179Y417034D01*
X125017Y416967D01*
X124033Y415983D01*
X123697Y415171D01*
X123403Y414675D01*
X122000Y414374D01*
X121696Y414500D01*
X120304D01*
X119684Y414243D01*
X118500Y415304D01*
Y416696D01*
X118491Y416719D01*
X119046Y417550D01*
X120424Y418121D01*
X121479Y419176D01*
X122050Y420554D01*
Y422046D01*
X121479Y423424D01*
X120424Y424479D01*
X119046Y425050D01*
X118199D01*
X117526Y425777D01*
X117182Y426474D01*
X117434Y427324D01*
X117770Y427550D01*
X119046D01*
X120424Y428121D01*
X121479Y429176D01*
X122050Y430554D01*
Y432046D01*
X121479Y433424D01*
X120424Y434479D01*
X119046Y435050D01*
X117886D01*
X117490Y435122D01*
X116500Y436237D01*
Y436696D01*
X115967Y437983D01*
X114983Y438967D01*
X113696Y439500D01*
X112304D01*
X111017Y438967D01*
X110033Y437983D01*
X109500Y436696D01*
Y436582D01*
X108246Y435367D01*
X107237Y435407D01*
X106500Y436237D01*
Y436696D01*
X105967Y437983D01*
X104983Y438967D01*
X103696Y439500D01*
X102304D01*
X101017Y438967D01*
X100033Y437983D01*
X99500Y436696D01*
Y436582D01*
X98246Y435367D01*
X97237Y435407D01*
X96500Y436237D01*
Y436696D01*
X95967Y437983D01*
X94983Y438967D01*
X93696Y439500D01*
X92304D01*
X91017Y438967D01*
X90033Y437983D01*
X89500Y436696D01*
Y435961D01*
X88589Y435050D01*
X87886D01*
X87725Y435079D01*
X87093Y435582D01*
X86520Y436245D01*
X86500Y436345D01*
Y436696D01*
X86365Y437021D01*
X86297Y437366D01*
X86102Y437658D01*
X85967Y437983D01*
X85719Y438231D01*
X85523Y438523D01*
X85231Y438719D01*
X84983Y438967D01*
X84658Y439102D01*
X84366Y439297D01*
X84021Y439366D01*
X83696Y439500D01*
X83345D01*
X83000Y439568D01*
X82655Y439500D01*
X82304D01*
X81979Y439366D01*
X81634Y439297D01*
X81342Y439102D01*
X81017Y438967D01*
X80769Y438719D01*
X80477Y438523D01*
X78054Y436101D01*
X76569Y436737D01*
Y440000D01*
X76500Y440345D01*
Y440696D01*
X76365Y441021D01*
X76297Y441366D01*
X76102Y441658D01*
X75967Y441983D01*
X75719Y442231D01*
X75523Y442523D01*
X75231Y442719D01*
X74983Y442967D01*
X74658Y443102D01*
X74366Y443297D01*
X74021Y443366D01*
X73696Y443500D01*
X73345D01*
X73000Y443569D01*
X72655Y443500D01*
X72304D01*
X71979Y443366D01*
X71634Y443297D01*
X71342Y443102D01*
X71017Y442967D01*
X70769Y442719D01*
X70477Y442523D01*
X70281Y442231D01*
X70033Y441983D01*
X69898Y441658D01*
X69703Y441366D01*
X69634Y441021D01*
X69500Y440696D01*
Y440345D01*
X69431Y440000D01*
Y437613D01*
X66383Y434565D01*
X66176Y434479D01*
X65121Y433424D01*
X64550Y432046D01*
X63090Y432142D01*
Y432253D01*
X62361Y434013D01*
X61013Y435361D01*
X59300Y436070D01*
Y431300D01*
X57300D01*
Y436070D01*
X55587Y435361D01*
X54661Y434435D01*
X54657Y434436D01*
X53388Y435283D01*
X53500Y435554D01*
Y436946D01*
X52967Y438233D01*
X51983Y439217D01*
X50696Y439750D01*
X49304D01*
X48251Y439314D01*
X47333Y439679D01*
X46751Y440072D01*
Y442002D01*
X54998Y450249D01*
X73594D01*
X73595Y450249D01*
X74674Y450303D01*
X75177Y449151D01*
X75233Y449017D01*
X76217Y448033D01*
X77504Y447500D01*
X78896D01*
X80183Y448033D01*
X81167Y449017D01*
X81170Y449023D01*
X82641Y449316D01*
X85231Y446726D01*
X85231Y446726D01*
X86091Y446151D01*
X87105Y445949D01*
X87106Y445949D01*
X105302D01*
X109125Y442126D01*
X109986Y441551D01*
X111000Y441349D01*
X111000Y441349D01*
X146440D01*
X146839Y440395D01*
X146899Y439849D01*
X146033Y438983D01*
X145500Y437696D01*
Y436895D01*
X145388Y436332D01*
Y433691D01*
X145121Y433424D01*
X144939Y432986D01*
X143550Y431597D01*
X142600Y431881D01*
X142000Y432168D01*
X141479Y433424D01*
X140424Y434479D01*
X139046Y435050D01*
X137554D01*
X136176Y434479D01*
X135121Y433424D01*
X134550Y432046D01*
Y430554D01*
X135121Y429176D01*
X136176Y428121D01*
X137432Y427600D01*
X137719Y427000D01*
X138003Y426050D01*
X136614Y424660D01*
X136176Y424479D01*
X135121Y423424D01*
X134550Y422046D01*
Y420554D01*
X135121Y419176D01*
X136176Y418121D01*
X136614Y417939D01*
X140477Y414077D01*
X140769Y413881D01*
X141017Y413633D01*
X141342Y413498D01*
X141634Y413303D01*
X141979Y413234D01*
X142247Y413124D01*
X142345Y413071D01*
X143201Y412470D01*
X143261Y412300D01*
X148300D01*
Y410300D01*
X143530D01*
X144239Y408587D01*
X145587Y407239D01*
X147347Y406510D01*
X147458D01*
X147554Y405050D01*
X146176Y404479D01*
X145121Y403424D01*
X144550Y402046D01*
Y400554D01*
X145121Y399176D01*
X146176Y398121D01*
X147554Y397550D01*
X149046D01*
X150424Y398121D01*
X151479Y399176D01*
X152050Y400554D01*
Y402046D01*
X151479Y403424D01*
X150424Y404479D01*
X149046Y405050D01*
X149143Y406510D01*
X149253D01*
X151013Y407239D01*
X152361Y408587D01*
X153090Y410347D01*
Y410458D01*
X154550Y410554D01*
X155121Y409176D01*
X156176Y408121D01*
X157554Y407550D01*
X159046D01*
X160424Y408121D01*
X161479Y409176D01*
X162050Y410554D01*
Y412046D01*
X161479Y413424D01*
X160424Y414479D01*
X159046Y415050D01*
X159142Y416510D01*
X159253D01*
X161013Y417239D01*
X162361Y418587D01*
X163071Y420300D01*
X158300D01*
Y421300D01*
X157300D01*
Y426070D01*
X155587Y425361D01*
X154239Y424013D01*
X153805Y422964D01*
X152124Y422523D01*
X151660Y422986D01*
X151479Y423424D01*
X150424Y424479D01*
X149168Y425000D01*
X148881Y425600D01*
X148597Y426550D01*
X149986Y427939D01*
X150424Y428121D01*
X151479Y429176D01*
X152050Y430554D01*
Y432046D01*
X151709Y432868D01*
Y434760D01*
X151967Y435017D01*
X152500Y436304D01*
Y436630D01*
X154000Y437251D01*
X165349Y425902D01*
Y405098D01*
X164202Y403951D01*
X160952D01*
X160424Y404479D01*
X159046Y405050D01*
X157554D01*
X156176Y404479D01*
X155121Y403424D01*
X154550Y402046D01*
Y400554D01*
X155121Y399176D01*
X156176Y398121D01*
X157554Y397550D01*
X159046D01*
X160424Y398121D01*
X160952Y398649D01*
X165300D01*
X165300Y398649D01*
X166315Y398851D01*
X167174Y399426D01*
X169874Y402126D01*
X169874Y402126D01*
X170449Y402985D01*
X170651Y404000D01*
Y427000D01*
X170449Y428014D01*
X169874Y428875D01*
X169874Y428875D01*
X152874Y445874D01*
X152015Y446449D01*
X151000Y446651D01*
X151000Y446651D01*
X112989D01*
X112785Y447000D01*
X113643Y448500D01*
X113696D01*
X114983Y449033D01*
X115967Y450017D01*
X116500Y451304D01*
Y452696D01*
X116498Y452702D01*
X117331Y453949D01*
X155302D01*
X173349Y435902D01*
D02*
G37*
G36*
X56408Y316347D02*
X56705Y314751D01*
X56614Y314660D01*
X56176Y314479D01*
X55121Y313424D01*
X54550Y312046D01*
Y310554D01*
X55121Y309176D01*
X56176Y308121D01*
X57554Y307550D01*
X58714D01*
X58875Y307521D01*
X59138Y307311D01*
X59350Y306326D01*
X58439Y305050D01*
X57554D01*
X56176Y304479D01*
X55121Y303424D01*
X54550Y302046D01*
Y300554D01*
X55121Y299176D01*
X56176Y298121D01*
X57554Y297550D01*
X59046D01*
X60424Y298121D01*
X61479Y299176D01*
X62050Y300554D01*
Y301439D01*
X63327Y302350D01*
X64311Y302139D01*
X64521Y301875D01*
X64550Y301714D01*
Y300554D01*
X65121Y299176D01*
X66176Y298121D01*
X67554Y297550D01*
X69046D01*
X70424Y298121D01*
X71479Y299176D01*
X72050Y300554D01*
Y302046D01*
X71479Y303424D01*
X70424Y304479D01*
X69168Y305000D01*
X68881Y305600D01*
X68597Y306550D01*
X69710Y307663D01*
X71123Y307694D01*
X71575Y307416D01*
X80522Y298470D01*
X80522Y298470D01*
X81382Y297895D01*
X82347Y297703D01*
X83017Y297033D01*
X84304Y296500D01*
X84716D01*
X85226Y295000D01*
X84239Y294013D01*
X83530Y292300D01*
X88300D01*
Y290300D01*
X83478D01*
X82677Y289101D01*
X73072D01*
X72050Y290554D01*
Y292046D01*
X71479Y293424D01*
X70424Y294479D01*
X69046Y295050D01*
X67554D01*
X66176Y294479D01*
X65121Y293424D01*
X64550Y292046D01*
Y290554D01*
X64217Y290080D01*
X63354D01*
X62050Y291442D01*
Y292046D01*
X61479Y293424D01*
X60424Y294479D01*
X59046Y295050D01*
X57554D01*
X56176Y294479D01*
X55121Y293424D01*
X54550Y292046D01*
Y290554D01*
X53528Y289101D01*
X32648D01*
X27500Y294249D01*
Y294696D01*
X26967Y295983D01*
X25983Y296967D01*
X24696Y297500D01*
X23304D01*
X22017Y296967D01*
X21033Y295983D01*
X20500Y294696D01*
Y293304D01*
X21033Y292017D01*
X22017Y291033D01*
X23304Y290500D01*
X23751D01*
X29676Y284576D01*
X29676Y284576D01*
X30536Y284001D01*
X31550Y283799D01*
X53653D01*
X54655Y282299D01*
X54550Y282046D01*
Y280554D01*
X55121Y279176D01*
X56176Y278121D01*
X57554Y277550D01*
X59046D01*
X60424Y278121D01*
X61479Y279176D01*
X62050Y280554D01*
Y282046D01*
X63221Y282983D01*
X63379D01*
X63552Y282845D01*
X64550Y281629D01*
Y280554D01*
X65121Y279176D01*
X66176Y278121D01*
X67554Y277550D01*
X69046D01*
X70424Y278121D01*
X71000Y278697D01*
X72500Y278075D01*
Y277304D01*
X73033Y276017D01*
X74017Y275033D01*
X75304Y274500D01*
X76696D01*
X77983Y275033D01*
X78967Y276017D01*
X79500Y277304D01*
Y278696D01*
X78967Y279983D01*
X77983Y280967D01*
X76696Y281500D01*
X75304D01*
X74017Y280967D01*
X73795Y280744D01*
X72352Y281282D01*
X72084Y282507D01*
X72947Y283799D01*
X82801D01*
X83634Y282552D01*
X83530Y282300D01*
X88300D01*
Y280300D01*
X83530D01*
X84239Y278587D01*
X85587Y277239D01*
X85894Y277112D01*
Y275488D01*
X85587Y275361D01*
X84239Y274013D01*
X83530Y272300D01*
X88300D01*
Y271300D01*
X89300D01*
Y266530D01*
X91013Y267239D01*
X92361Y268587D01*
X92488Y268894D01*
X94112D01*
X94239Y268587D01*
X95587Y267239D01*
X97300Y266530D01*
Y271300D01*
X99300D01*
Y266530D01*
X101013Y267239D01*
X102361Y268587D01*
X102488Y268894D01*
X104112D01*
X104239Y268587D01*
X105587Y267239D01*
X107300Y266530D01*
Y271300D01*
X109300D01*
Y266530D01*
X111013Y267239D01*
X112361Y268587D01*
X112488Y268894D01*
X114112D01*
X114239Y268587D01*
X115587Y267239D01*
X117300Y266530D01*
Y271300D01*
X119300D01*
Y266530D01*
X121013Y267239D01*
X122361Y268587D01*
X122488Y268894D01*
X124112D01*
X124239Y268587D01*
X125587Y267239D01*
X127300Y266530D01*
Y271300D01*
X128300D01*
Y272300D01*
X133070D01*
X132361Y274013D01*
X131013Y275361D01*
X130706Y275488D01*
Y277112D01*
X131013Y277239D01*
X132361Y278587D01*
X133070Y280300D01*
X128300D01*
Y282300D01*
X133070D01*
X132361Y284013D01*
X132986Y285378D01*
X141107Y293499D01*
X143528D01*
X144550Y292046D01*
Y290554D01*
X145121Y289176D01*
X146176Y288121D01*
X147554Y287550D01*
X149046D01*
X150424Y288121D01*
X151479Y289176D01*
X152050Y290554D01*
Y291680D01*
X153124Y292332D01*
X153436Y292415D01*
X154550Y291301D01*
Y290554D01*
X155121Y289176D01*
X156176Y288121D01*
X157554Y287550D01*
X159046D01*
X160424Y288121D01*
X161479Y289176D01*
X161999Y290430D01*
X162714Y290771D01*
X163517Y291033D01*
X164804Y290500D01*
X166196D01*
X167431Y289675D01*
Y278368D01*
X167430Y278367D01*
X166128Y278025D01*
X165931Y278018D01*
X165719Y278231D01*
X165523Y278523D01*
X165231Y278719D01*
X164983Y278967D01*
X164658Y279102D01*
X164366Y279297D01*
X164021Y279366D01*
X163696Y279500D01*
X163345D01*
X163245Y279520D01*
X162582Y280093D01*
X162079Y280725D01*
X162050Y280886D01*
Y282046D01*
X161479Y283424D01*
X160424Y284479D01*
X159046Y285050D01*
X157554D01*
X156176Y284479D01*
X155121Y283424D01*
X154550Y282046D01*
Y280554D01*
X155121Y279176D01*
X156176Y278121D01*
X157432Y277600D01*
X157719Y277000D01*
X158003Y276050D01*
X156614Y274660D01*
X156176Y274479D01*
X155121Y273424D01*
X154550Y272046D01*
X153090Y272142D01*
Y272253D01*
X152361Y274013D01*
X151013Y275361D01*
X149253Y276090D01*
X149142D01*
X149046Y277550D01*
X150424Y278121D01*
X151479Y279176D01*
X152050Y280554D01*
Y282046D01*
X151479Y283424D01*
X150424Y284479D01*
X149046Y285050D01*
X147554D01*
X146176Y284479D01*
X145121Y283424D01*
X144550Y282046D01*
Y280554D01*
X145121Y279176D01*
X146176Y278121D01*
X147554Y277550D01*
X147458Y276090D01*
X147347D01*
X145587Y275361D01*
X144239Y274013D01*
X143530Y272300D01*
X148300D01*
Y270300D01*
X143530D01*
X144239Y268587D01*
X145587Y267239D01*
X145894Y267112D01*
Y265488D01*
X145587Y265361D01*
X144239Y264013D01*
X143530Y262300D01*
X148300D01*
Y260300D01*
X143530D01*
X144239Y258587D01*
X145587Y257239D01*
X145894Y257112D01*
Y255488D01*
X145587Y255361D01*
X144239Y254013D01*
X144112Y253706D01*
X142488D01*
X142361Y254013D01*
X141013Y255361D01*
X139300Y256070D01*
Y251300D01*
X137300D01*
Y256145D01*
X136313Y257285D01*
X136297Y257366D01*
X136102Y257658D01*
X135967Y257983D01*
X135719Y258231D01*
X135523Y258523D01*
X135231Y258719D01*
X134983Y258967D01*
X134658Y259102D01*
X134366Y259297D01*
X134021Y259366D01*
X133696Y259500D01*
X133345D01*
X133000Y259569D01*
X132655Y259500D01*
X132304D01*
X131979Y259366D01*
X131634Y259297D01*
X131342Y259102D01*
X131017Y258967D01*
X130769Y258719D01*
X130477Y258523D01*
X126614Y254660D01*
X126176Y254479D01*
X125121Y253424D01*
X124550Y252046D01*
X123090Y252142D01*
Y252253D01*
X122361Y254013D01*
X121013Y255361D01*
X119300Y256070D01*
Y251300D01*
X117300D01*
Y256145D01*
X116313Y257285D01*
X116297Y257366D01*
X116102Y257658D01*
X115967Y257983D01*
X115719Y258231D01*
X115523Y258523D01*
X115231Y258719D01*
X114983Y258967D01*
X114658Y259102D01*
X114366Y259297D01*
X114021Y259366D01*
X113696Y259500D01*
X113345D01*
X113000Y259569D01*
X112655Y259500D01*
X112304D01*
X111979Y259366D01*
X111634Y259297D01*
X111342Y259102D01*
X111017Y258967D01*
X110769Y258719D01*
X110477Y258523D01*
X106614Y254660D01*
X106176Y254479D01*
X105121Y253424D01*
X104550Y252046D01*
Y251161D01*
X103274Y250250D01*
X102289Y250462D01*
X102079Y250725D01*
X102050Y250886D01*
Y252046D01*
X101479Y253424D01*
X100424Y254479D01*
X99046Y255050D01*
X97554D01*
X96176Y254479D01*
X95121Y253424D01*
X94939Y252986D01*
X93550Y251597D01*
X92600Y251881D01*
X92000Y252168D01*
X91479Y253424D01*
X90424Y254479D01*
X89755Y254756D01*
X85988Y258523D01*
X84830Y259297D01*
X83465Y259569D01*
X83000D01*
X82655Y259500D01*
X82304D01*
X81979Y259366D01*
X81634Y259297D01*
X81342Y259102D01*
X81017Y258967D01*
X80769Y258719D01*
X80477Y258523D01*
X76614Y254660D01*
X76176Y254479D01*
X75121Y253424D01*
X74550Y252046D01*
Y250554D01*
X75121Y249176D01*
X76176Y248121D01*
X77554Y247550D01*
X79046D01*
X80424Y248121D01*
X81479Y249176D01*
X81660Y249614D01*
X83232Y251186D01*
X85035Y249383D01*
X85121Y249176D01*
X86176Y248121D01*
X87554Y247550D01*
X88714D01*
X88875Y247521D01*
X89138Y247311D01*
X89350Y246327D01*
X88439Y245050D01*
X87554D01*
X86176Y244479D01*
X85121Y243424D01*
X84600Y242168D01*
X84000Y241881D01*
X83050Y241597D01*
X81660Y242986D01*
X81479Y243424D01*
X80424Y244479D01*
X79046Y245050D01*
X77554D01*
X76176Y244479D01*
X75121Y243424D01*
X74550Y242046D01*
Y240554D01*
X75121Y239176D01*
X76176Y238121D01*
X76614Y237939D01*
X81527Y233027D01*
X82074Y232661D01*
X81619Y231161D01*
X32000D01*
X30790Y230920D01*
X29765Y230235D01*
X21765Y222235D01*
X21080Y221210D01*
X20839Y220000D01*
Y202482D01*
X19339Y201861D01*
X19233Y201967D01*
X17946Y202500D01*
X16554D01*
X15267Y201967D01*
X14283Y200983D01*
X13750Y199696D01*
Y198304D01*
X14283Y197017D01*
X15267Y196033D01*
X16554Y195500D01*
X17946D01*
X19233Y196033D01*
X19339Y196140D01*
X20839Y195518D01*
Y177000D01*
X21080Y175790D01*
X21765Y174765D01*
X33765Y162765D01*
X34790Y162080D01*
X36000Y161839D01*
X38461D01*
X39082Y160339D01*
X31028Y152286D01*
X28195D01*
X27285Y153786D01*
X27500Y154304D01*
Y155696D01*
X26967Y156983D01*
X25983Y157967D01*
X24696Y158500D01*
X23304D01*
X22017Y157967D01*
X21033Y156983D01*
X20500Y155696D01*
Y154304D01*
X20715Y153786D01*
X20710Y153762D01*
X19572Y152625D01*
X19571Y152625D01*
X18179D01*
X16892Y152092D01*
X15908Y151108D01*
X15375Y149821D01*
Y148429D01*
X15908Y147142D01*
X16892Y146158D01*
X18179Y145625D01*
X19571D01*
X20390Y145964D01*
X21055D01*
X21818Y144464D01*
X21500Y143696D01*
Y142304D01*
X22033Y141017D01*
X23017Y140033D01*
X24304Y139500D01*
X25696D01*
X26983Y140033D01*
X27967Y141017D01*
X28500Y142304D01*
Y143696D01*
X28182Y144464D01*
X28945Y145964D01*
X32338D01*
X33547Y146205D01*
X34572Y146890D01*
X42988Y155306D01*
X44374Y154732D01*
Y149123D01*
X30826Y135575D01*
X30251Y134714D01*
X30061Y133760D01*
X29631Y133432D01*
X28549Y132970D01*
X27571Y133375D01*
X26179D01*
X24892Y132842D01*
X23908Y131858D01*
X23375Y130571D01*
Y129179D01*
X23908Y127892D01*
X24524Y127276D01*
X24004Y125776D01*
X21174D01*
X20858Y126092D01*
X19571Y126625D01*
X18179D01*
X16892Y126092D01*
X15908Y125108D01*
X15375Y123821D01*
Y122429D01*
X15908Y121142D01*
X16892Y120158D01*
X18179Y119625D01*
X18093Y118161D01*
X14309D01*
X6161Y126309D01*
Y175248D01*
X7661Y175869D01*
X15694Y167836D01*
X16033Y167017D01*
X16498Y166552D01*
X16788Y165477D01*
X16446Y164646D01*
X15908Y164108D01*
X15375Y162821D01*
Y161429D01*
X15908Y160142D01*
X16892Y159158D01*
X18179Y158625D01*
X19571D01*
X20858Y159158D01*
X21842Y160142D01*
X22375Y161429D01*
Y162821D01*
X21842Y164108D01*
X21377Y164573D01*
X21087Y165648D01*
X21429Y166479D01*
X21967Y167017D01*
X22500Y168304D01*
Y169696D01*
X21967Y170983D01*
X20983Y171967D01*
X20164Y172306D01*
X11661Y180809D01*
Y205985D01*
X12000Y206804D01*
Y208196D01*
X11467Y209483D01*
X10483Y210467D01*
X9196Y211000D01*
X7804D01*
X7661Y210941D01*
X6161Y211943D01*
Y238930D01*
X7661Y239766D01*
X8304Y239500D01*
X9696D01*
X10515Y239839D01*
X14500D01*
X15710Y240080D01*
X16735Y240765D01*
X29809Y253839D01*
X40785D01*
X40933Y252339D01*
X40534Y252260D01*
X39542Y251597D01*
X39542Y251597D01*
X36445Y248500D01*
X36304D01*
X35017Y247967D01*
X34033Y246983D01*
X33500Y245696D01*
Y244304D01*
X34033Y243017D01*
X35017Y242033D01*
X36304Y241500D01*
X37696D01*
X38983Y242033D01*
X39967Y243017D01*
X40217Y243621D01*
X42972Y246375D01*
X46434D01*
X46434Y246375D01*
X47604Y246608D01*
X48597Y247271D01*
X51198Y249873D01*
X51198Y249873D01*
X51861Y250865D01*
X52094Y252036D01*
Y252698D01*
X52163Y252766D01*
X52163Y252766D01*
X52826Y253758D01*
X53059Y254929D01*
X53059Y254929D01*
Y259823D01*
X54258Y260550D01*
X54549Y260554D01*
X55080Y259274D01*
X55121Y259176D01*
X56176Y258121D01*
X57554Y257550D01*
X59046D01*
X60424Y258121D01*
X61479Y259176D01*
X62050Y260554D01*
Y261080D01*
X62304Y261250D01*
X63696D01*
X64550Y260679D01*
Y260554D01*
X65121Y259176D01*
X66176Y258121D01*
X67554Y257550D01*
X69046D01*
X70424Y258121D01*
X71479Y259176D01*
X72050Y260554D01*
Y262046D01*
X71479Y263424D01*
X70424Y264479D01*
X69046Y265050D01*
X67892D01*
X66685Y266190D01*
X66685Y266286D01*
X67554Y267550D01*
X69046D01*
X70424Y268121D01*
X71479Y269176D01*
X72050Y270554D01*
Y272046D01*
X71479Y273424D01*
X70424Y274479D01*
X69046Y275050D01*
X67554D01*
X66176Y274479D01*
X65121Y273424D01*
X64550Y272046D01*
Y270554D01*
X65067Y269306D01*
X64845Y268885D01*
X64088Y268088D01*
X63696Y268250D01*
X62596D01*
X62372Y268435D01*
X61952Y268988D01*
X61657Y269606D01*
X62050Y270554D01*
Y272046D01*
X61479Y273424D01*
X60424Y274479D01*
X59046Y275050D01*
X57554D01*
X56176Y274479D01*
X55121Y273424D01*
X54550Y272046D01*
Y270554D01*
X55121Y269176D01*
X56176Y268121D01*
X57554Y267550D01*
X58871D01*
X58921Y267515D01*
X59398Y266970D01*
X59825Y266268D01*
X59046Y265050D01*
X57554D01*
X56176Y264479D01*
X55121Y263424D01*
X55080Y263326D01*
X54549Y262046D01*
X54258Y262050D01*
X53059Y262777D01*
Y265000D01*
X52826Y266171D01*
X52163Y267163D01*
X39163Y280163D01*
X38170Y280826D01*
X37000Y281059D01*
X37000Y281059D01*
X11761D01*
X10696Y281500D01*
X9304D01*
X8017Y280967D01*
X7661Y280611D01*
X6161Y281232D01*
Y285691D01*
X24309Y303839D01*
X32000D01*
X33210Y304080D01*
X34235Y304765D01*
X46139Y316669D01*
X47909Y316317D01*
X48033Y316017D01*
X49017Y315033D01*
X50304Y314500D01*
X51696D01*
X52983Y315033D01*
X53967Y316017D01*
X54056Y316232D01*
X55564Y316793D01*
X56408Y316347D01*
D02*
G37*
G36*
X182975Y367128D02*
X182982Y366931D01*
X182033Y365983D01*
X181500Y364696D01*
Y363304D01*
X181794Y362594D01*
Y304579D01*
X181409Y303651D01*
Y302258D01*
X181942Y300972D01*
X180770Y300179D01*
X179983Y300967D01*
X178696Y301500D01*
X177304D01*
X176017Y300967D01*
X174569Y301640D01*
Y340000D01*
Y346015D01*
X174797Y346356D01*
X175069Y347722D01*
Y352278D01*
X174797Y353644D01*
X174569Y353986D01*
Y358600D01*
X174297Y359966D01*
X173523Y361123D01*
X169347Y365300D01*
X172478Y368431D01*
X182633D01*
X182975Y367128D01*
D02*
G37*
G36*
X268431Y368179D02*
Y139478D01*
X248522Y119569D01*
X245478D01*
X237523Y127523D01*
X236366Y128297D01*
X235000Y128569D01*
X176199D01*
X175258Y130069D01*
X175412Y130843D01*
Y137757D01*
X175140Y139122D01*
X174366Y140280D01*
X170456Y144191D01*
X170808Y145960D01*
X170983Y146033D01*
X171967Y147017D01*
X172500Y148304D01*
Y149696D01*
X171967Y150983D01*
X170983Y151967D01*
X169696Y152500D01*
X169202D01*
X168903Y154000D01*
X168983Y154033D01*
X169967Y155017D01*
X170500Y156304D01*
Y157696D01*
X169967Y158983D01*
X168983Y159967D01*
X167696Y160500D01*
X166304D01*
X165017Y159967D01*
X164033Y158983D01*
X163500Y157696D01*
Y156304D01*
X164033Y155017D01*
X165017Y154033D01*
X166304Y153500D01*
X166798D01*
X167097Y152000D01*
X167017Y151967D01*
X166033Y150983D01*
X165960Y150808D01*
X164191Y150456D01*
X161660Y152986D01*
X161479Y153424D01*
X160424Y154479D01*
X159046Y155050D01*
X157554D01*
X156176Y154479D01*
X155121Y153424D01*
X154550Y152046D01*
X153090Y152142D01*
Y152253D01*
X152361Y154013D01*
X151013Y155361D01*
X150706Y155488D01*
Y157112D01*
X151013Y157239D01*
X152361Y158587D01*
X152796Y159636D01*
X154476Y160077D01*
X154939Y159614D01*
X155121Y159176D01*
X156176Y158121D01*
X157554Y157550D01*
X159046D01*
X160424Y158121D01*
X161479Y159176D01*
X162050Y160554D01*
Y162046D01*
X161479Y163424D01*
X160424Y164479D01*
X159986Y164660D01*
X158597Y166050D01*
X158881Y167000D01*
X159168Y167600D01*
X160424Y168121D01*
X161479Y169176D01*
X163017Y169033D01*
X164304Y168500D01*
X165696D01*
X166983Y169033D01*
X167967Y170017D01*
X168500Y171304D01*
Y172696D01*
X167967Y173983D01*
X166983Y174967D01*
X165696Y175500D01*
X164304D01*
X163017Y174967D01*
X162033Y173983D01*
X160559Y174344D01*
X160424Y174479D01*
X159046Y175050D01*
X157554D01*
X157080Y175383D01*
Y176246D01*
X158442Y177550D01*
X159046D01*
X160424Y178121D01*
X161479Y179176D01*
X162050Y180554D01*
X163487Y180401D01*
X163909Y180317D01*
X164033Y180017D01*
X165017Y179033D01*
X166304Y178500D01*
X167696D01*
X168983Y179033D01*
X169967Y180017D01*
X170500Y181304D01*
Y182696D01*
X169967Y183983D01*
X168983Y184967D01*
X168683Y185091D01*
X168331Y186861D01*
X182235Y200765D01*
X182920Y201790D01*
X183161Y203000D01*
Y205768D01*
X184661Y206390D01*
X185017Y206033D01*
X186304Y205500D01*
X187696D01*
X188983Y206033D01*
X189967Y207017D01*
X190188Y207551D01*
X191812D01*
X192033Y207017D01*
X193017Y206033D01*
X194304Y205500D01*
X195696D01*
X196983Y206033D01*
X197967Y207017D01*
X198500Y208304D01*
Y209696D01*
X197967Y210983D01*
X196983Y211967D01*
X195696Y212500D01*
X194304D01*
X193017Y211967D01*
X192033Y210983D01*
X191812Y210449D01*
X190188D01*
X189967Y210983D01*
X188983Y211967D01*
X187696Y212500D01*
X186304D01*
X185017Y211967D01*
X184661Y211610D01*
X183161Y212232D01*
Y215485D01*
X183500Y216304D01*
Y217696D01*
X182967Y218983D01*
X181983Y219967D01*
X180696Y220500D01*
X180091D01*
X179470Y222000D01*
X199309Y241839D01*
X203410D01*
X203983Y240453D01*
X196765Y233235D01*
X196080Y232210D01*
X195839Y231000D01*
Y225515D01*
X195500Y224696D01*
Y223304D01*
X196033Y222017D01*
X197017Y221033D01*
X198304Y220500D01*
X199696D01*
X200757Y220940D01*
X201593Y220537D01*
X202153Y220082D01*
Y205177D01*
X202339Y204241D01*
X202870Y203447D01*
X205879Y200438D01*
X206673Y199907D01*
X207610Y199721D01*
X210329D01*
X211017Y199033D01*
X212304Y198500D01*
X213696D01*
X214983Y199033D01*
X215967Y200017D01*
X216500Y201304D01*
Y202696D01*
X215967Y203983D01*
X214983Y204967D01*
X213696Y205500D01*
X212500Y206304D01*
Y207696D01*
X211967Y208983D01*
X210983Y209967D01*
X210347Y210230D01*
Y217886D01*
X215014Y222553D01*
X225319D01*
X231253Y216619D01*
Y215114D01*
X229430Y213290D01*
X228899Y212496D01*
X228713Y211560D01*
Y209020D01*
X228899Y208084D01*
X229430Y207290D01*
X231253Y205466D01*
Y204954D01*
X229430Y203130D01*
X228899Y202337D01*
X228713Y201400D01*
Y198860D01*
X228899Y197924D01*
X229430Y197130D01*
X231253Y195306D01*
Y194794D01*
X229430Y192970D01*
X228899Y192176D01*
X228713Y191240D01*
Y188700D01*
X228899Y187764D01*
X229430Y186970D01*
X231253Y185146D01*
Y181112D01*
X231439Y180176D01*
X231970Y179382D01*
X235800Y175552D01*
X235870Y175447D01*
X238447Y172870D01*
X238500Y172834D01*
Y172804D01*
X239033Y171517D01*
X240017Y170533D01*
X241304Y170000D01*
X242696D01*
X243983Y170533D01*
X244967Y171517D01*
X245500Y172804D01*
Y174196D01*
X244967Y175483D01*
X244200Y176250D01*
X244967Y177017D01*
X245500Y178304D01*
Y179696D01*
X244967Y180983D01*
X243983Y181967D01*
X242696Y182500D01*
X241304D01*
X240693Y182247D01*
X239447Y183493D01*
Y194146D01*
X240947Y195148D01*
X241304Y195000D01*
X242696D01*
X243983Y195533D01*
X244967Y196517D01*
X246424Y196115D01*
X256553Y185986D01*
Y148280D01*
X247139Y138867D01*
X233534D01*
X231710Y140690D01*
X230917Y141221D01*
X229980Y141407D01*
X227440D01*
X226504Y141221D01*
X225710Y140690D01*
X223886Y138867D01*
X216528D01*
X215500Y140304D01*
Y141696D01*
X214967Y142983D01*
X213983Y143967D01*
X212696Y144500D01*
X211304D01*
X210017Y143967D01*
X209033Y142983D01*
X208500Y141696D01*
Y140304D01*
X209033Y139017D01*
X209050Y139000D01*
X208429Y137500D01*
X208304D01*
X207017Y136967D01*
X206033Y135983D01*
X205500Y134696D01*
Y133304D01*
X206033Y132017D01*
X207017Y131033D01*
X208304Y130500D01*
X209696D01*
X210983Y131033D01*
X211214Y131265D01*
X211821Y130859D01*
X212758Y130673D01*
X249520D01*
X250456Y130859D01*
X251250Y131390D01*
X264030Y144170D01*
X264561Y144964D01*
X264747Y145900D01*
Y188367D01*
X264561Y189303D01*
X264030Y190097D01*
X249497Y204630D01*
X248703Y205161D01*
X247767Y205347D01*
X245230D01*
X244967Y205983D01*
X243983Y206967D01*
X242696Y207500D01*
X241304D01*
X240947Y207352D01*
X239447Y208354D01*
Y219000D01*
X239261Y219936D01*
X238730Y220730D01*
X238075Y221385D01*
X238925Y222657D01*
X239304Y222500D01*
X240696D01*
X241983Y223033D01*
X242967Y224017D01*
X243500Y225304D01*
Y226696D01*
X242967Y227983D01*
X241983Y228967D01*
X240696Y229500D01*
X239304D01*
X238017Y228967D01*
X237033Y227983D01*
X236500Y226696D01*
Y225304D01*
X236657Y224925D01*
X235385Y224075D01*
X229430Y230030D01*
X228636Y230561D01*
X227700Y230747D01*
X221709D01*
X221576Y231102D01*
X221460Y232247D01*
X222235Y232765D01*
X236235Y246765D01*
X236920Y247790D01*
X237161Y249000D01*
Y275736D01*
X238304Y276500D01*
X239696D01*
X240983Y277033D01*
X241967Y278017D01*
X242500Y279304D01*
Y280696D01*
X241967Y281983D01*
X240983Y282967D01*
X239696Y283500D01*
X238304D01*
X237161Y284264D01*
Y319708D01*
X249360Y331907D01*
X250045Y332932D01*
X250286Y334142D01*
Y357860D01*
X250625Y358679D01*
Y360071D01*
X250092Y361358D01*
X249805Y361645D01*
X249264Y362625D01*
X249805Y363605D01*
X250092Y363892D01*
X250625Y365179D01*
Y366571D01*
X250476Y366931D01*
X251478Y368431D01*
X268179D01*
X268431Y368179D01*
D02*
G37*
G36*
X112295Y214765D02*
X113321Y214080D01*
X113735Y213997D01*
X114649Y212581D01*
X114672Y212339D01*
X114550Y212046D01*
Y210554D01*
X115121Y209176D01*
X116176Y208121D01*
X117554Y207550D01*
X119046D01*
X119211Y207618D01*
X120521Y206557D01*
X120436Y205819D01*
X119136Y205013D01*
X119046Y205050D01*
X117554D01*
X116176Y204479D01*
X115121Y203424D01*
X114550Y202046D01*
Y200554D01*
X115121Y199176D01*
X116176Y198121D01*
X116384Y198034D01*
X117240Y196776D01*
X117034Y196266D01*
X116711Y195486D01*
Y194093D01*
X117243Y192807D01*
X118228Y191822D01*
X119514Y191290D01*
X120907D01*
X122193Y191822D01*
X123178Y192807D01*
X123710Y194093D01*
Y195486D01*
X123178Y196772D01*
X122193Y197757D01*
X122185Y197760D01*
X121992Y198146D01*
X121656Y199603D01*
X122050Y200554D01*
Y200931D01*
X122938Y201548D01*
X124263Y201218D01*
X124550Y200771D01*
Y200554D01*
X125121Y199176D01*
X126176Y198121D01*
X127554Y197550D01*
X129046D01*
X129268Y197642D01*
X129973Y197101D01*
X130500Y196529D01*
Y195304D01*
X131033Y194017D01*
X132017Y193033D01*
X133304Y192500D01*
X134171Y191917D01*
X134176Y190893D01*
X133584Y190434D01*
X132804Y190041D01*
X131696Y190500D01*
X130304D01*
X129017Y189967D01*
X128033Y188983D01*
X127500Y187696D01*
Y186304D01*
X127357Y186090D01*
X127347D01*
X125587Y185361D01*
X124239Y184013D01*
X124112Y183706D01*
X122488D01*
X122361Y184013D01*
X121013Y185361D01*
X119300Y186070D01*
Y181300D01*
X117300D01*
Y186070D01*
X115587Y185361D01*
X114239Y184013D01*
X114112Y183706D01*
X112488D01*
X112361Y184013D01*
X111013Y185361D01*
X109300Y186070D01*
Y181300D01*
X107300D01*
Y186070D01*
X105587Y185361D01*
X104239Y184013D01*
X104112Y183706D01*
X102488D01*
X102361Y184013D01*
X101013Y185361D01*
X99300Y186070D01*
Y181300D01*
X97300D01*
Y186070D01*
X95587Y185361D01*
X94239Y184013D01*
X94112Y183706D01*
X92488D01*
X92361Y184013D01*
X91013Y185361D01*
X89300Y186070D01*
Y181300D01*
X88300D01*
Y180300D01*
X83443D01*
X82345Y179529D01*
X82247Y179477D01*
X81017Y178967D01*
X80033Y177983D01*
X79500Y176696D01*
Y175304D01*
X80033Y174017D01*
X81017Y173033D01*
X81200Y172957D01*
X81247Y172303D01*
X81051Y171395D01*
X80017Y170967D01*
X79033Y169983D01*
X78500Y168696D01*
Y167304D01*
X79033Y166017D01*
X80017Y165033D01*
X81304Y164500D01*
X82696D01*
X82842Y164561D01*
X83990Y163412D01*
X83530Y162300D01*
X88300D01*
Y160300D01*
X83530D01*
X84239Y158587D01*
X85407Y157419D01*
X85515Y157161D01*
X85505Y156977D01*
X85136Y155802D01*
X79590D01*
X79590Y155802D01*
X78576Y155600D01*
X77716Y155026D01*
X77715Y155026D01*
X73550Y150860D01*
X72050Y151482D01*
Y152046D01*
X71479Y153424D01*
X70424Y154479D01*
X69046Y155050D01*
X67554D01*
X66176Y154479D01*
X65121Y153424D01*
X64550Y152046D01*
Y150554D01*
X65121Y149176D01*
X66176Y148121D01*
X67554Y147550D01*
X69046D01*
X69766Y146252D01*
X69766Y146252D01*
X68797Y145050D01*
X67554D01*
X66176Y144479D01*
X65121Y143424D01*
X64550Y142046D01*
Y141641D01*
X63050Y141020D01*
X62050Y142020D01*
Y142046D01*
X61479Y143424D01*
X60424Y144479D01*
X59046Y145050D01*
X57554D01*
X56708Y144699D01*
X54967Y144983D01*
X54930Y145020D01*
X54131Y146126D01*
X54930Y146980D01*
X55092Y147142D01*
X55198Y147238D01*
X56983Y147787D01*
X57554Y147550D01*
X59046D01*
X60424Y148121D01*
X61479Y149176D01*
X62050Y150554D01*
Y152046D01*
X61479Y153424D01*
X60424Y154479D01*
X59046Y155050D01*
X57554D01*
X57097Y154860D01*
X55920Y155671D01*
X55823Y155940D01*
X55747Y156821D01*
X57010Y157776D01*
X57554Y157550D01*
X59046D01*
X60424Y158121D01*
X61479Y159176D01*
X62050Y160554D01*
Y162046D01*
X61479Y163424D01*
X60424Y164479D01*
X59046Y165050D01*
X57554D01*
X56176Y164479D01*
X56151Y164454D01*
X54651Y165075D01*
Y167525D01*
X56151Y168146D01*
X56176Y168121D01*
X57554Y167550D01*
X59046D01*
X60424Y168121D01*
X61479Y169176D01*
X62050Y170554D01*
Y172046D01*
X61479Y173424D01*
X60424Y174479D01*
X59046Y175050D01*
X57554D01*
X56176Y174479D01*
X56151Y174454D01*
X54651Y175075D01*
Y177525D01*
X56151Y178146D01*
X56176Y178121D01*
X57554Y177550D01*
X59046D01*
X60424Y178121D01*
X61479Y179176D01*
X62050Y180554D01*
Y182046D01*
X61479Y183424D01*
X60424Y184479D01*
X59046Y185050D01*
X57554D01*
X56176Y184479D01*
X56151Y184454D01*
X54651Y185075D01*
Y187525D01*
X56151Y188146D01*
X56176Y188121D01*
X57554Y187550D01*
X59046D01*
X60424Y188121D01*
X61479Y189176D01*
X62050Y190554D01*
Y191774D01*
X62719Y192654D01*
X63224Y193114D01*
X63496Y193100D01*
X64550Y192046D01*
Y190554D01*
X65121Y189176D01*
X66176Y188121D01*
X67554Y187550D01*
X69046D01*
X70424Y188121D01*
X71479Y189176D01*
X72050Y190554D01*
Y192046D01*
X71945Y192299D01*
X72947Y193799D01*
X73450D01*
X73450Y193799D01*
X74465Y194001D01*
X75325Y194576D01*
X77906Y197157D01*
X79379Y196535D01*
X79500Y196164D01*
Y195304D01*
X80033Y194017D01*
X81017Y193033D01*
X81551Y192812D01*
Y191188D01*
X81017Y190967D01*
X80033Y189983D01*
X79500Y188696D01*
Y187304D01*
X80033Y186017D01*
X81017Y185033D01*
X82304Y184500D01*
X82817D01*
X83845Y183062D01*
X83530Y182300D01*
X87300D01*
Y186406D01*
X86746Y186952D01*
X86500Y187304D01*
Y188696D01*
X85967Y189983D01*
X84983Y190967D01*
X84449Y191188D01*
Y192812D01*
X84983Y193033D01*
X85967Y194017D01*
X86500Y195304D01*
Y196039D01*
X88011Y197550D01*
X89046D01*
X90424Y198121D01*
X91479Y199176D01*
X92050Y200554D01*
Y201230D01*
X92431Y201796D01*
X93177Y201897D01*
X94550Y200672D01*
Y200554D01*
X95121Y199176D01*
X96176Y198121D01*
X97554Y197550D01*
X99046D01*
X100424Y198121D01*
X101479Y199176D01*
X102050Y200554D01*
Y200814D01*
X102289Y201412D01*
X103311Y201619D01*
X104550Y200554D01*
X105121Y199176D01*
X105797Y198500D01*
X105955Y197404D01*
X105732Y196681D01*
X105033Y195983D01*
X104500Y194696D01*
Y193304D01*
X105033Y192017D01*
X106017Y191033D01*
X107304Y190500D01*
X108696D01*
X109983Y191033D01*
X110967Y192017D01*
X111500Y193304D01*
Y194696D01*
X110967Y195983D01*
X110444Y196506D01*
X110427Y197918D01*
X110606Y198303D01*
X111479Y199176D01*
X112050Y200554D01*
Y202046D01*
X111479Y203424D01*
X110424Y204479D01*
X109046Y205050D01*
X107554D01*
X106822Y206278D01*
X107015Y206613D01*
X107946Y207550D01*
X109046D01*
X110424Y208121D01*
X111479Y209176D01*
X112050Y210554D01*
Y212046D01*
X111479Y213424D01*
X110424Y214479D01*
X109046Y215050D01*
X108011D01*
X107100Y215961D01*
Y216696D01*
X108145Y217988D01*
X108970Y218090D01*
X112295Y214765D01*
D02*
G37*
G36*
X176500Y216909D02*
Y216304D01*
X176839Y215485D01*
Y204309D01*
X163550Y191020D01*
X162050Y191641D01*
Y192046D01*
X161479Y193424D01*
X160424Y194479D01*
X159046Y195050D01*
X159142Y196510D01*
X159253D01*
X161013Y197239D01*
X162361Y198587D01*
X163070Y200300D01*
X158300D01*
Y201300D01*
X157300D01*
Y206070D01*
X156147Y205593D01*
X155899Y205726D01*
X155324Y206586D01*
X155324Y206586D01*
X153886Y208025D01*
X153026Y208599D01*
X152876Y208629D01*
X151954Y210106D01*
X151945Y210301D01*
X152050Y210554D01*
Y210580D01*
X156909Y215439D01*
X171600D01*
X172810Y215680D01*
X173835Y216365D01*
X175000Y217530D01*
X176500Y216909D01*
D02*
G37*
G36*
X143510Y191089D02*
Y190347D01*
X144239Y188587D01*
X145587Y187239D01*
X147347Y186510D01*
X147458D01*
X147554Y185050D01*
X146176Y184479D01*
X145121Y183424D01*
X144550Y182046D01*
Y180554D01*
X145121Y179176D01*
X146176Y178121D01*
X147554Y177550D01*
X149046D01*
X149983Y176379D01*
Y176221D01*
X149845Y176048D01*
X148629Y175050D01*
X147554D01*
X146176Y174479D01*
X145121Y173424D01*
X144557Y172063D01*
X144485Y172034D01*
X143050Y171782D01*
X142967Y171983D01*
X142930Y172020D01*
X142013Y173000D01*
X142930Y173980D01*
X142967Y174017D01*
X143500Y175304D01*
Y176696D01*
X142967Y177983D01*
X141983Y178967D01*
X140696Y179500D01*
X139304D01*
X138017Y178967D01*
X137033Y177983D01*
X136500Y176696D01*
Y175304D01*
X137033Y174017D01*
X137070Y173980D01*
X137987Y173000D01*
X137070Y172020D01*
X137033Y171983D01*
X136500Y170696D01*
Y169304D01*
X137033Y168017D01*
X137623Y167427D01*
X137873Y166500D01*
X137623Y165573D01*
X137033Y164983D01*
X136500Y163696D01*
Y162304D01*
X137033Y161017D01*
X135983Y159967D01*
X134696Y160500D01*
X133304D01*
X133090Y160643D01*
Y162253D01*
X132361Y164013D01*
X131013Y165361D01*
X130706Y165488D01*
Y167112D01*
X131013Y167239D01*
X132361Y168587D01*
X133070Y170300D01*
X128300D01*
Y172300D01*
X133070D01*
X132361Y174013D01*
X131013Y175361D01*
X130706Y175488D01*
Y177112D01*
X131013Y177239D01*
X132361Y178587D01*
X133070Y180300D01*
X128300D01*
Y182300D01*
X133070D01*
X132445Y183810D01*
X132983Y184033D01*
X133967Y185017D01*
X134500Y186304D01*
Y187429D01*
X135243Y187947D01*
X135886Y188164D01*
X136017Y188033D01*
X137304Y187500D01*
X138696D01*
X139983Y188033D01*
X140967Y189017D01*
X141500Y190304D01*
Y191696D01*
X142240Y192130D01*
X143510Y191089D01*
D02*
G37*
G36*
X97347Y156510D02*
X98439D01*
X99060Y155010D01*
X99033Y154983D01*
X98500Y153696D01*
Y152304D01*
X99033Y151017D01*
X99623Y150427D01*
X99873Y149500D01*
X99623Y148573D01*
X99033Y147983D01*
X98500Y146696D01*
Y145304D01*
X98330Y145050D01*
X97554D01*
X96176Y144479D01*
X95121Y143424D01*
X94550Y142046D01*
Y140554D01*
X94636Y140347D01*
Y138204D01*
X94704Y137860D01*
Y137508D01*
X94839Y137183D01*
X94907Y136839D01*
X95103Y136546D01*
X95237Y136222D01*
X95486Y135973D01*
X95576Y135839D01*
X95689Y135583D01*
X95788Y134308D01*
X95598Y133901D01*
X95121Y133424D01*
X94550Y132046D01*
Y130554D01*
X93242Y129836D01*
X92050Y131079D01*
Y132046D01*
X91479Y133424D01*
X90424Y134479D01*
X89168Y135000D01*
X88881Y135600D01*
X88597Y136550D01*
X89986Y137940D01*
X90424Y138121D01*
X91479Y139176D01*
X92050Y140554D01*
Y142046D01*
X91479Y143424D01*
X90424Y144479D01*
X89046Y145050D01*
X87554D01*
X86176Y144479D01*
X85121Y143424D01*
X84939Y142986D01*
X83368Y141414D01*
X81565Y143217D01*
X81479Y143424D01*
X80424Y144479D01*
X79046Y145050D01*
X77554D01*
X77301Y144945D01*
X77156Y145010D01*
X76371Y146184D01*
X80688Y150500D01*
X87010D01*
X87010Y150500D01*
X88025Y150702D01*
X88885Y151277D01*
X94156Y156548D01*
X95587Y157239D01*
X97347Y156510D01*
D02*
G37*
G36*
X81662Y123027D02*
X82820Y122253D01*
X84185Y121981D01*
X93431D01*
Y118000D01*
X93703Y116634D01*
X94477Y115477D01*
X104477Y105477D01*
X104822Y105246D01*
X105121Y103425D01*
X105106Y103389D01*
X104550Y102046D01*
Y101370D01*
X104169Y100803D01*
X103423Y100703D01*
X102050Y101927D01*
Y102046D01*
X101479Y103424D01*
X100424Y104479D01*
X99046Y105050D01*
X97554D01*
X96176Y104479D01*
X95121Y103424D01*
X94550Y102046D01*
Y101370D01*
X94169Y100803D01*
X93423Y100703D01*
X92050Y101927D01*
Y102046D01*
X91479Y103424D01*
X90424Y104479D01*
X89046Y105050D01*
X87554D01*
X86176Y104479D01*
X85121Y103424D01*
X84550Y102046D01*
Y100554D01*
X85121Y99176D01*
X86176Y98121D01*
X87554Y97550D01*
X87673D01*
X88897Y96177D01*
X88797Y95431D01*
X88230Y95050D01*
X87554D01*
X86176Y94479D01*
X85121Y93424D01*
X84550Y92046D01*
Y90554D01*
X85121Y89176D01*
X86176Y88121D01*
X87554Y87550D01*
X88589D01*
X89500Y86639D01*
Y85904D01*
X90033Y84617D01*
X91017Y83633D01*
X92304Y83100D01*
X93696D01*
X94983Y83633D01*
X95967Y84617D01*
X96500Y85904D01*
Y86363D01*
X97237Y87193D01*
X98246Y87233D01*
X99500Y86018D01*
Y85904D01*
X100033Y84617D01*
X101017Y83633D01*
X102304Y83100D01*
X103696D01*
X104983Y83633D01*
X105967Y84617D01*
X106500Y85904D01*
X107910Y86580D01*
X108433Y86382D01*
X108500Y86304D01*
X109033Y85017D01*
X110017Y84033D01*
X111304Y83500D01*
X112696D01*
X113983Y84033D01*
X114967Y85017D01*
X115500Y86304D01*
Y86837D01*
X116958Y87797D01*
X117554Y87550D01*
X119046D01*
X120424Y88121D01*
X121479Y89176D01*
X122050Y90554D01*
Y92046D01*
X121479Y93424D01*
X120424Y94479D01*
X119046Y95050D01*
X117554D01*
X116498Y94612D01*
X115372Y95499D01*
X115614Y96912D01*
X116958Y97797D01*
X117554Y97550D01*
X119046D01*
X120424Y98121D01*
X121479Y99176D01*
X122050Y100554D01*
Y102046D01*
X121683Y102931D01*
X122432Y104431D01*
X124168D01*
X124917Y102931D01*
X124550Y102046D01*
Y100554D01*
X125121Y99176D01*
X126176Y98121D01*
X127554Y97550D01*
X129046D01*
X130424Y98121D01*
X131479Y99176D01*
X132050Y100554D01*
Y102046D01*
X131683Y102931D01*
X132432Y104431D01*
X134168D01*
X134917Y102931D01*
X134550Y102046D01*
Y100554D01*
X135121Y99176D01*
X136176Y98121D01*
X137432Y97600D01*
X137719Y97000D01*
X138003Y96050D01*
X136614Y94661D01*
X136176Y94479D01*
X135121Y93424D01*
X134550Y92046D01*
Y90554D01*
X135121Y89176D01*
X135498Y88799D01*
X135539Y88347D01*
X135419Y87587D01*
X135179Y87034D01*
X135017Y86967D01*
X134769Y86719D01*
X134477Y86523D01*
X134281Y86231D01*
X134033Y85983D01*
X133898Y85658D01*
X133703Y85366D01*
X133635Y85021D01*
X133500Y84696D01*
Y84345D01*
X133431Y84000D01*
X133500Y83655D01*
Y83304D01*
X133635Y82979D01*
X133703Y82634D01*
X133898Y82342D01*
X134033Y82017D01*
X134281Y81769D01*
X134477Y81477D01*
X134769Y81281D01*
X135017Y81033D01*
X135342Y80898D01*
X135634Y80703D01*
X135979Y80634D01*
X136304Y80500D01*
X136655D01*
X137000Y80431D01*
X141000D01*
X142010Y80632D01*
X142665Y80508D01*
X143732Y79812D01*
X144239Y78587D01*
X145587Y77239D01*
X147347Y76510D01*
X147458D01*
X147554Y75050D01*
X146176Y74479D01*
X145121Y73424D01*
X144550Y72046D01*
Y70554D01*
X145121Y69176D01*
X146176Y68121D01*
X147554Y67550D01*
X149046D01*
X150424Y68121D01*
X151479Y69176D01*
X152050Y70554D01*
Y72046D01*
X151479Y73424D01*
X150424Y74479D01*
X149046Y75050D01*
X149143Y76510D01*
X149253D01*
X151013Y77239D01*
X152361Y78587D01*
X153090Y80347D01*
Y80458D01*
X154550Y80554D01*
X155121Y79176D01*
X156176Y78121D01*
X157554Y77550D01*
X158075D01*
X158342Y76229D01*
X157554Y75050D01*
X156176Y74479D01*
X155121Y73424D01*
X154550Y72046D01*
Y70554D01*
X155121Y69176D01*
X156176Y68121D01*
X157554Y67550D01*
X159046D01*
X160424Y68121D01*
X161479Y69176D01*
X162050Y70554D01*
Y71923D01*
X163536Y73409D01*
X163850Y73879D01*
X163988Y73936D01*
X164973Y74921D01*
X165506Y76207D01*
Y77600D01*
X164973Y78886D01*
X163988Y79871D01*
X162702Y80403D01*
X162509D01*
X162050Y80554D01*
Y82046D01*
X161479Y83424D01*
X160424Y84479D01*
X159046Y85050D01*
X159142Y86510D01*
X159253D01*
X161013Y87239D01*
X162361Y88587D01*
X163070Y90300D01*
X158300D01*
Y91300D01*
X157300D01*
Y96070D01*
X155587Y95361D01*
X154239Y94013D01*
X153510Y92253D01*
Y92142D01*
X152050Y92046D01*
X151479Y93424D01*
X150424Y94479D01*
X149168Y95000D01*
X148881Y95600D01*
X148597Y96550D01*
X149986Y97940D01*
X150424Y98121D01*
X151479Y99176D01*
X152050Y100554D01*
Y102046D01*
X151683Y102931D01*
X152432Y104431D01*
X190522D01*
X203453Y91500D01*
X168421Y56468D01*
X167648Y55310D01*
X167376Y53945D01*
Y52501D01*
X166318Y52112D01*
X165876Y52074D01*
X165719Y52231D01*
X165523Y52523D01*
X164319Y53728D01*
X163161Y54501D01*
X161796Y54773D01*
X159715D01*
X159046Y55050D01*
X157554D01*
X156176Y54479D01*
X155121Y53424D01*
X154550Y52046D01*
X153090Y52142D01*
Y52253D01*
X152361Y54013D01*
X151013Y55361D01*
X149253Y56090D01*
X149142D01*
X149046Y57550D01*
X150424Y58121D01*
X151479Y59176D01*
X152050Y60554D01*
Y62046D01*
X151479Y63424D01*
X150424Y64479D01*
X149046Y65050D01*
X147554D01*
X146176Y64479D01*
X145121Y63424D01*
X144550Y62046D01*
Y60554D01*
X145121Y59176D01*
X146176Y58121D01*
X147554Y57550D01*
X147458Y56090D01*
X147347D01*
X145587Y55361D01*
X144239Y54013D01*
X143530Y52300D01*
X148300D01*
Y50300D01*
X143530D01*
X144239Y48587D01*
X145587Y47239D01*
X145894Y47112D01*
Y45488D01*
X145587Y45361D01*
X144239Y44013D01*
X143530Y42300D01*
X148300D01*
Y40300D01*
X143530D01*
X144239Y38587D01*
X145587Y37239D01*
X145894Y37112D01*
Y35488D01*
X145587Y35361D01*
X144239Y34013D01*
X144112Y33706D01*
X142488D01*
X142361Y34013D01*
X141013Y35361D01*
X139300Y36070D01*
Y31300D01*
X137300D01*
Y36070D01*
X135587Y35361D01*
X134239Y34013D01*
X133510Y32253D01*
Y32143D01*
X132050Y32046D01*
X131479Y33424D01*
X130424Y34479D01*
X129986Y34660D01*
X126123Y38523D01*
X125831Y38719D01*
X125583Y38967D01*
X125258Y39102D01*
X124966Y39297D01*
X124621Y39365D01*
X124296Y39500D01*
X123945D01*
X123600Y39569D01*
X123255Y39500D01*
X122904D01*
X122579Y39365D01*
X122234Y39297D01*
X121942Y39102D01*
X121617Y38967D01*
X121369Y38719D01*
X121077Y38523D01*
X120881Y38231D01*
X120633Y37983D01*
X120498Y37658D01*
X120303Y37366D01*
X120287Y37285D01*
X119300Y36144D01*
Y31300D01*
X117300D01*
Y36070D01*
X115587Y35361D01*
X114239Y34013D01*
X113510Y32253D01*
Y32142D01*
X112050Y32046D01*
X111479Y33424D01*
X110424Y34479D01*
X109046Y35050D01*
X107554D01*
X106176Y34479D01*
X105121Y33424D01*
X104939Y32986D01*
X103550Y31597D01*
X102600Y31881D01*
X102000Y32168D01*
X101479Y33424D01*
X100424Y34479D01*
X99046Y35050D01*
X97554D01*
X96176Y34479D01*
X95121Y33424D01*
X94939Y32986D01*
X93550Y31597D01*
X92600Y31881D01*
X92000Y32168D01*
X91479Y33424D01*
X90424Y34479D01*
X89046Y35050D01*
X87554D01*
X86176Y34479D01*
X85121Y33424D01*
X84939Y32986D01*
X83300Y31347D01*
X81660Y32986D01*
X81479Y33424D01*
X80424Y34479D01*
X79046Y35050D01*
X77554D01*
X76176Y34479D01*
X75121Y33424D01*
X74550Y32046D01*
Y30554D01*
X75121Y29176D01*
X76176Y28121D01*
X76614Y27940D01*
X78003Y26550D01*
X77719Y25600D01*
X77432Y25000D01*
X76176Y24479D01*
X75121Y23424D01*
X74550Y22046D01*
Y20554D01*
X75121Y19176D01*
X76176Y18121D01*
X76845Y17844D01*
X81662Y13027D01*
X82820Y12253D01*
X84185Y11981D01*
X92550D01*
X93069Y12085D01*
X98677Y6477D01*
X99834Y5703D01*
X101200Y5431D01*
X124132D01*
X125497Y5703D01*
X126655Y6477D01*
X133210Y13031D01*
X133600D01*
X133945Y13100D01*
X134296D01*
X134621Y13234D01*
X134966Y13303D01*
X135258Y13498D01*
X135583Y13633D01*
X135831Y13881D01*
X136123Y14077D01*
X139268Y17222D01*
X147467D01*
X151662Y13027D01*
X152139Y12708D01*
X152793Y11814D01*
X152728Y10742D01*
X152502Y10197D01*
Y8805D01*
X153035Y7518D01*
X154020Y6534D01*
X155306Y6001D01*
X156699D01*
X157985Y6534D01*
X158970Y7518D01*
X159502Y8805D01*
Y10197D01*
X159385Y10481D01*
X160387Y11982D01*
X160682D01*
X162047Y12253D01*
X163205Y13027D01*
X173468Y23290D01*
X174242Y24447D01*
X174513Y25813D01*
Y45399D01*
Y52466D01*
X206833Y84787D01*
X208219Y84213D01*
Y84000D01*
X208491Y82634D01*
X209264Y81477D01*
X210422Y80703D01*
X211788Y80431D01*
X226000D01*
X227366Y80703D01*
X228523Y81477D01*
X237614Y90568D01*
X239000Y89993D01*
Y0D01*
X0D01*
Y121409D01*
X1500Y122030D01*
X10765Y112765D01*
X11790Y112080D01*
X13000Y111839D01*
X22930D01*
X23766Y110339D01*
X23500Y109696D01*
Y108304D01*
X24033Y107017D01*
X25017Y106033D01*
X25837Y105694D01*
X31765Y99765D01*
X32791Y99080D01*
X34000Y98839D01*
X41859D01*
X43069Y99080D01*
X44094Y99765D01*
X50269Y105939D01*
X54044D01*
X54665Y104439D01*
X54239Y104013D01*
X53530Y102300D01*
X58300D01*
Y100300D01*
X53530D01*
X54239Y98587D01*
X55587Y97239D01*
X57347Y96510D01*
X57458D01*
X57554Y95050D01*
X56176Y94479D01*
X55121Y93424D01*
X55035Y93217D01*
X54387Y92569D01*
X53000D01*
X52655Y92500D01*
X52304D01*
X51979Y92366D01*
X51634Y92297D01*
X51342Y92102D01*
X51017Y91967D01*
X50769Y91719D01*
X50477Y91523D01*
X50281Y91231D01*
X50033Y90983D01*
X49898Y90658D01*
X49703Y90366D01*
X49634Y90021D01*
X49500Y89696D01*
Y89345D01*
X49431Y89000D01*
X49500Y88655D01*
Y88304D01*
X49634Y87979D01*
X49703Y87634D01*
X49898Y87342D01*
X50033Y87017D01*
X50281Y86769D01*
X50349Y86667D01*
Y77889D01*
X50349Y77889D01*
X50551Y76874D01*
X51125Y76014D01*
X52864Y74275D01*
X53724Y73701D01*
X54551Y72049D01*
X54550Y72046D01*
Y70554D01*
X55121Y69176D01*
X56176Y68121D01*
X57554Y67550D01*
X59046D01*
X60424Y68121D01*
X61479Y69176D01*
X62050Y70554D01*
Y72046D01*
X62383Y72520D01*
X63246D01*
X64550Y71158D01*
Y70554D01*
X65121Y69176D01*
X66176Y68121D01*
X67554Y67550D01*
X69046D01*
X70424Y68121D01*
X71479Y69176D01*
X72050Y70554D01*
Y72046D01*
X73072Y73499D01*
X74150D01*
X74150Y73499D01*
X75164Y73701D01*
X76024Y74275D01*
X80174Y78425D01*
X80175Y78425D01*
X80749Y79285D01*
X80951Y80300D01*
X80951Y80300D01*
Y88648D01*
X81479Y89176D01*
X82050Y90554D01*
Y92046D01*
X81479Y93424D01*
X80424Y94479D01*
X79046Y95050D01*
X77554D01*
X76176Y94479D01*
X75121Y93424D01*
X74550Y92046D01*
Y90554D01*
X75121Y89176D01*
X75649Y88648D01*
Y81398D01*
X74071Y79820D01*
X73397Y79886D01*
X72050Y80554D01*
Y82046D01*
X71479Y83424D01*
X70424Y84479D01*
X69263Y84960D01*
X68883Y85830D01*
X68732Y86550D01*
X70217Y88035D01*
X70424Y88121D01*
X71479Y89176D01*
X72050Y90554D01*
Y92046D01*
X71479Y93424D01*
X70424Y94479D01*
X69168Y95000D01*
X68881Y95600D01*
X68597Y96550D01*
X69986Y97940D01*
X70424Y98121D01*
X71479Y99176D01*
X72050Y100554D01*
Y102046D01*
X71479Y103424D01*
X70424Y104479D01*
X69046Y105050D01*
X67554D01*
X66658Y104679D01*
X66570Y104726D01*
X65885Y105751D01*
X60301Y111335D01*
X59276Y112020D01*
X58066Y112261D01*
X48959D01*
X47750Y112020D01*
X47000Y111519D01*
X46067Y111816D01*
X45500Y112232D01*
Y112696D01*
X44967Y113983D01*
X43983Y114967D01*
X42696Y115500D01*
X41304D01*
X40017Y114967D01*
X39033Y113983D01*
X38500Y112696D01*
Y111304D01*
X39033Y110017D01*
X40017Y109033D01*
X41304Y108500D01*
X41768D01*
X42389Y107000D01*
X40550Y105161D01*
X35309D01*
X30306Y110163D01*
X29967Y110983D01*
X29663Y111287D01*
X29263Y112498D01*
X29660Y113250D01*
X39135Y122725D01*
X39293Y122962D01*
X40017Y123033D01*
X41304Y122500D01*
X41751D01*
X49125Y115126D01*
X49125Y115126D01*
X49985Y114551D01*
X51000Y114349D01*
X51000Y114349D01*
X71000D01*
X71000Y114349D01*
X72014Y114551D01*
X72874Y115126D01*
X75024Y117275D01*
X75024Y117275D01*
X75599Y118136D01*
X75801Y119150D01*
X75801Y119150D01*
Y126653D01*
X75957Y126831D01*
X77301Y127388D01*
X81662Y123027D01*
D02*
G37*
%LPC*%
G36*
X184696Y455500D02*
X183304D01*
X182017Y454967D01*
X181033Y453983D01*
X180500Y452696D01*
Y451304D01*
X181033Y450017D01*
X182017Y449033D01*
X183304Y448500D01*
X184696D01*
X185983Y449033D01*
X186967Y450017D01*
X187500Y451304D01*
Y452696D01*
X186967Y453983D01*
X185983Y454967D01*
X184696Y455500D01*
D02*
G37*
G36*
X247821Y408375D02*
X246429D01*
X245142Y407842D01*
X244158Y406858D01*
X243625Y405571D01*
Y404179D01*
X244158Y402892D01*
X244445Y402605D01*
X244986Y401625D01*
X244445Y400645D01*
X244158Y400358D01*
X243625Y399071D01*
Y397679D01*
X244158Y396392D01*
X245142Y395408D01*
X246429Y394875D01*
X247821D01*
X249108Y395408D01*
X250092Y396392D01*
X250625Y397679D01*
Y399071D01*
X250092Y400358D01*
X249805Y400645D01*
X249264Y401625D01*
X249805Y402605D01*
X250092Y402892D01*
X250625Y404179D01*
Y405571D01*
X250092Y406858D01*
X249108Y407842D01*
X247821Y408375D01*
D02*
G37*
G36*
X26625Y380500D02*
X23375D01*
X20187Y379866D01*
X17184Y378622D01*
X14482Y376816D01*
X12184Y374518D01*
X10378Y371816D01*
X9134Y368813D01*
X8500Y365625D01*
Y362375D01*
X9134Y359187D01*
X10378Y356184D01*
X12184Y353482D01*
X14482Y351184D01*
X17184Y349378D01*
X20187Y348134D01*
X23375Y347500D01*
X26625D01*
X29813Y348134D01*
X32816Y349378D01*
X35518Y351184D01*
X37816Y353482D01*
X39622Y356184D01*
X40866Y359187D01*
X41500Y362375D01*
Y365625D01*
X40866Y368813D01*
X39622Y371816D01*
X37816Y374518D01*
X35518Y376816D01*
X32816Y378622D01*
X29813Y379866D01*
X26625Y380500D01*
D02*
G37*
G36*
X129046Y435050D02*
X127554D01*
X126176Y434479D01*
X125121Y433424D01*
X124550Y432046D01*
Y430554D01*
X125121Y429176D01*
X126176Y428121D01*
X127554Y427550D01*
X129046D01*
X130424Y428121D01*
X131479Y429176D01*
X132050Y430554D01*
Y432046D01*
X131479Y433424D01*
X130424Y434479D01*
X129046Y435050D01*
D02*
G37*
G36*
X159300Y426070D02*
Y422300D01*
X163070D01*
X162361Y424013D01*
X161013Y425361D01*
X159300Y426070D01*
D02*
G37*
G36*
X129300Y406070D02*
Y402300D01*
X133070D01*
X132361Y404013D01*
X131013Y405361D01*
X129300Y406070D01*
D02*
G37*
G36*
X87300D02*
X85587Y405361D01*
X84239Y404013D01*
X83530Y402300D01*
X87300D01*
Y406070D01*
D02*
G37*
G36*
X69046Y405050D02*
X67554D01*
X66176Y404479D01*
X65121Y403424D01*
X64550Y402046D01*
Y400554D01*
X65121Y399176D01*
X66176Y398121D01*
X67554Y397550D01*
X69046D01*
X70424Y398121D01*
X71479Y399176D01*
X72050Y400554D01*
Y402046D01*
X71479Y403424D01*
X70424Y404479D01*
X69046Y405050D01*
D02*
G37*
G36*
X59046D02*
X57554D01*
X56176Y404479D01*
X55121Y403424D01*
X54550Y402046D01*
Y400554D01*
X55121Y399176D01*
X56176Y398121D01*
X57554Y397550D01*
X59046D01*
X60424Y398121D01*
X61479Y399176D01*
X62050Y400554D01*
Y402046D01*
X61479Y403424D01*
X60424Y404479D01*
X59046Y405050D01*
D02*
G37*
G36*
X78296Y403500D02*
X76904D01*
X75617Y402967D01*
X74633Y401983D01*
X74100Y400696D01*
Y399304D01*
X74633Y398017D01*
X75047Y397603D01*
X75019Y396062D01*
X74870Y395820D01*
X74033Y394983D01*
X73500Y393696D01*
Y392304D01*
X73842Y391478D01*
X73304Y389971D01*
X73285Y389944D01*
X72979Y390096D01*
X72050Y390986D01*
Y392046D01*
X71479Y393424D01*
X70424Y394479D01*
X69046Y395050D01*
X67554D01*
X66176Y394479D01*
X65121Y393424D01*
X64550Y392046D01*
Y390554D01*
X65121Y389176D01*
X66176Y388121D01*
X67554Y387550D01*
X69046D01*
X70424Y388121D01*
X70497Y388193D01*
X71768Y387344D01*
X71500Y386696D01*
Y385525D01*
X70983Y385022D01*
X70175Y384582D01*
X69046Y385050D01*
X67554D01*
X66176Y384479D01*
X65121Y383424D01*
X64550Y382046D01*
Y380554D01*
X65121Y379176D01*
X66176Y378121D01*
X67554Y377550D01*
X69046D01*
X70424Y378121D01*
X70497Y378193D01*
X71768Y377344D01*
X71500Y376696D01*
Y375525D01*
X70983Y375022D01*
X70175Y374582D01*
X69046Y375050D01*
X67554D01*
X66176Y374479D01*
X65121Y373424D01*
X64550Y372046D01*
Y370554D01*
X65121Y369176D01*
X66176Y368121D01*
X67554Y367550D01*
X69046D01*
X70424Y368121D01*
X71479Y369176D01*
X72050Y370554D01*
Y371934D01*
X72297Y372215D01*
X73316Y372909D01*
X74304Y372500D01*
X75696D01*
X76983Y373033D01*
X78033Y372017D01*
X79017Y371033D01*
X80304Y370500D01*
X81696D01*
X82983Y371033D01*
X83967Y372017D01*
X84500Y373304D01*
Y374696D01*
X83967Y375983D01*
X82983Y376967D01*
X81696Y377500D01*
X80304D01*
X79017Y376967D01*
X77967Y377983D01*
X76983Y378967D01*
X75696Y379500D01*
X74304D01*
X73017Y378967D01*
X73015Y378965D01*
X71744Y379815D01*
X72050Y380554D01*
Y381934D01*
X72297Y382215D01*
X73316Y382909D01*
X74304Y382500D01*
X75696D01*
X76983Y383033D01*
X77967Y384017D01*
X78500Y385304D01*
Y386696D01*
X77967Y387983D01*
X77875Y388074D01*
X77860Y388198D01*
X78315Y389756D01*
X78983Y390033D01*
X79967Y391017D01*
X80500Y392304D01*
Y393696D01*
X79967Y394983D01*
X79553Y395397D01*
X79581Y396938D01*
X79730Y397180D01*
X80567Y398017D01*
X81100Y399304D01*
Y400696D01*
X80567Y401983D01*
X79583Y402967D01*
X78296Y403500D01*
D02*
G37*
G36*
X59046Y395050D02*
X57554D01*
X56176Y394479D01*
X55121Y393424D01*
X54550Y392046D01*
Y390554D01*
X55121Y389176D01*
X56176Y388121D01*
X57554Y387550D01*
X59046D01*
X60424Y388121D01*
X61479Y389176D01*
X62050Y390554D01*
Y392046D01*
X61479Y393424D01*
X60424Y394479D01*
X59046Y395050D01*
D02*
G37*
G36*
X138696Y386500D02*
X137304D01*
X136017Y385967D01*
X135033Y384983D01*
X134500Y383696D01*
X134500Y382470D01*
X133090Y382253D01*
X133090Y382253D01*
Y382087D01*
X134500Y382304D01*
X135033Y381017D01*
X136017Y380033D01*
X137304Y379500D01*
X138696D01*
X139983Y380033D01*
X140967Y381017D01*
X141500Y382304D01*
Y383696D01*
X140967Y384983D01*
X139983Y385967D01*
X138696Y386500D01*
D02*
G37*
G36*
X59046Y385050D02*
X57554D01*
X56176Y384479D01*
X55121Y383424D01*
X54550Y382046D01*
Y380554D01*
X55121Y379176D01*
X56176Y378121D01*
X57554Y377550D01*
X59046D01*
X60424Y378121D01*
X61479Y379176D01*
X62050Y380554D01*
Y382046D01*
X61479Y383424D01*
X60424Y384479D01*
X59046Y385050D01*
D02*
G37*
G36*
X87300Y380300D02*
X83530D01*
X84239Y378587D01*
X85587Y377239D01*
X87300Y376530D01*
Y380300D01*
D02*
G37*
G36*
X59046Y375050D02*
X57554D01*
X56176Y374479D01*
X55121Y373424D01*
X54550Y372046D01*
Y370554D01*
X55121Y369176D01*
X56176Y368121D01*
X57554Y367550D01*
X59046D01*
X60424Y368121D01*
X61479Y369176D01*
X62050Y370554D01*
Y372046D01*
X61479Y373424D01*
X60424Y374479D01*
X59046Y375050D01*
D02*
G37*
G36*
X57300Y350300D02*
X53530D01*
X54239Y348587D01*
X55587Y347239D01*
X57300Y346530D01*
Y350300D01*
D02*
G37*
G36*
X129046Y325050D02*
X127554D01*
X126176Y324479D01*
X125121Y323424D01*
X124550Y322046D01*
Y320554D01*
X125121Y319176D01*
X126176Y318121D01*
X127554Y317550D01*
X129046D01*
X130424Y318121D01*
X131479Y319176D01*
X132050Y320554D01*
Y322046D01*
X131479Y323424D01*
X130424Y324479D01*
X129046Y325050D01*
D02*
G37*
G36*
X159300Y316070D02*
Y312300D01*
X163071D01*
X162361Y314013D01*
X161013Y315361D01*
X159300Y316070D01*
D02*
G37*
G36*
X129046Y315050D02*
X127554D01*
X126176Y314479D01*
X125121Y313424D01*
X124550Y312046D01*
Y310554D01*
X125121Y309176D01*
X126176Y308121D01*
X127554Y307550D01*
X129046D01*
X130424Y308121D01*
X131479Y309176D01*
X132050Y310554D01*
Y312046D01*
X131479Y313424D01*
X130424Y314479D01*
X129046Y315050D01*
D02*
G37*
G36*
X133070Y270300D02*
X129300D01*
Y266530D01*
X131013Y267239D01*
X132361Y268587D01*
X133070Y270300D01*
D02*
G37*
G36*
X87300D02*
X83530D01*
X84239Y268587D01*
X85587Y267239D01*
X87300Y266530D01*
Y270300D01*
D02*
G37*
G36*
X69046Y255050D02*
X67554D01*
X66176Y254479D01*
X65121Y253424D01*
X64601Y252168D01*
X64000Y251881D01*
X63050Y251597D01*
X61660Y252986D01*
X61479Y253424D01*
X60424Y254479D01*
X59046Y255050D01*
X57554D01*
X56176Y254479D01*
X55121Y253424D01*
X54550Y252046D01*
Y250554D01*
X55121Y249176D01*
X56176Y248121D01*
X56614Y247939D01*
X57077Y247476D01*
X56636Y245795D01*
X55587Y245361D01*
X54239Y244013D01*
X53530Y242300D01*
X58300D01*
Y241300D01*
X59300D01*
Y236530D01*
X61013Y237239D01*
X62361Y238587D01*
X62796Y239636D01*
X64476Y240077D01*
X64940Y239614D01*
X65121Y239176D01*
X66176Y238121D01*
X67554Y237550D01*
X69046D01*
X70424Y238121D01*
X71479Y239176D01*
X72050Y240554D01*
Y242046D01*
X71479Y243424D01*
X70424Y244479D01*
X69986Y244660D01*
X68597Y246050D01*
X68881Y247000D01*
X69168Y247600D01*
X70424Y248121D01*
X71479Y249176D01*
X72050Y250554D01*
Y252046D01*
X71479Y253424D01*
X70424Y254479D01*
X69046Y255050D01*
D02*
G37*
G36*
X57300Y240300D02*
X53530D01*
X54239Y238587D01*
X55587Y237239D01*
X57300Y236530D01*
Y240300D01*
D02*
G37*
G36*
X19571Y139625D02*
X18179D01*
X16892Y139092D01*
X15908Y138108D01*
X15375Y136821D01*
Y135429D01*
X15908Y134142D01*
X16892Y133158D01*
X18179Y132625D01*
X19571D01*
X20858Y133158D01*
X21842Y134142D01*
X22375Y135429D01*
Y136821D01*
X21842Y138108D01*
X20858Y139092D01*
X19571Y139625D01*
D02*
G37*
G36*
X248696Y310500D02*
X247304D01*
X246017Y309967D01*
X245500Y309450D01*
X244983Y309967D01*
X243696Y310500D01*
X242304D01*
X241017Y309967D01*
X240033Y308983D01*
X239500Y307696D01*
Y306304D01*
X240033Y305017D01*
X241017Y304033D01*
X242304Y303500D01*
X243696D01*
X244983Y304033D01*
X245500Y304550D01*
X246017Y304033D01*
X247304Y303500D01*
X248696D01*
X249983Y304033D01*
X250967Y305017D01*
X251500Y306304D01*
Y307696D01*
X250967Y308983D01*
X249983Y309967D01*
X248696Y310500D01*
D02*
G37*
G36*
X190696Y197500D02*
X189304D01*
X188017Y196967D01*
X187033Y195983D01*
X186500Y194696D01*
Y193304D01*
X187033Y192017D01*
X188017Y191033D01*
X189304Y190500D01*
X190696D01*
X191983Y191033D01*
X192967Y192017D01*
X193500Y193304D01*
Y194696D01*
X192967Y195983D01*
X191983Y196967D01*
X190696Y197500D01*
D02*
G37*
G36*
X204696Y193500D02*
X203304D01*
X202017Y192967D01*
X201033Y191983D01*
X200500Y190696D01*
Y189304D01*
X201033Y188017D01*
X202017Y187033D01*
X203304Y186500D01*
X204696D01*
X205983Y187033D01*
X206967Y188017D01*
X207500Y189304D01*
Y190696D01*
X206967Y191983D01*
X205983Y192967D01*
X204696Y193500D01*
D02*
G37*
G36*
X182753Y187443D02*
X181361D01*
X180075Y186910D01*
X179090Y185925D01*
X178766Y185143D01*
X178412Y184611D01*
X177057Y184350D01*
X176696Y184500D01*
X175304D01*
X174017Y183967D01*
X173033Y182983D01*
X172500Y181696D01*
Y180304D01*
X173033Y179017D01*
X174017Y178033D01*
X175304Y177500D01*
X176696D01*
X177983Y178033D01*
X178967Y179017D01*
X179291Y179800D01*
X179646Y180332D01*
X181000Y180592D01*
X181361Y180443D01*
X182753D01*
X184040Y180976D01*
X185024Y181960D01*
X185557Y183247D01*
Y184639D01*
X185024Y185925D01*
X184040Y186910D01*
X182753Y187443D01*
D02*
G37*
G36*
X214696Y175500D02*
X213304D01*
X212017Y174967D01*
X211033Y173983D01*
X210562Y172847D01*
X210177D01*
X209241Y172661D01*
X208447Y172130D01*
X206828Y170511D01*
X184988D01*
X184051Y170325D01*
X183257Y169794D01*
X180270Y166807D01*
X179739Y166013D01*
X179553Y165076D01*
Y158387D01*
X179739Y157451D01*
X180270Y156657D01*
X183257Y153670D01*
X184051Y153139D01*
X184988Y152953D01*
X200809D01*
X205892Y147870D01*
X206686Y147339D01*
X207623Y147153D01*
X238770D01*
X239033Y146517D01*
X240017Y145533D01*
X241304Y145000D01*
X242696D01*
X243983Y145533D01*
X244967Y146517D01*
X245500Y147804D01*
Y149196D01*
X244967Y150483D01*
X244200Y151250D01*
X244967Y152017D01*
X245500Y153304D01*
Y154696D01*
X244967Y155983D01*
X243983Y156967D01*
X242696Y157500D01*
X241304D01*
X240017Y156967D01*
X239525Y156475D01*
X237712Y156414D01*
X236955Y157170D01*
X236161Y157701D01*
X235225Y157887D01*
X232685D01*
X231748Y157701D01*
X230954Y157170D01*
X229131Y155347D01*
X216418D01*
X215797Y156847D01*
X215967Y157017D01*
X216500Y158304D01*
Y159696D01*
X215967Y160983D01*
X214983Y161967D01*
X213696Y162500D01*
X212738D01*
X210161Y165077D01*
X210185Y166947D01*
X211191Y167953D01*
X211846D01*
X212782Y168139D01*
X213322Y168500D01*
X214696D01*
X215983Y169033D01*
X216967Y170017D01*
X217500Y171304D01*
Y172696D01*
X216967Y173983D01*
X215983Y174967D01*
X214696Y175500D01*
D02*
G37*
G36*
X180696Y147095D02*
X179304D01*
X178017Y146562D01*
X177033Y145578D01*
X176500Y144291D01*
Y142899D01*
X177033Y141613D01*
X178017Y140628D01*
X179304Y140095D01*
X179456D01*
X180500Y138696D01*
Y137304D01*
X181033Y136017D01*
X182017Y135033D01*
X183304Y134500D01*
X184696D01*
X185000Y134626D01*
X186403Y134325D01*
X186697Y133829D01*
X187033Y133017D01*
X188017Y132033D01*
X189304Y131500D01*
X190696D01*
X191983Y132033D01*
X192967Y133017D01*
X193303Y133829D01*
X193597Y134325D01*
X195000Y134626D01*
X195304Y134500D01*
X196696D01*
X197983Y135033D01*
X198967Y136017D01*
X199500Y137304D01*
Y138696D01*
X198967Y139983D01*
X197983Y140967D01*
X196696Y141500D01*
X195304D01*
X194017Y140967D01*
X193033Y139983D01*
X192697Y139171D01*
X192403Y138675D01*
X191000Y138374D01*
X190696Y138500D01*
X189304D01*
X189000Y138374D01*
X187597Y138675D01*
X187303Y139171D01*
X186967Y139983D01*
X185983Y140967D01*
X184696Y141500D01*
X184544D01*
X183500Y142899D01*
Y144291D01*
X182967Y145578D01*
X181983Y146562D01*
X180696Y147095D01*
D02*
G37*
G36*
X93696Y193500D02*
X92304D01*
X91017Y192967D01*
X90033Y191983D01*
X89500Y190696D01*
Y189304D01*
X90033Y188017D01*
X91017Y187033D01*
X92304Y186500D01*
X93696D01*
X94983Y187033D01*
X95967Y188017D01*
X96500Y189304D01*
Y190696D01*
X95967Y191983D01*
X94983Y192967D01*
X93696Y193500D01*
D02*
G37*
G36*
X69046Y185050D02*
X67554D01*
X66176Y184479D01*
X65121Y183424D01*
X64550Y182046D01*
Y180554D01*
X65121Y179176D01*
X66176Y178121D01*
X67554Y177550D01*
X69046D01*
X70424Y178121D01*
X71479Y179176D01*
X72050Y180554D01*
Y182046D01*
X71479Y183424D01*
X70424Y184479D01*
X69046Y185050D01*
D02*
G37*
G36*
Y175050D02*
X67554D01*
X66176Y174479D01*
X65121Y173424D01*
X64550Y172046D01*
Y170554D01*
X65121Y169176D01*
X66176Y168121D01*
X67554Y167550D01*
X69046D01*
X70424Y168121D01*
X71479Y169176D01*
X72050Y170554D01*
Y172046D01*
X71479Y173424D01*
X70424Y174479D01*
X69046Y175050D01*
D02*
G37*
G36*
Y165050D02*
X67554D01*
X66176Y164479D01*
X65121Y163424D01*
X64550Y162046D01*
Y160554D01*
X65121Y159176D01*
X66176Y158121D01*
X67554Y157550D01*
X69046D01*
X70424Y158121D01*
X71479Y159176D01*
X72050Y160554D01*
Y162046D01*
X71479Y163424D01*
X70424Y164479D01*
X69046Y165050D01*
D02*
G37*
G36*
X159300Y206070D02*
Y202300D01*
X163071D01*
X162361Y204013D01*
X161013Y205361D01*
X159300Y206070D01*
D02*
G37*
G36*
X80696Y109500D02*
X79304D01*
X78017Y108967D01*
X77033Y107983D01*
X76540Y106794D01*
X76314Y106567D01*
X75629Y105542D01*
X75388Y104332D01*
Y103691D01*
X75121Y103424D01*
X74550Y102046D01*
Y100554D01*
X75121Y99176D01*
X76176Y98121D01*
X77554Y97550D01*
X79046D01*
X80424Y98121D01*
X81479Y99176D01*
X82050Y100554D01*
Y102046D01*
X81983Y103033D01*
X82967Y104017D01*
X83500Y105304D01*
Y106696D01*
X82967Y107983D01*
X81983Y108967D01*
X80696Y109500D01*
D02*
G37*
G36*
X159300Y96070D02*
Y92300D01*
X163071D01*
X162361Y94013D01*
X161013Y95361D01*
X159300Y96070D01*
D02*
G37*
G36*
X129046Y95050D02*
X127554D01*
X126176Y94479D01*
X125121Y93424D01*
X124550Y92046D01*
Y90554D01*
X125121Y89176D01*
X126176Y88121D01*
X127554Y87550D01*
X129046D01*
X130424Y88121D01*
X131479Y89176D01*
X132050Y90554D01*
Y92046D01*
X131479Y93424D01*
X130424Y94479D01*
X129046Y95050D01*
D02*
G37*
G36*
X129300Y76070D02*
Y72300D01*
X133070D01*
X132361Y74013D01*
X131013Y75361D01*
X129300Y76070D01*
D02*
G37*
G36*
X87300D02*
X85587Y75361D01*
X84239Y74013D01*
X83530Y72300D01*
X87300D01*
Y76070D01*
D02*
G37*
G36*
X119300Y76070D02*
Y71300D01*
X117300D01*
Y76070D01*
X115587Y75361D01*
X114239Y74013D01*
X114112Y73706D01*
X112488D01*
X112361Y74013D01*
X111013Y75361D01*
X109300Y76070D01*
Y71300D01*
X107300D01*
Y76070D01*
X105587Y75361D01*
X104239Y74013D01*
X104112Y73706D01*
X102488D01*
X102361Y74013D01*
X101013Y75361D01*
X99300Y76070D01*
Y71300D01*
X97300D01*
Y76070D01*
X95587Y75361D01*
X94239Y74013D01*
X94112Y73706D01*
X92488D01*
X92361Y74013D01*
X91013Y75361D01*
X89300Y76070D01*
Y71300D01*
X88300D01*
Y70300D01*
X83530D01*
X84239Y68587D01*
X85587Y67239D01*
X85894Y67112D01*
Y65488D01*
X85587Y65361D01*
X84239Y64013D01*
X83530Y62300D01*
X88300D01*
Y60300D01*
X83530D01*
X84239Y58587D01*
X85587Y57239D01*
X85894Y57112D01*
Y55488D01*
X85587Y55361D01*
X84239Y54013D01*
X83530Y52300D01*
X88300D01*
Y51300D01*
X89300D01*
Y46530D01*
X91013Y47239D01*
X92361Y48587D01*
X92488Y48894D01*
X94112D01*
X94239Y48587D01*
X95587Y47239D01*
X97300Y46529D01*
Y51300D01*
X99300D01*
Y46530D01*
X101013Y47239D01*
X102361Y48587D01*
X102488Y48894D01*
X104112D01*
X104239Y48587D01*
X105587Y47239D01*
X107300Y46530D01*
Y51300D01*
X109300D01*
Y46530D01*
X111013Y47239D01*
X112361Y48587D01*
X112488Y48894D01*
X114112D01*
X114239Y48587D01*
X115587Y47239D01*
X117300Y46530D01*
Y51300D01*
X119300D01*
Y46529D01*
X121013Y47239D01*
X122361Y48587D01*
X122488Y48894D01*
X124112D01*
X124239Y48587D01*
X125587Y47239D01*
X127300Y46530D01*
Y51300D01*
X128300D01*
Y52300D01*
X133070D01*
X132361Y54013D01*
X131013Y55361D01*
X130706Y55488D01*
Y57112D01*
X131013Y57239D01*
X132361Y58587D01*
X133070Y60300D01*
X128300D01*
Y62300D01*
X133070D01*
X132361Y64013D01*
X131013Y65361D01*
X130706Y65488D01*
Y67112D01*
X131013Y67239D01*
X132361Y68587D01*
X133070Y70300D01*
X128300D01*
Y71300D01*
X127300D01*
Y76070D01*
X125587Y75361D01*
X124239Y74013D01*
X124112Y73706D01*
X122488D01*
X122361Y74013D01*
X121013Y75361D01*
X119300Y76070D01*
D02*
G37*
G36*
X26625Y91500D02*
X23375D01*
X20187Y90866D01*
X17184Y89622D01*
X14482Y87816D01*
X12184Y85518D01*
X10378Y82816D01*
X9134Y79813D01*
X8500Y76625D01*
Y73375D01*
X9134Y70187D01*
X10378Y67184D01*
X12184Y64482D01*
X14482Y62184D01*
X17184Y60378D01*
X20187Y59134D01*
X23375Y58500D01*
X26625D01*
X29813Y59134D01*
X32816Y60378D01*
X35518Y62184D01*
X37816Y64482D01*
X39622Y67184D01*
X40866Y70187D01*
X41500Y73375D01*
Y76625D01*
X40866Y79813D01*
X39622Y82816D01*
X37816Y85518D01*
X35518Y87816D01*
X32816Y89622D01*
X29813Y90866D01*
X26625Y91500D01*
D02*
G37*
G36*
X159046Y65050D02*
X157554D01*
X156176Y64479D01*
X155121Y63424D01*
X154550Y62046D01*
Y60554D01*
X155121Y59176D01*
X156176Y58121D01*
X157554Y57550D01*
X159046D01*
X160424Y58121D01*
X161479Y59176D01*
X162050Y60554D01*
Y62046D01*
X161479Y63424D01*
X160424Y64479D01*
X159046Y65050D01*
D02*
G37*
G36*
X59046D02*
X57554D01*
X56176Y64479D01*
X55121Y63424D01*
X54550Y62046D01*
Y60554D01*
X55121Y59176D01*
X56176Y58121D01*
X57554Y57550D01*
X59046D01*
X60424Y58121D01*
X61479Y59176D01*
X62050Y60554D01*
Y62046D01*
X61479Y63424D01*
X60424Y64479D01*
X59046Y65050D01*
D02*
G37*
G36*
Y55050D02*
X57554D01*
X56176Y54479D01*
X55121Y53424D01*
X55075Y53314D01*
X54698Y52897D01*
X53412Y53430D01*
X52019D01*
X50733Y52897D01*
X49748Y51913D01*
X49215Y50626D01*
Y49234D01*
X49748Y47948D01*
X50733Y46963D01*
X52019Y46430D01*
X53412D01*
X54698Y46963D01*
X55683Y47948D01*
X57202Y47696D01*
X57554Y47550D01*
X59046D01*
X60424Y48121D01*
X61479Y49176D01*
X62050Y50554D01*
Y52046D01*
X61479Y53424D01*
X60424Y54479D01*
X59046Y55050D01*
D02*
G37*
G36*
X69046Y65050D02*
X67554D01*
X66176Y64479D01*
X65121Y63424D01*
X64550Y62046D01*
Y60554D01*
X65121Y59176D01*
X66176Y58121D01*
X67554Y57550D01*
X68644D01*
X69487Y56652D01*
X69663Y56294D01*
X68934Y55050D01*
X67554D01*
X66176Y54479D01*
X65121Y53424D01*
X64550Y52046D01*
Y50554D01*
X65121Y49176D01*
X66176Y48121D01*
X67554Y47550D01*
X69046D01*
X70424Y48121D01*
X71479Y49176D01*
X72050Y50554D01*
Y51330D01*
X72304Y51500D01*
X73696D01*
X74983Y52033D01*
X75967Y53017D01*
X76500Y54304D01*
Y55696D01*
X75967Y56983D01*
X74983Y57967D01*
X73696Y58500D01*
X72763D01*
X71909Y59530D01*
X71773Y59886D01*
X72050Y60554D01*
Y62046D01*
X71479Y63424D01*
X70424Y64479D01*
X69046Y65050D01*
D02*
G37*
G36*
X133070Y50300D02*
X129300D01*
Y46530D01*
X131013Y47239D01*
X132361Y48587D01*
X133070Y50300D01*
D02*
G37*
G36*
X87300D02*
X83530D01*
X84239Y48587D01*
X85587Y47239D01*
X87300Y46530D01*
Y50300D01*
D02*
G37*
G36*
X188696Y52500D02*
X187304D01*
X186017Y51967D01*
X185033Y50983D01*
X184500Y49696D01*
Y48304D01*
X185033Y47017D01*
X186017Y46033D01*
X187304Y45500D01*
X188696D01*
X189983Y46033D01*
X190967Y47017D01*
X191500Y48304D01*
Y49696D01*
X190967Y50983D01*
X189983Y51967D01*
X188696Y52500D01*
D02*
G37*
G36*
X69046Y45050D02*
X67554D01*
X66176Y44479D01*
X65121Y43424D01*
X64550Y42046D01*
Y40554D01*
X65121Y39176D01*
X66176Y38121D01*
X67554Y37550D01*
X69046D01*
X70424Y38121D01*
X71479Y39176D01*
X72050Y40554D01*
Y42046D01*
X71479Y43424D01*
X70424Y44479D01*
X69046Y45050D01*
D02*
G37*
G36*
X59046D02*
X57554D01*
X56176Y44479D01*
X55121Y43424D01*
X54550Y42046D01*
Y40554D01*
X55121Y39176D01*
X56176Y38121D01*
X57554Y37550D01*
X59046D01*
X60424Y38121D01*
X61479Y39176D01*
X62050Y40554D01*
Y42046D01*
X61479Y43424D01*
X60424Y44479D01*
X59046Y45050D01*
D02*
G37*
G36*
X48696Y43500D02*
X47304D01*
X46017Y42967D01*
X45033Y41983D01*
X44500Y40696D01*
Y39304D01*
X45033Y38017D01*
X46017Y37033D01*
X47304Y36500D01*
X48696D01*
X49983Y37033D01*
X50967Y38017D01*
X51500Y39304D01*
Y40696D01*
X50967Y41983D01*
X49983Y42967D01*
X48696Y43500D01*
D02*
G37*
G36*
X69046Y35050D02*
X67554D01*
X66176Y34479D01*
X65121Y33424D01*
X64601Y32168D01*
X64000Y31881D01*
X63050Y31597D01*
X61660Y32986D01*
X61479Y33424D01*
X60424Y34479D01*
X59046Y35050D01*
X57554D01*
X56176Y34479D01*
X55121Y33424D01*
X54550Y32046D01*
Y30554D01*
X55121Y29176D01*
X56176Y28121D01*
X56614Y27940D01*
X57077Y27476D01*
X56636Y25796D01*
X55587Y25361D01*
X54239Y24013D01*
X53530Y22300D01*
X58300D01*
Y21300D01*
X59300D01*
Y16530D01*
X61013Y17239D01*
X62361Y18587D01*
X62796Y19636D01*
X64476Y20078D01*
X64940Y19614D01*
X65121Y19176D01*
X66176Y18121D01*
X67554Y17550D01*
X69046D01*
X70424Y18121D01*
X71479Y19176D01*
X72050Y20554D01*
Y22046D01*
X71479Y23424D01*
X70424Y24479D01*
X69986Y24660D01*
X68597Y26050D01*
X68881Y27000D01*
X69168Y27600D01*
X70424Y28121D01*
X71479Y29176D01*
X72050Y30554D01*
Y32046D01*
X71479Y33424D01*
X70424Y34479D01*
X69046Y35050D01*
D02*
G37*
G36*
X217118Y71500D02*
X212882D01*
X208729Y70674D01*
X204816Y69053D01*
X201295Y66700D01*
X198300Y63705D01*
X195947Y60184D01*
X194326Y56271D01*
X193500Y52118D01*
Y47882D01*
X194326Y43729D01*
X195947Y39816D01*
X198300Y36295D01*
X201295Y33300D01*
X204816Y30947D01*
X208729Y29326D01*
X212882Y28500D01*
X217118D01*
X221271Y29326D01*
X225184Y30947D01*
X228705Y33300D01*
X231700Y36295D01*
X234053Y39816D01*
X235674Y43729D01*
X236500Y47882D01*
Y52118D01*
X235674Y56271D01*
X234053Y60184D01*
X231700Y63705D01*
X228705Y66700D01*
X225184Y69053D01*
X221271Y70674D01*
X217118Y71500D01*
D02*
G37*
G36*
X57300Y20300D02*
X53530D01*
X54239Y18587D01*
X55587Y17239D01*
X57300Y16530D01*
Y20300D01*
D02*
G37*
G36*
X217696Y20500D02*
X216304D01*
X215017Y19967D01*
X214033Y18983D01*
X213500Y17696D01*
Y16304D01*
X214033Y15017D01*
X215017Y14033D01*
X216304Y13500D01*
X217696D01*
X218983Y14033D01*
X219967Y15017D01*
X220500Y16304D01*
Y17696D01*
X219967Y18983D01*
X218983Y19967D01*
X217696Y20500D01*
D02*
G37*
G36*
X13446Y18500D02*
X12054D01*
X10767Y17967D01*
X9783Y16983D01*
X9250Y15696D01*
Y14304D01*
X9783Y13017D01*
X10767Y12033D01*
X12054Y11500D01*
X13446D01*
X14733Y12033D01*
X15717Y13017D01*
X16250Y14304D01*
Y15696D01*
X15717Y16983D01*
X14733Y17967D01*
X13446Y18500D01*
D02*
G37*
%LPD*%
D51*
X73000Y436135D02*
Y440000D01*
X68300Y431435D02*
X73000Y436135D01*
X68300Y431300D02*
Y431435D01*
X134528Y227125D02*
X142403Y235000D01*
X92415Y235550D02*
X121547D01*
X151400Y235000D02*
X153000Y236600D01*
X142403Y235000D02*
X151400D01*
X129972Y227125D02*
X134528D01*
X121547Y235550D02*
X129972Y227125D01*
X53000Y89000D02*
X55865D01*
X63650Y96650D02*
X68300Y101300D01*
X64000Y86000D02*
Y86865D01*
X68300Y91165D02*
Y91300D01*
X64000Y86865D02*
X68300Y91165D01*
X55865Y89000D02*
X58165Y91300D01*
X58300D01*
X108300Y251300D02*
Y251300D01*
X113000Y256000D01*
X108300Y241300D02*
X113000Y246000D01*
X63000Y436135D02*
Y440000D01*
X58300Y431435D02*
X63000Y436135D01*
X58300Y431300D02*
Y431435D01*
X78300Y431300D02*
X83000Y436000D01*
X98204Y128204D02*
Y131204D01*
X97000Y127000D02*
X98204Y128204D01*
X78435Y141300D02*
X83135Y136600D01*
X83600D01*
X88300Y141300D01*
X78300D02*
X78435D01*
X78300Y251300D02*
X83000Y256000D01*
X83465D02*
X88165Y251300D01*
X88300D01*
X83000Y256000D02*
X83465D01*
X63000Y26600D02*
X68300Y21300D01*
X58300Y31300D02*
X63000Y26600D01*
X68300Y21300D02*
X68300D01*
X63600Y206000D02*
X68300Y201300D01*
X97000Y118000D02*
Y127000D01*
X124132Y9000D02*
X131732Y16600D01*
X133600D01*
X138300Y21300D01*
X101200Y9000D02*
X124132D01*
X93600Y16600D02*
X101200Y9000D01*
X171000Y347222D02*
X171500Y347722D01*
X171000Y352778D02*
X171500Y352278D01*
X171000Y352778D02*
Y358600D01*
Y340000D02*
Y347222D01*
X171500Y347722D02*
Y352278D01*
X164300Y365300D02*
X171000Y358600D01*
X147000Y340000D02*
X171000D01*
X163000Y266000D02*
X171000Y274000D01*
Y340000D01*
X165600Y366600D02*
X171000Y372000D01*
X269657D01*
X272000Y369657D01*
Y138000D02*
Y369657D01*
X170945Y25813D02*
Y45399D01*
X160682Y15550D02*
X170945Y25813D01*
Y53945D02*
X208500Y91500D01*
X168500Y43055D02*
X168601D01*
X160191D02*
X168500D01*
X83000Y236600D02*
X84050Y235550D01*
X78300Y241300D02*
X83000Y236600D01*
X158435Y41300D02*
X160191Y43055D01*
X158300Y41300D02*
X158435D01*
X168601Y43055D02*
X170945Y45399D01*
Y53945D01*
X208500Y91500D02*
X211788Y88212D01*
X192000Y108000D02*
X208500Y91500D01*
X97000Y118000D02*
X107000Y108000D01*
X192000D01*
X211788Y84000D02*
Y88212D01*
X250000Y116000D02*
X272000Y138000D01*
X163000Y366600D02*
X165600D01*
X244000Y116000D02*
X250000D01*
X171000Y340000D02*
X171000Y340000D01*
X144000Y343000D02*
X147000Y340000D01*
X137000Y84000D02*
X141000D01*
X148300Y91300D01*
X166000Y125000D02*
X235000D01*
X244000Y116000D01*
Y102000D02*
Y116000D01*
X211788Y84000D02*
X226000D01*
X244000Y102000D01*
X153600Y46000D02*
X158300Y41300D01*
X143465Y126600D02*
X148165Y131300D01*
X148300D01*
X143000Y126600D02*
X143465D01*
X163000Y146600D02*
X171843Y137757D01*
X158300Y151300D02*
X163000Y146600D01*
X95550Y125550D02*
X97000Y127000D01*
X144000Y343000D02*
X148300Y347300D01*
X138550Y348450D02*
X144000Y343000D01*
X141000Y340000D02*
X144000Y343000D01*
X87000Y340000D02*
X141000D01*
X154868Y236600D02*
X156468Y235000D01*
X153000Y236600D02*
X154868D01*
X160132Y235000D02*
X168500Y243368D01*
X156468Y235000D02*
X160132D01*
X163000Y266000D02*
X168500Y260500D01*
Y243368D02*
Y260500D01*
X171843Y130843D02*
Y137757D01*
X166000Y125000D02*
X171843Y130843D01*
X148300Y131300D02*
X154600Y125000D01*
X166000D01*
X161796Y51204D02*
X163000Y50000D01*
X158396Y51204D02*
X161796D01*
X158300Y51300D02*
X158396Y51204D01*
X148300Y21300D02*
X148435D01*
X154185Y15550D01*
X160682D01*
X83000Y364000D02*
X85465D01*
X81135D02*
X83000D01*
X92415Y235550D02*
X98165Y241300D01*
X84050Y235550D02*
X92415D01*
X138396Y351069D02*
X138550Y350915D01*
Y348450D02*
Y350915D01*
X148300Y347300D02*
Y351300D01*
X138300Y241300D02*
X148300D01*
X68300D02*
X68300D01*
X63000Y246600D02*
X68300Y241300D01*
X83000Y26600D02*
X83600D01*
X88204Y31204D01*
X78300Y211300D02*
X78435D01*
X80735Y209000D01*
X83000D01*
X98204Y131204D02*
X98300Y131300D01*
X84185Y125550D02*
X95550D01*
X98204Y138204D02*
Y141204D01*
X98300Y141300D01*
X78435Y131300D02*
X84185Y125550D01*
X78300Y131300D02*
X78435D01*
X85465Y364000D02*
X88165Y361300D01*
X78435D02*
X81135Y364000D01*
X88165Y361300D02*
X88300D01*
X78300D02*
X78435D01*
X98165Y241300D02*
X98300D01*
X138300Y311300D02*
X148300Y321300D01*
X138300Y421300D02*
X148300Y431300D01*
X78000Y340000D02*
X87000D01*
X98300Y351300D01*
X78000Y340000D02*
X78300Y340300D01*
Y351300D01*
X58300Y361300D02*
X68300Y351300D01*
X58300Y361300D02*
X58300D01*
X84185Y15550D02*
X92550D01*
X93600Y16600D01*
X78435Y21300D02*
X84185Y15550D01*
X78300Y21300D02*
X78435D01*
X158300Y31300D02*
X163000Y36000D01*
X123600D02*
X128300Y31300D01*
X143000Y96000D02*
X148300Y101300D01*
X53000Y103000D02*
X54604Y101396D01*
X58204D02*
X58300Y101300D01*
X54604Y101396D02*
X58204D01*
X134135Y367000D02*
X135000D01*
X128435Y361300D02*
X134135Y367000D01*
X128300Y361300D02*
X128435D01*
X153600Y166000D02*
X158300Y161300D01*
X148300Y421300D02*
X153000Y416600D01*
X138300Y421300D02*
X143000Y416600D01*
X93600Y16600D02*
X98300Y21300D01*
X93600Y26600D02*
X98300Y31300D01*
X78300D02*
X83000Y26600D01*
X103600Y16600D02*
X108300Y21300D01*
X103600Y26600D02*
X108300Y31300D01*
X138300Y91300D02*
X143000Y96000D01*
X158300Y141300D02*
X163000Y136600D01*
X138300Y131300D02*
X143000Y126600D01*
X128300Y141300D02*
X133000Y136600D01*
X158300Y251300D02*
X163000Y246600D01*
X143600Y196600D02*
X148300Y201300D01*
X138300D02*
X143000Y206000D01*
X53600D02*
X58300Y201300D01*
X158300Y271300D02*
X163000Y276000D01*
X158300Y261300D02*
X163000Y266000D01*
X58300Y251300D02*
X63000Y246600D01*
X93600D02*
X98300Y251300D01*
Y241300D02*
X103000Y246000D01*
X148300Y241300D02*
X153000Y236600D01*
X128300Y251300D02*
X133000Y256000D01*
X143600Y326000D02*
X148300Y321300D01*
X143600Y306600D02*
X148300Y311300D01*
X78300D02*
X83000Y316000D01*
X63600Y306600D02*
X68300Y311300D01*
X58300D02*
X63000Y316000D01*
X158300Y381300D02*
X163000Y386000D01*
X158300Y371300D02*
X163000Y366600D01*
X158300Y361300D02*
X163000Y356600D01*
X103600Y346600D02*
X108300Y351300D01*
X103600Y356600D02*
X108300Y361300D01*
X93600Y356600D02*
X98300Y361300D01*
X53600Y356600D02*
X58300Y361300D01*
X53600Y416600D02*
X58300Y421300D01*
X63600Y416600D02*
X68300Y421300D01*
X73600Y416600D02*
X78300Y421300D01*
D52*
X37000Y278000D02*
X50000Y265000D01*
X10000Y278000D02*
X37000D01*
X49036Y253965D02*
X50000Y254929D01*
X46434Y249434D02*
X49036Y252036D01*
Y253965D01*
X50000Y254929D02*
Y265000D01*
X37000Y245000D02*
X37271D01*
X41705Y249434D01*
X46434D01*
D53*
X34000Y402000D02*
Y425788D01*
Y402000D02*
X38000Y398000D01*
Y391217D02*
Y398000D01*
X46090Y463500D02*
X156500D01*
X31800Y449210D02*
X46090Y463500D01*
X31800Y427988D02*
Y449210D01*
Y427988D02*
X34000Y425788D01*
X48500Y418713D02*
X50000Y420212D01*
X48000Y410149D02*
X48500Y410649D01*
X48000Y323000D02*
Y410149D01*
X48500Y410649D02*
Y418713D01*
X50000Y420212D02*
Y436250D01*
X114000Y228000D02*
X119975Y222025D01*
X32000Y228000D02*
X114000D01*
X119975Y222025D02*
X141025D01*
X109530Y222000D02*
X114530Y217000D01*
X38257Y222000D02*
X109530D01*
X114530Y217000D02*
X145000D01*
X34300Y218043D02*
X38257Y222000D01*
X148900Y229900D02*
X164900D01*
X141025Y222025D02*
X148900Y229900D01*
X145000Y217000D02*
X151300Y223300D01*
X168300D01*
X24000Y220000D02*
X32000Y228000D01*
X168300Y223300D02*
X210000Y265000D01*
X164900Y229900D02*
X210000Y275000D01*
X13000Y115000D02*
X26940D01*
X36900Y124960D01*
Y128112D01*
X44788Y136000D02*
X51783D01*
X36900Y128112D02*
X44788Y136000D01*
X68300Y126300D02*
Y131300D01*
X64800Y122800D02*
X68300Y126300D01*
X56474Y122800D02*
X64800D01*
X54353Y124922D02*
X56474Y122800D01*
X54200Y127000D02*
X54353Y126847D01*
Y124922D02*
Y126847D01*
X34000Y102000D02*
X41859D01*
X27000Y109000D02*
X34000Y102000D01*
X41859D02*
X48959Y109100D01*
X58066D01*
X63600Y96600D02*
X63650Y96650D01*
Y103516D01*
X58066Y109100D02*
X63650Y103516D01*
X171600Y218600D02*
X198000Y245000D01*
X143150Y206150D02*
X155600Y218600D01*
X171600D01*
X156500Y463500D02*
X191000Y429000D01*
Y384900D02*
Y429000D01*
X186100Y380000D02*
X191000Y384900D01*
X3000Y287000D02*
X23000Y307000D01*
X32000D01*
X48000Y323000D01*
X28500Y257000D02*
X45000D01*
X14500Y243000D02*
X28500Y257000D01*
X9000Y243000D02*
X14500D01*
X178000Y298000D02*
X185000Y291000D01*
X207000D01*
X216100Y281900D01*
X220000Y235000D02*
X234000Y249000D01*
Y277788D01*
X212000Y235000D02*
X220000D01*
X205000Y228000D02*
X212000Y235000D01*
X199000Y231000D02*
X208000Y240000D01*
X217000D02*
X225000Y248000D01*
X208000Y240000D02*
X217000D01*
X216100Y247887D02*
Y281900D01*
X213353Y245000D02*
X215300Y246947D01*
X198000Y245000D02*
X208788D01*
X213213D02*
X213353D01*
X208888Y244900D02*
X213113D01*
X208788Y245000D02*
X208888Y244900D01*
X213113D02*
X213213Y245000D01*
X225000Y248000D02*
Y344462D01*
X245012Y364475D01*
X215300Y246947D02*
Y247087D01*
X216100Y247887D01*
X148549Y431549D02*
Y436332D01*
X149000Y436783D02*
Y437000D01*
X148300Y431300D02*
X148549Y431549D01*
Y436332D02*
X149000Y436783D01*
X184909Y302955D02*
X184955Y303000D01*
Y363955D01*
X185000Y364000D01*
X38000Y391217D02*
X40000Y389216D01*
Y389000D02*
Y389216D01*
X52700Y319916D02*
Y324776D01*
X51000Y318216D02*
X52700Y319916D01*
Y324776D02*
X54574Y326650D01*
X66331D01*
X51000Y318000D02*
Y318216D01*
X233900Y277887D02*
Y282113D01*
Y277887D02*
X234000Y277788D01*
Y321017D02*
X247125Y334142D01*
X234000Y282212D02*
Y321017D01*
X233900Y282113D02*
X234000Y282212D01*
X199000Y224000D02*
Y231000D01*
X68300Y131300D02*
X68300D01*
X58300Y141300D02*
X68300Y131300D01*
X158300Y181300D02*
X180000Y203000D01*
Y217000D01*
X3000Y125000D02*
Y287000D01*
X42756Y191712D02*
Y216046D01*
X32338Y149125D02*
X46781Y163568D01*
X42756Y191712D02*
X46781Y187687D01*
Y163568D02*
Y187687D01*
X18875Y149125D02*
X32338D01*
X24000Y177000D02*
Y220000D01*
Y177000D02*
X36000Y165000D01*
X34300Y178700D02*
Y218043D01*
X36000Y165000D02*
X40788D01*
X34300Y178700D02*
X40000Y173000D01*
X8500Y179500D02*
Y207500D01*
Y179500D02*
X19000Y169000D01*
X3000Y125000D02*
X13000Y115000D01*
X247125Y334142D02*
Y359375D01*
X245012Y364475D02*
X245508D01*
X246908Y365875D01*
X247125D01*
X78549Y101549D02*
Y104332D01*
X80000Y105784D02*
Y106000D01*
X78300Y101300D02*
X78549Y101549D01*
Y104332D02*
X80000Y105784D01*
X68205Y321395D02*
X68300Y321300D01*
X68205Y321395D02*
Y324776D01*
X66331Y326650D02*
X68205Y324776D01*
D54*
X32720Y315875D02*
X36674Y319830D01*
X17500Y315875D02*
X32720D01*
D55*
X148300Y81300D02*
X158300Y91300D01*
X97783Y160053D02*
Y160783D01*
Y156783D02*
Y160053D01*
X98300Y160569D01*
X97741Y160010D02*
X97783Y160053D01*
X96000Y155000D02*
X97783Y156783D01*
Y160783D02*
X98300Y161300D01*
Y160569D02*
Y161300D01*
X97741Y159950D02*
Y160010D01*
X93600Y216000D02*
X98300Y211300D01*
X118300Y141300D02*
X128300Y131300D01*
X118300Y141300D02*
X118300D01*
X108300Y180875D02*
X116000Y173175D01*
X118300Y175475D01*
Y171300D02*
Y175475D01*
X116000Y170000D02*
Y173175D01*
X108300Y180875D02*
Y181300D01*
X118300Y175475D02*
Y181158D01*
X116000Y169405D02*
X118300Y167105D01*
X108300Y171300D02*
Y181300D01*
X98300D02*
X108300D01*
X116000Y169405D02*
Y169500D01*
X108300Y161800D02*
Y171300D01*
Y161800D02*
X116000Y169500D01*
Y170000D01*
X108300Y161300D02*
Y161800D01*
X116000Y170000D02*
X116500D01*
X115405D02*
X116000D01*
X118300Y167105D02*
Y171300D01*
Y161442D02*
Y167105D01*
X122150Y165292D02*
X124308D01*
X128300Y161300D01*
X118300Y161442D02*
X122150Y165292D01*
X118300Y161300D02*
Y161442D01*
X122150Y165292D02*
Y171150D01*
Y177308D02*
X124308D01*
X128300Y181300D01*
X122150Y171150D02*
Y177308D01*
X118300Y181158D02*
Y181300D01*
Y181158D02*
X122150Y177308D01*
X114105Y171300D02*
X115405Y170000D01*
X117800Y171300D02*
X118300D01*
X116500Y170000D02*
X117800Y171300D01*
X108300D02*
X114105D01*
X118300D02*
X118375Y171225D01*
X122075D02*
X122150Y171150D01*
X118375Y171225D02*
X122075D01*
X122150Y171150D02*
X128150D01*
X128300Y171300D01*
X103300Y205700D02*
X108000Y201000D01*
X98600Y401000D02*
X103179Y396421D01*
X98300Y391300D02*
X100300D01*
X103421Y394421D01*
X100300Y391300D02*
X106368D01*
Y391817D02*
X107053D01*
X105896Y392289D02*
X106368Y391817D01*
X105154Y392289D02*
X105896D01*
X103940Y393503D02*
X105154Y392289D01*
X108300Y384300D02*
X111000Y387000D01*
X98300Y383000D02*
Y391000D01*
X108300Y381300D02*
Y384300D01*
Y389267D01*
X111000Y387000D02*
Y387083D01*
X108300Y391300D02*
X108817Y390783D01*
Y389267D02*
Y390783D01*
Y389267D02*
X111000Y387083D01*
X108300Y391300D02*
Y400858D01*
X111579Y397579D01*
Y394421D02*
Y397579D01*
Y394421D02*
X112000Y394000D01*
X108000Y401000D02*
X108158D01*
X98300Y401300D02*
X108300D01*
X103421Y394421D02*
Y396421D01*
X108000Y401000D01*
X98300D02*
X98600D01*
X98300D02*
Y401300D01*
Y391300D02*
Y401000D01*
X103000Y386800D02*
X108035Y381765D01*
X98300Y381300D02*
X108300D01*
X118300D01*
X103000Y386800D02*
Y387000D01*
X99000Y383000D02*
X103000Y387000D01*
X107500Y391000D02*
X108300D01*
X108800Y391300D02*
X118300D01*
X103500Y387000D02*
X107500Y391000D01*
X103000Y387000D02*
X103500D01*
X98300Y391000D02*
X98800D01*
X102800Y387000D02*
X103000D01*
X98800Y391000D02*
X102800Y387000D01*
X107569Y391300D02*
X108300D01*
X57783Y317360D02*
Y320783D01*
X54485Y314061D02*
X57783Y317360D01*
Y320783D02*
X58300Y321300D01*
X158300Y351300D02*
X159031D01*
X160331Y350000D02*
X166000D01*
X159031Y351300D02*
X160331Y350000D01*
X148300Y31300D02*
X158300Y21300D01*
X158300D01*
X58000Y131000D02*
X58300Y131300D01*
X139300Y251300D02*
X148300D01*
X138300D02*
X139300D01*
X138817Y250053D02*
Y250817D01*
Y250053D02*
X140579Y248290D01*
Y247421D02*
Y248290D01*
X138817Y250817D02*
X139300Y251300D01*
X140579Y247421D02*
X141000Y247000D01*
X153579Y244421D02*
Y246021D01*
X148300Y251300D02*
X153579Y246021D01*
Y244421D02*
X154000Y244000D01*
X155290Y243579D02*
X157569Y241300D01*
X158300D01*
X154421Y243579D02*
X155290D01*
X154000Y244000D02*
X154421Y243579D01*
X128300Y241300D02*
X138300Y251300D01*
X128300Y241300D02*
X128300D01*
X118300D02*
X128300D01*
X118300Y251300D02*
X128300Y241300D01*
X118300D02*
Y251300D01*
X148300D02*
Y261300D01*
X143000Y76000D02*
X148300Y81300D01*
X148300D01*
X108800Y391300D02*
X111500Y394000D01*
X112000D01*
X118300Y391300D02*
Y401300D01*
Y381300D02*
Y391300D01*
X128300D01*
X88300D02*
X98300D01*
X88300D02*
Y401300D01*
Y381300D02*
Y391300D01*
X118300Y401300D02*
X128300D01*
X108300D02*
X118300D01*
X88300D02*
X98300D01*
X128300Y391300D02*
Y401300D01*
Y381300D02*
Y391300D01*
X118300Y381300D02*
X128300D01*
X88300D02*
X98300D01*
X118300Y361300D02*
X128300Y351300D01*
X118300Y361300D02*
X118300D01*
X158300Y351300D02*
X158300D01*
X148300Y361300D02*
X158300Y351300D01*
X148300Y371300D02*
Y381300D01*
Y361300D02*
Y371300D01*
X138300Y361300D02*
X148300D01*
X118300Y351300D02*
Y361300D01*
Y351300D02*
X128300D01*
X88817Y291817D02*
Y294817D01*
X90000Y296000D01*
X88300Y291300D02*
X88817Y291817D01*
X118300Y291300D02*
X128300D01*
X108300D02*
X118300D01*
X98300D02*
X108300D01*
X88300D02*
X98300D01*
Y271300D02*
Y281300D01*
X107300Y271300D02*
X108300Y272300D01*
X107300Y271300D02*
X108300D01*
X98300D02*
X107300D01*
X108300Y272300D02*
Y281300D01*
X118300Y271300D02*
Y281300D01*
X128300Y271300D02*
Y281300D01*
X118300D02*
X128300D01*
X108300D02*
X118300D01*
X98300D02*
X108300D01*
X88300D02*
X98300D01*
X88300Y271300D02*
Y281300D01*
X118300Y271300D02*
X128300D01*
X108300D02*
X118300D01*
X88300D02*
X98300D01*
X118300Y31300D02*
X118300D01*
X128300Y21300D01*
X118300D02*
X128300D01*
X118300D02*
Y31300D01*
X148300Y41300D02*
Y51300D01*
Y31300D02*
Y41300D01*
X138300Y31300D02*
X148300D01*
X143000Y186000D02*
X143000D01*
X148300Y191300D01*
X153100Y156500D02*
X153500D01*
X148300Y161300D02*
X153100Y156500D01*
X143100Y156500D02*
X147900Y161300D01*
X148300D01*
Y151300D02*
X153500Y156500D01*
X154125D01*
X142000Y156500D02*
X143100D01*
X148300Y151300D01*
X158300Y131300D02*
X158300D01*
X148300Y141300D02*
X158300Y131300D01*
X148300Y151300D02*
Y161300D01*
Y141300D02*
Y151300D01*
X138300Y141300D02*
X148300D01*
X118000Y147000D02*
X118150Y146850D01*
Y141450D02*
X118300Y141300D01*
X118150Y141450D02*
Y146850D01*
X118300Y131300D02*
Y141300D01*
Y131300D02*
X128300D01*
X88300Y181300D02*
X98300D01*
X88300Y171300D02*
Y181300D01*
Y161300D02*
Y171300D01*
X118300Y181300D02*
X128300D01*
X108300D02*
X118300D01*
Y161300D02*
X128300D01*
X108300D02*
X118300D01*
X128300Y171300D02*
Y181300D01*
Y161300D02*
Y171300D01*
X98300D02*
X108300D01*
X88300Y61300D02*
Y71300D01*
Y51300D02*
Y61300D01*
X118300Y71300D02*
X128300D01*
X108300D02*
X118300D01*
X98300D02*
X108300D01*
X88300D02*
X98300D01*
X118300Y51300D02*
X128300D01*
X108300D02*
X118300D01*
X98300D02*
X108300D01*
X88300D02*
X98300D01*
Y61300D02*
Y71300D01*
Y51300D02*
Y61300D01*
X108300Y61400D02*
X118300D01*
X101178D02*
X108300D01*
Y71300D01*
Y61300D02*
Y61400D01*
Y51300D02*
Y61300D01*
X118300Y61400D02*
X128200D01*
X118300D02*
Y71300D01*
Y61300D02*
Y61400D01*
Y51300D02*
Y61300D01*
X128300D02*
Y71300D01*
Y51300D02*
Y61300D01*
X98300D02*
X101077D01*
X88300D02*
X98300D01*
X128200Y61400D02*
X128300Y61300D01*
X101077D02*
X101178Y61400D01*
X204600Y208695D02*
Y220267D01*
X237000Y182479D02*
Y219000D01*
X207900Y208695D02*
Y218900D01*
X214000Y225000D01*
X204600Y220267D02*
X212633Y228300D01*
X214000Y225000D02*
X226333D01*
X212633Y228300D02*
X227700D01*
X226333Y225000D02*
X233700Y217633D01*
X227700Y228300D02*
X237000Y219000D01*
X98300Y311300D02*
X103000Y316000D01*
X98300Y431300D02*
X103000Y436000D01*
X112000Y97000D02*
Y97300D01*
X108300Y91000D02*
Y91300D01*
Y101000D02*
X112000Y97300D01*
X108300Y101000D02*
Y101300D01*
Y91000D02*
X112000Y87300D01*
Y87000D02*
Y87300D01*
X182000Y158387D02*
Y165076D01*
X203189Y158700D02*
X208989Y152900D01*
X186354Y158700D02*
X203189D01*
X208989Y152900D02*
X221000D01*
X184988Y155400D02*
X201822D01*
X185300Y159754D02*
Y163710D01*
Y159754D02*
X186354Y158700D01*
X182000Y158387D02*
X184988Y155400D01*
X201822D02*
X207623Y149600D01*
X221000D01*
X209085Y133915D02*
X211962D01*
X212758Y133120D01*
X212296Y138249D02*
Y140704D01*
Y138249D02*
X214125Y136420D01*
X209000Y134000D02*
X209085Y133915D01*
X212000Y141000D02*
X212296Y140704D01*
X212758Y133120D02*
X237000D01*
X214125Y136420D02*
X224000D01*
X221000Y149600D02*
X240305D01*
X182000Y165076D02*
X184988Y168064D01*
X185300Y163710D02*
X186354Y164764D01*
X184988Y168064D02*
X207841D01*
X186354Y164764D02*
X207014D01*
X233700Y182000D02*
Y186160D01*
X231160Y188700D02*
X233700Y186160D01*
X231160Y188700D02*
Y191240D01*
X233700Y193780D01*
Y196320D01*
X231160Y198860D02*
X233700Y196320D01*
X231160Y198860D02*
Y201400D01*
X233700Y203940D01*
Y206480D01*
X231160Y209020D02*
X233700Y206480D01*
X231160Y209020D02*
Y211560D01*
X233700Y214100D01*
Y215000D01*
Y181112D02*
Y182000D01*
Y215000D02*
Y217633D01*
X221000Y152900D02*
X230145D01*
X232685Y155440D01*
X235225D01*
X237765Y152900D01*
X240305D01*
X241405Y154000D01*
X241405Y154000D01*
X232520Y136420D02*
X242000D01*
X229980Y138960D02*
X232520Y136420D01*
X227440Y138960D02*
X229980D01*
X224900Y136420D02*
X227440Y138960D01*
X224000Y136420D02*
X224900D01*
X242000D02*
X248153D01*
X241405Y173500D02*
X242000D01*
X237600Y177177D02*
Y177212D01*
X207610Y202168D02*
X212832D01*
X204600Y205177D02*
Y208695D01*
Y205177D02*
X207610Y202168D01*
X240305Y174600D02*
X241405Y173500D01*
X240058Y179421D02*
X241579D01*
X212832Y202168D02*
X213000Y202000D01*
X209000Y207000D02*
Y207595D01*
X241579Y179421D02*
X242000Y179000D01*
X237000Y182479D02*
X240058Y179421D01*
X233700Y181112D02*
X237600Y177212D01*
X207900Y208695D02*
X209000Y207595D01*
X240177Y174600D02*
X240305D01*
X237600Y177177D02*
X240177Y174600D01*
X237000Y133120D02*
X249520D01*
X262300Y145900D02*
Y188367D01*
X259000Y147267D02*
Y187000D01*
X211846Y170400D02*
X213446Y172000D01*
X207841Y168064D02*
X210177Y170400D01*
X213446Y172000D02*
X214000D01*
X210177Y170400D02*
X211846D01*
X207014Y164764D02*
X212778Y159000D01*
X213000D01*
X241405Y154000D02*
X242000D01*
X240305Y149600D02*
X241405Y148500D01*
X242000D01*
X249520Y133120D02*
X262300Y145900D01*
X247767Y202900D02*
X262300Y188367D01*
X248153Y136420D02*
X259000Y147267D01*
X246400Y199600D02*
X259000Y187000D01*
X242000Y204000D02*
X242595D01*
X243695Y202900D01*
X247767D01*
X243695Y199600D02*
X246400D01*
X242000Y198500D02*
X242595D01*
X243695Y199600D01*
X83000Y196000D02*
X88300Y201300D01*
X103600Y216000D02*
X108300Y211300D01*
X93600Y206000D02*
X98300Y201300D01*
X83600Y216000D02*
X88300Y211300D01*
Y101300D02*
X93000Y96600D01*
X88300Y91300D02*
X93000Y86600D01*
X98300Y101300D02*
X103000Y96600D01*
X98300Y91300D02*
X103000Y86600D01*
X108300Y421300D02*
X113000Y426000D01*
X98300Y421300D02*
X103000Y426000D01*
X108300Y431300D02*
X113000Y436000D01*
X88300Y421300D02*
X93000Y426000D01*
X88300Y431300D02*
X93000Y436000D01*
X108300Y321300D02*
X113000Y326000D01*
X108300Y311300D02*
X113000Y316000D01*
X98300Y321300D02*
X103000Y326000D01*
X88300Y311300D02*
X93000Y316000D01*
X88300Y321300D02*
X93000Y326000D01*
D56*
X36000Y431487D02*
X39000Y428487D01*
X36000Y431487D02*
Y443000D01*
X49600Y456600D01*
X39000Y428000D02*
Y428487D01*
X44100Y412189D02*
Y443100D01*
X42000Y410000D02*
Y410089D01*
X44100Y412189D01*
Y443100D02*
X53900Y452900D01*
X73595D01*
X32700Y133700D02*
X47025Y148025D01*
X29125Y123125D02*
X32700Y126700D01*
X51000Y117000D02*
X71000D01*
X42000Y126000D02*
X51000Y117000D01*
X32700Y126700D02*
Y133700D01*
X18875Y123125D02*
X29125D01*
X131513Y155000D02*
X133513Y157000D01*
X103450Y159291D02*
X107741Y155000D01*
X131513D01*
X133513Y157000D02*
X134000D01*
X103450Y159291D02*
Y163009D01*
X96291Y166150D02*
X100309D01*
X93150Y163009D02*
X96291Y166150D01*
X93150Y159291D02*
Y163009D01*
X100309Y166150D02*
X103450Y163009D01*
X79590Y153151D02*
X87010D01*
X73150Y146711D02*
X79590Y153151D01*
X87010D02*
X93150Y159291D01*
X73150Y119150D02*
Y146711D01*
X71000Y117000D02*
X73150Y119150D01*
X53000Y77889D02*
X54739Y76150D01*
X53000Y77889D02*
Y89000D01*
X47025Y148025D02*
Y157738D01*
X143150Y206150D02*
X152011D01*
X153450Y166150D02*
Y204711D01*
X143000Y206000D02*
X143150Y206150D01*
X152011D02*
X153450Y204711D01*
Y166150D02*
X153600Y166000D01*
X49600Y456600D02*
X72062D01*
X74762Y459300D02*
X81638D01*
X72062Y456600D02*
X74762Y459300D01*
X213000Y114000D02*
X229000Y98000D01*
X108300Y120700D02*
X115000Y114000D01*
X213000D01*
X108300Y120700D02*
Y131300D01*
X113450Y127550D02*
Y136150D01*
X122000Y119000D02*
X221500D01*
X113450Y127550D02*
X122000Y119000D01*
X108300Y141300D02*
X113450Y136150D01*
X221500Y119000D02*
X236500Y104000D01*
X87105Y448600D02*
X106400D01*
X73595Y452900D02*
X76295Y455600D01*
X81638Y459300D02*
X84338Y456600D01*
X80105Y455600D02*
X87105Y448600D01*
X76295Y455600D02*
X80105D01*
X84338Y456600D02*
X156400D01*
X166000Y376000D02*
X176000Y386000D01*
Y437000D01*
X111000Y444000D02*
X151000D01*
X106400Y448600D02*
X111000Y444000D01*
X151000D02*
X168000Y427000D01*
Y404000D02*
Y427000D01*
X158300Y401300D02*
X165300D01*
X168000Y404000D01*
X156400Y456600D02*
X176000Y437000D01*
X24000Y294000D02*
X31550Y286450D01*
X130309D01*
X140009Y296150D01*
X153450D01*
X158300Y291300D01*
X161661Y76559D02*
X162006Y76904D01*
X161661Y75284D02*
Y76559D01*
X158300Y71922D02*
X161661Y75284D01*
X158300Y71300D02*
Y71922D01*
X51000Y215000D02*
X51000D01*
X48500Y203888D02*
Y212500D01*
X53300Y217300D02*
X63459D01*
X48500Y212500D02*
X51000Y215000D01*
X51000D02*
X53300Y217300D01*
X52000Y162712D02*
Y200387D01*
X47025Y157738D02*
X52000Y162712D01*
X48500Y203888D02*
X52000Y200387D01*
X63459Y217300D02*
X64759Y216000D01*
X103600Y126600D02*
X108300Y131300D01*
X64759Y216000D02*
X73000D01*
X68300Y211300D02*
X73000Y216000D01*
X103600Y136600D02*
X108300Y141300D01*
X63150Y196450D02*
X73450D01*
X78300Y201300D01*
X58300D02*
X63150Y196450D01*
X54739Y76150D02*
X74150D01*
X78300Y80300D02*
Y91300D01*
X74150Y76150D02*
X78300Y80300D01*
X84656Y300344D02*
X85000Y300000D01*
X82397Y300344D02*
X84656D01*
X73450Y309291D02*
X82397Y300344D01*
X73450Y309291D02*
Y316450D01*
X78300Y321300D01*
D57*
X138300Y21300D02*
X148300D01*
X78300Y421300D02*
Y421300D01*
D58*
X215000Y439000D02*
D03*
Y50000D02*
D03*
D59*
X18500Y454000D02*
D03*
X25000Y423375D02*
D03*
X2804Y416196D02*
D03*
X39000Y428000D02*
D03*
X42000Y410000D02*
D03*
X133000Y256000D02*
D03*
X26000Y301000D02*
D03*
X73000Y55000D02*
D03*
X36674Y319830D02*
D03*
X17500Y315875D02*
D03*
X50000Y436250D02*
D03*
X73000Y440000D02*
D03*
X63000Y264750D02*
D03*
X132250Y232625D02*
D03*
X42000Y126000D02*
D03*
X134000Y157000D02*
D03*
X52716Y49930D02*
D03*
X42000Y112000D02*
D03*
X53000Y89000D02*
D03*
X63600Y96600D02*
D03*
X64000Y86000D02*
D03*
X204000Y190000D02*
D03*
X113000Y256000D02*
D03*
Y246000D02*
D03*
X63000Y440000D02*
D03*
X83000Y436000D02*
D03*
X79998Y111500D02*
D03*
X83600Y136600D02*
D03*
X83000Y256000D02*
D03*
X63000Y26600D02*
D03*
X63600Y206000D02*
D03*
X49000Y31000D02*
D03*
Y20000D02*
D03*
X12000Y343000D02*
D03*
X4000Y385000D02*
D03*
Y407000D02*
D03*
X23000D02*
D03*
Y413000D02*
D03*
X4000Y426000D02*
D03*
X195000Y453000D02*
D03*
X198000Y421000D02*
D03*
X194000Y37000D02*
D03*
X179000Y25000D02*
D03*
Y16000D02*
D03*
X172000D02*
D03*
X226000Y75000D02*
D03*
X233000Y68000D02*
D03*
X3000Y92000D02*
D03*
Y100000D02*
D03*
X11000D02*
D03*
X3000Y4000D02*
D03*
Y16000D02*
D03*
Y32000D02*
D03*
X20681Y32660D02*
D03*
X21000Y49000D02*
D03*
X3000D02*
D03*
X188000D02*
D03*
X243000Y307000D02*
D03*
X133600Y16600D02*
D03*
X140000Y176000D02*
D03*
X93600Y216000D02*
D03*
X116000Y170000D02*
D03*
X122150Y171150D02*
D03*
X103000Y387000D02*
D03*
Y394000D02*
D03*
X78000Y328000D02*
D03*
X165000Y321000D02*
D03*
Y330000D02*
D03*
X104000Y258000D02*
D03*
X133000Y326000D02*
D03*
X76000Y188000D02*
D03*
X140000Y157000D02*
D03*
X122000Y84000D02*
D03*
X230000Y24000D02*
D03*
X207000Y75000D02*
D03*
X233000D02*
D03*
X241000Y235000D02*
D03*
Y257000D02*
D03*
Y270000D02*
D03*
X140000Y170000D02*
D03*
Y163000D02*
D03*
X143000Y376500D02*
D03*
X187000Y444000D02*
D03*
X166000Y350000D02*
D03*
X59000Y336000D02*
D03*
X80000Y333000D02*
D03*
X37000Y302000D02*
D03*
X54000Y277000D02*
D03*
X93300Y271300D02*
D03*
X58300Y211300D02*
D03*
X168000Y208000D02*
D03*
X98000Y109000D02*
D03*
X83916Y145595D02*
D03*
X58000Y131000D02*
D03*
X141000Y247000D02*
D03*
X139000Y270000D02*
D03*
X154000Y244000D02*
D03*
X177000Y319000D02*
D03*
X158000Y330000D02*
D03*
X129000Y84000D02*
D03*
X112000Y394000D02*
D03*
X111000Y387000D02*
D03*
X4000Y396000D02*
D03*
Y343000D02*
D03*
X237000Y422000D02*
D03*
X220000Y382000D02*
D03*
X240000Y142000D02*
D03*
X242000Y189000D02*
D03*
X241000Y163000D02*
D03*
X49000Y9000D02*
D03*
X40000Y20000D02*
D03*
X35000Y10000D02*
D03*
X68000Y9000D02*
D03*
X179000Y7000D02*
D03*
X134000Y6000D02*
D03*
X184000Y452000D02*
D03*
X10000Y278000D02*
D03*
X37000Y245000D02*
D03*
X24000Y294000D02*
D03*
X12750Y15000D02*
D03*
X17250Y199000D02*
D03*
X165500Y294000D02*
D03*
X178000Y298000D02*
D03*
X124379Y205621D02*
D03*
X149000Y437000D02*
D03*
X184909Y302955D02*
D03*
X185000Y364000D02*
D03*
X186100Y380000D02*
D03*
X40000Y389000D02*
D03*
X210784Y258000D02*
D03*
X211000Y250000D02*
D03*
X199000Y224000D02*
D03*
X205000Y228000D02*
D03*
X137000Y84000D02*
D03*
X103600Y126600D02*
D03*
Y136600D02*
D03*
X78200Y451000D02*
D03*
X54200Y127000D02*
D03*
X163000Y50000D02*
D03*
X166000Y376000D02*
D03*
X239000Y280000D02*
D03*
X240000Y226000D02*
D03*
X180000Y217000D02*
D03*
X162006Y76904D02*
D03*
X42756Y216046D02*
D03*
X41000Y165000D02*
D03*
X40000Y173000D02*
D03*
X26875Y129875D02*
D03*
X8500Y207500D02*
D03*
X9000Y243000D02*
D03*
X229000Y98000D02*
D03*
X236500Y104000D02*
D03*
X25000Y143000D02*
D03*
X24000Y155000D02*
D03*
X36000Y462000D02*
D03*
X217000Y17000D02*
D03*
X248000Y307000D02*
D03*
X144000Y343000D02*
D03*
X140000Y392000D02*
D03*
X103000Y316000D02*
D03*
X127000Y414000D02*
D03*
X103000Y436000D02*
D03*
X138000Y400000D02*
D03*
X112000Y97000D02*
D03*
Y87000D02*
D03*
X180000Y143595D02*
D03*
X200000Y151000D02*
D03*
X212000Y141000D02*
D03*
X209000Y134000D02*
D03*
X83000Y209000D02*
D03*
X97000Y127000D02*
D03*
X98204Y138204D02*
D03*
X138000Y407000D02*
D03*
X190000Y135000D02*
D03*
X83000Y364000D02*
D03*
X75000Y376000D02*
D03*
X81000Y374000D02*
D03*
X93000Y175000D02*
D03*
X80000Y106000D02*
D03*
X82000Y162000D02*
D03*
X78000Y340000D02*
D03*
X163000Y36000D02*
D03*
X153600Y46000D02*
D03*
X156003Y9501D02*
D03*
X123600Y36000D02*
D03*
X19000Y169000D02*
D03*
X113000Y452000D02*
D03*
X120211Y194790D02*
D03*
X134000Y196000D02*
D03*
X82000Y168000D02*
D03*
X138000Y191000D02*
D03*
X52000Y143000D02*
D03*
X27000Y109000D02*
D03*
X45000Y257000D02*
D03*
X135000Y367000D02*
D03*
X91000Y414000D02*
D03*
X78000Y381000D02*
D03*
X103000Y57000D02*
D03*
X76000Y278000D02*
D03*
X85000Y300000D02*
D03*
X51000Y318000D02*
D03*
X48000Y40000D02*
D03*
X210000Y265000D02*
D03*
Y275000D02*
D03*
X18875Y162125D02*
D03*
X52125Y155625D02*
D03*
Y149125D02*
D03*
X52000Y136000D02*
D03*
X18875Y123125D02*
D03*
Y136125D02*
D03*
Y149125D02*
D03*
X247125Y359375D02*
D03*
Y365875D02*
D03*
Y378875D02*
D03*
Y385375D02*
D03*
Y398375D02*
D03*
Y404875D02*
D03*
X210875Y359125D02*
D03*
Y365625D02*
D03*
Y378625D02*
D03*
X211000Y385000D02*
D03*
X242000Y154000D02*
D03*
Y148500D02*
D03*
Y179000D02*
D03*
Y173500D02*
D03*
Y204000D02*
D03*
Y198500D02*
D03*
X100000Y367000D02*
D03*
X112000D02*
D03*
X131000Y187000D02*
D03*
X108000Y194000D02*
D03*
X83000Y196000D02*
D03*
X195000Y209000D02*
D03*
X169000Y149000D02*
D03*
X166000Y164000D02*
D03*
X165000Y172000D02*
D03*
X167000Y182000D02*
D03*
X176000Y181000D02*
D03*
X93000Y190000D02*
D03*
X139000Y151000D02*
D03*
X133000Y147000D02*
D03*
X102000Y153000D02*
D03*
Y146000D02*
D03*
X103300Y205700D02*
D03*
X103600Y216000D02*
D03*
X93600Y206000D02*
D03*
X83600Y216000D02*
D03*
X93000Y96600D02*
D03*
Y86600D02*
D03*
X103000Y96600D02*
D03*
Y86600D02*
D03*
X113000Y426000D02*
D03*
X103000D02*
D03*
X113000Y436000D02*
D03*
X93000Y426000D02*
D03*
Y436000D02*
D03*
X153600Y166000D02*
D03*
X184000Y138000D02*
D03*
X213000Y159000D02*
D03*
X214000Y172000D02*
D03*
X209000Y207000D02*
D03*
X213000Y202000D02*
D03*
X187000Y209000D02*
D03*
X114000Y195000D02*
D03*
X83000Y176000D02*
D03*
X103000Y184000D02*
D03*
X83000Y188000D02*
D03*
X79000Y410000D02*
D03*
X92000Y407000D02*
D03*
X115000Y416000D02*
D03*
X121000Y411000D02*
D03*
X75000Y386000D02*
D03*
X129000Y373000D02*
D03*
X125000Y368000D02*
D03*
X139000Y372000D02*
D03*
X138000Y383000D02*
D03*
X153000Y416600D02*
D03*
X143000D02*
D03*
X113000Y326000D02*
D03*
Y316000D02*
D03*
X103000Y326000D02*
D03*
X93000Y316000D02*
D03*
Y326000D02*
D03*
X93600Y16600D02*
D03*
Y26600D02*
D03*
X83000D02*
D03*
X103600Y16600D02*
D03*
Y26600D02*
D03*
X143000Y96000D02*
D03*
X163000Y146600D02*
D03*
Y136600D02*
D03*
X143000Y126600D02*
D03*
X133000Y136600D02*
D03*
X163000Y246600D02*
D03*
X143600Y196600D02*
D03*
X143000Y206000D02*
D03*
X73000Y216000D02*
D03*
X53600Y206000D02*
D03*
X163000Y276000D02*
D03*
Y266000D02*
D03*
X83000Y236600D02*
D03*
X63000Y246600D02*
D03*
X93600D02*
D03*
X103000Y246000D02*
D03*
X153000Y236600D02*
D03*
X143600Y326000D02*
D03*
Y306600D02*
D03*
X83000Y316000D02*
D03*
X63600Y306600D02*
D03*
X63000Y316000D02*
D03*
X163000Y386000D02*
D03*
Y366600D02*
D03*
Y356600D02*
D03*
X103600Y346600D02*
D03*
Y356600D02*
D03*
X93600D02*
D03*
X53600D02*
D03*
Y416600D02*
D03*
X63600D02*
D03*
X73600Y416600D02*
D03*
X212000Y166000D02*
D03*
X196000Y138000D02*
D03*
X176000Y150000D02*
D03*
X167000Y157000D02*
D03*
X182057Y183943D02*
D03*
X190000Y194000D02*
D03*
X124000Y147000D02*
D03*
X118000D02*
D03*
X111000D02*
D03*
X106000Y368000D02*
D03*
X77000Y393000D02*
D03*
X77600Y400000D02*
D03*
X106000Y415000D02*
D03*
X100000D02*
D03*
D61*
X58300Y21300D02*
D03*
X68300D02*
D03*
X78300D02*
D03*
X88300D02*
D03*
X98300D02*
D03*
X108300D02*
D03*
X118300D02*
D03*
X128300D02*
D03*
X138300D02*
D03*
X148300D02*
D03*
X158300D02*
D03*
X58300Y31300D02*
D03*
X68300D02*
D03*
X78300D02*
D03*
X88300D02*
D03*
X98300D02*
D03*
X108300D02*
D03*
X118300D02*
D03*
X128300D02*
D03*
X138300D02*
D03*
X148300D02*
D03*
X158300D02*
D03*
X58300Y41300D02*
D03*
X68300D02*
D03*
X148300D02*
D03*
X158300D02*
D03*
X58300Y51300D02*
D03*
X68300D02*
D03*
X88300D02*
D03*
X98300D02*
D03*
X108300D02*
D03*
X118300D02*
D03*
X128300D02*
D03*
X148300D02*
D03*
X158300D02*
D03*
X58300Y61300D02*
D03*
X68300D02*
D03*
X88300D02*
D03*
X98300D02*
D03*
X108300D02*
D03*
X118300D02*
D03*
X128300D02*
D03*
X148300D02*
D03*
X158300D02*
D03*
X58300Y71300D02*
D03*
X68300D02*
D03*
X88300D02*
D03*
X98300D02*
D03*
X108300D02*
D03*
X118300D02*
D03*
X128300D02*
D03*
X148300D02*
D03*
X158300D02*
D03*
X58300Y81300D02*
D03*
X68300D02*
D03*
X148300D02*
D03*
X158300D02*
D03*
X58300Y91300D02*
D03*
X68300D02*
D03*
X78300D02*
D03*
X88300D02*
D03*
X98300D02*
D03*
X108300D02*
D03*
X118300D02*
D03*
X128300D02*
D03*
X138300D02*
D03*
X148300D02*
D03*
X158300D02*
D03*
X58300Y101300D02*
D03*
X68300D02*
D03*
X78300D02*
D03*
X88300D02*
D03*
X98300D02*
D03*
X108300D02*
D03*
X118300D02*
D03*
X128300D02*
D03*
X138300D02*
D03*
X148300D02*
D03*
Y211300D02*
D03*
X138300D02*
D03*
X128300D02*
D03*
X118300D02*
D03*
X108300D02*
D03*
X98300D02*
D03*
X88300D02*
D03*
X78300D02*
D03*
X68300D02*
D03*
X58300D02*
D03*
X158300Y201300D02*
D03*
X148300D02*
D03*
X138300D02*
D03*
X128300D02*
D03*
X118300D02*
D03*
X108300D02*
D03*
X98300D02*
D03*
X88300D02*
D03*
X78300D02*
D03*
X68300D02*
D03*
X58300D02*
D03*
X158300Y191300D02*
D03*
X148300D02*
D03*
X68300D02*
D03*
X58300D02*
D03*
X158300Y181300D02*
D03*
X148300D02*
D03*
X128300D02*
D03*
X118300D02*
D03*
X108300D02*
D03*
X98300D02*
D03*
X88300D02*
D03*
X68300D02*
D03*
X58300D02*
D03*
X158300Y171300D02*
D03*
X148300D02*
D03*
X128300D02*
D03*
X118300D02*
D03*
X108300D02*
D03*
X98300D02*
D03*
X88300D02*
D03*
X68300D02*
D03*
X58300D02*
D03*
X158300Y161300D02*
D03*
X148300D02*
D03*
X128300D02*
D03*
X118300D02*
D03*
X108300D02*
D03*
X98300D02*
D03*
X88300D02*
D03*
X68300D02*
D03*
X58300D02*
D03*
X158300Y151300D02*
D03*
X148300D02*
D03*
X68300D02*
D03*
X58300D02*
D03*
X158300Y141300D02*
D03*
X148300D02*
D03*
X138300D02*
D03*
X128300D02*
D03*
X118300D02*
D03*
X108300D02*
D03*
X98300D02*
D03*
X88300D02*
D03*
X78300D02*
D03*
X68300D02*
D03*
X58300D02*
D03*
X158300Y131300D02*
D03*
X148300D02*
D03*
X138300D02*
D03*
X128300D02*
D03*
X118300D02*
D03*
X108300D02*
D03*
X98300D02*
D03*
X88300D02*
D03*
X78300D02*
D03*
X68300D02*
D03*
X58300D02*
D03*
Y241300D02*
D03*
X68300D02*
D03*
X78300D02*
D03*
X88300D02*
D03*
X98300D02*
D03*
X108300D02*
D03*
X118300D02*
D03*
X128300D02*
D03*
X138300D02*
D03*
X148300D02*
D03*
X158300D02*
D03*
X58300Y251300D02*
D03*
X68300D02*
D03*
X78300D02*
D03*
X88300D02*
D03*
X98300D02*
D03*
X108300D02*
D03*
X118300D02*
D03*
X128300D02*
D03*
X138300D02*
D03*
X148300D02*
D03*
X158300D02*
D03*
X58300Y261300D02*
D03*
X68300D02*
D03*
X148300D02*
D03*
X158300D02*
D03*
X58300Y271300D02*
D03*
X68300D02*
D03*
X88300D02*
D03*
X98300D02*
D03*
X108300D02*
D03*
X118300D02*
D03*
X128300D02*
D03*
X148300D02*
D03*
X158300D02*
D03*
X58300Y281300D02*
D03*
X68300D02*
D03*
X88300D02*
D03*
X98300D02*
D03*
X108300D02*
D03*
X118300D02*
D03*
X128300D02*
D03*
X148300D02*
D03*
X158300D02*
D03*
X58300Y291300D02*
D03*
X68300D02*
D03*
X88300D02*
D03*
X98300D02*
D03*
X108300D02*
D03*
X118300D02*
D03*
X128300D02*
D03*
X148300D02*
D03*
X158300D02*
D03*
X58300Y301300D02*
D03*
X68300D02*
D03*
X148300D02*
D03*
X158300D02*
D03*
X58300Y311300D02*
D03*
X68300D02*
D03*
X78300D02*
D03*
X88300D02*
D03*
X98300D02*
D03*
X108300D02*
D03*
X118300D02*
D03*
X128300D02*
D03*
X138300D02*
D03*
X148300D02*
D03*
X158300D02*
D03*
X58300Y321300D02*
D03*
X68300D02*
D03*
X78300D02*
D03*
X88300D02*
D03*
X98300D02*
D03*
X108300D02*
D03*
X118300D02*
D03*
X128300D02*
D03*
X138300D02*
D03*
X148300D02*
D03*
Y431300D02*
D03*
X138300D02*
D03*
X128300D02*
D03*
X118300D02*
D03*
X108300D02*
D03*
X98300D02*
D03*
X88300D02*
D03*
X78300D02*
D03*
X68300D02*
D03*
X58300D02*
D03*
X158300Y421300D02*
D03*
X148300D02*
D03*
X138300D02*
D03*
X128300D02*
D03*
X118300D02*
D03*
X108300D02*
D03*
X98300D02*
D03*
X88300D02*
D03*
X78300D02*
D03*
X68300D02*
D03*
X58300D02*
D03*
X158300Y411300D02*
D03*
X148300D02*
D03*
X68300D02*
D03*
X58300D02*
D03*
X158300Y401300D02*
D03*
X148300D02*
D03*
X128300D02*
D03*
X118300D02*
D03*
X108300D02*
D03*
X98300D02*
D03*
X88300D02*
D03*
X68300D02*
D03*
X58300D02*
D03*
X158300Y391300D02*
D03*
X148300D02*
D03*
X128300D02*
D03*
X118300D02*
D03*
X108300D02*
D03*
X98300D02*
D03*
X88300D02*
D03*
X68300D02*
D03*
X58300D02*
D03*
X158300Y381300D02*
D03*
X148300D02*
D03*
X128300D02*
D03*
X118300D02*
D03*
X108300D02*
D03*
X98300D02*
D03*
X88300D02*
D03*
X68300D02*
D03*
X58300D02*
D03*
X158300Y371300D02*
D03*
X148300D02*
D03*
X68300D02*
D03*
X58300D02*
D03*
X158300Y361300D02*
D03*
X148300D02*
D03*
X138300D02*
D03*
X128300D02*
D03*
X118300D02*
D03*
X108300D02*
D03*
X98300D02*
D03*
X88300D02*
D03*
X78300D02*
D03*
X68300D02*
D03*
X58300D02*
D03*
X158300Y351300D02*
D03*
X148300D02*
D03*
X138300D02*
D03*
X128300D02*
D03*
X118300D02*
D03*
X108300D02*
D03*
X98300D02*
D03*
X88300D02*
D03*
X78300D02*
D03*
X68300D02*
D03*
X58300D02*
D03*
D62*
X25000Y75000D02*
D03*
Y364000D02*
D03*
M02*
