G04*
G04 #@! TF.GenerationSoftware,Altium Limited,Altium Designer,24.9.1 (31)*
G04*
G04 Layer_Color=65535*
%FSLAX44Y44*%
%MOMM*%
G71*
G04*
G04 #@! TF.SameCoordinates,B0B6A01D-2D76-4B53-9768-4341F4B449A0*
G04*
G04*
G04 #@! TF.FilePolarity,Positive*
G04*
G01*
G75*
%ADD10C,0.1250*%
%ADD11C,0.1500*%
%ADD12C,0.1270*%
G36*
X178916Y441075D02*
X179283Y441050D01*
X179381Y441001D01*
X179454Y441026D01*
X179577Y440977D01*
X180092Y440952D01*
X180165Y440928D01*
X180410Y440854D01*
X180704Y440830D01*
X180925Y440732D01*
X181145Y440707D01*
X181194Y440658D01*
X181292Y440634D01*
X181464Y440609D01*
X181684Y440511D01*
X181782Y440487D01*
X181856Y440462D01*
X181905Y440413D01*
X182003Y440389D01*
X182150Y440364D01*
X182223Y440291D01*
X182383Y440229D01*
X182493Y440168D01*
X182652Y440107D01*
X182713Y440046D01*
X182811Y440021D01*
X182860Y439997D01*
X182934Y439923D01*
X183032Y439899D01*
X183105Y439825D01*
X183228Y439776D01*
X183301Y439703D01*
X183608Y439519D01*
X183620Y439482D01*
X183669Y439458D01*
X183804Y439347D01*
X183840Y439311D01*
X183889Y439286D01*
X183963Y439213D01*
X184012Y439188D01*
X184073Y439151D01*
X184098Y439102D01*
X184134Y439066D01*
X184183Y439041D01*
X184208Y438992D01*
X184257Y438968D01*
X184355Y438870D01*
X184404Y438845D01*
X184465Y438784D01*
X184490Y438735D01*
X184661Y438563D01*
X184686Y438514D01*
X184722Y438478D01*
X184771Y438453D01*
X184857Y438318D01*
X184906Y438269D01*
X184931Y438220D01*
X185029Y438122D01*
X185053Y438073D01*
X185090Y438012D01*
X185139Y437988D01*
X185261Y437791D01*
X185347Y437657D01*
X185421Y437583D01*
X185445Y437534D01*
X185494Y437485D01*
X185531Y437350D01*
X185580Y437301D01*
X185617Y437289D01*
X185641Y437191D01*
X185666Y437142D01*
X185739Y437069D01*
X185764Y436971D01*
X185788Y436922D01*
X185837Y436873D01*
X185898Y436713D01*
X185960Y436652D01*
X185984Y436554D01*
X186009Y436505D01*
X186058Y436456D01*
X186107Y436334D01*
X186131Y436260D01*
X186205Y436187D01*
X186241Y436027D01*
X186327Y435942D01*
X186352Y435794D01*
X186425Y435721D01*
X186486Y435562D01*
X186572Y435402D01*
X186597Y435329D01*
X186646Y435280D01*
X186695Y435158D01*
X186719Y435060D01*
X186793Y434986D01*
X186817Y434839D01*
X186891Y434765D01*
X186915Y434668D01*
X186977Y434508D01*
X187038Y434447D01*
X187062Y434300D01*
X187136Y434226D01*
X187185Y434030D01*
X187258Y433957D01*
X187295Y433798D01*
X187381Y433638D01*
X187405Y433540D01*
X187479Y433418D01*
X187528Y433271D01*
Y433246D01*
X187552Y433197D01*
X187601Y433148D01*
X187650Y432952D01*
X187724Y432830D01*
X187773Y432634D01*
X187846Y432560D01*
X187883Y432401D01*
X187969Y432242D01*
X188006Y432082D01*
X188091Y431923D01*
X188128Y431788D01*
X188165Y431752D01*
X188214Y431580D01*
X188251Y431446D01*
X188312Y431384D01*
X188337Y431286D01*
X188361Y431164D01*
X188434Y431041D01*
X188484Y430845D01*
X188533Y430796D01*
X188582Y430600D01*
X188680Y430380D01*
X188716Y430220D01*
X188802Y430061D01*
X188827Y429914D01*
X188900Y429792D01*
X188925Y429694D01*
X188949Y429547D01*
X188998Y429498D01*
X189023Y429399D01*
X189072Y429179D01*
X189121Y429130D01*
X189145Y429032D01*
X189182Y428848D01*
X189219Y428811D01*
X189268Y428640D01*
X189292Y428444D01*
X189366Y428272D01*
X189390Y428175D01*
X189415Y427905D01*
X189464Y427782D01*
X189488Y427586D01*
X189513Y427513D01*
X189537Y426974D01*
X189562Y426900D01*
X189586Y426557D01*
X189611Y426484D01*
X189586Y425700D01*
X189537Y425577D01*
X189562Y425504D01*
X189537Y425185D01*
X189513Y425112D01*
X189488Y424450D01*
X189415Y424279D01*
X189390Y424107D01*
X189366Y423789D01*
X189317Y423666D01*
X189268Y423470D01*
X189243Y423225D01*
X189170Y423054D01*
X189145Y422882D01*
X189121Y422760D01*
X189072Y422710D01*
X189047Y422539D01*
X188998Y422343D01*
X188925Y422172D01*
X188900Y422024D01*
X188827Y421902D01*
X188802Y421804D01*
X188778Y421657D01*
X188729Y421608D01*
X188655Y421314D01*
X188606Y421265D01*
X188557Y421093D01*
X188459Y420873D01*
X188422Y420738D01*
X188337Y420579D01*
X188312Y420481D01*
X188263Y420432D01*
X188214Y420309D01*
X188189Y420211D01*
X188140Y420162D01*
X188055Y419930D01*
X187993Y419868D01*
X187969Y419746D01*
X187895Y419672D01*
X187871Y419574D01*
X187797Y419452D01*
X187748Y419329D01*
X187675Y419207D01*
X187626Y419084D01*
X187601Y419035D01*
X187528Y418962D01*
X187491Y418827D01*
X187467Y418778D01*
X187418Y418754D01*
X187369Y418631D01*
X187283Y418496D01*
X187209Y418374D01*
X187087Y418153D01*
X187038Y418104D01*
X187013Y418031D01*
X186964Y417982D01*
X186866Y417810D01*
X186817Y417761D01*
X186793Y417663D01*
X186719Y417590D01*
X186646Y417467D01*
X186597Y417418D01*
X186499Y417247D01*
X186376Y417075D01*
X186168Y416769D01*
X186107Y416708D01*
X186082Y416659D01*
X186009Y416585D01*
X185911Y416413D01*
X185862Y416365D01*
X185837Y416316D01*
X185764Y416242D01*
X185739Y416193D01*
X185641Y416095D01*
X185568Y415973D01*
X185519Y415924D01*
X185494Y415874D01*
X185396Y415776D01*
X185372Y415728D01*
X185274Y415630D01*
X185249Y415580D01*
X185151Y415482D01*
X185127Y415434D01*
X185029Y415336D01*
X185004Y415286D01*
X184931Y415213D01*
X184906Y415164D01*
X184686Y414943D01*
X184661Y414894D01*
X184318Y414551D01*
X184294Y414502D01*
X183497Y413706D01*
X183448Y413682D01*
X183105Y413339D01*
X183056Y413314D01*
X182836Y413093D01*
X182787Y413069D01*
X182713Y412995D01*
X182664Y412971D01*
X182566Y412873D01*
X182517Y412849D01*
X182419Y412751D01*
X182370Y412726D01*
X182272Y412628D01*
X182223Y412603D01*
X182125Y412505D01*
X182076Y412481D01*
X182003Y412407D01*
X181880Y412334D01*
X181831Y412285D01*
X181782Y412261D01*
X181684Y412163D01*
X181635Y412138D01*
X181562Y412065D01*
X181439Y411991D01*
X181390Y411942D01*
X181280Y411881D01*
X181268Y411844D01*
X181145Y411770D01*
X181096Y411721D01*
X180974Y411648D01*
X180802Y411550D01*
X180778Y411501D01*
X180729Y411476D01*
X180422Y411268D01*
X180226Y411146D01*
X180092Y411060D01*
X180043Y411011D01*
X179883Y410950D01*
X179871Y410913D01*
X179748Y410864D01*
X179699Y410839D01*
X179626Y410766D01*
X179528Y410741D01*
X179381Y410643D01*
X179258Y410570D01*
X179136Y410521D01*
X179062Y410496D01*
X179014Y410447D01*
X178916Y410423D01*
X178793Y410374D01*
X178720Y410300D01*
X178523Y410276D01*
X178376Y410178D01*
X178205Y410153D01*
X178131Y410080D01*
X177837Y410031D01*
X177788Y409982D01*
X177592Y409933D01*
X177396Y409908D01*
X177274Y409859D01*
X177176Y409835D01*
X176857Y409810D01*
X176698Y409749D01*
X176502Y409725D01*
X175118Y409712D01*
X174946Y409786D01*
X174848Y409810D01*
X174566Y409847D01*
X174407Y409933D01*
X174211Y409957D01*
X174138Y410031D01*
X174040Y410055D01*
X173917Y410129D01*
X173746Y410227D01*
X173697Y410276D01*
X173648Y410300D01*
X173513Y410411D01*
X173219Y410705D01*
X173194Y410754D01*
X173121Y410876D01*
X173072Y410925D01*
X173047Y411023D01*
X173023Y411072D01*
X172949Y411146D01*
X172913Y411329D01*
X172851Y411440D01*
X172827Y411538D01*
X172802Y411832D01*
X172778Y411905D01*
X172802Y412542D01*
X172827Y412616D01*
X172851Y412910D01*
X172925Y412983D01*
X172949Y413155D01*
X172974Y413253D01*
X173023Y413302D01*
X173084Y413461D01*
X173170Y413620D01*
X173317Y413890D01*
X173390Y413963D01*
X173488Y414135D01*
X173611Y414306D01*
X173721Y414441D01*
X173758Y414478D01*
X173782Y414527D01*
X173880Y414625D01*
X173905Y414674D01*
X173978Y414747D01*
X174003Y414796D01*
X174040Y414858D01*
X174089Y414882D01*
X174125Y414919D01*
X174150Y414968D01*
X174248Y415041D01*
X174272Y415090D01*
X174346Y415140D01*
X174370Y415188D01*
X174407Y415225D01*
X174456Y415250D01*
X174530Y415348D01*
X174579Y415372D01*
X174628Y415446D01*
X174677Y415470D01*
X174713Y415507D01*
X174738Y415556D01*
X174836Y415630D01*
X174848Y415666D01*
X174897Y415691D01*
X175032Y415801D01*
X175142Y415911D01*
X175191Y415936D01*
X175326Y416046D01*
X175399Y416095D01*
X175424Y416144D01*
X175461Y416181D01*
X175510Y416205D01*
X175583Y416279D01*
X175632Y416303D01*
X175730Y416401D01*
X175853Y416475D01*
X175987Y416585D01*
X176024Y416622D01*
X176073Y416646D01*
X176171Y416744D01*
X176294Y416818D01*
X176465Y416940D01*
X176514Y416989D01*
X176563Y417014D01*
X176637Y417087D01*
X176759Y417136D01*
X176833Y417210D01*
X176882Y417234D01*
X177200Y417455D01*
X177249Y417479D01*
X177347Y417577D01*
X177519Y417675D01*
X177654Y417786D01*
X177788Y417871D01*
X177837Y417920D01*
X177960Y417994D01*
X178009Y418043D01*
X178095Y418080D01*
X178119Y418129D01*
X178242Y418202D01*
X178266Y418251D01*
X178462Y418374D01*
X178499Y418410D01*
X178548Y418435D01*
X178646Y418533D01*
X178695Y418558D01*
X178720Y418606D01*
X178769Y418631D01*
X178903Y418741D01*
X178940Y418778D01*
X178989Y418802D01*
X179062Y418876D01*
X179111Y418900D01*
X179185Y418974D01*
X179234Y418998D01*
X179430Y419194D01*
X179479Y419219D01*
X179540Y419280D01*
X179552Y419317D01*
X179601Y419342D01*
X179736Y419452D01*
X179969Y419685D01*
X180092Y419758D01*
X181280Y420946D01*
X181353Y421069D01*
X181549Y421265D01*
X181562Y421302D01*
X181611Y421326D01*
X181672Y421412D01*
X181770Y421510D01*
X181794Y421559D01*
X181991Y421755D01*
X182015Y421804D01*
X182113Y421902D01*
X182187Y422024D01*
X182236Y422074D01*
X182260Y422122D01*
X182358Y422220D01*
X182383Y422270D01*
X182432Y422294D01*
X182456Y422343D01*
X182566Y422478D01*
X182701Y422662D01*
X182726Y422710D01*
X182824Y422808D01*
X182848Y422858D01*
X182922Y422906D01*
X182995Y423029D01*
X183093Y423201D01*
X183142Y423225D01*
X183167Y423274D01*
X183277Y423409D01*
X183326Y423531D01*
X183412Y423617D01*
X183436Y423666D01*
X183510Y423740D01*
X183583Y423862D01*
X183681Y424034D01*
X183755Y424107D01*
X183828Y424230D01*
X183926Y424401D01*
X183975Y424450D01*
X184024Y424573D01*
X184098Y424646D01*
X184147Y424769D01*
X184196Y424818D01*
X184294Y424989D01*
X184343Y425112D01*
X184367Y425161D01*
X184465Y425259D01*
X184490Y425381D01*
X184563Y425455D01*
X184612Y425577D01*
X184661Y425626D01*
X184722Y425785D01*
X184808Y425871D01*
X184833Y426018D01*
X184906Y426092D01*
X184931Y426190D01*
X184955Y426239D01*
X185029Y426312D01*
X185065Y426472D01*
X185151Y426557D01*
X185188Y426741D01*
X185249Y426802D01*
X185298Y426974D01*
X185372Y427096D01*
X185396Y427170D01*
X185445Y427292D01*
X185494Y427341D01*
X185543Y427537D01*
X185617Y427660D01*
X185666Y427856D01*
X185715Y427905D01*
X185764Y428076D01*
X185788Y428175D01*
X185862Y428297D01*
X185886Y428469D01*
X185984Y428689D01*
X186033Y428909D01*
X186082Y428959D01*
X186107Y429057D01*
X186131Y429253D01*
X186205Y429424D01*
X186229Y429522D01*
X186254Y429694D01*
X186327Y429865D01*
X186376Y430208D01*
X186425Y430331D01*
X186450Y430429D01*
X186474Y430674D01*
X186499Y430870D01*
X186548Y430992D01*
X186572Y431164D01*
X186609Y431740D01*
X186646Y431874D01*
X186670Y432193D01*
X186695Y432266D01*
X186670Y432707D01*
X186634Y432744D01*
X186585Y432769D01*
X186511Y432842D01*
X186462Y432867D01*
X186229Y433026D01*
X186217Y433063D01*
X186168Y433087D01*
X185996Y433210D01*
X185874Y433283D01*
X185702Y433381D01*
X185457Y433528D01*
X185335Y433577D01*
X185212Y433651D01*
X185090Y433700D01*
X184992Y433724D01*
X184918Y433798D01*
X184735Y433834D01*
X184673Y433896D01*
X184514Y433932D01*
X184416Y433957D01*
X184379Y433994D01*
X184257Y434043D01*
X184036Y434067D01*
X183987Y434116D01*
X183816Y434165D01*
X183595Y434190D01*
X183473Y434239D01*
X183375Y434263D01*
X183203Y434288D01*
X182958Y434312D01*
X182836Y434361D01*
X182738Y434386D01*
X181941Y434422D01*
X181758Y434484D01*
X181684Y434459D01*
X180422Y434471D01*
X180288Y434435D01*
X180190Y434410D01*
X179687Y434398D01*
X179675Y434410D01*
X179601Y434386D01*
X179234Y434361D01*
X179185Y434337D01*
X179111Y434361D01*
X178940Y434288D01*
X178891Y434312D01*
X178818Y434288D01*
X178376Y434263D01*
X178303Y434239D01*
X178180Y434190D01*
X178082Y434165D01*
X177666Y434141D01*
X177543Y434092D01*
X177347Y434043D01*
X177053Y434018D01*
X176882Y433945D01*
X176637Y433920D01*
X176478Y433883D01*
X176318Y433822D01*
X176012Y433785D01*
X175877Y433724D01*
X175779Y433700D01*
X175510Y433675D01*
X175289Y433577D01*
X174995Y433553D01*
X174873Y433504D01*
X174677Y433455D01*
X174432Y433430D01*
X174309Y433381D01*
X174211Y433357D01*
X173966Y433332D01*
X173795Y433308D01*
X173721Y433283D01*
X173525Y433234D01*
X173133Y433210D01*
X172937Y433161D01*
X172864Y433136D01*
X172545Y433112D01*
X172153Y433087D01*
X172079Y433112D01*
X172006Y433087D01*
X171834Y433063D01*
X171344Y433087D01*
X171271Y433112D01*
X171197Y433087D01*
X170952Y433112D01*
X170732Y433136D01*
X170560Y433210D01*
X170377Y433246D01*
X170340Y433283D01*
X170217Y433332D01*
X170119Y433357D01*
X170046Y433430D01*
X169923Y433479D01*
X169825Y433577D01*
X169776Y433602D01*
X169727Y433675D01*
X169678Y433700D01*
X169641Y433736D01*
X169617Y433785D01*
X169519Y433883D01*
X169494Y433957D01*
X169445Y434006D01*
X169384Y434165D01*
X169323Y434226D01*
X169298Y434324D01*
X169274Y434520D01*
X169200Y434692D01*
X169176Y434937D01*
X169200Y435648D01*
X169274Y435819D01*
X169298Y435991D01*
X169335Y436174D01*
X169396Y436285D01*
X169421Y436383D01*
X169445Y436505D01*
X169494Y436554D01*
X169519Y436652D01*
X169580Y436811D01*
X169641Y436873D01*
X169666Y436995D01*
X169764Y437142D01*
X169788Y437240D01*
X169862Y437314D01*
X169911Y437436D01*
X169984Y437510D01*
X170033Y437632D01*
X170107Y437706D01*
X170131Y437755D01*
X170168Y437816D01*
X170205Y437828D01*
X170230Y437877D01*
X170340Y438012D01*
X170401Y438098D01*
X170450Y438147D01*
X170475Y438196D01*
X170511Y438257D01*
X170560Y438282D01*
X170720Y438441D01*
X170732Y438478D01*
X170781Y438502D01*
X170842Y438563D01*
X170854Y438600D01*
X170903Y438624D01*
X170965Y438686D01*
X170977Y438722D01*
X171026Y438747D01*
X171161Y438857D01*
X171271Y438968D01*
X171393Y439041D01*
X171442Y439090D01*
X171491Y439114D01*
X171589Y439213D01*
X171638Y439237D01*
X171712Y439311D01*
X171810Y439335D01*
X171908Y439433D01*
X172030Y439507D01*
X172251Y439629D01*
X172300Y439678D01*
X172668Y439874D01*
X172790Y439923D01*
X172839Y439948D01*
X172913Y440021D01*
X173096Y440058D01*
X173158Y440119D01*
X173390Y440205D01*
X173427Y440242D01*
X173525Y440266D01*
X173660Y440303D01*
X173697Y440340D01*
X173819Y440389D01*
X173966Y440413D01*
X174187Y440511D01*
X174334Y440536D01*
X174505Y440609D01*
X174713Y440646D01*
X174750Y440683D01*
X174873Y440732D01*
X175142Y440756D01*
X175314Y440830D01*
X175485Y440854D01*
X175706Y440879D01*
X175828Y440928D01*
X176122Y440977D01*
X176514Y441001D01*
X176686Y441075D01*
X176845Y441062D01*
X177066Y441087D01*
X177543Y441075D01*
X177617Y441099D01*
X178805Y441087D01*
X178842Y441099D01*
X178916Y441075D01*
D02*
G37*
G36*
X169433Y450630D02*
X169507Y450606D01*
X169972Y450581D01*
X170144Y450508D01*
X170364Y450483D01*
X170585Y450385D01*
X170707Y450336D01*
X170977Y450189D01*
X171148Y450091D01*
X171222Y450018D01*
X171271Y449993D01*
X171626Y449638D01*
X171700Y449516D01*
X171822Y449295D01*
X171871Y449173D01*
X171896Y449075D01*
X171945Y449026D01*
X171994Y448854D01*
X172018Y448585D01*
X172043Y448511D01*
X172067Y448364D01*
X172092Y448290D01*
X172067Y447996D01*
X172043Y447923D01*
X172006Y447739D01*
X171981Y447494D01*
X171945Y447408D01*
X171896Y447286D01*
X171871Y447188D01*
X171847Y447114D01*
X171798Y447065D01*
X171749Y446894D01*
X171724Y446845D01*
X171675Y446796D01*
X171614Y446637D01*
X171528Y446551D01*
X171504Y446453D01*
X171430Y446379D01*
X171357Y446257D01*
X171308Y446208D01*
X171259Y446085D01*
X171161Y445987D01*
X171136Y445938D01*
X171063Y445865D01*
X171038Y445816D01*
X170940Y445718D01*
X170916Y445669D01*
X170818Y445571D01*
X170793Y445522D01*
X169923Y444652D01*
X169874Y444627D01*
X169739Y444517D01*
X169629Y444407D01*
X169580Y444382D01*
X169458Y444260D01*
X169409Y444235D01*
X169360Y444162D01*
X169237Y444088D01*
X169188Y444039D01*
X169066Y443966D01*
X169017Y443917D01*
X168968Y443892D01*
X168870Y443794D01*
X168821Y443770D01*
X168723Y443672D01*
X168674Y443647D01*
X168625Y443598D01*
X168576Y443574D01*
X168441Y443464D01*
X168306Y443378D01*
X168257Y443329D01*
X168135Y443255D01*
X168000Y443170D01*
X167975Y443121D01*
X167828Y443047D01*
X167767Y442986D01*
X167694Y442961D01*
X167596Y442863D01*
X167473Y442790D01*
X167314Y442704D01*
X167289Y442655D01*
X167155Y442569D01*
X167106Y442520D01*
X166983Y442447D01*
X166934Y442398D01*
X166812Y442324D01*
X166763Y442275D01*
X166714Y442251D01*
X166616Y442153D01*
X166493Y442079D01*
X166358Y441993D01*
X166334Y441945D01*
X166248Y441883D01*
X166175Y441810D01*
X166052Y441736D01*
X166003Y441687D01*
X165954Y441663D01*
X165856Y441565D01*
X165807Y441540D01*
X165709Y441442D01*
X165660Y441418D01*
X165464Y441222D01*
X165415Y441197D01*
X165292Y441075D01*
X165243Y441050D01*
X165170Y440977D01*
X165121Y440952D01*
X164802Y440634D01*
X164753Y440609D01*
X163614Y439470D01*
X163589Y439421D01*
X163295Y439127D01*
X163271Y439078D01*
X163099Y438906D01*
X163075Y438857D01*
X162989Y438747D01*
X162952Y438735D01*
X162928Y438686D01*
X162830Y438588D01*
X162806Y438539D01*
X162683Y438416D01*
X162659Y438367D01*
X162610Y438343D01*
X162536Y438220D01*
X162487Y438171D01*
X162463Y438122D01*
X162364Y438024D01*
X162340Y437975D01*
X162242Y437877D01*
X162217Y437828D01*
X162144Y437755D01*
X162070Y437632D01*
X162021Y437583D01*
X161997Y437534D01*
X161887Y437399D01*
X161825Y437314D01*
X161776Y437265D01*
X161703Y437142D01*
X161409Y436726D01*
X161384Y436677D01*
X161311Y436603D01*
X161237Y436481D01*
X161139Y436309D01*
X161066Y436236D01*
X160992Y436113D01*
X160894Y435942D01*
X160845Y435892D01*
X160649Y435550D01*
X160600Y435500D01*
X160576Y435402D01*
X160502Y435329D01*
X160306Y434962D01*
X160257Y434912D01*
X160221Y434778D01*
X160159Y434716D01*
X160110Y434594D01*
X160086Y434545D01*
X160037Y434496D01*
X159963Y434300D01*
X159914Y434251D01*
X159841Y434055D01*
X159792Y434006D01*
X159767Y433908D01*
X159743Y433859D01*
X159645Y433712D01*
X159620Y433589D01*
X159547Y433516D01*
X159522Y433369D01*
X159424Y433222D01*
X159388Y433063D01*
X159326Y433001D01*
X159302Y432903D01*
X159265Y432769D01*
X159204Y432707D01*
X159167Y432548D01*
X159057Y432291D01*
X159032Y432144D01*
X158983Y432095D01*
X158934Y431923D01*
X158897Y431788D01*
X158836Y431654D01*
X158812Y431556D01*
X158787Y431433D01*
X158738Y431384D01*
X158714Y431286D01*
X158677Y431078D01*
X158616Y430943D01*
X158591Y430845D01*
X158554Y430612D01*
X158493Y430478D01*
X158469Y430306D01*
X158444Y430086D01*
X158371Y429914D01*
X158346Y429743D01*
X158322Y429498D01*
X158297Y429424D01*
X158273Y429326D01*
X158248Y429081D01*
X158224Y428763D01*
X158199Y428517D01*
X158175Y428371D01*
X158150Y428297D01*
X158175Y427660D01*
X158260Y427574D01*
X158309Y427550D01*
X158407Y427452D01*
X158456Y427427D01*
X158554Y427329D01*
X158677Y427256D01*
X158848Y427133D01*
X159020Y427035D01*
X159069Y426986D01*
X159167Y426962D01*
X159216Y426913D01*
X159437Y426790D01*
X159559Y426741D01*
X159682Y426668D01*
X159804Y426619D01*
X159902Y426594D01*
X160025Y426521D01*
X160184Y426484D01*
X160221Y426447D01*
X160343Y426398D01*
X160515Y426374D01*
X160564Y426325D01*
X160735Y426276D01*
X160907Y426251D01*
X161127Y426153D01*
X161397Y426129D01*
X161519Y426079D01*
X161617Y426055D01*
X161862Y426031D01*
X162083Y426006D01*
X162205Y425957D01*
X162671Y425933D01*
X162769Y425908D01*
X164116Y425883D01*
X164435Y425908D01*
X165182Y425945D01*
X165403Y425969D01*
X165513Y426006D01*
X165979Y426031D01*
X166150Y426055D01*
X166248Y426079D01*
X166371Y426104D01*
X166444Y426129D01*
X166689Y426153D01*
X166971Y426190D01*
X167093Y426239D01*
X167216Y426263D01*
X167228Y426276D01*
X167571Y426300D01*
X167694Y426349D01*
X167865Y426374D01*
X167963Y426398D01*
X168184Y426423D01*
X168355Y426496D01*
X168637Y426533D01*
X168919Y426619D01*
X169164Y426643D01*
X169335Y426717D01*
X169678Y426766D01*
X169850Y426839D01*
X170095Y426864D01*
X170254Y426900D01*
X170389Y426937D01*
X170585Y426986D01*
X170879Y427011D01*
X171050Y427084D01*
X171442Y427109D01*
X171516Y427133D01*
X171663Y427158D01*
X171736Y427182D01*
X172055Y427207D01*
X172300Y427231D01*
X172472Y427256D01*
X172717Y427280D01*
X172790Y427305D01*
X173550Y427280D01*
X173623Y427256D01*
X173954Y427219D01*
X174150Y427194D01*
X174248Y427170D01*
X174383Y427109D01*
X174542Y427072D01*
X174603Y427011D01*
X174701Y426986D01*
X174824Y426913D01*
X174873Y426864D01*
X174995Y426790D01*
X175069Y426717D01*
X175118Y426692D01*
X175154Y426655D01*
X175179Y426606D01*
X175277Y426508D01*
X175350Y426386D01*
X175399Y426337D01*
X175424Y426239D01*
X175497Y426116D01*
X175522Y426018D01*
X175546Y425896D01*
X175595Y425773D01*
X175620Y425675D01*
X175644Y425063D01*
X175620Y424965D01*
X175595Y424646D01*
X175571Y424573D01*
X175522Y424377D01*
X175497Y424181D01*
X175399Y423960D01*
X175375Y423838D01*
X175326Y423789D01*
X175277Y423617D01*
X175007Y423103D01*
X174885Y422882D01*
X174811Y422808D01*
X174787Y422735D01*
X174713Y422662D01*
X174689Y422564D01*
X174652Y422527D01*
X174603Y422502D01*
X174517Y422368D01*
X174444Y422294D01*
X174419Y422245D01*
X173721Y421547D01*
X173672Y421522D01*
X173525Y421375D01*
X173476Y421351D01*
X173415Y421314D01*
X173390Y421265D01*
X173243Y421167D01*
X173182Y421106D01*
X173109Y421081D01*
X173035Y421008D01*
X172913Y420934D01*
X172864Y420885D01*
X172741Y420836D01*
X172692Y420787D01*
X172521Y420689D01*
X172300Y420567D01*
X172178Y420518D01*
X172129Y420493D01*
X171981Y420395D01*
X171883Y420371D01*
X171834Y420322D01*
X171602Y420236D01*
X171565Y420199D01*
X171467Y420175D01*
X171197Y420052D01*
X171063Y420015D01*
X170952Y419954D01*
X170854Y419930D01*
X170720Y419893D01*
X170683Y419856D01*
X170487Y419807D01*
X170340Y419782D01*
X170291Y419734D01*
X170193Y419709D01*
X169997Y419685D01*
X169825Y419611D01*
X169727Y419586D01*
X169482Y419562D01*
X169311Y419488D01*
X169139Y419464D01*
X168894Y419440D01*
X168821Y419415D01*
X168539Y419354D01*
X168147Y419329D01*
X167694Y419292D01*
X167620Y419268D01*
X165979Y419292D01*
X165905Y419317D01*
X165721Y419305D01*
X165586Y419342D01*
X165023Y419366D01*
X164949Y419390D01*
X164753Y419440D01*
X164582Y419464D01*
X164361Y419488D01*
X164239Y419538D01*
X164043Y419586D01*
X163847Y419611D01*
X163675Y419685D01*
X163504Y419709D01*
X163283Y419807D01*
X163099Y419844D01*
X163038Y419905D01*
X162940Y419930D01*
X162806Y419966D01*
X162646Y420052D01*
X162524Y420077D01*
X162450Y420150D01*
X162352Y420175D01*
X162303Y420199D01*
X162254Y420248D01*
X162058Y420322D01*
X162009Y420371D01*
X161887Y420420D01*
X161838Y420444D01*
X161789Y420493D01*
X161666Y420567D01*
X161617Y420616D01*
X161458Y420677D01*
X161372Y420763D01*
X161323Y420787D01*
X161250Y420861D01*
X161127Y420934D01*
X161078Y420983D01*
X160956Y421057D01*
X160882Y421130D01*
X160833Y421155D01*
X160809Y421204D01*
X160760Y421228D01*
X160613Y421375D01*
X160564Y421400D01*
X160257Y421706D01*
X160233Y421755D01*
X160012Y421976D01*
X159988Y422024D01*
X159890Y422122D01*
X159865Y422172D01*
X159792Y422245D01*
X159718Y422368D01*
X159669Y422416D01*
X159596Y422539D01*
X159547Y422588D01*
X159473Y422710D01*
X159375Y422882D01*
X159326Y422931D01*
X159277Y423054D01*
X159204Y423127D01*
X159143Y423286D01*
X159081Y423348D01*
X159032Y423470D01*
X158959Y423544D01*
X158922Y423678D01*
X158861Y423740D01*
X158799Y423899D01*
X158738Y423960D01*
X158714Y424058D01*
X158640Y424181D01*
X158591Y424303D01*
X158518Y424426D01*
X158469Y424548D01*
X158444Y424597D01*
X158395Y424646D01*
X158322Y424842D01*
X158273Y424891D01*
X158199Y425087D01*
X158150Y425136D01*
X158113Y425295D01*
X158052Y425381D01*
X158003Y425504D01*
X157881Y425773D01*
X157856Y425822D01*
X157783Y425945D01*
X157758Y426067D01*
X157660Y426214D01*
X157636Y426361D01*
X157562Y426435D01*
X157513Y426631D01*
X157440Y426753D01*
X157415Y426851D01*
X157342Y426974D01*
X157317Y427047D01*
X157292Y427145D01*
X157268Y427194D01*
X157219Y427243D01*
X157195Y427341D01*
X157158Y427476D01*
X157097Y427537D01*
X157048Y427733D01*
X156950Y427880D01*
X156925Y428052D01*
X156876Y428101D01*
X156827Y428223D01*
X156803Y428321D01*
X156729Y428444D01*
X156680Y428640D01*
X156607Y428763D01*
X156582Y428909D01*
X156484Y429057D01*
X156460Y429228D01*
X156386Y429301D01*
X156349Y429485D01*
X156300Y429608D01*
X156264Y429645D01*
X156202Y429902D01*
X156166Y429939D01*
X156117Y430135D01*
X156018Y430355D01*
X155994Y430502D01*
X155920Y430576D01*
X155896Y430674D01*
X155871Y430845D01*
X155798Y430919D01*
X155773Y431017D01*
X155749Y431237D01*
X155700Y431286D01*
X155626Y431580D01*
X155553Y431752D01*
X155516Y431984D01*
X155430Y432266D01*
X155406Y432536D01*
X155381Y432609D01*
X155357Y432707D01*
X155308Y433001D01*
X155283Y433565D01*
X155259Y433638D01*
X155283Y434986D01*
X155308Y435060D01*
X155332Y435746D01*
X155381Y435868D01*
X155418Y436076D01*
X155443Y436395D01*
X155467Y436493D01*
X155528Y436701D01*
X155565Y436983D01*
X155651Y437265D01*
X155675Y437461D01*
X155749Y437632D01*
X155773Y437730D01*
X155810Y437914D01*
X155871Y438049D01*
X155896Y438147D01*
X155920Y438294D01*
X155969Y438343D01*
X156043Y438637D01*
X156117Y438808D01*
X156141Y438906D01*
X156239Y439127D01*
X156276Y439262D01*
X156337Y439372D01*
X156362Y439470D01*
X156411Y439592D01*
X156484Y439764D01*
X156607Y440033D01*
X156631Y440107D01*
X156680Y440156D01*
X156705Y440254D01*
X156778Y440376D01*
X156876Y440621D01*
X157121Y441087D01*
X157170Y441136D01*
X157207Y441271D01*
X157292Y441405D01*
X157366Y441528D01*
X157611Y441969D01*
X157709Y442141D01*
X157758Y442189D01*
X157807Y442312D01*
X157881Y442386D01*
X157905Y442483D01*
X158003Y442582D01*
X158028Y442655D01*
X158126Y442802D01*
X158150Y442851D01*
X158224Y442925D01*
X158322Y443096D01*
X158432Y443231D01*
X158554Y443427D01*
X158591Y443464D01*
X158665Y443586D01*
X158714Y443635D01*
X158738Y443684D01*
X158812Y443758D01*
X158885Y443880D01*
X158934Y443929D01*
X158995Y444039D01*
X159032Y444052D01*
X159057Y444101D01*
X159289Y444407D01*
X159326Y444444D01*
X159351Y444493D01*
X159424Y444566D01*
X159449Y444615D01*
X159620Y444787D01*
X159645Y444836D01*
X159718Y444909D01*
X159743Y444958D01*
X159853Y445093D01*
X159988Y445228D01*
X160012Y445277D01*
X160233Y445497D01*
X160257Y445546D01*
X160600Y445889D01*
X160625Y445938D01*
X161299Y446612D01*
X161348Y446637D01*
X161666Y446955D01*
X161715Y446980D01*
X161936Y447200D01*
X161985Y447225D01*
X162181Y447421D01*
X162230Y447445D01*
X162303Y447519D01*
X162352Y447543D01*
X162487Y447654D01*
X162524Y447690D01*
X162573Y447715D01*
X162744Y447886D01*
X162867Y447960D01*
X162940Y448033D01*
X162989Y448058D01*
X163063Y448131D01*
X163185Y448205D01*
X163259Y448278D01*
X163308Y448303D01*
X163381Y448376D01*
X163504Y448450D01*
X163675Y448572D01*
X163724Y448621D01*
X163773Y448646D01*
X163822Y448695D01*
X163994Y448793D01*
X164043Y448842D01*
X164165Y448915D01*
X164214Y448964D01*
X164337Y449038D01*
X164508Y449136D01*
X164557Y449185D01*
X164680Y449234D01*
X164753Y449307D01*
X164925Y449405D01*
X165084Y449491D01*
X165096Y449528D01*
X165256Y449589D01*
X165317Y449650D01*
X165476Y449712D01*
X165537Y449773D01*
X165672Y449810D01*
X165758Y449871D01*
X165881Y449920D01*
X165979Y449944D01*
X166052Y450018D01*
X166224Y450042D01*
X166297Y450116D01*
X166395Y450140D01*
X166542Y450165D01*
X166616Y450238D01*
X166787Y450263D01*
X167008Y450361D01*
X167240Y450398D01*
X167363Y450447D01*
X167498Y450483D01*
X167743Y450508D01*
X167988Y450581D01*
X168233Y450606D01*
X168723Y450630D01*
X168796Y450655D01*
X169433Y450630D01*
D02*
G37*
G36*
X183484Y256179D02*
X183640Y256167D01*
X183820Y256143D01*
X184012Y256095D01*
X184205Y256047D01*
X184409Y255975D01*
X184433Y255963D01*
X184493Y255939D01*
X184589Y255891D01*
X184709Y255819D01*
X184853Y255735D01*
X184998Y255627D01*
X185154Y255494D01*
X185298Y255350D01*
X185310Y255326D01*
X185358Y255278D01*
X185430Y255194D01*
X185514Y255074D01*
X185598Y254930D01*
X185694Y254774D01*
X185791Y254581D01*
X185875Y254377D01*
Y254365D01*
X185887Y254353D01*
X185899Y254317D01*
X185911Y254281D01*
X185935Y254161D01*
X185971Y253993D01*
X186019Y253788D01*
X186043Y253560D01*
X186067Y253284D01*
X186079Y252995D01*
Y252851D01*
X186067Y252779D01*
Y252683D01*
X186055Y252479D01*
X186031Y252239D01*
X186007Y251998D01*
X185971Y251734D01*
X185923Y251494D01*
Y251482D01*
X185911Y251470D01*
Y251434D01*
X185899Y251386D01*
X185875Y251277D01*
X185839Y251133D01*
X185791Y250965D01*
X185730Y250797D01*
X185670Y250617D01*
X185610Y250460D01*
X183904D01*
Y250641D01*
X183916Y250653D01*
X183964Y250725D01*
X184036Y250833D01*
X184109Y250965D01*
Y250977D01*
X184121Y251001D01*
X184144Y251037D01*
X184168Y251097D01*
X184205Y251157D01*
X184241Y251241D01*
X184277Y251338D01*
X184325Y251446D01*
Y251458D01*
X184337Y251494D01*
X184361Y251554D01*
X184385Y251626D01*
X184421Y251710D01*
X184445Y251806D01*
X184505Y252010D01*
Y252022D01*
X184517Y252058D01*
X184529Y252118D01*
X184541Y252202D01*
X184553Y252299D01*
X184565Y252407D01*
X184577Y252647D01*
Y252767D01*
X184565Y252851D01*
Y252947D01*
X184541Y253055D01*
X184505Y253308D01*
Y253320D01*
X184493Y253368D01*
X184469Y253428D01*
X184445Y253512D01*
X184361Y253704D01*
X184301Y253788D01*
X184229Y253873D01*
X184217Y253885D01*
X184205Y253897D01*
X184121Y253969D01*
X184012Y254053D01*
X183880Y254125D01*
X183868D01*
X183844Y254137D01*
X183796Y254161D01*
X183736Y254173D01*
X183664Y254197D01*
X183568Y254209D01*
X183460Y254221D01*
X183340D01*
X183328D01*
X183291D01*
X183243D01*
X183171Y254209D01*
X183027Y254173D01*
X182871Y254101D01*
X182859D01*
X182835Y254077D01*
X182799Y254053D01*
X182751Y254029D01*
X182643Y253933D01*
X182547Y253800D01*
X182535Y253788D01*
X182523Y253752D01*
X182487Y253692D01*
X182451Y253620D01*
X182414Y253524D01*
X182378Y253416D01*
X182342Y253296D01*
X182318Y253152D01*
Y253140D01*
X182306Y253092D01*
X182294Y253020D01*
X182282Y252935D01*
Y252827D01*
X182270Y252719D01*
X182258Y252503D01*
Y252347D01*
X182270Y252239D01*
Y252106D01*
X182282Y251962D01*
X182330Y251662D01*
Y251650D01*
X182342Y251590D01*
X182354Y251518D01*
X182378Y251422D01*
X182402Y251313D01*
X182426Y251193D01*
X182474Y250965D01*
Y250797D01*
X178089D01*
Y255975D01*
X179567D01*
Y252647D01*
X180877D01*
Y252707D01*
X180865Y252755D01*
Y252875D01*
X180853Y253020D01*
Y253092D01*
X180841Y253140D01*
Y253560D01*
X180853Y253704D01*
X180865Y253860D01*
X180889Y254041D01*
X180961Y254401D01*
Y254425D01*
X180985Y254485D01*
X181009Y254569D01*
X181045Y254690D01*
X181093Y254822D01*
X181153Y254954D01*
X181225Y255098D01*
X181309Y255242D01*
X181321Y255266D01*
X181357Y255314D01*
X181429Y255398D01*
X181513Y255494D01*
X181621Y255602D01*
X181766Y255723D01*
X181910Y255843D01*
X182090Y255939D01*
X182114Y255951D01*
X182174Y255975D01*
X182282Y256023D01*
X182414Y256071D01*
X182583Y256107D01*
X182787Y256155D01*
X183015Y256179D01*
X183267Y256191D01*
X183279D01*
X183291D01*
X183328D01*
X183376D01*
X183484Y256179D01*
D02*
G37*
G36*
X182366Y249415D02*
X182474D01*
X182607Y249403D01*
X182883Y249391D01*
X183183Y249355D01*
X183484Y249319D01*
X183784Y249259D01*
X183796D01*
X183820Y249247D01*
X183856D01*
X183904Y249223D01*
X184048Y249187D01*
X184229Y249127D01*
X184433Y249055D01*
X184637Y248971D01*
X184853Y248863D01*
X185058Y248742D01*
X185082Y248730D01*
X185142Y248682D01*
X185226Y248598D01*
X185346Y248490D01*
X185466Y248358D01*
X185598Y248190D01*
X185718Y248010D01*
X185826Y247805D01*
Y247793D01*
X185839Y247781D01*
X185851Y247745D01*
X185863Y247709D01*
X185911Y247589D01*
X185947Y247421D01*
X185995Y247217D01*
X186043Y246976D01*
X186067Y246712D01*
X186079Y246412D01*
Y246280D01*
X186067Y246207D01*
Y246123D01*
X186043Y245931D01*
X186019Y245703D01*
X185971Y245475D01*
X185911Y245234D01*
X185826Y245006D01*
Y244994D01*
X185814Y244982D01*
X185778Y244910D01*
X185718Y244814D01*
X185634Y244682D01*
X185514Y244525D01*
X185382Y244369D01*
X185226Y244213D01*
X185046Y244069D01*
X185034D01*
X185022Y244057D01*
X184949Y244009D01*
X184841Y243949D01*
X184697Y243877D01*
X184505Y243793D01*
X184289Y243708D01*
X184048Y243624D01*
X183772Y243552D01*
X183760D01*
X183736Y243540D01*
X183700D01*
X183640Y243528D01*
X183568Y243516D01*
X183484Y243504D01*
X183376Y243492D01*
X183267Y243480D01*
X183003Y243444D01*
X182703Y243420D01*
X182366Y243408D01*
X182006Y243396D01*
X181994D01*
X181958D01*
X181910D01*
X181826D01*
X181742D01*
X181633Y243408D01*
X181513D01*
X181393Y243420D01*
X181117Y243432D01*
X180817Y243468D01*
X180516Y243504D01*
X180228Y243552D01*
X180216D01*
X180192Y243564D01*
X180156D01*
X180108Y243588D01*
X179964Y243624D01*
X179795Y243672D01*
X179591Y243745D01*
X179387Y243841D01*
X179159Y243949D01*
X178954Y244081D01*
X178942D01*
X178930Y244093D01*
X178870Y244153D01*
X178774Y244225D01*
X178666Y244345D01*
X178534Y244477D01*
X178414Y244634D01*
X178294Y244826D01*
X178186Y245030D01*
Y245042D01*
X178174Y245054D01*
X178161Y245090D01*
X178149Y245138D01*
X178101Y245258D01*
X178053Y245415D01*
X178005Y245619D01*
X177957Y245859D01*
X177933Y246123D01*
X177921Y246412D01*
Y246556D01*
X177933Y246628D01*
Y246712D01*
X177957Y246904D01*
X177993Y247120D01*
X178041Y247361D01*
X178101Y247601D01*
X178197Y247817D01*
Y247829D01*
X178209Y247841D01*
X178246Y247913D01*
X178306Y248010D01*
X178390Y248142D01*
X178510Y248286D01*
X178642Y248442D01*
X178798Y248598D01*
X178990Y248742D01*
X179014Y248754D01*
X179086Y248803D01*
X179195Y248863D01*
X179339Y248947D01*
X179519Y249031D01*
X179735Y249115D01*
X179988Y249187D01*
X180264Y249259D01*
X180276D01*
X180300Y249271D01*
X180336D01*
X180396Y249283D01*
X180468Y249295D01*
X180552Y249307D01*
X180648Y249331D01*
X180769Y249343D01*
X181021Y249379D01*
X181321Y249403D01*
X181646Y249415D01*
X182006Y249427D01*
X182018D01*
X182054D01*
X182102D01*
X182174D01*
X182258D01*
X182366Y249415D01*
D02*
G37*
G36*
X185911Y240380D02*
X183844D01*
Y242243D01*
X185911D01*
Y240380D01*
D02*
G37*
G36*
Y233809D02*
X184541D01*
Y235455D01*
X180420D01*
Y233809D01*
X179147D01*
Y234037D01*
X179135Y234145D01*
Y234265D01*
X179111Y234518D01*
Y234530D01*
X179098Y234578D01*
X179086Y234638D01*
X179074Y234722D01*
X179027Y234914D01*
X178990Y235010D01*
X178954Y235094D01*
X178942Y235106D01*
X178930Y235130D01*
X178906Y235178D01*
X178858Y235238D01*
X178762Y235359D01*
X178618Y235479D01*
X178606Y235491D01*
X178582Y235503D01*
X178534Y235527D01*
X178474Y235551D01*
X178390Y235587D01*
X178294Y235611D01*
X178197Y235635D01*
X178077Y235647D01*
Y237365D01*
X184541D01*
Y238975D01*
X185911D01*
Y233809D01*
D02*
G37*
G36*
X189091Y118174D02*
X187036D01*
X184357Y125995D01*
X186388D01*
X188094Y120673D01*
X189800Y125995D01*
X191782D01*
X189091Y118174D01*
D02*
G37*
G36*
X183732Y124517D02*
X180405D01*
Y123207D01*
X180465D01*
X180513Y123219D01*
X180633D01*
X180777Y123231D01*
X180849D01*
X180897Y123244D01*
X181318D01*
X181462Y123231D01*
X181618Y123219D01*
X181798Y123195D01*
X182159Y123123D01*
X182183D01*
X182243Y123099D01*
X182327Y123075D01*
X182447Y123039D01*
X182579Y122991D01*
X182711Y122931D01*
X182855Y122859D01*
X183000Y122775D01*
X183024Y122763D01*
X183072Y122727D01*
X183156Y122655D01*
X183252Y122571D01*
X183360Y122463D01*
X183480Y122318D01*
X183600Y122174D01*
X183696Y121994D01*
X183708Y121970D01*
X183732Y121910D01*
X183781Y121802D01*
X183829Y121670D01*
X183865Y121501D01*
X183913Y121297D01*
X183937Y121069D01*
X183949Y120817D01*
Y120805D01*
Y120793D01*
Y120757D01*
Y120709D01*
X183937Y120600D01*
X183925Y120444D01*
X183901Y120264D01*
X183853Y120072D01*
X183805Y119880D01*
X183732Y119675D01*
X183720Y119651D01*
X183696Y119591D01*
X183648Y119495D01*
X183576Y119375D01*
X183492Y119231D01*
X183384Y119087D01*
X183252Y118930D01*
X183108Y118786D01*
X183084Y118774D01*
X183036Y118726D01*
X182952Y118654D01*
X182831Y118570D01*
X182687Y118486D01*
X182531Y118390D01*
X182339Y118294D01*
X182135Y118209D01*
X182123D01*
X182111Y118197D01*
X182075Y118186D01*
X182038Y118174D01*
X181918Y118149D01*
X181750Y118113D01*
X181546Y118065D01*
X181318Y118041D01*
X181041Y118017D01*
X180753Y118005D01*
X180609D01*
X180537Y118017D01*
X180441D01*
X180236Y118029D01*
X179996Y118053D01*
X179756Y118077D01*
X179492Y118113D01*
X179251Y118161D01*
X179239D01*
X179227Y118174D01*
X179191D01*
X179143Y118186D01*
X179035Y118209D01*
X178891Y118246D01*
X178723Y118294D01*
X178554Y118354D01*
X178374Y118414D01*
X178218Y118474D01*
Y120180D01*
X178398D01*
X178410Y120168D01*
X178482Y120120D01*
X178590Y120048D01*
X178723Y119976D01*
X178735D01*
X178759Y119964D01*
X178795Y119940D01*
X178855Y119916D01*
X178915Y119880D01*
X178999Y119844D01*
X179095Y119807D01*
X179203Y119759D01*
X179215D01*
X179251Y119747D01*
X179311Y119723D01*
X179383Y119699D01*
X179468Y119663D01*
X179564Y119639D01*
X179768Y119579D01*
X179780D01*
X179816Y119567D01*
X179876Y119555D01*
X179960Y119543D01*
X180056Y119531D01*
X180164Y119519D01*
X180405Y119507D01*
X180525D01*
X180609Y119519D01*
X180705D01*
X180813Y119543D01*
X181065Y119579D01*
X181077D01*
X181125Y119591D01*
X181185Y119615D01*
X181270Y119639D01*
X181462Y119723D01*
X181546Y119783D01*
X181630Y119855D01*
X181642Y119867D01*
X181654Y119880D01*
X181726Y119964D01*
X181810Y120072D01*
X181882Y120204D01*
Y120216D01*
X181894Y120240D01*
X181918Y120288D01*
X181930Y120348D01*
X181954Y120420D01*
X181966Y120516D01*
X181978Y120624D01*
Y120744D01*
Y120757D01*
Y120793D01*
Y120841D01*
X181966Y120913D01*
X181930Y121057D01*
X181858Y121213D01*
Y121225D01*
X181834Y121249D01*
X181810Y121285D01*
X181786Y121333D01*
X181690Y121441D01*
X181558Y121538D01*
X181546Y121550D01*
X181510Y121561D01*
X181450Y121597D01*
X181378Y121634D01*
X181282Y121670D01*
X181173Y121706D01*
X181053Y121742D01*
X180909Y121766D01*
X180897D01*
X180849Y121778D01*
X180777Y121790D01*
X180693Y121802D01*
X180585D01*
X180477Y121814D01*
X180260Y121826D01*
X180104D01*
X179996Y121814D01*
X179864D01*
X179720Y121802D01*
X179419Y121754D01*
X179407D01*
X179347Y121742D01*
X179275Y121730D01*
X179179Y121706D01*
X179071Y121682D01*
X178951Y121658D01*
X178723Y121610D01*
X178554D01*
Y125995D01*
X183732D01*
Y124517D01*
D02*
G37*
G36*
X137409Y460681D02*
X137658Y460667D01*
X137963Y460639D01*
X138268Y460597D01*
X138574Y460542D01*
X138851Y460473D01*
X138865D01*
X138879Y460459D01*
X138920Y460445D01*
X138976Y460431D01*
X139114Y460389D01*
X139295Y460320D01*
X139516Y460237D01*
X139766Y460140D01*
X140043Y460029D01*
X140321Y459890D01*
Y457782D01*
X140099D01*
X140085Y457810D01*
X140043Y457838D01*
X139988Y457879D01*
X139919Y457921D01*
X139849Y457976D01*
X139641Y458129D01*
X139628Y458143D01*
X139586Y458170D01*
X139530Y458212D01*
X139447Y458268D01*
X139267Y458392D01*
X139045Y458531D01*
X139031Y458545D01*
X138989Y458559D01*
X138906Y458600D01*
X138823Y458642D01*
X138698Y458697D01*
X138560Y458753D01*
X138421Y458808D01*
X138254Y458864D01*
X138241D01*
X138171Y458892D01*
X138088Y458905D01*
X137977Y458933D01*
X137825Y458961D01*
X137672Y458975D01*
X137492Y459002D01*
X137214D01*
X137103Y458989D01*
X136965Y458975D01*
X136798Y458961D01*
X136618Y458919D01*
X136424Y458878D01*
X136244Y458808D01*
X136230Y458795D01*
X136160Y458781D01*
X136077Y458725D01*
X135966Y458670D01*
X135828Y458600D01*
X135689Y458503D01*
X135536Y458392D01*
X135398Y458254D01*
X135384Y458240D01*
X135342Y458184D01*
X135273Y458115D01*
X135203Y458004D01*
X135106Y457865D01*
X135023Y457713D01*
X134926Y457533D01*
X134843Y457324D01*
X134829Y457297D01*
X134815Y457227D01*
X134774Y457116D01*
X134746Y456950D01*
X134704Y456770D01*
X134663Y456548D01*
X134649Y456298D01*
X134635Y456035D01*
Y456021D01*
Y455965D01*
Y455882D01*
X134649Y455771D01*
X134663Y455646D01*
X134676Y455494D01*
X134704Y455327D01*
X134732Y455147D01*
X134829Y454773D01*
X134898Y454579D01*
X134968Y454384D01*
X135065Y454204D01*
X135162Y454024D01*
X135287Y453857D01*
X135425Y453705D01*
X135439Y453691D01*
X135467Y453677D01*
X135508Y453635D01*
X135564Y453594D01*
X135647Y453538D01*
X135744Y453469D01*
X135869Y453400D01*
X135994Y453330D01*
X136133Y453261D01*
X136299Y453192D01*
X136479Y453136D01*
X136673Y453067D01*
X136882Y453025D01*
X137103Y452984D01*
X137339Y452970D01*
X137589Y452956D01*
X138074D01*
X138171Y452970D01*
Y454745D01*
X136410D01*
Y456451D01*
X140363D01*
Y451999D01*
X140335Y451985D01*
X140252Y451957D01*
X140127Y451916D01*
X139946Y451846D01*
X139725Y451777D01*
X139461Y451708D01*
X139156Y451611D01*
X138809Y451527D01*
X138795D01*
X138768Y451514D01*
X138712D01*
X138643Y451500D01*
X138560Y451472D01*
X138462Y451458D01*
X138227Y451417D01*
X137935Y451375D01*
X137617Y451347D01*
X137284Y451319D01*
X136937Y451306D01*
X136840D01*
X136729Y451319D01*
X136590D01*
X136410Y451347D01*
X136202Y451375D01*
X135966Y451403D01*
X135717Y451458D01*
X135453Y451527D01*
X135176Y451611D01*
X134898Y451708D01*
X134621Y451819D01*
X134330Y451957D01*
X134066Y452124D01*
X133803Y452318D01*
X133553Y452526D01*
X133539Y452540D01*
X133498Y452581D01*
X133442Y452651D01*
X133359Y452748D01*
X133262Y452887D01*
X133151Y453039D01*
X133040Y453219D01*
X132929Y453427D01*
X132804Y453663D01*
X132693Y453913D01*
X132582Y454204D01*
X132485Y454509D01*
X132402Y454856D01*
X132346Y455216D01*
X132305Y455605D01*
X132291Y456007D01*
Y456035D01*
Y456104D01*
X132305Y456215D01*
Y456354D01*
X132333Y456534D01*
X132360Y456742D01*
X132402Y456978D01*
X132444Y457227D01*
X132513Y457491D01*
X132596Y457768D01*
X132707Y458046D01*
X132818Y458337D01*
X132971Y458614D01*
X133137Y458892D01*
X133331Y459155D01*
X133553Y459405D01*
X133567Y459419D01*
X133609Y459460D01*
X133678Y459529D01*
X133789Y459613D01*
X133914Y459710D01*
X134066Y459807D01*
X134247Y459932D01*
X134454Y460056D01*
X134690Y460168D01*
X134954Y460292D01*
X135231Y460389D01*
X135536Y460500D01*
X135869Y460570D01*
X136230Y460639D01*
X136604Y460681D01*
X137006Y460695D01*
X137298D01*
X137409Y460681D01*
D02*
G37*
G36*
X149807Y451500D02*
X147629D01*
X144135Y457782D01*
Y451500D01*
X142068D01*
Y460528D01*
X144842D01*
X147740Y455355D01*
Y460528D01*
X149807D01*
Y451500D01*
D02*
G37*
G36*
X155021Y460514D02*
X155285Y460500D01*
X155590Y460473D01*
X155895Y460445D01*
X156214Y460403D01*
X156256D01*
X156297Y460389D01*
X156353Y460376D01*
X156436Y460362D01*
X156519Y460334D01*
X156727Y460278D01*
X156963Y460209D01*
X157226Y460098D01*
X157504Y459973D01*
X157781Y459807D01*
X157795D01*
X157823Y459779D01*
X157864Y459751D01*
X157934Y459710D01*
X158086Y459571D01*
X158294Y459405D01*
X158516Y459183D01*
X158752Y458919D01*
X158974Y458614D01*
X159182Y458268D01*
Y458254D01*
X159210Y458226D01*
X159237Y458170D01*
X159265Y458101D01*
X159307Y458004D01*
X159348Y457893D01*
X159390Y457768D01*
X159445Y457630D01*
X159501Y457463D01*
X159543Y457297D01*
X159626Y456908D01*
X159681Y456465D01*
X159709Y455993D01*
Y455979D01*
Y455938D01*
Y455868D01*
X159695Y455785D01*
Y455674D01*
X159681Y455535D01*
X159667Y455397D01*
X159640Y455244D01*
X159570Y454884D01*
X159473Y454509D01*
X159334Y454121D01*
X159154Y453732D01*
Y453719D01*
X159126Y453691D01*
X159099Y453635D01*
X159057Y453566D01*
X159002Y453483D01*
X158932Y453400D01*
X158766Y453178D01*
X158572Y452928D01*
X158336Y452678D01*
X158059Y452429D01*
X157753Y452207D01*
X157740D01*
X157726Y452193D01*
X157684Y452165D01*
X157629Y452138D01*
X157490Y452054D01*
X157296Y451957D01*
X157074Y451860D01*
X156810Y451763D01*
X156519Y451680D01*
X156214Y451624D01*
X156173D01*
X156131Y451611D01*
X156075D01*
X155992Y451597D01*
X155909Y451583D01*
X155687Y451569D01*
X155424Y451541D01*
X155132Y451514D01*
X154799Y451500D01*
X151637D01*
Y460528D01*
X154786D01*
X155021Y460514D01*
D02*
G37*
G36*
X122589Y81095D02*
X120726D01*
Y83162D01*
X122589D01*
Y81095D01*
D02*
G37*
G36*
X117711Y82465D02*
X119321D01*
Y81095D01*
X114155D01*
Y82465D01*
X115801D01*
Y86586D01*
X114155D01*
Y87859D01*
X114383D01*
X114491Y87871D01*
X114611D01*
X114864Y87895D01*
X114876D01*
X114924Y87907D01*
X114984Y87920D01*
X115068Y87931D01*
X115260Y87979D01*
X115356Y88016D01*
X115440Y88052D01*
X115452Y88064D01*
X115476Y88076D01*
X115524Y88100D01*
X115584Y88148D01*
X115705Y88244D01*
X115825Y88388D01*
X115837Y88400D01*
X115849Y88424D01*
X115873Y88472D01*
X115897Y88532D01*
X115933Y88616D01*
X115957Y88712D01*
X115981Y88808D01*
X115993Y88929D01*
X117711D01*
Y82465D01*
D02*
G37*
G36*
X127010Y89073D02*
X127190Y89061D01*
X127382Y89049D01*
X127599Y89025D01*
X127815Y88977D01*
X128019Y88929D01*
X128031D01*
X128043Y88917D01*
X128115Y88905D01*
X128211Y88869D01*
X128331Y88820D01*
X128476Y88760D01*
X128620Y88688D01*
X128764Y88616D01*
X128896Y88520D01*
X128908Y88508D01*
X128956Y88472D01*
X129016Y88412D01*
X129100Y88340D01*
X129185Y88256D01*
X129281Y88148D01*
X129365Y88028D01*
X129449Y87895D01*
X129461Y87883D01*
X129485Y87835D01*
X129509Y87763D01*
X129545Y87667D01*
X129581Y87547D01*
X129617Y87415D01*
X129629Y87259D01*
X129641Y87102D01*
Y87079D01*
Y87006D01*
X129629Y86898D01*
X129605Y86766D01*
X129557Y86610D01*
X129509Y86442D01*
X129425Y86273D01*
X129317Y86093D01*
X129305Y86069D01*
X129257Y86021D01*
X129185Y85937D01*
X129076Y85829D01*
X128932Y85721D01*
X128764Y85589D01*
X128560Y85469D01*
X128331Y85348D01*
Y85312D01*
X128343D01*
X128368Y85300D01*
X128404Y85276D01*
X128464Y85252D01*
X128596Y85192D01*
X128764Y85096D01*
X128944Y84976D01*
X129136Y84832D01*
X129317Y84664D01*
X129473Y84483D01*
X129485Y84459D01*
X129533Y84399D01*
X129593Y84291D01*
X129665Y84147D01*
X129725Y83967D01*
X129785Y83763D01*
X129833Y83522D01*
X129845Y83270D01*
Y83246D01*
Y83186D01*
X129833Y83090D01*
X129821Y82970D01*
X129797Y82825D01*
X129749Y82657D01*
X129701Y82501D01*
X129629Y82333D01*
X129617Y82309D01*
X129593Y82261D01*
X129545Y82177D01*
X129473Y82081D01*
X129389Y81960D01*
X129293Y81828D01*
X129172Y81696D01*
X129028Y81576D01*
X129016Y81564D01*
X128956Y81528D01*
X128872Y81468D01*
X128764Y81396D01*
X128620Y81324D01*
X128452Y81240D01*
X128259Y81167D01*
X128055Y81095D01*
X128043D01*
X128031Y81083D01*
X127995D01*
X127959Y81071D01*
X127839Y81035D01*
X127671Y81011D01*
X127479Y80975D01*
X127262Y80939D01*
X127010Y80927D01*
X126746Y80915D01*
X126541D01*
X126469Y80927D01*
X126277Y80939D01*
X126061Y80963D01*
X125833Y80987D01*
X125592Y81035D01*
X125364Y81095D01*
X125352D01*
X125340Y81107D01*
X125268Y81131D01*
X125160Y81167D01*
X125028Y81228D01*
X124871Y81288D01*
X124703Y81372D01*
X124547Y81468D01*
X124391Y81576D01*
X124379Y81588D01*
X124331Y81636D01*
X124259Y81696D01*
X124187Y81780D01*
X124090Y81888D01*
X124006Y82021D01*
X123910Y82153D01*
X123838Y82309D01*
X123826Y82333D01*
X123814Y82381D01*
X123790Y82465D01*
X123754Y82573D01*
X123718Y82705D01*
X123694Y82861D01*
X123682Y83030D01*
X123670Y83198D01*
Y83210D01*
Y83234D01*
Y83258D01*
X123682Y83306D01*
X123694Y83438D01*
X123718Y83594D01*
X123754Y83763D01*
X123826Y83955D01*
X123910Y84135D01*
X124030Y84315D01*
X124042Y84339D01*
X124102Y84387D01*
X124187Y84471D01*
X124307Y84579D01*
X124451Y84688D01*
X124643Y84820D01*
X124859Y84940D01*
X125100Y85060D01*
Y85096D01*
X125088D01*
X125076Y85108D01*
X125040Y85132D01*
X124992Y85156D01*
X124871Y85228D01*
X124727Y85324D01*
X124559Y85444D01*
X124403Y85577D01*
X124259Y85733D01*
X124138Y85901D01*
X124127Y85925D01*
X124102Y85985D01*
X124054Y86081D01*
X124006Y86213D01*
X123958Y86370D01*
X123910Y86550D01*
X123886Y86754D01*
X123874Y86970D01*
Y86994D01*
Y87042D01*
X123886Y87127D01*
X123898Y87235D01*
X123922Y87355D01*
X123946Y87487D01*
X123994Y87631D01*
X124054Y87775D01*
X124066Y87787D01*
X124090Y87835D01*
X124138Y87907D01*
X124199Y88004D01*
X124283Y88112D01*
X124379Y88232D01*
X124487Y88340D01*
X124619Y88460D01*
X124631Y88472D01*
X124679Y88508D01*
X124763Y88556D01*
X124871Y88616D01*
X125004Y88688D01*
X125148Y88760D01*
X125328Y88833D01*
X125520Y88905D01*
X125532D01*
X125544Y88917D01*
X125616Y88929D01*
X125736Y88965D01*
X125881Y89001D01*
X126061Y89025D01*
X126277Y89061D01*
X126505Y89073D01*
X126758Y89085D01*
X126878D01*
X127010Y89073D01*
D02*
G37*
G36*
X206215Y98695D02*
X206326D01*
X206465Y98681D01*
X206603Y98667D01*
X206756Y98640D01*
X207116Y98570D01*
X207491Y98473D01*
X207879Y98335D01*
X208267Y98154D01*
X208281D01*
X208309Y98126D01*
X208365Y98099D01*
X208434Y98057D01*
X208517Y98002D01*
X208600Y97932D01*
X208822Y97766D01*
X209072Y97572D01*
X209321Y97336D01*
X209571Y97059D01*
X209793Y96754D01*
Y96740D01*
X209807Y96726D01*
X209835Y96684D01*
X209862Y96629D01*
X209946Y96490D01*
X210043Y96296D01*
X210140Y96074D01*
X210237Y95810D01*
X210320Y95519D01*
X210375Y95214D01*
Y95173D01*
X210389Y95131D01*
Y95075D01*
X210403Y94992D01*
X210417Y94909D01*
X210431Y94687D01*
X210459Y94424D01*
X210486Y94132D01*
X210500Y93799D01*
Y90638D01*
X201472D01*
Y93786D01*
X201486Y94021D01*
X201500Y94285D01*
X201527Y94590D01*
X201555Y94895D01*
X201597Y95214D01*
Y95256D01*
X201611Y95297D01*
X201625Y95353D01*
X201638Y95436D01*
X201666Y95519D01*
X201721Y95727D01*
X201791Y95963D01*
X201902Y96227D01*
X202027Y96504D01*
X202193Y96781D01*
Y96795D01*
X202221Y96823D01*
X202248Y96864D01*
X202290Y96934D01*
X202429Y97086D01*
X202595Y97294D01*
X202817Y97516D01*
X203081Y97752D01*
X203386Y97974D01*
X203732Y98182D01*
X203746D01*
X203774Y98210D01*
X203829Y98237D01*
X203899Y98265D01*
X203996Y98307D01*
X204107Y98348D01*
X204232Y98390D01*
X204370Y98445D01*
X204537Y98501D01*
X204703Y98542D01*
X205092Y98626D01*
X205535Y98681D01*
X206007Y98709D01*
X206021D01*
X206062D01*
X206132D01*
X206215Y98695D01*
D02*
G37*
G36*
X210500Y86629D02*
X204218Y83135D01*
X210500D01*
Y81068D01*
X201472D01*
Y83842D01*
X206645Y86741D01*
X201472D01*
Y88807D01*
X210500D01*
Y86629D01*
D02*
G37*
G36*
X210015Y79335D02*
X210043Y79252D01*
X210084Y79127D01*
X210154Y78946D01*
X210223Y78725D01*
X210292Y78461D01*
X210389Y78156D01*
X210473Y77809D01*
Y77795D01*
X210486Y77768D01*
Y77712D01*
X210500Y77643D01*
X210528Y77560D01*
X210542Y77463D01*
X210583Y77227D01*
X210625Y76936D01*
X210653Y76617D01*
X210681Y76284D01*
X210694Y75937D01*
Y75840D01*
X210681Y75729D01*
Y75590D01*
X210653Y75410D01*
X210625Y75202D01*
X210597Y74966D01*
X210542Y74717D01*
X210473Y74453D01*
X210389Y74176D01*
X210292Y73898D01*
X210181Y73621D01*
X210043Y73330D01*
X209876Y73066D01*
X209682Y72803D01*
X209474Y72553D01*
X209460Y72539D01*
X209419Y72498D01*
X209349Y72442D01*
X209252Y72359D01*
X209113Y72262D01*
X208961Y72151D01*
X208781Y72040D01*
X208573Y71929D01*
X208337Y71804D01*
X208087Y71693D01*
X207796Y71582D01*
X207491Y71485D01*
X207144Y71402D01*
X206784Y71347D01*
X206395Y71305D01*
X205993Y71291D01*
X205965D01*
X205896D01*
X205785Y71305D01*
X205646D01*
X205466Y71333D01*
X205258Y71360D01*
X205022Y71402D01*
X204773Y71444D01*
X204509Y71513D01*
X204232Y71596D01*
X203954Y71707D01*
X203663Y71818D01*
X203386Y71971D01*
X203108Y72137D01*
X202845Y72331D01*
X202595Y72553D01*
X202581Y72567D01*
X202540Y72609D01*
X202470Y72678D01*
X202387Y72789D01*
X202290Y72914D01*
X202193Y73066D01*
X202068Y73246D01*
X201943Y73455D01*
X201833Y73690D01*
X201708Y73954D01*
X201611Y74231D01*
X201500Y74536D01*
X201430Y74869D01*
X201361Y75230D01*
X201319Y75604D01*
X201306Y76006D01*
Y76298D01*
X201319Y76409D01*
X201333Y76658D01*
X201361Y76963D01*
X201403Y77268D01*
X201458Y77573D01*
X201527Y77851D01*
Y77865D01*
X201541Y77879D01*
X201555Y77920D01*
X201569Y77976D01*
X201611Y78114D01*
X201680Y78295D01*
X201763Y78517D01*
X201860Y78766D01*
X201971Y79043D01*
X202110Y79321D01*
X204218D01*
Y79099D01*
X204190Y79085D01*
X204162Y79043D01*
X204121Y78988D01*
X204079Y78919D01*
X204024Y78849D01*
X203871Y78641D01*
X203857Y78628D01*
X203829Y78586D01*
X203788Y78530D01*
X203732Y78447D01*
X203608Y78267D01*
X203469Y78045D01*
X203455Y78031D01*
X203441Y77990D01*
X203400Y77906D01*
X203358Y77823D01*
X203302Y77698D01*
X203247Y77560D01*
X203192Y77421D01*
X203136Y77255D01*
Y77241D01*
X203108Y77171D01*
X203095Y77088D01*
X203067Y76977D01*
X203039Y76825D01*
X203025Y76672D01*
X202997Y76492D01*
Y76214D01*
X203011Y76103D01*
X203025Y75965D01*
X203039Y75798D01*
X203081Y75618D01*
X203122Y75424D01*
X203192Y75244D01*
X203206Y75230D01*
X203219Y75160D01*
X203275Y75077D01*
X203330Y74966D01*
X203400Y74827D01*
X203497Y74689D01*
X203608Y74536D01*
X203746Y74398D01*
X203760Y74384D01*
X203816Y74342D01*
X203885Y74273D01*
X203996Y74204D01*
X204135Y74106D01*
X204287Y74023D01*
X204468Y73926D01*
X204676Y73843D01*
X204703Y73829D01*
X204773Y73815D01*
X204883Y73773D01*
X205050Y73746D01*
X205230Y73704D01*
X205452Y73663D01*
X205702Y73649D01*
X205965Y73635D01*
X205979D01*
X206035D01*
X206118D01*
X206229Y73649D01*
X206354Y73663D01*
X206506Y73677D01*
X206673Y73704D01*
X206853Y73732D01*
X207227Y73829D01*
X207421Y73898D01*
X207616Y73968D01*
X207796Y74065D01*
X207976Y74162D01*
X208143Y74287D01*
X208295Y74425D01*
X208309Y74439D01*
X208323Y74467D01*
X208365Y74509D01*
X208406Y74564D01*
X208462Y74647D01*
X208531Y74744D01*
X208600Y74869D01*
X208670Y74994D01*
X208739Y75133D01*
X208808Y75299D01*
X208864Y75479D01*
X208933Y75673D01*
X208975Y75882D01*
X209016Y76103D01*
X209030Y76339D01*
X209044Y76589D01*
Y77074D01*
X209030Y77171D01*
X207255D01*
Y75410D01*
X205549D01*
Y79363D01*
X210001D01*
X210015Y79335D01*
D02*
G37*
%LPC*%
G36*
X182270Y247457D02*
X182006D01*
X181994D01*
X181946D01*
X181862D01*
X181766D01*
X181646Y247445D01*
X181513D01*
X181357Y247433D01*
X181201D01*
X180865Y247397D01*
X180516Y247361D01*
X180360Y247325D01*
X180204Y247301D01*
X180072Y247265D01*
X179952Y247217D01*
X179939D01*
X179928Y247205D01*
X179855Y247169D01*
X179759Y247108D01*
X179651Y247024D01*
X179543Y246916D01*
X179459Y246772D01*
X179387Y246604D01*
X179375Y246520D01*
X179363Y246412D01*
Y246388D01*
X179375Y246316D01*
X179399Y246219D01*
X179435Y246099D01*
X179507Y245967D01*
X179615Y245835D01*
X179675Y245775D01*
X179759Y245715D01*
X179843Y245655D01*
X179952Y245607D01*
X179964D01*
X179976Y245595D01*
X180012Y245583D01*
X180072Y245571D01*
X180132Y245547D01*
X180216Y245535D01*
X180312Y245511D01*
X180432Y245487D01*
X180564Y245463D01*
X180709Y245438D01*
X180877Y245427D01*
X181069Y245403D01*
X181273Y245390D01*
X181501Y245378D01*
X181742Y245366D01*
X182006D01*
X182018D01*
X182066D01*
X182138D01*
X182234D01*
X182354Y245378D01*
X182499D01*
X182643Y245390D01*
X182799Y245403D01*
X183135Y245427D01*
X183472Y245463D01*
X183640Y245499D01*
X183784Y245523D01*
X183928Y245571D01*
X184048Y245607D01*
X184060D01*
X184072Y245619D01*
X184144Y245655D01*
X184229Y245715D01*
X184337Y245799D01*
X184445Y245907D01*
X184541Y246051D01*
X184613Y246219D01*
X184625Y246316D01*
X184637Y246412D01*
Y246436D01*
X184625Y246508D01*
X184601Y246604D01*
X184565Y246724D01*
X184493Y246844D01*
X184385Y246976D01*
X184325Y247048D01*
X184241Y247097D01*
X184156Y247157D01*
X184048Y247205D01*
X184036D01*
X184024Y247217D01*
X183988Y247229D01*
X183928Y247241D01*
X183868Y247265D01*
X183784Y247289D01*
X183688Y247313D01*
X183568Y247337D01*
X183436Y247349D01*
X183279Y247373D01*
X183123Y247397D01*
X182931Y247421D01*
X182727Y247433D01*
X182511Y247445D01*
X182270Y247457D01*
D02*
G37*
G36*
X154425Y458850D02*
X153898D01*
Y453205D01*
X154799D01*
X155007Y453219D01*
X155243D01*
X155313Y453233D01*
X155410Y453247D01*
X155534Y453275D01*
X155687Y453316D01*
X155854Y453372D01*
X156034Y453455D01*
X156214Y453552D01*
X156242Y453566D01*
X156311Y453622D01*
X156408Y453691D01*
X156533Y453802D01*
X156672Y453941D01*
X156810Y454107D01*
X156949Y454287D01*
X157074Y454509D01*
Y454523D01*
X157088Y454537D01*
X157115Y454620D01*
X157171Y454759D01*
X157226Y454939D01*
X157268Y455147D01*
X157324Y455411D01*
X157351Y455702D01*
X157365Y456021D01*
Y456035D01*
Y456062D01*
Y456104D01*
Y456173D01*
X157351Y456243D01*
Y456340D01*
X157324Y456548D01*
X157282Y456784D01*
X157226Y457047D01*
X157157Y457297D01*
X157046Y457546D01*
Y457560D01*
X157032Y457574D01*
X156991Y457657D01*
X156921Y457768D01*
X156810Y457907D01*
X156686Y458073D01*
X156519Y458240D01*
X156325Y458392D01*
X156103Y458545D01*
X156089Y458559D01*
X156020Y458587D01*
X155937Y458628D01*
X155812Y458670D01*
X155659Y458725D01*
X155507Y458767D01*
X155326Y458808D01*
X155132Y458822D01*
X155049D01*
X154938Y458836D01*
X154619D01*
X154425Y458850D01*
D02*
G37*
G36*
X126758Y87751D02*
X126685D01*
X126601Y87739D01*
X126505Y87727D01*
X126397Y87703D01*
X126277Y87655D01*
X126169Y87607D01*
X126061Y87535D01*
X126049Y87523D01*
X126025Y87499D01*
X125977Y87451D01*
X125941Y87391D01*
X125893Y87307D01*
X125845Y87223D01*
X125821Y87114D01*
X125808Y87006D01*
Y86994D01*
Y86958D01*
X125821Y86898D01*
X125833Y86826D01*
X125881Y86658D01*
X125917Y86574D01*
X125965Y86502D01*
X125977Y86490D01*
X126001Y86466D01*
X126037Y86430D01*
X126085Y86382D01*
X126157Y86334D01*
X126241Y86273D01*
X126337Y86201D01*
X126457Y86141D01*
X126469D01*
X126481Y86129D01*
X126553Y86093D01*
X126662Y86045D01*
X126794Y85985D01*
X126806D01*
X126830Y85973D01*
X126878Y85961D01*
X126938Y85937D01*
X127010Y85901D01*
X127106Y85877D01*
X127214Y85841D01*
X127334Y85793D01*
X127346Y85805D01*
X127370Y85841D01*
X127406Y85889D01*
X127455Y85961D01*
X127551Y86117D01*
X127635Y86298D01*
Y86310D01*
X127647Y86346D01*
X127671Y86394D01*
X127683Y86466D01*
X127707Y86550D01*
X127719Y86646D01*
X127731Y86874D01*
Y86886D01*
Y86946D01*
X127719Y87018D01*
X127695Y87102D01*
X127671Y87199D01*
X127623Y87307D01*
X127551Y87415D01*
X127466Y87511D01*
X127455Y87523D01*
X127418Y87547D01*
X127358Y87583D01*
X127274Y87631D01*
X127178Y87679D01*
X127058Y87715D01*
X126914Y87739D01*
X126758Y87751D01*
D02*
G37*
G36*
X126097Y84616D02*
X126085Y84604D01*
X126061Y84579D01*
X126025Y84531D01*
X125977Y84471D01*
X125917Y84399D01*
X125857Y84315D01*
X125736Y84111D01*
X125724Y84099D01*
X125712Y84063D01*
X125688Y84003D01*
X125664Y83919D01*
X125628Y83823D01*
X125604Y83702D01*
X125592Y83582D01*
X125580Y83450D01*
Y83426D01*
Y83366D01*
X125604Y83258D01*
X125628Y83138D01*
X125664Y83006D01*
X125724Y82861D01*
X125808Y82717D01*
X125917Y82585D01*
X125929Y82573D01*
X125977Y82537D01*
X126061Y82477D01*
X126157Y82429D01*
X126289Y82369D01*
X126445Y82309D01*
X126625Y82273D01*
X126830Y82261D01*
X126854D01*
X126938Y82273D01*
X127046Y82285D01*
X127178Y82309D01*
X127190D01*
X127214Y82321D01*
X127250Y82333D01*
X127298Y82345D01*
X127406Y82393D01*
X127527Y82465D01*
X127539D01*
X127551Y82489D01*
X127623Y82549D01*
X127719Y82633D01*
X127803Y82741D01*
Y82753D01*
X127815Y82777D01*
X127839Y82813D01*
X127863Y82861D01*
X127875Y82922D01*
X127899Y83006D01*
X127911Y83186D01*
Y83198D01*
Y83246D01*
X127899Y83318D01*
X127887Y83402D01*
X127839Y83594D01*
X127803Y83691D01*
X127743Y83775D01*
X127731Y83787D01*
X127707Y83811D01*
X127659Y83859D01*
X127599Y83907D01*
X127502Y83979D01*
X127382Y84051D01*
X127226Y84135D01*
X127046Y84231D01*
X127034D01*
X127022Y84243D01*
X126986Y84255D01*
X126938Y84279D01*
X126866Y84303D01*
X126794Y84339D01*
X126710Y84375D01*
X126601Y84411D01*
X126589D01*
X126553Y84435D01*
X126505Y84447D01*
X126433Y84483D01*
X126277Y84544D01*
X126097Y84616D01*
D02*
G37*
G36*
X205979Y96365D02*
X205965D01*
X205938D01*
X205896D01*
X205827D01*
X205757Y96351D01*
X205660D01*
X205452Y96324D01*
X205216Y96282D01*
X204953Y96227D01*
X204703Y96157D01*
X204454Y96046D01*
X204440D01*
X204426Y96032D01*
X204343Y95991D01*
X204232Y95921D01*
X204093Y95810D01*
X203927Y95686D01*
X203760Y95519D01*
X203608Y95325D01*
X203455Y95103D01*
X203441Y95089D01*
X203414Y95020D01*
X203372Y94937D01*
X203330Y94812D01*
X203275Y94659D01*
X203233Y94507D01*
X203192Y94326D01*
X203178Y94132D01*
Y94049D01*
X203164Y93938D01*
Y93619D01*
X203150Y93425D01*
Y92898D01*
X208794D01*
Y93799D01*
X208781Y94008D01*
Y94243D01*
X208767Y94313D01*
X208753Y94410D01*
X208725Y94535D01*
X208683Y94687D01*
X208628Y94853D01*
X208545Y95034D01*
X208448Y95214D01*
X208434Y95242D01*
X208378Y95311D01*
X208309Y95408D01*
X208198Y95533D01*
X208059Y95672D01*
X207893Y95810D01*
X207713Y95949D01*
X207491Y96074D01*
X207477D01*
X207463Y96088D01*
X207380Y96116D01*
X207241Y96171D01*
X207061Y96227D01*
X206853Y96268D01*
X206589Y96324D01*
X206298Y96351D01*
X205979Y96365D01*
D02*
G37*
%LPD*%
D10*
X117250Y18000D02*
X118750D01*
X117250Y24000D02*
X118750D01*
X117250Y27000D02*
X118750D01*
X117250Y33000D02*
X118750D01*
X117250Y9000D02*
X118750D01*
X117250Y15000D02*
X118750D01*
X69250Y199000D02*
X70750D01*
X69250Y193000D02*
X70750D01*
X84000Y123250D02*
Y124750D01*
X90000Y123250D02*
Y124750D01*
X36000Y340000D02*
X36000Y342000D01*
X36000Y340000D02*
X36000Y340000D01*
Y340000D02*
Y340000D01*
X35000Y341000D02*
X37000D01*
X9000Y338000D02*
X36000D01*
Y324000D02*
Y338000D01*
X9000Y324000D02*
X36000D01*
X19000Y326000D02*
X21000D01*
X19000Y336000D02*
X21000D01*
X18000Y272000D02*
X20000D01*
X18000Y262000D02*
X20000D01*
X8000Y260000D02*
X35000D01*
Y274000D01*
X8000D02*
X35000D01*
X36000Y277000D02*
X40000D01*
X38000Y275000D02*
Y279000D01*
X175000Y259000D02*
Y282000D01*
Y259000D02*
X189000D01*
Y282000D01*
X182000Y272000D02*
X184000Y274000D01*
X180000D02*
X182000Y272000D01*
X180000Y274000D02*
X184000D01*
X180000Y272000D02*
X184000D01*
X132000Y26250D02*
Y27750D01*
X138000Y26250D02*
Y27750D01*
X102000Y234250D02*
Y235750D01*
X96000Y234250D02*
Y235750D01*
X146000Y128250D02*
Y129750D01*
X140000Y128250D02*
Y129750D01*
X155000Y128250D02*
Y129750D01*
X149000Y128250D02*
Y129750D01*
X146000Y355250D02*
Y356750D01*
X152000Y355250D02*
Y356750D01*
X87000Y234250D02*
Y235750D01*
X93000Y234250D02*
Y235750D01*
X152250Y158000D02*
X153750D01*
X152250Y164000D02*
X153750D01*
X152250Y149000D02*
X153750D01*
X152250Y155000D02*
X153750D01*
X89250Y141000D02*
X90750D01*
X89250Y147000D02*
X90750D01*
X89250Y156000D02*
X90750D01*
X89250Y150000D02*
X90750D01*
X101000Y113250D02*
Y114750D01*
X107000Y113250D02*
Y114750D01*
X153250Y114000D02*
X154750D01*
X153250Y108000D02*
X154750D01*
X152250Y384000D02*
X153750D01*
X152250Y378000D02*
X153750D01*
X152250Y212000D02*
X153750D01*
X152250Y206000D02*
X153750D01*
X77000Y234250D02*
Y235750D01*
X71000Y234250D02*
Y235750D01*
X84500Y42250D02*
Y43750D01*
X90500Y42250D02*
Y43750D01*
X99500Y42250D02*
Y43750D01*
X93500Y42250D02*
Y43750D01*
X55000Y13250D02*
Y14750D01*
X61000Y13250D02*
Y14750D01*
X58000Y76250D02*
Y77750D01*
X64000Y76250D02*
Y77750D01*
X54000Y76250D02*
Y77750D01*
X48000Y76250D02*
Y77750D01*
X55250Y95000D02*
X56750D01*
X55250Y101000D02*
X56750D01*
X44250Y208000D02*
X45750D01*
X44250Y202000D02*
X45750D01*
X147000Y233250D02*
Y234750D01*
X141000Y233250D02*
Y234750D01*
X81000Y349250D02*
Y350750D01*
X75000Y349250D02*
Y350750D01*
X64000Y327250D02*
Y328750D01*
X58000Y327250D02*
Y328750D01*
X56000Y406250D02*
Y407750D01*
X50000Y406250D02*
Y407750D01*
X74000Y406250D02*
Y407750D01*
X68000Y406250D02*
Y407750D01*
X60000Y234250D02*
Y235750D01*
X66000Y234250D02*
Y235750D01*
X68000Y327250D02*
Y328750D01*
X74000Y327250D02*
Y328750D01*
X163250Y258000D02*
X164750D01*
X163250Y264000D02*
X164750D01*
X143000Y407250D02*
Y408750D01*
X149000Y407250D02*
Y408750D01*
X152250Y275000D02*
X153750D01*
X152250Y269000D02*
X153750D01*
X152250Y324000D02*
X153750D01*
X152250Y318000D02*
X153750D01*
X137000Y355250D02*
Y356750D01*
X143000Y355250D02*
Y356750D01*
X91000Y349250D02*
Y350750D01*
X85000Y349250D02*
Y350750D01*
X152250Y369000D02*
X153750D01*
X152250Y375000D02*
X153750D01*
X55000Y349250D02*
Y350750D01*
X61000Y349250D02*
Y350750D01*
X173250Y39000D02*
X174750D01*
X173250Y45000D02*
X174750D01*
X153250Y94000D02*
X154750D01*
X153250Y88000D02*
X154750D01*
X152250Y221000D02*
X153750D01*
X152250Y215000D02*
X153750D01*
X172000Y276250D02*
Y277750D01*
X166000Y276250D02*
Y277750D01*
X116250Y39000D02*
X117750D01*
X116250Y45000D02*
X117750D01*
X153250Y105000D02*
X154750D01*
X153250Y99000D02*
X154750D01*
X44000Y327250D02*
Y328750D01*
X38000Y327250D02*
Y328750D01*
X202000Y8000D02*
Y12000D01*
X200000Y10000D02*
X204000D01*
X205000Y3000D02*
X232000D01*
X205000D02*
Y17000D01*
X232000D01*
X220000Y15000D02*
X222000D01*
X220000Y5000D02*
X222000D01*
X146000Y-0D02*
X150000D01*
X148000Y-2000D02*
Y2000D01*
X155000Y3000D02*
Y30000D01*
X141000Y3000D02*
X155000D01*
X141000D02*
Y30000D01*
X143000Y18000D02*
Y20000D01*
X153000Y18000D02*
Y20000D01*
X214250Y19000D02*
X215750D01*
X214250Y25000D02*
X215750D01*
X44000Y214500D02*
X48000D01*
X46000Y212500D02*
Y216500D01*
X53000Y217500D02*
Y244500D01*
X39000Y217500D02*
X53000D01*
X39000D02*
Y244500D01*
X41000Y232500D02*
Y234500D01*
X51000Y232500D02*
Y234500D01*
X180250Y84000D02*
X181750D01*
X180250Y90000D02*
X181750D01*
X43000Y261250D02*
Y262750D01*
X37000Y261250D02*
Y262750D01*
X127006Y45002D02*
X131006D01*
X129006Y43002D02*
Y47002D01*
X136006Y48002D02*
Y75002D01*
X122006Y48002D02*
X136006D01*
X122006D02*
Y75002D01*
X124006Y63002D02*
Y65002D01*
X134006Y63002D02*
Y65002D01*
X184000Y46000D02*
X188000D01*
X186000Y44000D02*
Y48000D01*
X193000Y49000D02*
Y76000D01*
X179000Y49000D02*
X193000D01*
X179000D02*
Y76000D01*
X181000Y64000D02*
Y66000D01*
X191000Y64000D02*
Y66000D01*
X44000Y393000D02*
Y397000D01*
X42000Y395000D02*
X46000D01*
X14000Y402000D02*
X41000D01*
Y388000D02*
Y402000D01*
X14000Y388000D02*
X41000D01*
X24000Y390000D02*
X26000D01*
X24000Y400000D02*
X26000D01*
X46000Y452000D02*
Y456000D01*
X44000Y454000D02*
X48000D01*
X16000Y461000D02*
X43000D01*
Y447000D02*
Y461000D01*
X16000Y447000D02*
X43000D01*
X26000Y449000D02*
X28000D01*
X26000Y459000D02*
X28000D01*
X8000Y446250D02*
Y447750D01*
X2000Y446250D02*
Y447750D01*
X58000Y55250D02*
Y56750D01*
X64000Y55250D02*
Y56750D01*
X180250Y94000D02*
X181750D01*
X180250Y100000D02*
X181750D01*
X111000Y65000D02*
X115000D01*
X111000Y63000D02*
X115000D01*
X113000Y65000D02*
X115000Y63000D01*
X111000D02*
X113000Y65000D01*
X106000Y55000D02*
Y78000D01*
X120000D01*
Y55000D02*
Y78000D01*
X186000Y107000D02*
Y111000D01*
X184000Y107000D02*
Y111000D01*
Y107000D02*
X186000Y109000D01*
X184000Y111000D02*
X186000Y109000D01*
X176000Y116000D02*
X199000D01*
Y102000D02*
Y116000D01*
X176000Y102000D02*
X199000D01*
X123250Y112000D02*
X124750D01*
X123250Y106000D02*
X124750D01*
X71000Y349250D02*
Y350750D01*
X65000Y349250D02*
Y350750D01*
X108000Y233250D02*
Y234750D01*
X114000Y233250D02*
Y234750D01*
X123250Y131000D02*
X124750D01*
X123250Y137000D02*
X124750D01*
X123250Y115000D02*
X124750D01*
X123250Y121000D02*
X124750D01*
X20000Y13000D02*
X21500D01*
X20000Y7000D02*
X21500D01*
X11250Y207000D02*
X12750D01*
X11250Y201000D02*
X12750D01*
X11250Y197000D02*
X12750D01*
X11250Y191000D02*
X12750D01*
X199250Y262000D02*
X200750D01*
X199250Y268000D02*
X200750D01*
X24000Y198250D02*
Y199750D01*
X30000Y198250D02*
Y199750D01*
X199250Y272000D02*
X200750D01*
X199250Y278000D02*
X200750D01*
X141250Y258000D02*
X142750D01*
X141250Y264000D02*
X142750D01*
X99000Y293250D02*
Y294750D01*
X93000Y293250D02*
Y294750D01*
X122000Y426250D02*
Y427750D01*
X128000Y426250D02*
Y427750D01*
X83250Y15000D02*
X84750D01*
X83250Y21000D02*
X84750D01*
X44250Y193000D02*
X45750D01*
X44250Y199000D02*
X45750D01*
X65250Y217000D02*
X66750D01*
X65250Y223000D02*
X66750D01*
X153250Y248000D02*
X154750D01*
X153250Y254000D02*
X154750D01*
X48000Y327250D02*
Y328750D01*
X54000Y327250D02*
Y328750D01*
X64296Y443864D02*
X65796D01*
X64296Y449864D02*
X65796D01*
X59000Y406250D02*
Y407750D01*
X65000Y406250D02*
Y407750D01*
X141000Y191250D02*
Y192750D01*
X147000Y191250D02*
Y192750D01*
X155000Y407250D02*
Y408750D01*
X161000Y407250D02*
Y408750D01*
X45000Y279000D02*
X49000D01*
X47000Y277000D02*
Y281000D01*
X54000Y282000D02*
Y309000D01*
X40000Y282000D02*
X54000D01*
X40000D02*
Y309000D01*
X42000Y297000D02*
Y299000D01*
X52000Y297000D02*
Y299000D01*
X178250Y389000D02*
X179750D01*
X178250Y395000D02*
X179750D01*
X178250Y369000D02*
X179750D01*
X178250Y375000D02*
X179750D01*
X128550Y242300D02*
X130050D01*
X128550Y236300D02*
X130050D01*
X128550Y232300D02*
X130050D01*
X128550Y226300D02*
X130050D01*
X200000Y314250D02*
Y315750D01*
X194000Y314250D02*
Y315750D01*
X115075Y354266D02*
X116575D01*
X115075Y348265D02*
X116575D01*
X115075Y345266D02*
X116575D01*
X115075Y339266D02*
X116575D01*
X190000Y314250D02*
Y315750D01*
X184000Y314250D02*
Y315750D01*
X74000Y262250D02*
Y263750D01*
X80000Y262250D02*
Y263750D01*
X128000Y355250D02*
Y356750D01*
X134000Y355250D02*
Y356750D01*
X152250Y309000D02*
X153750D01*
X152250Y315000D02*
X153750D01*
X161000Y355250D02*
Y356750D01*
X155000Y355250D02*
Y356750D01*
X75500Y42250D02*
Y43750D01*
X81500Y42250D02*
Y43750D01*
X140250Y45000D02*
X141750D01*
X140250Y39000D02*
X141750D01*
X164000Y128250D02*
Y129750D01*
X158000Y128250D02*
Y129750D01*
X156000Y191250D02*
Y192750D01*
X150000Y191250D02*
Y192750D01*
X83250Y6000D02*
X84750D01*
X83250Y12000D02*
X84750D01*
X173000Y192250D02*
Y193750D01*
X179000Y192250D02*
Y193750D01*
X39000Y34250D02*
Y35750D01*
X45000Y34250D02*
Y35750D01*
X63000Y292250D02*
Y293750D01*
X57000Y292250D02*
Y293750D01*
X64296Y452864D02*
X65796D01*
X64296Y458864D02*
X65796D01*
X255250Y422000D02*
X256750D01*
X255250Y428000D02*
X256750D01*
X199250Y282000D02*
X200750D01*
X199250Y288000D02*
X200750D01*
X199250Y242000D02*
X200750D01*
X199250Y248000D02*
X200750D01*
X199250Y252000D02*
X200750D01*
X199250Y258000D02*
X200750D01*
D11*
X103500Y156000D02*
Y159000D01*
X131500Y156000D02*
Y159000D01*
Y179000D02*
Y182000D01*
X103500Y179000D02*
Y182000D01*
X100500Y179000D02*
X103500D01*
X180000Y149000D02*
Y152000D01*
X177000D02*
X180000D01*
X177000Y180000D02*
X180000D01*
X200000D02*
X203000D01*
X200000Y152000D02*
X203000D01*
X92500Y377500D02*
Y380500D01*
X120500Y377500D02*
Y380500D01*
Y400500D02*
Y403500D01*
X92500Y400500D02*
Y403500D01*
X89500Y400500D02*
X92500D01*
X168005Y33002D02*
Y34002D01*
X186005D01*
Y33002D02*
Y34002D01*
Y3002D02*
X195005D01*
X186005Y2002D02*
Y3002D01*
X168005Y2002D02*
X186005D01*
X168005D02*
Y3002D01*
X9000Y415000D02*
X10000D01*
X9000D02*
Y433000D01*
X10000D01*
X40000D02*
Y442000D01*
Y433000D02*
X41000D01*
Y415000D02*
Y433000D01*
X40000Y415000D02*
X41000D01*
X207000Y349000D02*
X251000D01*
X193000Y415000D02*
X251000D01*
X68000Y285500D02*
Y301500D01*
Y284000D02*
Y285500D01*
X88000Y290250D02*
Y301750D01*
X35000Y229000D02*
X36000D01*
Y247000D01*
X35000D02*
X36000D01*
X35000D02*
Y256000D01*
X4000Y247000D02*
X5000D01*
X4000Y229000D02*
Y247000D01*
Y229000D02*
X5000D01*
X4000Y186000D02*
X62000D01*
X18000Y106000D02*
X62000D01*
X149006Y50002D02*
Y51002D01*
Y50002D02*
X167006D01*
Y51002D01*
X176006D01*
X167006Y81002D02*
Y82002D01*
X149006D02*
X167006D01*
X149006Y81002D02*
Y82002D01*
X79250Y77000D02*
X90750D01*
X95500Y57000D02*
X97000D01*
X79500D02*
X95500D01*
X117500Y201000D02*
X133500D01*
X135000D01*
X117250Y221000D02*
X128750D01*
X5000Y293000D02*
X6000D01*
X5000D02*
Y311000D01*
X6000D01*
X36000D02*
Y320000D01*
Y311000D02*
X37000D01*
Y293000D02*
Y311000D01*
X36000Y293000D02*
X37000D01*
X7000Y29000D02*
Y41000D01*
X21000Y21000D02*
X24000D01*
X18000Y41000D02*
X24000D01*
X35000Y21000D02*
Y41000D01*
X7000Y21000D02*
Y22000D01*
X87450Y461000D02*
X98950D01*
X103700Y441000D02*
X105200D01*
X87700D02*
X103700D01*
D12*
X224000Y314700D02*
Y339500D01*
Y100500D02*
Y125300D01*
X276000Y100500D02*
Y339500D01*
X224000Y100500D02*
X237000D01*
X224000Y339500D02*
X237000D01*
X213880Y120580D02*
X219880D01*
X213880D02*
X216880Y125580D01*
X219880Y120580D01*
X273500Y100500D02*
X276000D01*
X273500Y339500D02*
X276000D01*
M02*
