G04*
G04 #@! TF.GenerationSoftware,Altium Limited,Altium Designer,24.9.1 (31)*
G04*
G04 Layer_Color=2752767*
%FSLAX44Y44*%
%MOMM*%
G71*
G04*
G04 #@! TF.SameCoordinates,6097D45C-0DD2-4A5D-A4EA-BA684B689CB3*
G04*
G04*
G04 #@! TF.FilePolarity,Positive*
G04*
G01*
G75*
%ADD12C,0.1270*%
%ADD66C,0.1693*%
D12*
X209920Y433920D02*
Y444080D01*
X220080D01*
Y433920D01*
X209920D01*
X19920Y69920D02*
Y80080D01*
X30080D01*
Y69920D01*
X19920D01*
X209920Y44920D02*
Y55080D01*
X220080D01*
Y44920D01*
X209920D01*
X19920Y358920D02*
Y369080D01*
X30080D01*
Y358920D01*
X19920D01*
D66*
X23580Y454000D02*
G03*
X23580Y454000I-5080J0D01*
G01*
X30080Y423375D02*
G03*
X30080Y423375I-5080J0D01*
G01*
X7884Y416196D02*
G03*
X7884Y416196I-5080J0D01*
G01*
X44080Y428000D02*
G03*
X44080Y428000I-5080J0D01*
G01*
X47080Y410000D02*
G03*
X47080Y410000I-5080J0D01*
G01*
X138080Y256000D02*
G03*
X138080Y256000I-5080J0D01*
G01*
X31080Y301000D02*
G03*
X31080Y301000I-5080J0D01*
G01*
X78080Y55000D02*
G03*
X78080Y55000I-5080J0D01*
G01*
X41754Y319830D02*
G03*
X41754Y319830I-5080J0D01*
G01*
X22580Y315875D02*
G03*
X22580Y315875I-5080J0D01*
G01*
X55080Y436250D02*
G03*
X55080Y436250I-5080J0D01*
G01*
X78080Y440000D02*
G03*
X78080Y440000I-5080J0D01*
G01*
X68080Y264750D02*
G03*
X68080Y264750I-5080J0D01*
G01*
X137330Y232625D02*
G03*
X137330Y232625I-5080J0D01*
G01*
X47080Y126000D02*
G03*
X47080Y126000I-5080J0D01*
G01*
X139080Y157000D02*
G03*
X139080Y157000I-5080J0D01*
G01*
X57796Y49930D02*
G03*
X57796Y49930I-5080J0D01*
G01*
X47080Y112000D02*
G03*
X47080Y112000I-5080J0D01*
G01*
X58080Y89000D02*
G03*
X58080Y89000I-5080J0D01*
G01*
X68680Y96600D02*
G03*
X68680Y96600I-5080J0D01*
G01*
X69080Y86000D02*
G03*
X69080Y86000I-5080J0D01*
G01*
X209080Y190000D02*
G03*
X209080Y190000I-5080J0D01*
G01*
X118080Y256000D02*
G03*
X118080Y256000I-5080J0D01*
G01*
Y246000D02*
G03*
X118080Y246000I-5080J0D01*
G01*
X68080Y440000D02*
G03*
X68080Y440000I-5080J0D01*
G01*
X88080Y436000D02*
G03*
X88080Y436000I-5080J0D01*
G01*
X85078Y111500D02*
G03*
X85078Y111500I-5080J0D01*
G01*
X88680Y136600D02*
G03*
X88680Y136600I-5080J0D01*
G01*
X88080Y256000D02*
G03*
X88080Y256000I-5080J0D01*
G01*
X68080Y26600D02*
G03*
X68080Y26600I-5080J0D01*
G01*
X68680Y206000D02*
G03*
X68680Y206000I-5080J0D01*
G01*
X54080Y31000D02*
G03*
X54080Y31000I-5080J0D01*
G01*
Y20000D02*
G03*
X54080Y20000I-5080J0D01*
G01*
X17080Y343000D02*
G03*
X17080Y343000I-5080J0D01*
G01*
X9080Y385000D02*
G03*
X9080Y385000I-5080J0D01*
G01*
Y407000D02*
G03*
X9080Y407000I-5080J0D01*
G01*
X28080D02*
G03*
X28080Y407000I-5080J0D01*
G01*
Y413000D02*
G03*
X28080Y413000I-5080J0D01*
G01*
X9080Y426000D02*
G03*
X9080Y426000I-5080J0D01*
G01*
X200080Y453000D02*
G03*
X200080Y453000I-5080J0D01*
G01*
X203080Y421000D02*
G03*
X203080Y421000I-5080J0D01*
G01*
X199080Y37000D02*
G03*
X199080Y37000I-5080J0D01*
G01*
X184080Y25000D02*
G03*
X184080Y25000I-5080J0D01*
G01*
Y16000D02*
G03*
X184080Y16000I-5080J0D01*
G01*
X177080D02*
G03*
X177080Y16000I-5080J0D01*
G01*
X231080Y75000D02*
G03*
X231080Y75000I-5080J0D01*
G01*
X238080Y68000D02*
G03*
X238080Y68000I-5080J0D01*
G01*
X8080Y92000D02*
G03*
X8080Y92000I-5080J0D01*
G01*
Y100000D02*
G03*
X8080Y100000I-5080J0D01*
G01*
X16080D02*
G03*
X16080Y100000I-5080J0D01*
G01*
X8080Y4000D02*
G03*
X8080Y4000I-5080J0D01*
G01*
Y16000D02*
G03*
X8080Y16000I-5080J0D01*
G01*
Y32000D02*
G03*
X8080Y32000I-5080J0D01*
G01*
X25761Y32660D02*
G03*
X25761Y32660I-5080J0D01*
G01*
X26080Y49000D02*
G03*
X26080Y49000I-5080J0D01*
G01*
X8080D02*
G03*
X8080Y49000I-5080J0D01*
G01*
X193080D02*
G03*
X193080Y49000I-5080J0D01*
G01*
X248080Y307000D02*
G03*
X248080Y307000I-5080J0D01*
G01*
X138680Y16600D02*
G03*
X138680Y16600I-5080J0D01*
G01*
X145080Y176000D02*
G03*
X145080Y176000I-5080J0D01*
G01*
X98680Y216000D02*
G03*
X98680Y216000I-5080J0D01*
G01*
X121080Y170000D02*
G03*
X121080Y170000I-5080J0D01*
G01*
X127230Y171150D02*
G03*
X127230Y171150I-5080J0D01*
G01*
X108080Y387000D02*
G03*
X108080Y387000I-5080J0D01*
G01*
Y394000D02*
G03*
X108080Y394000I-5080J0D01*
G01*
X83080Y328000D02*
G03*
X83080Y328000I-5080J0D01*
G01*
X170080Y321000D02*
G03*
X170080Y321000I-5080J0D01*
G01*
Y330000D02*
G03*
X170080Y330000I-5080J0D01*
G01*
X109080Y258000D02*
G03*
X109080Y258000I-5080J0D01*
G01*
X138080Y326000D02*
G03*
X138080Y326000I-5080J0D01*
G01*
X81080Y188000D02*
G03*
X81080Y188000I-5080J0D01*
G01*
X145080Y157000D02*
G03*
X145080Y157000I-5080J0D01*
G01*
X127080Y84000D02*
G03*
X127080Y84000I-5080J0D01*
G01*
X235080Y24000D02*
G03*
X235080Y24000I-5080J0D01*
G01*
X212080Y75000D02*
G03*
X212080Y75000I-5080J0D01*
G01*
X238080D02*
G03*
X238080Y75000I-5080J0D01*
G01*
X246080Y235000D02*
G03*
X246080Y235000I-5080J0D01*
G01*
Y257000D02*
G03*
X246080Y257000I-5080J0D01*
G01*
Y270000D02*
G03*
X246080Y270000I-5080J0D01*
G01*
X145080Y170000D02*
G03*
X145080Y170000I-5080J0D01*
G01*
Y163000D02*
G03*
X145080Y163000I-5080J0D01*
G01*
X148080Y376500D02*
G03*
X148080Y376500I-5080J0D01*
G01*
X192080Y444000D02*
G03*
X192080Y444000I-5080J0D01*
G01*
X171080Y350000D02*
G03*
X171080Y350000I-5080J0D01*
G01*
X64080Y336000D02*
G03*
X64080Y336000I-5080J0D01*
G01*
X85080Y333000D02*
G03*
X85080Y333000I-5080J0D01*
G01*
X42080Y302000D02*
G03*
X42080Y302000I-5080J0D01*
G01*
X59080Y277000D02*
G03*
X59080Y277000I-5080J0D01*
G01*
X98380Y271300D02*
G03*
X98380Y271300I-5080J0D01*
G01*
X63380Y211300D02*
G03*
X63380Y211300I-5080J0D01*
G01*
X173080Y208000D02*
G03*
X173080Y208000I-5080J0D01*
G01*
X103080Y109000D02*
G03*
X103080Y109000I-5080J0D01*
G01*
X88996Y145595D02*
G03*
X88996Y145595I-5080J0D01*
G01*
X63080Y131000D02*
G03*
X63080Y131000I-5080J0D01*
G01*
X146080Y247000D02*
G03*
X146080Y247000I-5080J0D01*
G01*
X144080Y270000D02*
G03*
X144080Y270000I-5080J0D01*
G01*
X159080Y244000D02*
G03*
X159080Y244000I-5080J0D01*
G01*
X182080Y319000D02*
G03*
X182080Y319000I-5080J0D01*
G01*
X163080Y330000D02*
G03*
X163080Y330000I-5080J0D01*
G01*
X134080Y84000D02*
G03*
X134080Y84000I-5080J0D01*
G01*
X117080Y394000D02*
G03*
X117080Y394000I-5080J0D01*
G01*
X116080Y387000D02*
G03*
X116080Y387000I-5080J0D01*
G01*
X9080Y396000D02*
G03*
X9080Y396000I-5080J0D01*
G01*
Y343000D02*
G03*
X9080Y343000I-5080J0D01*
G01*
X242080Y422000D02*
G03*
X242080Y422000I-5080J0D01*
G01*
X225080Y382000D02*
G03*
X225080Y382000I-5080J0D01*
G01*
X245080Y142000D02*
G03*
X245080Y142000I-5080J0D01*
G01*
X247080Y189000D02*
G03*
X247080Y189000I-5080J0D01*
G01*
X246080Y163000D02*
G03*
X246080Y163000I-5080J0D01*
G01*
X54080Y9000D02*
G03*
X54080Y9000I-5080J0D01*
G01*
X45080Y20000D02*
G03*
X45080Y20000I-5080J0D01*
G01*
X40080Y10000D02*
G03*
X40080Y10000I-5080J0D01*
G01*
X73080Y9000D02*
G03*
X73080Y9000I-5080J0D01*
G01*
X184080Y7000D02*
G03*
X184080Y7000I-5080J0D01*
G01*
X139080Y6000D02*
G03*
X139080Y6000I-5080J0D01*
G01*
X189080Y452000D02*
G03*
X189080Y452000I-5080J0D01*
G01*
X15080Y278000D02*
G03*
X15080Y278000I-5080J0D01*
G01*
X42080Y245000D02*
G03*
X42080Y245000I-5080J0D01*
G01*
X29080Y294000D02*
G03*
X29080Y294000I-5080J0D01*
G01*
X17830Y15000D02*
G03*
X17830Y15000I-5080J0D01*
G01*
X22330Y199000D02*
G03*
X22330Y199000I-5080J0D01*
G01*
X170580Y294000D02*
G03*
X170580Y294000I-5080J0D01*
G01*
X183080Y298000D02*
G03*
X183080Y298000I-5080J0D01*
G01*
X129459Y205621D02*
G03*
X129459Y205621I-5080J0D01*
G01*
X154080Y437000D02*
G03*
X154080Y437000I-5080J0D01*
G01*
X189989Y302955D02*
G03*
X189989Y302955I-5080J0D01*
G01*
X190080Y364000D02*
G03*
X190080Y364000I-5080J0D01*
G01*
X191180Y380000D02*
G03*
X191180Y380000I-5080J0D01*
G01*
X45080Y389000D02*
G03*
X45080Y389000I-5080J0D01*
G01*
X215863Y258000D02*
G03*
X215863Y258000I-5080J0D01*
G01*
X216080Y250000D02*
G03*
X216080Y250000I-5080J0D01*
G01*
X204080Y224000D02*
G03*
X204080Y224000I-5080J0D01*
G01*
X210080Y228000D02*
G03*
X210080Y228000I-5080J0D01*
G01*
X142080Y84000D02*
G03*
X142080Y84000I-5080J0D01*
G01*
X108680Y126600D02*
G03*
X108680Y126600I-5080J0D01*
G01*
Y136600D02*
G03*
X108680Y136600I-5080J0D01*
G01*
X83280Y451000D02*
G03*
X83280Y451000I-5080J0D01*
G01*
X59280Y127000D02*
G03*
X59280Y127000I-5080J0D01*
G01*
X168080Y50000D02*
G03*
X168080Y50000I-5080J0D01*
G01*
X171080Y376000D02*
G03*
X171080Y376000I-5080J0D01*
G01*
X244080Y280000D02*
G03*
X244080Y280000I-5080J0D01*
G01*
X245080Y226000D02*
G03*
X245080Y226000I-5080J0D01*
G01*
X185080Y217000D02*
G03*
X185080Y217000I-5080J0D01*
G01*
X167086Y76904D02*
G03*
X167086Y76904I-5080J0D01*
G01*
X47836Y216046D02*
G03*
X47836Y216046I-5080J0D01*
G01*
X46080Y165000D02*
G03*
X46080Y165000I-5080J0D01*
G01*
X45080Y173000D02*
G03*
X45080Y173000I-5080J0D01*
G01*
X31955Y129875D02*
G03*
X31955Y129875I-5080J0D01*
G01*
X13580Y207500D02*
G03*
X13580Y207500I-5080J0D01*
G01*
X14080Y243000D02*
G03*
X14080Y243000I-5080J0D01*
G01*
X234080Y98000D02*
G03*
X234080Y98000I-5080J0D01*
G01*
X241580Y104000D02*
G03*
X241580Y104000I-5080J0D01*
G01*
X30080Y143000D02*
G03*
X30080Y143000I-5080J0D01*
G01*
X29080Y155000D02*
G03*
X29080Y155000I-5080J0D01*
G01*
X41080Y462000D02*
G03*
X41080Y462000I-5080J0D01*
G01*
X222080Y17000D02*
G03*
X222080Y17000I-5080J0D01*
G01*
X253080Y307000D02*
G03*
X253080Y307000I-5080J0D01*
G01*
X149080Y343000D02*
G03*
X149080Y343000I-5080J0D01*
G01*
X145080Y392000D02*
G03*
X145080Y392000I-5080J0D01*
G01*
X108080Y316000D02*
G03*
X108080Y316000I-5080J0D01*
G01*
X132080Y414000D02*
G03*
X132080Y414000I-5080J0D01*
G01*
X108080Y436000D02*
G03*
X108080Y436000I-5080J0D01*
G01*
X143080Y400000D02*
G03*
X143080Y400000I-5080J0D01*
G01*
X117080Y97000D02*
G03*
X117080Y97000I-5080J0D01*
G01*
Y87000D02*
G03*
X117080Y87000I-5080J0D01*
G01*
X185080Y143595D02*
G03*
X185080Y143595I-5080J0D01*
G01*
X205080Y151000D02*
G03*
X205080Y151000I-5080J0D01*
G01*
X217080Y141000D02*
G03*
X217080Y141000I-5080J0D01*
G01*
X214080Y134000D02*
G03*
X214080Y134000I-5080J0D01*
G01*
X88080Y209000D02*
G03*
X88080Y209000I-5080J0D01*
G01*
X102080Y127000D02*
G03*
X102080Y127000I-5080J0D01*
G01*
X103284Y138204D02*
G03*
X103284Y138204I-5080J0D01*
G01*
X143080Y407000D02*
G03*
X143080Y407000I-5080J0D01*
G01*
X195080Y135000D02*
G03*
X195080Y135000I-5080J0D01*
G01*
X88080Y364000D02*
G03*
X88080Y364000I-5080J0D01*
G01*
X80080Y376000D02*
G03*
X80080Y376000I-5080J0D01*
G01*
X86080Y374000D02*
G03*
X86080Y374000I-5080J0D01*
G01*
X98080Y175000D02*
G03*
X98080Y175000I-5080J0D01*
G01*
X85080Y106000D02*
G03*
X85080Y106000I-5080J0D01*
G01*
X87080Y162000D02*
G03*
X87080Y162000I-5080J0D01*
G01*
X83080Y340000D02*
G03*
X83080Y340000I-5080J0D01*
G01*
X168080Y36000D02*
G03*
X168080Y36000I-5080J0D01*
G01*
X158680Y46000D02*
G03*
X158680Y46000I-5080J0D01*
G01*
X161082Y9501D02*
G03*
X161082Y9501I-5080J0D01*
G01*
X128680Y36000D02*
G03*
X128680Y36000I-5080J0D01*
G01*
X24080Y169000D02*
G03*
X24080Y169000I-5080J0D01*
G01*
X118080Y452000D02*
G03*
X118080Y452000I-5080J0D01*
G01*
X125290Y194790D02*
G03*
X125290Y194790I-5080J0D01*
G01*
X139080Y196000D02*
G03*
X139080Y196000I-5080J0D01*
G01*
X87080Y168000D02*
G03*
X87080Y168000I-5080J0D01*
G01*
X143080Y191000D02*
G03*
X143080Y191000I-5080J0D01*
G01*
X57080Y143000D02*
G03*
X57080Y143000I-5080J0D01*
G01*
X32080Y109000D02*
G03*
X32080Y109000I-5080J0D01*
G01*
X50080Y257000D02*
G03*
X50080Y257000I-5080J0D01*
G01*
X140080Y367000D02*
G03*
X140080Y367000I-5080J0D01*
G01*
X96080Y414000D02*
G03*
X96080Y414000I-5080J0D01*
G01*
X83080Y381000D02*
G03*
X83080Y381000I-5080J0D01*
G01*
X108080Y57000D02*
G03*
X108080Y57000I-5080J0D01*
G01*
X81080Y278000D02*
G03*
X81080Y278000I-5080J0D01*
G01*
X90080Y300000D02*
G03*
X90080Y300000I-5080J0D01*
G01*
X56080Y318000D02*
G03*
X56080Y318000I-5080J0D01*
G01*
X53080Y40000D02*
G03*
X53080Y40000I-5080J0D01*
G01*
X215080Y265000D02*
G03*
X215080Y265000I-5080J0D01*
G01*
Y275000D02*
G03*
X215080Y275000I-5080J0D01*
G01*
X23955Y162125D02*
G03*
X23955Y162125I-5080J0D01*
G01*
X57205Y155625D02*
G03*
X57205Y155625I-5080J0D01*
G01*
Y149125D02*
G03*
X57205Y149125I-5080J0D01*
G01*
X57080Y136000D02*
G03*
X57080Y136000I-5080J0D01*
G01*
X23955Y123125D02*
G03*
X23955Y123125I-5080J0D01*
G01*
Y136125D02*
G03*
X23955Y136125I-5080J0D01*
G01*
Y149125D02*
G03*
X23955Y149125I-5080J0D01*
G01*
X252205Y359375D02*
G03*
X252205Y359375I-5080J0D01*
G01*
Y365875D02*
G03*
X252205Y365875I-5080J0D01*
G01*
Y378875D02*
G03*
X252205Y378875I-5080J0D01*
G01*
Y385375D02*
G03*
X252205Y385375I-5080J0D01*
G01*
Y398375D02*
G03*
X252205Y398375I-5080J0D01*
G01*
Y404875D02*
G03*
X252205Y404875I-5080J0D01*
G01*
X215955Y359125D02*
G03*
X215955Y359125I-5080J0D01*
G01*
Y365625D02*
G03*
X215955Y365625I-5080J0D01*
G01*
Y378625D02*
G03*
X215955Y378625I-5080J0D01*
G01*
X216080Y385000D02*
G03*
X216080Y385000I-5080J0D01*
G01*
X247080Y154000D02*
G03*
X247080Y154000I-5080J0D01*
G01*
Y148500D02*
G03*
X247080Y148500I-5080J0D01*
G01*
Y179000D02*
G03*
X247080Y179000I-5080J0D01*
G01*
Y173500D02*
G03*
X247080Y173500I-5080J0D01*
G01*
Y204000D02*
G03*
X247080Y204000I-5080J0D01*
G01*
Y198500D02*
G03*
X247080Y198500I-5080J0D01*
G01*
X105080Y367000D02*
G03*
X105080Y367000I-5080J0D01*
G01*
X117080D02*
G03*
X117080Y367000I-5080J0D01*
G01*
X136080Y187000D02*
G03*
X136080Y187000I-5080J0D01*
G01*
X113080Y194000D02*
G03*
X113080Y194000I-5080J0D01*
G01*
X88080Y196000D02*
G03*
X88080Y196000I-5080J0D01*
G01*
X200080Y209000D02*
G03*
X200080Y209000I-5080J0D01*
G01*
X174080Y149000D02*
G03*
X174080Y149000I-5080J0D01*
G01*
X171080Y164000D02*
G03*
X171080Y164000I-5080J0D01*
G01*
X170080Y172000D02*
G03*
X170080Y172000I-5080J0D01*
G01*
X172080Y182000D02*
G03*
X172080Y182000I-5080J0D01*
G01*
X181080Y181000D02*
G03*
X181080Y181000I-5080J0D01*
G01*
X98080Y190000D02*
G03*
X98080Y190000I-5080J0D01*
G01*
X144080Y151000D02*
G03*
X144080Y151000I-5080J0D01*
G01*
X138080Y147000D02*
G03*
X138080Y147000I-5080J0D01*
G01*
X107080Y153000D02*
G03*
X107080Y153000I-5080J0D01*
G01*
Y146000D02*
G03*
X107080Y146000I-5080J0D01*
G01*
X108380Y205700D02*
G03*
X108380Y205700I-5080J0D01*
G01*
X108680Y216000D02*
G03*
X108680Y216000I-5080J0D01*
G01*
X98680Y206000D02*
G03*
X98680Y206000I-5080J0D01*
G01*
X88680Y216000D02*
G03*
X88680Y216000I-5080J0D01*
G01*
X98080Y96600D02*
G03*
X98080Y96600I-5080J0D01*
G01*
Y86600D02*
G03*
X98080Y86600I-5080J0D01*
G01*
X108080Y96600D02*
G03*
X108080Y96600I-5080J0D01*
G01*
Y86600D02*
G03*
X108080Y86600I-5080J0D01*
G01*
X118080Y426000D02*
G03*
X118080Y426000I-5080J0D01*
G01*
X108080D02*
G03*
X108080Y426000I-5080J0D01*
G01*
X118080Y436000D02*
G03*
X118080Y436000I-5080J0D01*
G01*
X98080Y426000D02*
G03*
X98080Y426000I-5080J0D01*
G01*
Y436000D02*
G03*
X98080Y436000I-5080J0D01*
G01*
X158680Y166000D02*
G03*
X158680Y166000I-5080J0D01*
G01*
X189080Y138000D02*
G03*
X189080Y138000I-5080J0D01*
G01*
X218080Y159000D02*
G03*
X218080Y159000I-5080J0D01*
G01*
X219080Y172000D02*
G03*
X219080Y172000I-5080J0D01*
G01*
X214080Y207000D02*
G03*
X214080Y207000I-5080J0D01*
G01*
X218080Y202000D02*
G03*
X218080Y202000I-5080J0D01*
G01*
X192080Y209000D02*
G03*
X192080Y209000I-5080J0D01*
G01*
X119080Y195000D02*
G03*
X119080Y195000I-5080J0D01*
G01*
X88080Y176000D02*
G03*
X88080Y176000I-5080J0D01*
G01*
X108080Y184000D02*
G03*
X108080Y184000I-5080J0D01*
G01*
X88080Y188000D02*
G03*
X88080Y188000I-5080J0D01*
G01*
X84080Y410000D02*
G03*
X84080Y410000I-5080J0D01*
G01*
X97080Y407000D02*
G03*
X97080Y407000I-5080J0D01*
G01*
X120080Y416000D02*
G03*
X120080Y416000I-5080J0D01*
G01*
X126080Y411000D02*
G03*
X126080Y411000I-5080J0D01*
G01*
X80080Y386000D02*
G03*
X80080Y386000I-5080J0D01*
G01*
X134080Y373000D02*
G03*
X134080Y373000I-5080J0D01*
G01*
X130080Y368000D02*
G03*
X130080Y368000I-5080J0D01*
G01*
X144080Y372000D02*
G03*
X144080Y372000I-5080J0D01*
G01*
X143080Y383000D02*
G03*
X143080Y383000I-5080J0D01*
G01*
X158080Y416600D02*
G03*
X158080Y416600I-5080J0D01*
G01*
X148080D02*
G03*
X148080Y416600I-5080J0D01*
G01*
X118080Y326000D02*
G03*
X118080Y326000I-5080J0D01*
G01*
Y316000D02*
G03*
X118080Y316000I-5080J0D01*
G01*
X108080Y326000D02*
G03*
X108080Y326000I-5080J0D01*
G01*
X98080Y316000D02*
G03*
X98080Y316000I-5080J0D01*
G01*
Y326000D02*
G03*
X98080Y326000I-5080J0D01*
G01*
X98680Y16600D02*
G03*
X98680Y16600I-5080J0D01*
G01*
Y26600D02*
G03*
X98680Y26600I-5080J0D01*
G01*
X88080D02*
G03*
X88080Y26600I-5080J0D01*
G01*
X108680Y16600D02*
G03*
X108680Y16600I-5080J0D01*
G01*
Y26600D02*
G03*
X108680Y26600I-5080J0D01*
G01*
X148080Y96000D02*
G03*
X148080Y96000I-5080J0D01*
G01*
X168080Y146600D02*
G03*
X168080Y146600I-5080J0D01*
G01*
Y136600D02*
G03*
X168080Y136600I-5080J0D01*
G01*
X148080Y126600D02*
G03*
X148080Y126600I-5080J0D01*
G01*
X138080Y136600D02*
G03*
X138080Y136600I-5080J0D01*
G01*
X168080Y246600D02*
G03*
X168080Y246600I-5080J0D01*
G01*
X148680Y196600D02*
G03*
X148680Y196600I-5080J0D01*
G01*
X148080Y206000D02*
G03*
X148080Y206000I-5080J0D01*
G01*
X78080Y216000D02*
G03*
X78080Y216000I-5080J0D01*
G01*
X58680Y206000D02*
G03*
X58680Y206000I-5080J0D01*
G01*
X168080Y276000D02*
G03*
X168080Y276000I-5080J0D01*
G01*
Y266000D02*
G03*
X168080Y266000I-5080J0D01*
G01*
X88080Y236600D02*
G03*
X88080Y236600I-5080J0D01*
G01*
X68080Y246600D02*
G03*
X68080Y246600I-5080J0D01*
G01*
X98680D02*
G03*
X98680Y246600I-5080J0D01*
G01*
X108080Y246000D02*
G03*
X108080Y246000I-5080J0D01*
G01*
X158080Y236600D02*
G03*
X158080Y236600I-5080J0D01*
G01*
X148680Y326000D02*
G03*
X148680Y326000I-5080J0D01*
G01*
Y306600D02*
G03*
X148680Y306600I-5080J0D01*
G01*
X88080Y316000D02*
G03*
X88080Y316000I-5080J0D01*
G01*
X68680Y306600D02*
G03*
X68680Y306600I-5080J0D01*
G01*
X68080Y316000D02*
G03*
X68080Y316000I-5080J0D01*
G01*
X168080Y386000D02*
G03*
X168080Y386000I-5080J0D01*
G01*
Y366600D02*
G03*
X168080Y366600I-5080J0D01*
G01*
Y356600D02*
G03*
X168080Y356600I-5080J0D01*
G01*
X108680Y346600D02*
G03*
X108680Y346600I-5080J0D01*
G01*
Y356600D02*
G03*
X108680Y356600I-5080J0D01*
G01*
X98680D02*
G03*
X98680Y356600I-5080J0D01*
G01*
X58680D02*
G03*
X58680Y356600I-5080J0D01*
G01*
Y416600D02*
G03*
X58680Y416600I-5080J0D01*
G01*
X68680D02*
G03*
X68680Y416600I-5080J0D01*
G01*
X78680Y416600D02*
G03*
X78680Y416600I-5080J0D01*
G01*
X217080Y166000D02*
G03*
X217080Y166000I-5080J0D01*
G01*
X201080Y138000D02*
G03*
X201080Y138000I-5080J0D01*
G01*
X181080Y150000D02*
G03*
X181080Y150000I-5080J0D01*
G01*
X172080Y157000D02*
G03*
X172080Y157000I-5080J0D01*
G01*
X187137Y183943D02*
G03*
X187137Y183943I-5080J0D01*
G01*
X195080Y194000D02*
G03*
X195080Y194000I-5080J0D01*
G01*
X129080Y147000D02*
G03*
X129080Y147000I-5080J0D01*
G01*
X123080D02*
G03*
X123080Y147000I-5080J0D01*
G01*
X116080D02*
G03*
X116080Y147000I-5080J0D01*
G01*
X111080Y368000D02*
G03*
X111080Y368000I-5080J0D01*
G01*
X82080Y393000D02*
G03*
X82080Y393000I-5080J0D01*
G01*
X82680Y400000D02*
G03*
X82680Y400000I-5080J0D01*
G01*
X111080Y415000D02*
G03*
X111080Y415000I-5080J0D01*
G01*
X105080D02*
G03*
X105080Y415000I-5080J0D01*
G01*
M02*
