G04*
G04 #@! TF.GenerationSoftware,Altium Limited,Altium Designer,24.9.1 (31)*
G04*
G04 Layer_Color=128*
%FSLAX44Y44*%
%MOMM*%
G71*
G04*
G04 #@! TF.SameCoordinates,FD4918BF-9287-427B-8844-C27258197B88*
G04*
G04*
G04 #@! TF.FilePolarity,Positive*
G04*
G01*
G75*
%ADD12C,0.1270*%
D12*
X204000Y439000D02*
X226000D01*
X215000Y428000D02*
Y450000D01*
X14000Y75000D02*
X36000D01*
X25000Y64000D02*
Y86000D01*
X204000Y50000D02*
X226000D01*
X215000Y39000D02*
Y61000D01*
X14000Y364000D02*
X36000D01*
X25000Y353000D02*
Y375000D01*
X17500Y454000D02*
X19500D01*
X18500Y453000D02*
Y455000D01*
X24000Y423375D02*
X26000D01*
X25000Y422375D02*
Y424375D01*
X1804Y416196D02*
X3804D01*
X2804Y415196D02*
Y417196D01*
X38000Y428000D02*
X40000D01*
X39000Y427000D02*
Y429000D01*
X41000Y410000D02*
X43000D01*
X42000Y409000D02*
Y411000D01*
X132000Y256000D02*
X134000D01*
X133000Y255000D02*
Y257000D01*
X25000Y301000D02*
X27000D01*
X26000Y300000D02*
Y302000D01*
X72000Y55000D02*
X74000D01*
X73000Y54000D02*
Y56000D01*
X35674Y319830D02*
X37674D01*
X36674Y318829D02*
Y320830D01*
X16500Y315875D02*
X18500D01*
X17500Y314875D02*
Y316875D01*
X49000Y436250D02*
X51000D01*
X50000Y435250D02*
Y437250D01*
X72000Y440000D02*
X74000D01*
X73000Y439000D02*
Y441000D01*
X62000Y264750D02*
X64000D01*
X63000Y263750D02*
Y265750D01*
X131250Y232625D02*
X133250D01*
X132250Y231625D02*
Y233625D01*
X41000Y126000D02*
X43000D01*
X42000Y125000D02*
Y127000D01*
X133000Y157000D02*
X135000D01*
X134000Y156000D02*
Y158000D01*
X51715Y49930D02*
X53716D01*
X52716Y48930D02*
Y50930D01*
X41000Y112000D02*
X43000D01*
X42000Y111000D02*
Y113000D01*
X52000Y89000D02*
X54000D01*
X53000Y88000D02*
Y90000D01*
X62600Y96600D02*
X64600D01*
X63600Y95600D02*
Y97600D01*
X63000Y86000D02*
X65000D01*
X64000Y85000D02*
Y87000D01*
X203000Y190000D02*
X205000D01*
X204000Y189000D02*
Y191000D01*
X112000Y256000D02*
X114000D01*
X113000Y255000D02*
Y257000D01*
X112000Y246000D02*
X114000D01*
X113000Y245000D02*
Y247000D01*
X62000Y440000D02*
X64000D01*
X63000Y439000D02*
Y441000D01*
X82000Y436000D02*
X84000D01*
X83000Y435000D02*
Y437000D01*
X78998Y111500D02*
X80998D01*
X79998Y110500D02*
Y112500D01*
X82600Y136600D02*
X84600D01*
X83600Y135600D02*
Y137600D01*
X82000Y256000D02*
X84000D01*
X83000Y255000D02*
Y257000D01*
X62000Y26600D02*
X64000D01*
X63000Y25600D02*
Y27600D01*
X62600Y206000D02*
X64600D01*
X63600Y205000D02*
Y207000D01*
X48000Y31000D02*
X50000D01*
X49000Y30000D02*
Y32000D01*
X48000Y20000D02*
X50000D01*
X49000Y19000D02*
Y21000D01*
X11000Y343000D02*
X13000D01*
X12000Y342000D02*
Y344000D01*
X3000Y385000D02*
X5000D01*
X4000Y384000D02*
Y386000D01*
X3000Y407000D02*
X5000D01*
X4000Y406000D02*
Y408000D01*
X22000Y407000D02*
X24000D01*
X23000Y406000D02*
Y408000D01*
X22000Y413000D02*
X24000D01*
X23000Y412000D02*
Y414000D01*
X3000Y426000D02*
X5000D01*
X4000Y425000D02*
Y427000D01*
X194000Y453000D02*
X196000D01*
X195000Y452000D02*
Y454000D01*
X197000Y421000D02*
X199000D01*
X198000Y420000D02*
Y422000D01*
X193000Y37000D02*
X195000D01*
X194000Y36000D02*
Y38000D01*
X178000Y25000D02*
X180000D01*
X179000Y24000D02*
Y26000D01*
X178000Y16000D02*
X180000D01*
X179000Y15000D02*
Y17000D01*
X171000Y16000D02*
X173000D01*
X172000Y15000D02*
Y17000D01*
X225000Y75000D02*
X227000D01*
X226000Y74000D02*
Y76000D01*
X232000Y68000D02*
X234000D01*
X233000Y67000D02*
Y69000D01*
X2000Y92000D02*
X4000D01*
X3000Y91000D02*
Y93000D01*
X2000Y100000D02*
X4000D01*
X3000Y99000D02*
Y101000D01*
X10000Y100000D02*
X12000D01*
X11000Y99000D02*
Y101000D01*
X2000Y4000D02*
X4000D01*
X3000Y3000D02*
Y5000D01*
X2000Y16000D02*
X4000D01*
X3000Y15000D02*
Y17000D01*
X2000Y32000D02*
X4000D01*
X3000Y31000D02*
Y33000D01*
X19681Y32660D02*
X21681D01*
X20681Y31660D02*
Y33660D01*
X20000Y49000D02*
X22000D01*
X21000Y48000D02*
Y50000D01*
X2000Y49000D02*
X4000D01*
X3000Y48000D02*
Y50000D01*
X187000Y49000D02*
X189000D01*
X188000Y48000D02*
Y50000D01*
X242000Y307000D02*
X244000D01*
X243000Y306000D02*
Y308000D01*
X132600Y16600D02*
X134600D01*
X133600Y15600D02*
Y17600D01*
X139000Y176000D02*
X141000D01*
X140000Y175000D02*
Y177000D01*
X92600Y216000D02*
X94600D01*
X93600Y215000D02*
Y217000D01*
X115000Y170000D02*
X117000D01*
X116000Y169000D02*
Y171000D01*
X121150Y171150D02*
X123150D01*
X122150Y170150D02*
Y172150D01*
X102000Y387000D02*
X104000D01*
X103000Y386000D02*
Y388000D01*
X102000Y394000D02*
X104000D01*
X103000Y393000D02*
Y395000D01*
X77000Y328000D02*
X79000D01*
X78000Y327000D02*
Y329000D01*
X164000Y321000D02*
X166000D01*
X165000Y320000D02*
Y322000D01*
X164000Y330000D02*
X166000D01*
X165000Y329000D02*
Y331000D01*
X103000Y258000D02*
X105000D01*
X104000Y257000D02*
Y259000D01*
X132000Y326000D02*
X134000D01*
X133000Y325000D02*
Y327000D01*
X75000Y188000D02*
X77000D01*
X76000Y187000D02*
Y189000D01*
X139000Y157000D02*
X141000D01*
X140000Y156000D02*
Y158000D01*
X121000Y84000D02*
X123000D01*
X122000Y83000D02*
Y85000D01*
X229000Y24000D02*
X231000D01*
X230000Y23000D02*
Y25000D01*
X206000Y75000D02*
X208000D01*
X207000Y74000D02*
Y76000D01*
X232000Y75000D02*
X234000D01*
X233000Y74000D02*
Y76000D01*
X240000Y235000D02*
X242000D01*
X241000Y234000D02*
Y236000D01*
X240000Y257000D02*
X242000D01*
X241000Y256000D02*
Y258000D01*
X240000Y270000D02*
X242000D01*
X241000Y269000D02*
Y271000D01*
X139000Y170000D02*
X141000D01*
X140000Y169000D02*
Y171000D01*
X139000Y163000D02*
X141000D01*
X140000Y162000D02*
Y164000D01*
X142000Y376500D02*
X144000D01*
X143000Y375500D02*
Y377500D01*
X186000Y444000D02*
X188000D01*
X187000Y443000D02*
Y445000D01*
X165000Y350000D02*
X167000D01*
X166000Y349000D02*
Y351000D01*
X58000Y336000D02*
X60000D01*
X59000Y335000D02*
Y337000D01*
X79000Y333000D02*
X81000D01*
X80000Y332000D02*
Y334000D01*
X36000Y302000D02*
X38000D01*
X37000Y301000D02*
Y303000D01*
X53000Y277000D02*
X55000D01*
X54000Y276000D02*
Y278000D01*
X92300Y271300D02*
X94300D01*
X93300Y270300D02*
Y272300D01*
X57300Y211300D02*
X59300D01*
X58300Y210300D02*
Y212300D01*
X167000Y208000D02*
X169000D01*
X168000Y207000D02*
Y209000D01*
X97000Y109000D02*
X99000D01*
X98000Y108000D02*
Y110000D01*
X82916Y145595D02*
X84916D01*
X83916Y144594D02*
Y146594D01*
X57000Y131000D02*
X59000D01*
X58000Y130000D02*
Y132000D01*
X140000Y247000D02*
X142000D01*
X141000Y246000D02*
Y248000D01*
X138000Y270000D02*
X140000D01*
X139000Y269000D02*
Y271000D01*
X153000Y244000D02*
X155000D01*
X154000Y243000D02*
Y245000D01*
X176000Y319000D02*
X178000D01*
X177000Y318000D02*
Y320000D01*
X157000Y330000D02*
X159000D01*
X158000Y329000D02*
Y331000D01*
X128000Y84000D02*
X130000D01*
X129000Y83000D02*
Y85000D01*
X111000Y394000D02*
X113000D01*
X112000Y393000D02*
Y395000D01*
X110000Y387000D02*
X112000D01*
X111000Y386000D02*
Y388000D01*
X3000Y396000D02*
X5000D01*
X4000Y395000D02*
Y397000D01*
X3000Y343000D02*
X5000D01*
X4000Y342000D02*
Y344000D01*
X236000Y422000D02*
X238000D01*
X237000Y421000D02*
Y423000D01*
X219000Y382000D02*
X221000D01*
X220000Y381000D02*
Y383000D01*
X239000Y142000D02*
X241000D01*
X240000Y141000D02*
Y143000D01*
X241000Y189000D02*
X243000D01*
X242000Y188000D02*
Y190000D01*
X240000Y163000D02*
X242000D01*
X241000Y162000D02*
Y164000D01*
X48000Y9000D02*
X50000D01*
X49000Y8000D02*
Y10000D01*
X39000Y20000D02*
X41000D01*
X40000Y19000D02*
Y21000D01*
X34000Y10000D02*
X36000D01*
X35000Y9000D02*
Y11000D01*
X67000Y9000D02*
X69000D01*
X68000Y8000D02*
Y10000D01*
X178000Y7000D02*
X180000D01*
X179000Y6000D02*
Y8000D01*
X133000Y6000D02*
X135000D01*
X134000Y5000D02*
Y7000D01*
X183000Y452000D02*
X185000D01*
X184000Y451000D02*
Y453000D01*
X9000Y278000D02*
X11000D01*
X10000Y277000D02*
Y279000D01*
X36000Y245000D02*
X38000D01*
X37000Y244000D02*
Y246000D01*
X23000Y294000D02*
X25000D01*
X24000Y293000D02*
Y295000D01*
X11750Y15000D02*
X13750D01*
X12750Y14000D02*
Y16000D01*
X16250Y199000D02*
X18250D01*
X17250Y198000D02*
Y200000D01*
X164500Y294000D02*
X166500D01*
X165500Y293000D02*
Y295000D01*
X177000Y298000D02*
X179000D01*
X178000Y297000D02*
Y299000D01*
X123379Y205621D02*
X125379D01*
X124379Y204621D02*
Y206621D01*
X148000Y437000D02*
X150000D01*
X149000Y436000D02*
Y438000D01*
X183909Y302955D02*
X185909D01*
X184909Y301955D02*
Y303955D01*
X184000Y364000D02*
X186000D01*
X185000Y363000D02*
Y365000D01*
X185100Y380000D02*
X187100D01*
X186100Y379000D02*
Y381000D01*
X39000Y389000D02*
X41000D01*
X40000Y388000D02*
Y390000D01*
X209783Y258000D02*
X211784D01*
X210784Y257000D02*
Y259000D01*
X210000Y250000D02*
X212000D01*
X211000Y249000D02*
Y251000D01*
X198000Y224000D02*
X200000D01*
X199000Y223000D02*
Y225000D01*
X204000Y228000D02*
X206000D01*
X205000Y227000D02*
Y229000D01*
X136000Y84000D02*
X138000D01*
X137000Y83000D02*
Y85000D01*
X102600Y126600D02*
X104600D01*
X103600Y125600D02*
Y127600D01*
X102600Y136600D02*
X104600D01*
X103600Y135600D02*
Y137600D01*
X77200Y451000D02*
X79200D01*
X78200Y450000D02*
Y452000D01*
X53200Y127000D02*
X55200D01*
X54200Y126000D02*
Y128000D01*
X162000Y50000D02*
X164000D01*
X163000Y49000D02*
Y51000D01*
X165000Y376000D02*
X167000D01*
X166000Y375000D02*
Y377000D01*
X238000Y280000D02*
X240000D01*
X239000Y279000D02*
Y281000D01*
Y226000D02*
X241000D01*
X240000Y225000D02*
Y227000D01*
X179000Y217000D02*
X181000D01*
X180000Y216000D02*
Y218000D01*
X161006Y76904D02*
X163006D01*
X162006Y75904D02*
Y77903D01*
X41756Y216046D02*
X43756D01*
X42756Y215046D02*
Y217046D01*
X40000Y165000D02*
X42000D01*
X41000Y164000D02*
Y166000D01*
X39000Y173000D02*
X41000D01*
X40000Y172000D02*
Y174000D01*
X25875Y129875D02*
X27875D01*
X26875Y128875D02*
Y130875D01*
X7500Y207500D02*
X9500D01*
X8500Y206500D02*
Y208500D01*
X8000Y243000D02*
X10000D01*
X9000Y242000D02*
Y244000D01*
X228000Y98000D02*
X230000D01*
X229000Y97000D02*
Y99000D01*
X235500Y104000D02*
X237500D01*
X236500Y103000D02*
Y105000D01*
X24000Y143000D02*
X26000D01*
X25000Y142000D02*
Y144000D01*
X23000Y155000D02*
X25000D01*
X24000Y154000D02*
Y156000D01*
X35000Y462000D02*
X37000D01*
X36000Y461000D02*
Y463000D01*
X216000Y17000D02*
X218000D01*
X217000Y16000D02*
Y18000D01*
X247000Y307000D02*
X249000D01*
X248000Y306000D02*
Y308000D01*
X143000Y343000D02*
X145000D01*
X144000Y342000D02*
Y344000D01*
X139000Y392000D02*
X141000D01*
X140000Y391000D02*
Y393000D01*
X102000Y316000D02*
X104000D01*
X103000Y315000D02*
Y317000D01*
X126000Y414000D02*
X128000D01*
X127000Y413000D02*
Y415000D01*
X102000Y436000D02*
X104000D01*
X103000Y435000D02*
Y437000D01*
X137000Y400000D02*
X139000D01*
X138000Y399000D02*
Y401000D01*
X111000Y97000D02*
X113000D01*
X112000Y96000D02*
Y98000D01*
X111000Y87000D02*
X113000D01*
X112000Y86000D02*
Y88000D01*
X179000Y143595D02*
X181000D01*
X180000Y142595D02*
Y144595D01*
X199000Y151000D02*
X201000D01*
X200000Y150000D02*
Y152000D01*
X211000Y141000D02*
X213000D01*
X212000Y140000D02*
Y142000D01*
X208000Y134000D02*
X210000D01*
X209000Y133000D02*
Y135000D01*
X82000Y209000D02*
X84000D01*
X83000Y208000D02*
Y210000D01*
X96000Y127000D02*
X98000D01*
X97000Y126000D02*
Y128000D01*
X97204Y138204D02*
X99204D01*
X98204Y137204D02*
Y139204D01*
X137000Y407000D02*
X139000D01*
X138000Y406000D02*
Y408000D01*
X189000Y135000D02*
X191000D01*
X190000Y134000D02*
Y136000D01*
X82000Y364000D02*
X84000D01*
X83000Y363000D02*
Y365000D01*
X74000Y376000D02*
X76000D01*
X75000Y375000D02*
Y377000D01*
X80000Y374000D02*
X82000D01*
X81000Y373000D02*
Y375000D01*
X92000Y175000D02*
X94000D01*
X93000Y174000D02*
Y176000D01*
X79000Y106000D02*
X81000D01*
X80000Y105000D02*
Y107000D01*
X81000Y162000D02*
X83000D01*
X82000Y161000D02*
Y163000D01*
X77000Y340000D02*
X79000D01*
X78000Y339000D02*
Y341000D01*
X162000Y36000D02*
X164000D01*
X163000Y35000D02*
Y37000D01*
X152600Y46000D02*
X154600D01*
X153600Y45000D02*
Y47000D01*
X155002Y9501D02*
X157002D01*
X156003Y8501D02*
Y10501D01*
X122600Y36000D02*
X124600D01*
X123600Y35000D02*
Y37000D01*
X18000Y169000D02*
X20000D01*
X19000Y168000D02*
Y170000D01*
X112000Y452000D02*
X114000D01*
X113000Y451000D02*
Y453000D01*
X119211Y194790D02*
X121210D01*
X120211Y193790D02*
Y195790D01*
X133000Y196000D02*
X135000D01*
X134000Y195000D02*
Y197000D01*
X81000Y168000D02*
X83000D01*
X82000Y167000D02*
Y169000D01*
X137000Y191000D02*
X139000D01*
X138000Y190000D02*
Y192000D01*
X51000Y143000D02*
X53000D01*
X52000Y142000D02*
Y144000D01*
X26000Y109000D02*
X28000D01*
X27000Y108000D02*
Y110000D01*
X44000Y257000D02*
X46000D01*
X45000Y256000D02*
Y258000D01*
X134000Y367000D02*
X136000D01*
X135000Y366000D02*
Y368000D01*
X90000Y414000D02*
X92000D01*
X91000Y413000D02*
Y415000D01*
X77000Y381000D02*
X79000D01*
X78000Y380000D02*
Y382000D01*
X102000Y57000D02*
X104000D01*
X103000Y56000D02*
Y58000D01*
X75000Y278000D02*
X77000D01*
X76000Y277000D02*
Y279000D01*
X84000Y300000D02*
X86000D01*
X85000Y299000D02*
Y301000D01*
X50000Y318000D02*
X52000D01*
X51000Y317000D02*
Y319000D01*
X47000Y40000D02*
X49000D01*
X48000Y39000D02*
Y41000D01*
X209000Y265000D02*
X211000D01*
X210000Y264000D02*
Y266000D01*
X209000Y275000D02*
X211000D01*
X210000Y274000D02*
Y276000D01*
X17875Y162125D02*
X19875D01*
X18875Y161125D02*
Y163125D01*
X51125Y155625D02*
X53125D01*
X52125Y154625D02*
Y156625D01*
X51125Y149125D02*
X53125D01*
X52125Y148125D02*
Y150125D01*
X51000Y136000D02*
X53000D01*
X52000Y135000D02*
Y137000D01*
X17875Y123125D02*
X19875D01*
X18875Y122125D02*
Y124125D01*
X17875Y136125D02*
X19875D01*
X18875Y135125D02*
Y137125D01*
X17875Y149125D02*
X19875D01*
X18875Y148125D02*
Y150125D01*
X246125Y359375D02*
X248125D01*
X247125Y358375D02*
Y360375D01*
X246125Y365875D02*
X248125D01*
X247125Y364875D02*
Y366875D01*
X246125Y378875D02*
X248125D01*
X247125Y377875D02*
Y379875D01*
X246125Y385375D02*
X248125D01*
X247125Y384375D02*
Y386375D01*
X246125Y398375D02*
X248125D01*
X247125Y397375D02*
Y399375D01*
X246125Y404875D02*
X248125D01*
X247125Y403875D02*
Y405875D01*
X209875Y359125D02*
X211875D01*
X210875Y358125D02*
Y360125D01*
X209875Y365625D02*
X211875D01*
X210875Y364625D02*
Y366625D01*
X209875Y378625D02*
X211875D01*
X210875Y377625D02*
Y379625D01*
X210000Y385000D02*
X212000D01*
X211000Y384000D02*
Y386000D01*
X241000Y154000D02*
X243000D01*
X242000Y153000D02*
Y155000D01*
X241000Y148500D02*
X243000D01*
X242000Y147500D02*
Y149500D01*
X241000Y179000D02*
X243000D01*
X242000Y178000D02*
Y180000D01*
X241000Y173500D02*
X243000D01*
X242000Y172500D02*
Y174500D01*
X241000Y204000D02*
X243000D01*
X242000Y203000D02*
Y205000D01*
X241000Y198500D02*
X243000D01*
X242000Y197500D02*
Y199500D01*
X99000Y367000D02*
X101000D01*
X100000Y366000D02*
Y368000D01*
X111000Y367000D02*
X113000D01*
X112000Y366000D02*
Y368000D01*
X130000Y187000D02*
X132000D01*
X131000Y186000D02*
Y188000D01*
X107000Y194000D02*
X109000D01*
X108000Y193000D02*
Y195000D01*
X82000Y196000D02*
X84000D01*
X83000Y195000D02*
Y197000D01*
X194000Y209000D02*
X196000D01*
X195000Y208000D02*
Y210000D01*
X168000Y149000D02*
X170000D01*
X169000Y148000D02*
Y150000D01*
X165000Y164000D02*
X167000D01*
X166000Y163000D02*
Y165000D01*
X164000Y172000D02*
X166000D01*
X165000Y171000D02*
Y173000D01*
X166000Y182000D02*
X168000D01*
X167000Y181000D02*
Y183000D01*
X175000Y181000D02*
X177000D01*
X176000Y180000D02*
Y182000D01*
X92000Y190000D02*
X94000D01*
X93000Y189000D02*
Y191000D01*
X138000Y151000D02*
X140000D01*
X139000Y150000D02*
Y152000D01*
X132000Y147000D02*
X134000D01*
X133000Y146000D02*
Y148000D01*
X101000Y153000D02*
X103000D01*
X102000Y152000D02*
Y154000D01*
X101000Y146000D02*
X103000D01*
X102000Y145000D02*
Y147000D01*
X102300Y205700D02*
X104300D01*
X103300Y204700D02*
Y206700D01*
X102600Y216000D02*
X104600D01*
X103600Y215000D02*
Y217000D01*
X92600Y206000D02*
X94600D01*
X93600Y205000D02*
Y207000D01*
X82600Y216000D02*
X84600D01*
X83600Y215000D02*
Y217000D01*
X92000Y96600D02*
X94000D01*
X93000Y95600D02*
Y97600D01*
X92000Y86600D02*
X94000D01*
X93000Y85600D02*
Y87600D01*
X102000Y96600D02*
X104000D01*
X103000Y95600D02*
Y97600D01*
X102000Y86600D02*
X104000D01*
X103000Y85600D02*
Y87600D01*
X112000Y426000D02*
X114000D01*
X113000Y425000D02*
Y427000D01*
X102000Y426000D02*
X104000D01*
X103000Y425000D02*
Y427000D01*
X112000Y436000D02*
X114000D01*
X113000Y435000D02*
Y437000D01*
X92000Y426000D02*
X94000D01*
X93000Y425000D02*
Y427000D01*
X92000Y436000D02*
X94000D01*
X93000Y435000D02*
Y437000D01*
X152600Y166000D02*
X154600D01*
X153600Y165000D02*
Y167000D01*
X183000Y138000D02*
X185000D01*
X184000Y137000D02*
Y139000D01*
X212000Y159000D02*
X214000D01*
X213000Y158000D02*
Y160000D01*
X213000Y172000D02*
X215000D01*
X214000Y171000D02*
Y173000D01*
X208000Y207000D02*
X210000D01*
X209000Y206000D02*
Y208000D01*
X212000Y202000D02*
X214000D01*
X213000Y201000D02*
Y203000D01*
X186000Y209000D02*
X188000D01*
X187000Y208000D02*
Y210000D01*
X113000Y195000D02*
X115000D01*
X114000Y194000D02*
Y196000D01*
X82000Y176000D02*
X84000D01*
X83000Y175000D02*
Y177000D01*
X102000Y184000D02*
X104000D01*
X103000Y183000D02*
Y185000D01*
X82000Y188000D02*
X84000D01*
X83000Y187000D02*
Y189000D01*
X78000Y410000D02*
X80000D01*
X79000Y409000D02*
Y411000D01*
X91000Y407000D02*
X93000D01*
X92000Y406000D02*
Y408000D01*
X114000Y416000D02*
X116000D01*
X115000Y415000D02*
Y417000D01*
X120000Y411000D02*
X122000D01*
X121000Y410000D02*
Y412000D01*
X74000Y386000D02*
X76000D01*
X75000Y385000D02*
Y387000D01*
X128000Y373000D02*
X130000D01*
X129000Y372000D02*
Y374000D01*
X124000Y368000D02*
X126000D01*
X125000Y367000D02*
Y369000D01*
X138000Y372000D02*
X140000D01*
X139000Y371000D02*
Y373000D01*
X137000Y383000D02*
X139000D01*
X138000Y382000D02*
Y384000D01*
X152000Y416600D02*
X154000D01*
X153000Y415600D02*
Y417600D01*
X142000Y416600D02*
X144000D01*
X143000Y415600D02*
Y417600D01*
X112000Y326000D02*
X114000D01*
X113000Y325000D02*
Y327000D01*
X112000Y316000D02*
X114000D01*
X113000Y315000D02*
Y317000D01*
X102000Y326000D02*
X104000D01*
X103000Y325000D02*
Y327000D01*
X92000Y316000D02*
X94000D01*
X93000Y315000D02*
Y317000D01*
X92000Y326000D02*
X94000D01*
X93000Y325000D02*
Y327000D01*
X92600Y16600D02*
X94600D01*
X93600Y15600D02*
Y17600D01*
X92600Y26600D02*
X94600D01*
X93600Y25600D02*
Y27600D01*
X82000Y26600D02*
X84000D01*
X83000Y25600D02*
Y27600D01*
X102600Y16600D02*
X104600D01*
X103600Y15600D02*
Y17600D01*
X102600Y26600D02*
X104600D01*
X103600Y25600D02*
Y27600D01*
X142000Y96000D02*
X144000D01*
X143000Y95000D02*
Y97000D01*
X162000Y146600D02*
X164000D01*
X163000Y145600D02*
Y147600D01*
X162000Y136600D02*
X164000D01*
X163000Y135600D02*
Y137600D01*
X142000Y126600D02*
X144000D01*
X143000Y125600D02*
Y127600D01*
X132000Y136600D02*
X134000D01*
X133000Y135600D02*
Y137600D01*
X162000Y246600D02*
X164000D01*
X163000Y245600D02*
Y247600D01*
X142600Y196600D02*
X144600D01*
X143600Y195600D02*
Y197600D01*
X142000Y206000D02*
X144000D01*
X143000Y205000D02*
Y207000D01*
X72000Y216000D02*
X74000D01*
X73000Y215000D02*
Y217000D01*
X52600Y206000D02*
X54600D01*
X53600Y205000D02*
Y207000D01*
X162000Y276000D02*
X164000D01*
X163000Y275000D02*
Y277000D01*
X162000Y266000D02*
X164000D01*
X163000Y265000D02*
Y267000D01*
X82000Y236600D02*
X84000D01*
X83000Y235600D02*
Y237600D01*
X62000Y246600D02*
X64000D01*
X63000Y245600D02*
Y247600D01*
X92600Y246600D02*
X94600D01*
X93600Y245600D02*
Y247600D01*
X102000Y246000D02*
X104000D01*
X103000Y245000D02*
Y247000D01*
X152000Y236600D02*
X154000D01*
X153000Y235600D02*
Y237600D01*
X142600Y326000D02*
X144600D01*
X143600Y325000D02*
Y327000D01*
X142600Y306600D02*
X144600D01*
X143600Y305600D02*
Y307600D01*
X82000Y316000D02*
X84000D01*
X83000Y315000D02*
Y317000D01*
X62600Y306600D02*
X64600D01*
X63600Y305600D02*
Y307600D01*
X62000Y316000D02*
X64000D01*
X63000Y315000D02*
Y317000D01*
X162000Y386000D02*
X164000D01*
X163000Y385000D02*
Y387000D01*
X162000Y366600D02*
X164000D01*
X163000Y365600D02*
Y367600D01*
X162000Y356600D02*
X164000D01*
X163000Y355600D02*
Y357600D01*
X102600Y346600D02*
X104600D01*
X103600Y345600D02*
Y347600D01*
X102600Y356600D02*
X104600D01*
X103600Y355600D02*
Y357600D01*
X92600Y356600D02*
X94600D01*
X93600Y355600D02*
Y357600D01*
X52600Y356600D02*
X54600D01*
X53600Y355600D02*
Y357600D01*
X52600Y416600D02*
X54600D01*
X53600Y415600D02*
Y417600D01*
X62600Y416600D02*
X64600D01*
X63600Y415600D02*
Y417600D01*
X72600Y416600D02*
X74600D01*
X73600Y415600D02*
Y417600D01*
X211000Y166000D02*
X213000D01*
X212000Y165000D02*
Y167000D01*
X195000Y138000D02*
X197000D01*
X196000Y137000D02*
Y139000D01*
X175000Y150000D02*
X177000D01*
X176000Y149000D02*
Y151000D01*
X166000Y157000D02*
X168000D01*
X167000Y156000D02*
Y158000D01*
X181057Y183943D02*
X183057D01*
X182057Y182943D02*
Y184943D01*
X189000Y194000D02*
X191000D01*
X190000Y193000D02*
Y195000D01*
X123000Y147000D02*
X125000D01*
X124000Y146000D02*
Y148000D01*
X117000Y147000D02*
X119000D01*
X118000Y146000D02*
Y148000D01*
X110000Y147000D02*
X112000D01*
X111000Y146000D02*
Y148000D01*
X105000Y368000D02*
X107000D01*
X106000Y367000D02*
Y369000D01*
X76000Y393000D02*
X78000D01*
X77000Y392000D02*
Y394000D01*
X76600Y400000D02*
X78600D01*
X77600Y399000D02*
Y401000D01*
X105000Y415000D02*
X107000D01*
X106000Y414000D02*
Y416000D01*
X99000Y415000D02*
X101000D01*
X100000Y414000D02*
Y416000D01*
M02*
