M48
;Layer_Color=9474304
;FILE_FORMAT=4:3
METRIC,TZ
;TYPE=PLATED
T01F00S00C0.200
T02F00S00C2.200
%
T01
X300Y400
Y1600
X1275Y1500
X2068Y3266
X2100Y4900
X300
Y3200
X4900Y3100
X4800Y4000
X4900Y2000
X4000
X3500Y1000
X4900Y900
X6800
X6300Y2660
X8300
X9360
Y1660
X10360
Y2660
X12360Y3600
X13360Y1660
X13400Y600
X15600Y950
X17200Y1600
X17900
Y700
Y2500
X16300Y3600
Y5000
X15360Y4600
X16201Y7690
X13700Y8400
X12900
X12200
X11200Y8700
X10300Y8660
X9300
Y9660
X10300
X11200Y9700
X9800Y10900
X9700Y12700
X10360Y12660
Y13660
X9820Y13820
X10200Y14600
Y15300
X11100Y14700
X11800
X12400
X13300
X13400Y15600
X14000Y15700
Y16300
Y17000
Y17600
X13800Y19100
X13400Y19600
X14360Y19660
X14300Y20600
X12438Y20562
X12500Y21800
X10360Y21600
X9360
Y20600
X10330Y20570
X10800Y19400
X11400Y19500
X12021Y19479
X13100Y18700
X12215Y17115
X11600Y17000
X10300Y18400
X9300Y19000
X8300Y18800
X7600
X8300Y19600
Y20900
X8360Y21600
X7300
X6360Y20600
X5360
X5830Y21130
X4276Y21605
X3700Y24500
X4500Y25700
X6300Y24660
X8300Y25600
Y23660
X9360Y24660
X10300Y24600
X11300
Y25600
X10400Y25800
X9330Y27130
X7600Y27800
X7300Y29600
X8500Y30000
X8300Y31600
X9300
X10300
X11300
Y32600
X10300
X9300
X7800Y32800
X8000Y33300
X7800Y34000
X5900Y33600
X6300Y31600
X6360Y30660
X5100Y31800
X3700Y32300
Y30200
X2400Y29400
X1000Y27800
X900Y24300
X850Y20750
X1725Y19900
X1900Y16900
X1888Y16212
X2400Y15500
X1888Y14913
X2500Y14300
X1888Y13613
Y12312
X2688Y12988
X2700Y10900
X3449Y11107
X3900Y10700
X4400Y11800
X4500Y12600
X5420Y12700
X5800Y13100
X5200Y13600
Y14300
X5213Y14913
Y15562
X4100Y16500
X4000Y17300
X8300Y17600
X8200Y16800
Y16200
X8392Y14559
X8360Y13660
X8000Y11150
X8000Y10600
X6360Y9660
Y8660
X5600Y9100
X5300Y10300
X1100Y10000
X300
Y9200
X7900Y5700
X10300
X14300Y9600
Y12660
X13300Y13660
X13900Y15100
X16300Y14660
X16900Y14900
X17600Y15000
X18000Y14360
X16300Y13660
X16700Y15700
X16600Y16400
X16500Y17200
X16700Y18200
X17600Y18100
X18206Y18394
X18000Y21700
X16800Y20800
X16300Y24660
X15400Y24400
X15300Y23660
X14100Y24700
X13300Y25600
X13900Y27000
X16300Y26600
Y27600
X16550Y29400
X17800Y29800
X17700Y31900
X16500Y32100
Y33000
X15800
X14360Y32600
X13300Y32600
X14400Y34300
X16600Y35000
X16300Y35660
X10360
Y34660
X9360Y35660
X5360
X1200Y34300
X400
X800Y31800
X5400Y27700
X14360Y30660
X15360Y16600
X9300Y17500
X19000Y19400
X18700Y20900
X19500
X20900Y20700
X21300Y20200
X20400Y19000
X21400Y17200
X21200Y16600
X21300Y15900
X21200Y14100
X20900Y13400
X19600Y13800
X19000Y13500
X18400Y13800
X20000Y15100
X24200Y14850
Y15400
X24100Y16300
X24200Y17350
Y17900
X24200Y18900
X24200Y19850
Y20400
X24000Y22600
X24100Y23500
Y25700
Y27000
X23900Y28000
X24300Y30700
X24800
X24712Y35938
X21087Y35912
X18491Y30295
X21000Y27500
Y26500
X21078Y25800
X21100Y25000
X20500Y22800
X19900Y22400
X24000Y14200
X23650Y10400
X22900Y9800
X22600Y7500
X23300
Y6800
X20700Y7500
X18800Y4900
X19400Y3700
X21700Y1700
X23000Y2400
X24712Y36588
Y37888
Y38537
Y39838
Y40487
X23700Y42200
X19800Y42100
X18700Y44400
X18400Y45200
X19500Y45300
X18610Y38000
X18500Y36400
X21087Y36562
Y37862
X21100Y38500
X22000Y38200
X16600Y37600
X16300Y36660
Y38600
X13800Y38300
X14000Y39200
X13800Y40000
Y40700
X14300Y41660
X15300
X14900Y43700
X11300Y43600
X10300
Y42600
X11300
X11500Y41600
X10600Y41500
X10000
X9100Y41400
X9200Y40700
X7900Y41000
X7760Y40000
X7700Y39300
X7500Y38600
X7800Y38100
X7500Y37600
X8100Y37400
X8300Y36400
X10000Y36700
X10600Y36800
X11200Y36700
X12500Y36800
X12900Y37300
X13900Y37200
X14300Y37650
X13500Y36700
X11100Y38700
X10300
Y39400
X11200
X12100Y41100
X12700Y41400
X9300Y42600
Y43600
X8300Y43600
X7300
X6300Y43600
X6360Y41660
X5360
X4200Y41700
X3600Y42500
X1500
X400Y42600
Y40700
Y39600
Y38500
X4000Y38900
X2300Y40700
Y41600
X7360Y41660
X8100Y44400
X7820Y45100
X11300Y45200
X3600Y46200
T02
X2500Y7500
X21500Y5000
Y43900
X2500Y36400
M30
