G04*
G04 #@! TF.GenerationSoftware,Altium Limited,Altium Designer,24.9.1 (31)*
G04*
G04 Layer_Color=255*
%FSLAX44Y44*%
%MOMM*%
G71*
G04*
G04 #@! TF.SameCoordinates,FD4918BF-9287-427B-8844-C27258197B88*
G04*
G04*
G04 #@! TF.FilePolarity,Positive*
G04*
G01*
G75*
G04:AMPARAMS|DCode=13|XSize=0.65mm|YSize=0.6mm|CornerRadius=0.15mm|HoleSize=0mm|Usage=FLASHONLY|Rotation=0.000|XOffset=0mm|YOffset=0mm|HoleType=Round|Shape=RoundedRectangle|*
%AMROUNDEDRECTD13*
21,1,0.6500,0.3000,0,0,0.0*
21,1,0.3500,0.6000,0,0,0.0*
1,1,0.3000,0.1750,-0.1500*
1,1,0.3000,-0.1750,-0.1500*
1,1,0.3000,-0.1750,0.1500*
1,1,0.3000,0.1750,0.1500*
%
%ADD13ROUNDEDRECTD13*%
G04:AMPARAMS|DCode=14|XSize=1.1mm|YSize=1mm|CornerRadius=0.25mm|HoleSize=0mm|Usage=FLASHONLY|Rotation=0.000|XOffset=0mm|YOffset=0mm|HoleType=Round|Shape=RoundedRectangle|*
%AMROUNDEDRECTD14*
21,1,1.1000,0.5000,0,0,0.0*
21,1,0.6000,1.0000,0,0,0.0*
1,1,0.5000,0.3000,-0.2500*
1,1,0.5000,-0.3000,-0.2500*
1,1,0.5000,-0.3000,0.2500*
1,1,0.5000,0.3000,0.2500*
%
%ADD14ROUNDEDRECTD14*%
G04:AMPARAMS|DCode=15|XSize=0.65mm|YSize=0.6mm|CornerRadius=0.15mm|HoleSize=0mm|Usage=FLASHONLY|Rotation=90.000|XOffset=0mm|YOffset=0mm|HoleType=Round|Shape=RoundedRectangle|*
%AMROUNDEDRECTD15*
21,1,0.6500,0.3000,0,0,90.0*
21,1,0.3500,0.6000,0,0,90.0*
1,1,0.3000,0.1500,0.1750*
1,1,0.3000,0.1500,-0.1750*
1,1,0.3000,-0.1500,-0.1750*
1,1,0.3000,-0.1500,0.1750*
%
%ADD15ROUNDEDRECTD15*%
G04:AMPARAMS|DCode=16|XSize=1.5mm|YSize=0.45mm|CornerRadius=0.1125mm|HoleSize=0mm|Usage=FLASHONLY|Rotation=0.000|XOffset=0mm|YOffset=0mm|HoleType=Round|Shape=RoundedRectangle|*
%AMROUNDEDRECTD16*
21,1,1.5000,0.2250,0,0,0.0*
21,1,1.2750,0.4500,0,0,0.0*
1,1,0.2250,0.6375,-0.1125*
1,1,0.2250,-0.6375,-0.1125*
1,1,0.2250,-0.6375,0.1125*
1,1,0.2250,0.6375,0.1125*
%
%ADD16ROUNDEDRECTD16*%
G04:AMPARAMS|DCode=17|XSize=1.1mm|YSize=0.6mm|CornerRadius=0.05mm|HoleSize=0mm|Usage=FLASHONLY|Rotation=270.000|XOffset=0mm|YOffset=0mm|HoleType=Round|Shape=RoundedRectangle|*
%AMROUNDEDRECTD17*
21,1,1.1000,0.5000,0,0,270.0*
21,1,1.0000,0.6000,0,0,270.0*
1,1,0.1000,-0.2500,-0.5000*
1,1,0.1000,-0.2500,0.5000*
1,1,0.1000,0.2500,0.5000*
1,1,0.1000,0.2500,-0.5000*
%
%ADD17ROUNDEDRECTD17*%
G04:AMPARAMS|DCode=18|XSize=0.975mm|YSize=1.7mm|CornerRadius=0.05mm|HoleSize=0mm|Usage=FLASHONLY|Rotation=270.000|XOffset=0mm|YOffset=0mm|HoleType=Round|Shape=RoundedRectangle|*
%AMROUNDEDRECTD18*
21,1,0.9750,1.6000,0,0,270.0*
21,1,0.8750,1.7000,0,0,270.0*
1,1,0.1000,-0.8000,-0.4375*
1,1,0.1000,-0.8000,0.4375*
1,1,0.1000,0.8000,0.4375*
1,1,0.1000,0.8000,-0.4375*
%
%ADD18ROUNDEDRECTD18*%
G04:AMPARAMS|DCode=19|XSize=0.3mm|YSize=0.66mm|CornerRadius=0.075mm|HoleSize=0mm|Usage=FLASHONLY|Rotation=90.000|XOffset=0mm|YOffset=0mm|HoleType=Round|Shape=RoundedRectangle|*
%AMROUNDEDRECTD19*
21,1,0.3000,0.5100,0,0,90.0*
21,1,0.1500,0.6600,0,0,90.0*
1,1,0.1500,0.2550,0.0750*
1,1,0.1500,0.2550,-0.0750*
1,1,0.1500,-0.2550,-0.0750*
1,1,0.1500,-0.2550,0.0750*
%
%ADD19ROUNDEDRECTD19*%
%ADD20R,0.6096X0.1778*%
%ADD21R,0.1778X0.6096*%
%ADD22R,1.4478X1.4478*%
G04:AMPARAMS|DCode=23|XSize=1.1mm|YSize=1mm|CornerRadius=0.25mm|HoleSize=0mm|Usage=FLASHONLY|Rotation=90.000|XOffset=0mm|YOffset=0mm|HoleType=Round|Shape=RoundedRectangle|*
%AMROUNDEDRECTD23*
21,1,1.1000,0.5000,0,0,90.0*
21,1,0.6000,1.0000,0,0,90.0*
1,1,0.5000,0.2500,0.3000*
1,1,0.5000,0.2500,-0.3000*
1,1,0.5000,-0.2500,-0.3000*
1,1,0.5000,-0.2500,0.3000*
%
%ADD23ROUNDEDRECTD23*%
G04:AMPARAMS|DCode=24|XSize=0.3mm|YSize=0.66mm|CornerRadius=0.075mm|HoleSize=0mm|Usage=FLASHONLY|Rotation=0.000|XOffset=0mm|YOffset=0mm|HoleType=Round|Shape=RoundedRectangle|*
%AMROUNDEDRECTD24*
21,1,0.3000,0.5100,0,0,0.0*
21,1,0.1500,0.6600,0,0,0.0*
1,1,0.1500,0.0750,-0.2550*
1,1,0.1500,-0.0750,-0.2550*
1,1,0.1500,-0.0750,0.2550*
1,1,0.1500,0.0750,0.2550*
%
%ADD24ROUNDEDRECTD24*%
G04:AMPARAMS|DCode=25|XSize=0.95mm|YSize=0.85mm|CornerRadius=0.2125mm|HoleSize=0mm|Usage=FLASHONLY|Rotation=180.000|XOffset=0mm|YOffset=0mm|HoleType=Round|Shape=RoundedRectangle|*
%AMROUNDEDRECTD25*
21,1,0.9500,0.4250,0,0,180.0*
21,1,0.5250,0.8500,0,0,180.0*
1,1,0.4250,-0.2625,0.2125*
1,1,0.4250,0.2625,0.2125*
1,1,0.4250,0.2625,-0.2125*
1,1,0.4250,-0.2625,-0.2125*
%
%ADD25ROUNDEDRECTD25*%
%ADD26C,0.2000*%
%ADD27R,0.6000X1.1000*%
%ADD28R,1.4478X1.4478*%
G04:AMPARAMS|DCode=29|XSize=0.95mm|YSize=0.85mm|CornerRadius=0.2125mm|HoleSize=0mm|Usage=FLASHONLY|Rotation=270.000|XOffset=0mm|YOffset=0mm|HoleType=Round|Shape=RoundedRectangle|*
%AMROUNDEDRECTD29*
21,1,0.9500,0.4250,0,0,270.0*
21,1,0.5250,0.8500,0,0,270.0*
1,1,0.4250,-0.2125,-0.2625*
1,1,0.4250,-0.2125,0.2625*
1,1,0.4250,0.2125,0.2625*
1,1,0.4250,0.2125,-0.2625*
%
%ADD29ROUNDEDRECTD29*%
%ADD30R,1.1000X0.6000*%
G04:AMPARAMS|DCode=31|XSize=1.5mm|YSize=0.4mm|CornerRadius=0.1mm|HoleSize=0mm|Usage=FLASHONLY|Rotation=0.000|XOffset=0mm|YOffset=0mm|HoleType=Round|Shape=RoundedRectangle|*
%AMROUNDEDRECTD31*
21,1,1.5000,0.2000,0,0,0.0*
21,1,1.3000,0.4000,0,0,0.0*
1,1,0.2000,0.6500,-0.1000*
1,1,0.2000,-0.6500,-0.1000*
1,1,0.2000,-0.6500,0.1000*
1,1,0.2000,0.6500,0.1000*
%
%ADD31ROUNDEDRECTD31*%
%ADD32R,1.6000X0.8000*%
%ADD33R,3.0000X2.1000*%
%ADD34R,0.6500X0.8500*%
%ADD44C,0.8000*%
%ADD45C,0.5000*%
%ADD49C,0.6000*%
%ADD58C,4.0000*%
D13*
X261250Y425000D02*
D03*
X250750D02*
D03*
X64750Y196000D02*
D03*
X75250D02*
D03*
X220250Y22000D02*
D03*
X209750D02*
D03*
X122250Y42000D02*
D03*
X111750D02*
D03*
X123250Y12000D02*
D03*
X112750D02*
D03*
X123250Y21000D02*
D03*
X112750D02*
D03*
X66250Y36000D02*
D03*
X55750D02*
D03*
X50750Y61000D02*
D03*
X61250D02*
D03*
X186250Y87000D02*
D03*
X175750D02*
D03*
X186250Y97000D02*
D03*
X175750D02*
D03*
X129250Y118000D02*
D03*
X118750D02*
D03*
Y109000D02*
D03*
X129250D02*
D03*
X121750Y237000D02*
D03*
X132250D02*
D03*
X121750Y228000D02*
D03*
X132250D02*
D03*
Y246000D02*
D03*
X121750D02*
D03*
X132250Y255000D02*
D03*
X121750D02*
D03*
X110575Y351265D02*
D03*
X121075D02*
D03*
X110575Y342266D02*
D03*
X121075D02*
D03*
X70250Y431000D02*
D03*
X59750D02*
D03*
X70296Y455864D02*
D03*
X59796D02*
D03*
X184250Y392000D02*
D03*
X173750D02*
D03*
X184250Y372000D02*
D03*
X173750D02*
D03*
X205250Y245000D02*
D03*
X194750D02*
D03*
X205250Y255000D02*
D03*
X194750D02*
D03*
X205250Y265000D02*
D03*
X194750D02*
D03*
X205250Y275000D02*
D03*
X194750D02*
D03*
X205250Y285000D02*
D03*
X194750D02*
D03*
X61250Y96000D02*
D03*
X50750D02*
D03*
X73250Y48000D02*
D03*
X62750D02*
D03*
X82750D02*
D03*
X93250D02*
D03*
X112750Y30000D02*
D03*
X123250D02*
D03*
X147750Y161000D02*
D03*
X158250D02*
D03*
X147750Y152000D02*
D03*
X158250D02*
D03*
X84750Y144000D02*
D03*
X95250D02*
D03*
Y153000D02*
D03*
X84750D02*
D03*
X159250Y111000D02*
D03*
X148750D02*
D03*
X158250Y381000D02*
D03*
X147750D02*
D03*
X158250Y209000D02*
D03*
X147750D02*
D03*
X50250Y205000D02*
D03*
X39750D02*
D03*
X158750Y261000D02*
D03*
X169250D02*
D03*
X158250Y272000D02*
D03*
X147750D02*
D03*
X158250Y321000D02*
D03*
X147750D02*
D03*
Y372000D02*
D03*
X158250D02*
D03*
X168750Y42000D02*
D03*
X179250D02*
D03*
X159250Y91000D02*
D03*
X148750D02*
D03*
X158250Y218000D02*
D03*
X147750D02*
D03*
X159250Y102000D02*
D03*
X148750D02*
D03*
X118750Y134000D02*
D03*
X129250D02*
D03*
X26000Y10000D02*
D03*
X15500D02*
D03*
X17250Y204000D02*
D03*
X6750D02*
D03*
X17250Y194000D02*
D03*
X6750D02*
D03*
X136750Y261000D02*
D03*
X147250D02*
D03*
X78750Y18000D02*
D03*
X89250D02*
D03*
X39750Y196000D02*
D03*
X50250D02*
D03*
X60750Y220000D02*
D03*
X71250D02*
D03*
X148750Y251000D02*
D03*
X159250D02*
D03*
X59796Y446864D02*
D03*
X70296D02*
D03*
X147750Y312000D02*
D03*
X158250D02*
D03*
X146250Y42000D02*
D03*
X135750D02*
D03*
X78750Y9000D02*
D03*
X89250D02*
D03*
D14*
X212500Y10000D02*
D03*
X229500D02*
D03*
X35500Y454000D02*
D03*
X18500D02*
D03*
X33500Y395000D02*
D03*
X16500D02*
D03*
X28500Y331000D02*
D03*
X11500D02*
D03*
X10500Y267000D02*
D03*
X27500D02*
D03*
D15*
X72000Y84750D02*
D03*
Y95250D02*
D03*
X176000Y187750D02*
D03*
Y198250D02*
D03*
X169000Y282250D02*
D03*
Y271750D02*
D03*
X110000Y228750D02*
D03*
Y239250D02*
D03*
X63000Y275250D02*
D03*
Y264750D02*
D03*
X74000Y256750D02*
D03*
Y267250D02*
D03*
X60000Y298250D02*
D03*
Y287750D02*
D03*
X50000Y425750D02*
D03*
Y436250D02*
D03*
X158000Y402750D02*
D03*
Y413250D02*
D03*
X197000Y320250D02*
D03*
Y309750D02*
D03*
X187000Y320250D02*
D03*
Y309750D02*
D03*
X144000Y186750D02*
D03*
Y197250D02*
D03*
X32000Y312250D02*
D03*
Y301750D02*
D03*
X87000Y118750D02*
D03*
Y129250D02*
D03*
X83000Y256750D02*
D03*
Y267250D02*
D03*
X135000Y32250D02*
D03*
Y21750D02*
D03*
X99000Y229750D02*
D03*
Y240250D02*
D03*
X143000Y123750D02*
D03*
Y134250D02*
D03*
X152000Y123750D02*
D03*
Y134250D02*
D03*
X149000Y361250D02*
D03*
Y350750D02*
D03*
X90000Y240250D02*
D03*
Y229750D02*
D03*
X104000Y119250D02*
D03*
Y108750D02*
D03*
X74000Y229750D02*
D03*
Y240250D02*
D03*
X84500Y38250D02*
D03*
Y27750D02*
D03*
X93500D02*
D03*
Y38250D02*
D03*
X58000Y19250D02*
D03*
Y8750D02*
D03*
X61000Y82250D02*
D03*
Y71750D02*
D03*
X51000D02*
D03*
Y82250D02*
D03*
X144000Y228750D02*
D03*
Y239250D02*
D03*
X78000Y344750D02*
D03*
Y355250D02*
D03*
X61000Y322750D02*
D03*
Y333250D02*
D03*
X53000Y401750D02*
D03*
Y412250D02*
D03*
X71000Y401750D02*
D03*
Y412250D02*
D03*
X63000Y240250D02*
D03*
Y229750D02*
D03*
X71000Y333250D02*
D03*
Y322750D02*
D03*
X146000Y413250D02*
D03*
Y402750D02*
D03*
X140000Y361250D02*
D03*
Y350750D02*
D03*
X88000Y344750D02*
D03*
Y355250D02*
D03*
X58000D02*
D03*
Y344750D02*
D03*
X41000Y322750D02*
D03*
Y333250D02*
D03*
X40000Y256750D02*
D03*
Y267250D02*
D03*
X5000Y441750D02*
D03*
Y452250D02*
D03*
X68000Y344750D02*
D03*
Y355250D02*
D03*
X27000Y204250D02*
D03*
Y193750D02*
D03*
X97000Y288750D02*
D03*
Y299250D02*
D03*
X125000Y432250D02*
D03*
Y421750D02*
D03*
X51000Y333250D02*
D03*
Y322750D02*
D03*
X62000Y412250D02*
D03*
Y401750D02*
D03*
X131000Y361250D02*
D03*
Y350750D02*
D03*
X158000D02*
D03*
Y361250D02*
D03*
X75500Y38250D02*
D03*
Y27750D02*
D03*
X161000Y123750D02*
D03*
Y134250D02*
D03*
X153000Y186750D02*
D03*
Y197250D02*
D03*
X42000Y40250D02*
D03*
Y29750D02*
D03*
D16*
X11000Y181750D02*
D03*
X69000D02*
D03*
Y175250D02*
D03*
Y168750D02*
D03*
Y162250D02*
D03*
Y155750D02*
D03*
Y149250D02*
D03*
Y142750D02*
D03*
Y136250D02*
D03*
Y129750D02*
D03*
Y123250D02*
D03*
Y116750D02*
D03*
Y110250D02*
D03*
X11000D02*
D03*
Y116750D02*
D03*
Y123250D02*
D03*
Y129750D02*
D03*
Y136250D02*
D03*
Y142750D02*
D03*
Y149250D02*
D03*
Y155750D02*
D03*
Y162250D02*
D03*
Y168750D02*
D03*
Y175250D02*
D03*
D17*
X34500Y437000D02*
D03*
X25000D02*
D03*
X15500D02*
D03*
Y411000D02*
D03*
X34500D02*
D03*
D18*
X25000Y423375D02*
D03*
D19*
X84000Y444500D02*
D03*
Y451000D02*
D03*
Y457500D02*
D03*
X102400Y444500D02*
D03*
Y451000D02*
D03*
Y457500D02*
D03*
X132200Y217500D02*
D03*
Y211000D02*
D03*
Y204500D02*
D03*
X113800Y217500D02*
D03*
Y211000D02*
D03*
Y204500D02*
D03*
X94200Y73500D02*
D03*
Y67000D02*
D03*
Y60500D02*
D03*
X75800Y73500D02*
D03*
Y67000D02*
D03*
Y60500D02*
D03*
D20*
X94000Y397500D02*
D03*
Y394000D02*
D03*
Y390500D02*
D03*
Y387000D02*
D03*
Y383500D02*
D03*
X119000D02*
D03*
Y387000D02*
D03*
Y390500D02*
D03*
Y394000D02*
D03*
Y397500D02*
D03*
X105000Y176000D02*
D03*
Y172500D02*
D03*
Y169000D02*
D03*
Y165500D02*
D03*
Y162000D02*
D03*
X130000D02*
D03*
Y165500D02*
D03*
Y169000D02*
D03*
Y172500D02*
D03*
Y176000D02*
D03*
X177500Y155500D02*
D03*
Y159000D02*
D03*
Y162500D02*
D03*
Y166000D02*
D03*
Y169500D02*
D03*
Y173000D02*
D03*
Y176500D02*
D03*
X202500D02*
D03*
Y173000D02*
D03*
Y169500D02*
D03*
Y166000D02*
D03*
Y162500D02*
D03*
Y159000D02*
D03*
Y155500D02*
D03*
D21*
X96000Y378000D02*
D03*
X99500D02*
D03*
X103000D02*
D03*
X106500D02*
D03*
X110000D02*
D03*
X113500D02*
D03*
X117000D02*
D03*
Y403000D02*
D03*
X113500D02*
D03*
X110000D02*
D03*
X106500D02*
D03*
X103000D02*
D03*
X99500D02*
D03*
X96000D02*
D03*
X107000Y156500D02*
D03*
X110500D02*
D03*
X114000D02*
D03*
X117500D02*
D03*
X121000D02*
D03*
X124500D02*
D03*
X128000D02*
D03*
Y181500D02*
D03*
X124500D02*
D03*
X121000D02*
D03*
X117500D02*
D03*
X114000D02*
D03*
X110500D02*
D03*
X107000D02*
D03*
X183000Y178500D02*
D03*
X186500D02*
D03*
X190000D02*
D03*
X193500D02*
D03*
X197000D02*
D03*
Y153500D02*
D03*
X193500D02*
D03*
X190000D02*
D03*
X186500D02*
D03*
X183000D02*
D03*
D22*
X106500Y390500D02*
D03*
X117500Y169000D02*
D03*
D23*
X47000Y289500D02*
D03*
Y306500D02*
D03*
X46000Y225000D02*
D03*
Y242000D02*
D03*
X186000Y56500D02*
D03*
Y73500D02*
D03*
X129006Y55502D02*
D03*
Y72502D02*
D03*
X148000Y27500D02*
D03*
Y10500D02*
D03*
D24*
X85500Y286800D02*
D03*
X79000D02*
D03*
X72500D02*
D03*
X85500Y305200D02*
D03*
X79000D02*
D03*
X72500D02*
D03*
D25*
X182000Y265250D02*
D03*
Y280750D02*
D03*
X113000Y71750D02*
D03*
Y56250D02*
D03*
D26*
X13000Y306000D02*
D03*
X17000D02*
D03*
X21000D02*
D03*
Y310000D02*
D03*
X17000D02*
D03*
X13000D02*
D03*
D27*
X29500Y251000D02*
D03*
X20000D02*
D03*
X10500D02*
D03*
Y225000D02*
D03*
X29500D02*
D03*
D28*
X190000Y166000D02*
D03*
D29*
X177250Y109000D02*
D03*
X192750D02*
D03*
D30*
X190005Y8502D02*
D03*
Y18002D02*
D03*
Y27502D02*
D03*
X164005D02*
D03*
Y8502D02*
D03*
X145006Y56502D02*
D03*
Y75502D02*
D03*
X171006D02*
D03*
Y66002D02*
D03*
Y56502D02*
D03*
D31*
X258000Y411250D02*
D03*
Y404750D02*
D03*
Y398250D02*
D03*
Y391750D02*
D03*
Y385250D02*
D03*
Y378750D02*
D03*
Y372250D02*
D03*
Y365750D02*
D03*
Y359250D02*
D03*
Y352750D02*
D03*
X200000Y352750D02*
D03*
Y359250D02*
D03*
Y365750D02*
D03*
Y372250D02*
D03*
Y378750D02*
D03*
Y385250D02*
D03*
Y391750D02*
D03*
Y398250D02*
D03*
Y404750D02*
D03*
Y411250D02*
D03*
D32*
X226000Y132500D02*
D03*
Y145000D02*
D03*
Y157500D02*
D03*
Y170000D02*
D03*
Y182500D02*
D03*
Y195000D02*
D03*
Y207500D02*
D03*
Y220000D02*
D03*
Y232500D02*
D03*
Y245000D02*
D03*
Y257500D02*
D03*
Y270000D02*
D03*
Y282500D02*
D03*
Y295000D02*
D03*
Y307500D02*
D03*
D33*
X255000Y333000D02*
D03*
Y107000D02*
D03*
D34*
X29250Y23250D02*
D03*
X12750D02*
D03*
Y38750D02*
D03*
X29250D02*
D03*
D44*
X110000Y3000D02*
D03*
X100000Y4000D02*
D03*
X42000Y5000D02*
D03*
X168000Y457000D02*
D03*
X218000Y82000D02*
D03*
D45*
X198000Y132000D02*
D03*
X181000Y133000D02*
D03*
X169000Y144000D02*
D03*
X161000Y177000D02*
D03*
X130000Y143000D02*
D03*
X141000Y147000D02*
D03*
X69000Y376000D02*
D03*
X86000Y378000D02*
D03*
X98000Y362000D02*
D03*
X112000D02*
D03*
X120000Y366000D02*
D03*
X129000Y378000D02*
D03*
D49*
X109000Y83000D02*
D03*
X89000D02*
D03*
Y93000D02*
D03*
X107000Y199000D02*
D03*
X99000Y201000D02*
D03*
Y212000D02*
D03*
X82000Y202000D02*
D03*
X90000D02*
D03*
Y212000D02*
D03*
X108000Y431000D02*
D03*
X109000Y422000D02*
D03*
X107000Y320000D02*
D03*
X98000Y331000D02*
D03*
X89000Y320000D02*
D03*
X98000Y321000D02*
D03*
X120000Y316000D02*
D03*
Y325000D02*
D03*
X87000Y430000D02*
D03*
X88000Y422000D02*
D03*
X98000Y431000D02*
D03*
X99000Y422000D02*
D03*
Y83000D02*
D03*
Y93000D02*
D03*
X109000D02*
D03*
D58*
X215000Y439000D02*
D03*
X25000Y75000D02*
D03*
X215000Y50000D02*
D03*
X25000Y364000D02*
D03*
M02*
