M48
;Layer_Color=9474304
;FILE_FORMAT=4:3
METRIC,TZ
;TYPE=PLATED
T01F00S00C0.200
T02F00S00C2.200
%
T01
X500Y1200
X2000
X3500
X5000
X5400Y2400
X6300Y2300
X6900Y1700
X7700Y1100
X7400Y2900
X9900
Y5400
X11600Y6000
X12500Y5700
Y7200
X11700Y8100
X12300Y9100
X10000Y10100
X9900Y7900
X7400
X7412Y5387
X6200Y4850
X4200Y5400
Y4100
X3500Y4200
Y2700
X2000
Y4200
X500
Y5700
Y2700
Y10200
X1324Y10171
X2670Y13050
X2597Y13802
X3100Y14600
X1900Y14500
X334Y14178
X200Y15000
Y15600
Y16200
X500Y17700
X1100Y17800
X500Y20700
Y22200
Y25200
X6500
X8000
Y26700
X8700Y26000
X9700Y25500
X11400Y24000
X12200Y22800
X14000Y22200
X15500
X17000
Y23700
X15500
X14000
Y20700
X15500
X11500Y18800
X12200Y17700
X8500
X5800Y18700
X6500Y22200
X8000
Y23700
X8600Y28100
X12200Y28000
X11400Y29200
X10600Y32900
X9700
X7900Y32912
X7000Y32949
X6500Y34200
X3500
X500
X2000Y31200
X6400Y31200
X5200Y27693
X9800Y20300
Y15100
X7000Y14200
X6300Y14400
X5500
X4600Y15200
X5700Y12800
X6400Y13400
X7001Y12699
X7000Y11700
X7150Y10850
X5200Y11100
X5100Y7200
X8400Y12300
X15000Y12700
X14400Y10900
X16900Y11700
X17000Y10200
Y8700
Y7200
Y5700
Y4200
Y1200
X14000Y2700
Y4200
X12400Y3600
X12500Y2700
X17600Y14500
X14200Y33400
X13900Y34300
X12500Y34200
X19400Y33800
X19600Y35600
X22800Y36092
X25000Y35700
Y35000
X25800
Y35700
X20900Y29000
Y26500
X18500Y23700
X20000Y20700
X20000Y17600
Y15100
X19100Y14300
X20000Y13200
Y11700
Y10200
Y8700
X21500
X23000
Y7200
X20000
X18500
Y8700
X18500Y9900
X18500Y5700
Y4200
Y2700
X20000
Y1200
X21500
X23000
Y2700
X18500Y1200
X19700Y36400
Y37000
X20800Y37600
X22100Y37400
X22800Y38700
X23500Y38500
X24400Y38700
X25200Y38500
X25400Y40200
X24700
X24800Y41400
X23700Y41300
X23000Y40500
X22400Y40000
X21800Y40100
X18400Y39200
X18500Y43200
Y44700
X24500Y43200
X26000
Y41700
X24000Y37700
X17800Y37600
X17200Y39200
X15500Y40100
X13900Y40000
X11988Y40112
X11200Y40100
X9966Y40134
X9288Y40112
X8000Y39800
X7100Y40000
X6500Y37200
X8000
X9500
X11000
X14500Y36400
X15500Y43200
X17000
Y44700
X15500
X13800Y45400
X4900Y44800
X3500Y44700
Y43200
Y41700
Y40200
Y38700
X2000
Y40200
Y41700
Y43200
Y44700
X500
Y43200
Y41700
Y40200
Y38700
T02
X2500Y7500
X21500Y5000
Y43900
X2500Y36400
M30
